<?xml version="1.0" encoding="utf-8"?>
<!-- Generator: Adobe Illustrator 19.0.0, SVG Export Plug-In . SVG Version: 6.00 Build 0)  -->
<svg version="1.1" id="Слой_1" xmlns="http://www.w3.org/2000/svg" xmlns:xlink="http://www.w3.org/1999/xlink" x="0px" y="0px"
	 viewBox="0 0 252.7 193.4" style="enable-background:new 0 0 252.7 193.4;" xml:space="preserve">
<style type="text/css">
	.st0{fill:#A49FA2;}
	.st1{opacity:0.17;fill:#F0EFF0;}
	.st2{fill:url(#XMLID_15_);}
	.st3{fill:url(#XMLID_16_);}
	.st4{fill:#F0EFF0;}
	.st5{fill:#CBC9CB;}
	.st6{fill:#FFFFFF;}
	.st7{fill:#3162A3;}
	.st8{opacity:0.1;fill:#559AFF;}
</style>
<g id="XMLID_50_">
	<path id="XMLID_118_" class="st0" d="M248.7,150.7H4c-2.2,0-4-1.8-4-4V4c0-2.2,1.8-4,4-4h244.7c2.2,0,4,1.8,4,4v142.7
		C252.7,148.9,250.9,150.7,248.7,150.7z"/>
	<path id="XMLID_117_" class="st1" d="M188.8,0H4C1.8,0,0,1.8,0,4v142.7c0,2.2,1.8,4,4,4h60.7C106,100.4,147.4,50.2,188.8,0z"/>
	<linearGradient id="XMLID_15_" gradientUnits="userSpaceOnUse" x1="8.5565" y1="75.2384" x2="243.9207" y2="75.2384">
		<stop  offset="8.940361e-04" style="stop-color:#1A2261"/>
		<stop  offset="1" style="stop-color:#4C6CB3"/>
	</linearGradient>
	<path id="XMLID_116_" class="st2" d="M239.9,141.8H12.6c-2.2,0-4-1.8-4-4V12.6c0-2.2,1.8-4,4-4h227.4c2.2,0,4,1.8,4,4v125.2
		C243.9,140,242.1,141.8,239.9,141.8z"/>
	<linearGradient id="XMLID_16_" gradientUnits="userSpaceOnUse" x1="127.0717" y1="185.35" x2="127.0717" y2="150.6625">
		<stop  offset="0" style="stop-color:#FFFFFF"/>
		<stop  offset="1" style="stop-color:#313131"/>
	</linearGradient>
	<path id="XMLID_114_" class="st3" d="M172.3,185.4c0,0-12.6-6.2-13.9-7.9c-1-1.4-1.3-2.8-1.5-3.7c-0.9-9.4-2.1-23.1-2.1-23.1H99.4
		c0,0-1.3,13.7-2.2,23.1c-0.1,0.9-0.5,2.3-1.5,3.7c-1.2,1.7-13.9,7.9-13.9,7.9H172.3z"/>
	<path id="XMLID_113_" class="st0" d="M171.5,193.4H82.6c-1,0-1.8-0.8-1.8-1.8v-4.7c0-1,0.8-1.8,1.8-1.8h88.9c1,0,1.8,0.8,1.8,1.8
		v4.7C173.3,192.6,172.5,193.4,171.5,193.4z"/>
	<path id="XMLID_112_" class="st4" d="M230,130.7H22.9c-2.2,0-4-1.8-4-4V23.8c0-2.2,1.8-4,4-4H230c2.2,0,4,1.8,4,4v102.9
		C234,128.9,232.2,130.7,230,130.7z"/>
	<g id="XMLID_92_">
		<path id="XMLID_111_" class="st5" d="M84.7,114.4h-39c-2.2,0-4-1.8-4-4v-71c0-2.2,1.8-4,4-4h39c2.2,0,4,1.8,4,4v71
			C88.7,112.6,86.9,114.4,84.7,114.4z"/>
		<path id="XMLID_110_" class="st6" d="M79.5,68.2H50.6c-1.8,0-3.2-1.5-3.2-3.2V44.6c0-1.8,1.5-3.2,3.2-3.2h28.9
			c1.8,0,3.2,1.5,3.2,3.2V65C82.8,66.8,81.3,68.2,79.5,68.2z"/>
		<rect id="XMLID_109_" x="47.3" y="72.7" class="st6" width="35.5" height="2.3"/>
		<rect id="XMLID_108_" x="47.3" y="77.7" class="st6" width="35.5" height="2.3"/>
		<rect id="XMLID_107_" x="47.3" y="82.7" class="st6" width="35.5" height="2.3"/>
		<path id="XMLID_106_" class="st6" d="M81.1,109.1H59.7c-0.9,0-1.6-0.7-1.6-1.6V94.8c0-0.9,0.7-1.6,1.6-1.6h21.4
			c0.9,0,1.6,0.7,1.6,1.6v12.7C82.8,108.3,82,109.1,81.1,109.1z"/>
		<g id="XMLID_93_">
			<path id="XMLID_105_" class="st7" d="M67.8,104.8h-0.5c-0.3,0-0.6-0.3-0.7-0.6l-2.1-6.9c-0.2-0.1-0.9-0.2-2.6-0.3v0.5h-0.5v-0.7
				c0-0.1,0.1-0.2,0.2-0.2c3.1,0,3.3,0.4,3.3,0.6l2.1,6.9c0,0,0,0,0,0.1c0,0.1,0.1,0.2,0.2,0.2h0.5V104.8z"/>
			<rect id="XMLID_104_" x="70.2" y="104.4" class="st7" width="1.7" height="0.5"/>
			<path id="XMLID_103_" class="st7" d="M74.7,104.8h-0.5v-0.5h0.5c0.1,0,0.2-0.1,0.2-0.2c0,0,0,0,0,0l1.1-6.2
				c0-0.1-0.1-0.2-0.2-0.2H65v-0.5h10.8c0.4,0,0.7,0.3,0.7,0.7c0,0,0,0,0,0l-1.1,6.2C75.3,104.6,75,104.8,74.7,104.8z"/>
			<path id="XMLID_100_" class="st7" d="M69,106.5c-0.8,0-1.4-0.6-1.4-1.4c0-0.8,0.6-1.4,1.4-1.4s1.4,0.6,1.4,1.4
				C70.4,105.9,69.8,106.5,69,106.5z M69,104.2c-0.5,0-0.9,0.4-0.9,0.9c0,0.5,0.4,0.9,0.9,0.9s0.9-0.4,0.9-0.9
				C70,104.6,69.5,104.2,69,104.2z"/>
			<path id="XMLID_97_" class="st7" d="M73,106.5c-0.8,0-1.4-0.6-1.4-1.4c0-0.8,0.6-1.4,1.4-1.4c0.8,0,1.4,0.6,1.4,1.4
				C74.5,105.9,73.8,106.5,73,106.5z M73,104.2c-0.5,0-0.9,0.4-0.9,0.9c0,0.5,0.4,0.9,0.9,0.9c0.5,0,0.9-0.4,0.9-0.9
				C74,104.6,73.6,104.2,73,104.2z"/>
			<rect id="XMLID_96_" x="67.6" y="99.4" class="st7" width="6.6" height="0.5"/>
			<rect id="XMLID_95_" x="67.9" y="100.6" class="st7" width="6.2" height="0.5"/>
			<rect id="XMLID_94_" x="68.4" y="101.8" class="st7" width="5.4" height="0.5"/>
		</g>
	</g>
	<g id="XMLID_72_">
		<path id="XMLID_91_" class="st5" d="M145.7,114.7h-39c-2.2,0-4-1.8-4-4v-71c0-2.2,1.8-4,4-4h39c2.2,0,4,1.8,4,4v71
			C149.7,112.9,147.9,114.7,145.7,114.7z"/>
		<path id="XMLID_90_" class="st6" d="M140.5,68.5h-28.9c-1.8,0-3.2-1.5-3.2-3.2V44.8c0-1.8,1.5-3.2,3.2-3.2h28.9
			c1.8,0,3.2,1.5,3.2,3.2v20.4C143.8,67,142.3,68.5,140.5,68.5z"/>
		<rect id="XMLID_89_" x="108.3" y="72.9" class="st6" width="35.5" height="2.3"/>
		<rect id="XMLID_88_" x="108.3" y="77.9" class="st6" width="35.5" height="2.3"/>
		<rect id="XMLID_87_" x="108.3" y="82.9" class="st6" width="35.5" height="2.3"/>
		<path id="XMLID_86_" class="st6" d="M142.1,109.3h-21.4c-0.9,0-1.6-0.7-1.6-1.6V95c0-0.9,0.7-1.6,1.6-1.6h21.4
			c0.9,0,1.6,0.7,1.6,1.6v12.7C143.8,108.6,143,109.3,142.1,109.3z"/>
		<g id="XMLID_73_">
			<path id="XMLID_85_" class="st7" d="M128.8,105.1h-0.5c-0.3,0-0.6-0.3-0.7-0.6l-2.1-6.9c-0.2-0.1-0.9-0.2-2.6-0.3v0.5h-0.5v-0.7
				c0-0.1,0.1-0.2,0.2-0.2c3.1,0,3.3,0.4,3.3,0.6l2.1,6.9c0,0,0,0,0,0.1c0,0.1,0.1,0.2,0.2,0.2h0.5V105.1z"/>
			<rect id="XMLID_84_" x="131.2" y="104.6" class="st7" width="1.7" height="0.5"/>
			<path id="XMLID_83_" class="st7" d="M135.7,105.1h-0.5v-0.5h0.5c0.1,0,0.2-0.1,0.2-0.2c0,0,0,0,0,0l1.1-6.2
				c0-0.1-0.1-0.2-0.2-0.2H126v-0.5h10.8c0.4,0,0.7,0.3,0.7,0.7c0,0,0,0,0,0l-1.1,6.2C136.3,104.8,136,105.1,135.7,105.1z"/>
			<path id="XMLID_80_" class="st7" d="M130,106.8c-0.8,0-1.4-0.6-1.4-1.4c0-0.8,0.6-1.4,1.4-1.4s1.4,0.6,1.4,1.4
				C131.4,106.1,130.8,106.8,130,106.8z M130,104.4c-0.5,0-0.9,0.4-0.9,0.9c0,0.5,0.4,0.9,0.9,0.9s0.9-0.4,0.9-0.9
				C131,104.8,130.5,104.4,130,104.4z"/>
			<path id="XMLID_77_" class="st7" d="M134,106.8c-0.8,0-1.4-0.6-1.4-1.4c0-0.8,0.6-1.4,1.4-1.4c0.8,0,1.4,0.6,1.4,1.4
				C135.5,106.1,134.8,106.8,134,106.8z M134,104.4c-0.5,0-0.9,0.4-0.9,0.9c0,0.5,0.4,0.9,0.9,0.9c0.5,0,0.9-0.4,0.9-0.9
				C135,104.8,134.6,104.4,134,104.4z"/>
			<rect id="XMLID_76_" x="128.6" y="99.7" class="st7" width="6.6" height="0.5"/>
			<rect id="XMLID_75_" x="128.9" y="100.9" class="st7" width="6.2" height="0.5"/>
			<rect id="XMLID_74_" x="129.4" y="102" class="st7" width="5.4" height="0.5"/>
		</g>
	</g>
	<g id="XMLID_52_">
		<path id="XMLID_71_" class="st5" d="M207.7,114.4h-39c-2.2,0-4-1.8-4-4v-71c0-2.2,1.8-4,4-4h39c2.2,0,4,1.8,4,4v71
			C211.7,112.6,209.9,114.4,207.7,114.4z"/>
		<path id="XMLID_70_" class="st6" d="M202.5,68.2h-28.9c-1.8,0-3.2-1.5-3.2-3.2V44.6c0-1.8,1.5-3.2,3.2-3.2h28.9
			c1.8,0,3.2,1.5,3.2,3.2V65C205.8,66.8,204.3,68.2,202.5,68.2z"/>
		<rect id="XMLID_69_" x="170.3" y="72.7" class="st6" width="35.5" height="2.3"/>
		<rect id="XMLID_68_" x="170.3" y="77.7" class="st6" width="35.5" height="2.3"/>
		<rect id="XMLID_67_" x="170.3" y="82.7" class="st6" width="35.5" height="2.3"/>
		<path id="XMLID_66_" class="st6" d="M204.1,109.1h-21.4c-0.9,0-1.6-0.7-1.6-1.6V94.8c0-0.9,0.7-1.6,1.6-1.6h21.4
			c0.9,0,1.6,0.7,1.6,1.6v12.7C205.8,108.3,205,109.1,204.1,109.1z"/>
		<g id="XMLID_53_">
			<path id="XMLID_65_" class="st7" d="M190.8,104.8h-0.5c-0.3,0-0.6-0.3-0.7-0.6l-2.1-6.9c-0.2-0.1-0.9-0.2-2.6-0.3v0.5h-0.5v-0.7
				c0-0.1,0.1-0.2,0.2-0.2c3.1,0,3.3,0.4,3.3,0.6l2.1,6.9c0,0,0,0,0,0.1c0,0.1,0.1,0.2,0.2,0.2h0.5V104.8z"/>
			<rect id="XMLID_64_" x="193.2" y="104.4" class="st7" width="1.7" height="0.5"/>
			<path id="XMLID_63_" class="st7" d="M197.7,104.8h-0.5v-0.5h0.5c0.1,0,0.2-0.1,0.2-0.2c0,0,0,0,0,0l1.1-6.2
				c0-0.1-0.1-0.2-0.2-0.2H188v-0.5h10.8c0.4,0,0.7,0.3,0.7,0.7c0,0,0,0,0,0l-1.1,6.2C198.3,104.6,198,104.8,197.7,104.8z"/>
			<path id="XMLID_60_" class="st7" d="M192,106.5c-0.8,0-1.4-0.6-1.4-1.4c0-0.8,0.6-1.4,1.4-1.4s1.4,0.6,1.4,1.4
				C193.4,105.9,192.8,106.5,192,106.5z M192,104.2c-0.5,0-0.9,0.4-0.9,0.9c0,0.5,0.4,0.9,0.9,0.9s0.9-0.4,0.9-0.9
				C193,104.6,192.5,104.2,192,104.2z"/>
			<path id="XMLID_57_" class="st7" d="M196,106.5c-0.8,0-1.4-0.6-1.4-1.4c0-0.8,0.6-1.4,1.4-1.4c0.8,0,1.4,0.6,1.4,1.4
				C197.5,105.9,196.8,106.5,196,106.5z M196,104.2c-0.5,0-0.9,0.4-0.9,0.9c0,0.5,0.4,0.9,0.9,0.9c0.5,0,0.9-0.4,0.9-0.9
				C197,104.6,196.6,104.2,196,104.2z"/>
			<rect id="XMLID_56_" x="190.6" y="99.4" class="st7" width="6.6" height="0.5"/>
			<rect id="XMLID_55_" x="190.9" y="100.6" class="st7" width="6.2" height="0.5"/>
			<rect id="XMLID_54_" x="191.4" y="101.8" class="st7" width="5.4" height="0.5"/>
		</g>
	</g>
	<path id="XMLID_51_" class="st8" d="M71.9,141.8C108.5,97.4,145.1,53,181.7,8.6H12.6c-2.2,0-4,1.8-4,4v125.2c0,2.2,1.8,4,4,4H71.9z
		"/>
</g>
</svg>
