<?xml version="1.0" encoding="utf-8"?>
<!-- Generator: Adobe Illustrator 19.0.0, SVG Export Plug-In . SVG Version: 6.00 Build 0)  -->
<svg version="1.1" id="Слой_1" xmlns="http://www.w3.org/2000/svg" xmlns:xlink="http://www.w3.org/1999/xlink" x="0px" y="0px"
	 viewBox="0 0 152.7 193.6" style="enable-background:new 0 0 152.7 193.6;" xml:space="preserve">
<style type="text/css">
	.st0{fill:#333333;}
	.st1{fill:#F0EFF0;}
	.st2{fill:#FFFFFF;}
	.st3{fill:#CBC9CB;}
	.st4{fill:url(#XMLID_15_);}
	.st5{fill:#A49FA2;}
	.st6{fill:#888787;}
	.st7{fill:url(#XMLID_16_);}
	.st8{fill:url(#XMLID_17_);}
	.st9{fill:#FF0000;}
</style>
<g id="XMLID_119_">
	<ellipse id="XMLID_221_" class="st0" cx="78" cy="179.1" rx="69.2" ry="14.5"/>
	<path id="XMLID_220_" class="st0" d="M0.2,127.8C0,130.3,0,135.3,0,135.3s0.8,2.4,1.8,4.1c1.2,2.2,3,5.4,5.6,9
		c2.7,3.9,2.9,3.3,5.4,6.9c2.6,3.9,3.6,6.4,3.9,7.1c0.9,2.4,1.4,4.6,1.6,6.1c0.4,0.8,1,2,1.9,3.3c3,4.5,6.6,7,8.5,8.3
		c4.6,3.1,8.7,4.4,11,5c1.6,0.5,8.2,2.3,17,1.5c4.5-0.4,8-1.5,11.2-2.4c3.7-1.1,6.8-2.3,9-3.3c2.7,1.2,6.2,2.6,10.5,3.8
		c2.9,0.8,5.6,1.6,9.3,1.9c5.1,0.5,9.1-0.1,11.5-0.5c2.9-0.5,6.7-1.1,11.3-3.1c1.5-0.7,4.3-1.9,7.3-4.3c2.2-1.7,5.5-4.7,8.4-9.7
		c0.2-1.2,0.5-2.5,0.9-3.9c1.2-3.8,2.8-6.4,4.5-9c5-7.6,6.7-8.7,9.5-13.7c1.7-3,2.5-5.5,2.5-5.5l-0.1-8.1c0,0-9.9,7.7-17.7,12.2
		c-9.4,5.4-54.1,31-98.7,13.2C28,150.9,13.9,143.8,0.2,127.8z"/>
	<path id="XMLID_219_" class="st1" d="M132.5,117.3c-2.8-1.5-15.2-7.8-30.7-12.8c-4.7-1.5-9.3-2.8-15.2-3.6c-4-0.5-15.9-0.6-20-0.1
		c-5.9,0.8-10.5,2.1-15.2,3.6c-15.5,5-27.9,11.3-30.7,12.8c-5.2,2.7-12.1,6.5-19.9,11.6c0.3,1.1,0.8,2.6,1.6,4.4
		c1.2,2.9,3,6.3,8,13.1c4.5,6.1,4.7,5.6,6.5,8.5c2.8,4.6,4,8.9,4.6,11.7c0.6,1.1,1.5,2.6,2.7,4.2c7.5,9.4,19.2,11.2,23.3,11.9
		c14,2.1,29.2-5.9,29.2-5.9s15.2,8.1,29.3,6c4.1-0.6,15.8-2.4,23.3-11.9c1.3-1.6,2.2-3.1,2.7-4.2c0.6-2.9,1.8-7.2,4.6-11.7
		c1.8-2.9,2-2.4,6.5-8.5c5-6.8,6.8-10.2,8-13.1c0.8-1.8,1.3-3.4,1.6-4.4C144.6,123.8,137.7,120,132.5,117.3z"/>
	<path id="XMLID_218_" class="st2" d="M40.9,117.4c-5,1.2-10.6,2.8-16.5,5c-9,3.4-16.2,7-22.2,10.8c0.6,1.4,1.5,3.2,2.4,4.9
		c3.7-1.3,7-2.6,11.1-3.8c2-0.6,11.4-3.1,24.5-4.8c4.9-0.6,11-1.2,18.2-1.4c-3.1-1.5-6.5-3.4-10.1-5.6
		C45.6,120.9,43.1,119.1,40.9,117.4z"/>
	<path id="XMLID_217_" class="st1" d="M98.2,103.2c3.9,1.1,7.9,2.3,12,3.8c17.1,6,42.3,21.6,42.3,21.6s-0.9,2.8-2.1,5.6
		c-2.3-1.4-4.4-2.6-7-4c-12.4-6.4-24.5-10-35-12c-4.6-3.3-9.1-6.5-13.7-9.8C95.9,106.7,97,104.9,98.2,103.2z"/>
	<path id="XMLID_216_" class="st2" d="M111.7,118.3c5,1.2,10.6,2.8,16.5,5c9,3.4,16.2,7,22.2,10.8c-0.6,1.4-1.5,3.2-2.4,4.9
		c-3.7-1.3-7-2.6-11.1-3.8c-2-0.6-35.7-7.3-42.9-7.5c3.1-1.5,6.8-2,10.3-4.2C107,121.8,109.5,120,111.7,118.3z"/>
	<path id="XMLID_215_" class="st1" d="M54.5,102.3c-3.9,1.1-7.9,2.3-12,3.8c-17.1,6-42.3,21.6-42.3,21.6s0.9,2.8,2.1,5.6
		c2.3-1.4,4.4-2.6,7-4c12.4-6.4,24.5-10,35-12c4.6-3.3,9.1-6.5,13.7-9.8C56.7,105.8,55.6,104.1,54.5,102.3z"/>
	<ellipse id="XMLID_214_" class="st3" cx="76.7" cy="47.8" rx="35.4" ry="47.6"/>
	<path id="XMLID_213_" class="st2" d="M97.1,127.6c0,0-4.1,0.8-6.8,1.3c-9.3,1.6-17.5,1.7-26.4,0.1c-2.8-0.5-4.4-0.5-6.5-1.2
		c10.6,8.9,19.8,31.1,19.8,31.1C81.4,148.5,88.4,138,97.1,127.6z"/>
	<path id="XMLID_212_" class="st2" d="M85.6,64.3c-0.6-0.7-1.4-1.4-2.5-2.1c-2.6-1.6-10.6-1.5-13.2,0.1c-1.1,0.7-1.9,1.4-2.5,2.1
		c-2.4-0.2-6-0.7-9.9-2.5c0,0-0.1,0-0.1,0c0.4,3.2,1,6.5,1.7,10c1.6,7.8,3.7,14.7,6,20.7c1.2,0.6,2.5,1.2,4.1,1.6
		c6.2,1.7,9.1,1.6,14.9,0.1c1.6-0.5,3-1.1,4.1-1.6c2.3-6,4.4-12.9,6-20.7c0.7-3.5,1.3-7.2,1.7-10.4C91.7,63.5,88,64.1,85.6,64.3z"/>
	<linearGradient id="XMLID_15_" gradientUnits="userSpaceOnUse" x1="76.6462" y1="66.3818" x2="76.4981" y2="7.2282">
		<stop  offset="8.940361e-04" style="stop-color:#1A2261"/>
		<stop  offset="1" style="stop-color:#4C6CB3"/>
	</linearGradient>
	<path id="XMLID_211_" class="st4" d="M105,31.3c-1-7.1-2.3-12.9-4.1-18.1C87.5-4.1,66.6-4.7,52.3,13.4c-1.7,5.1-3,10.8-4.1,17.9
		c-1.3,9-1.3,17-0.8,23.3c1.5,1.6,3.5,3.4,6.1,5c5.5,3.5,10.9,4.4,14.1,4.6c0.6-0.7,1.4-1.4,2.5-2.1c2.6-1.6,10.6-1.7,13.2-0.1
		c1.1,0.7,1.9,1.4,2.5,2.1c3.1-0.3,8.5-1.2,14.1-4.6c2.6-1.6,4.6-3.5,6.1-5C106.3,48.2,106.3,40.3,105,31.3z"/>
	<path id="XMLID_210_" class="st3" d="M80.5,77c-1.3,0.1-6.5,0.1-7.8,0c-3.1-0.3-5.8-0.5-8.2-1c0.2,1.4,0.4,2.9,0.8,4.5
		c0.3,1.3,0.6,2.5,1,3.6c1.3,0.4,2.9,0.8,4.7,1c3.3,0.4,8,0.5,11.1,0c1.8-0.2,3.4-0.6,4.7-1c0.4-1.1,0.7-2.3,1-3.6
		c0.4-1.6,0.6-3.1,0.8-4.5C86.3,76.6,83.5,76.7,80.5,77z"/>
	<path id="XMLID_209_" class="st2" d="M77,81.7c-0.2,0-0.3,0-0.5,0c-3.9,0-7.8-0.5-11.7-1.3l0.2-0.8c3.8,0.8,7.6,1.2,11.5,1.3
		c3.8,0,7.6-0.3,11.4-1.1l0.2,0.8C84.5,81.3,80.8,81.7,77,81.7z"/>
	<ellipse id="XMLID_208_" class="st3" cx="76.6" cy="116.4" rx="36.8" ry="13.5"/>
	<path id="XMLID_207_" class="st5" d="M90.3,91.6c-3.7,2-7.1,2.8-8.9,3.1c-1.9,0.4-3.5,0.5-4.7,0.5c-1.2,0-2.9-0.2-4.7-0.5
		c-1.8-0.3-5.2-1.2-8.9-3.1c-5.3-2.8-8.5-6.6-10.3-9c0.4,2.7,0.7,5.6,0.9,8.6c0.3,4.6,0.4,15.2,0.6,16.9c1,7.9,4.1,13.6,5.5,15.9
		c0.7,1.2,3.4,4.8,3.4,4.8c9,1.7,18,1.7,27.1,0c1.5-1.9,2.6-3.6,3.4-4.8c1.4-2.4,4.5-8,5.5-15.9c0.2-1.7,0.3-12.3,0.6-16.9
		c0.2-3,0.6-5.9,0.9-8.6C98.9,85,95.6,88.8,90.3,91.6z"/>
	<path id="XMLID_206_" class="st6" d="M76.7,102c10.6-0.1,21.3-11.3,23.2-13.7c0.2-2.8,0.4-3.3,0.7-5.7c-1.7,2.4-5,6.2-10.3,9
		c-3.7,2-7.1,2.8-8.9,3.1c-1.9,0.4-3.5,0.5-4.7,0.5c-1.2,0-2.9-0.2-4.7-0.5c-1.8-0.3-5.2-1.2-8.9-3.1c-5.3-2.8-8.5-6.6-10.3-9
		c0.4,2.5,0.5,3.1,0.7,5.9C55.4,90.8,66.1,101.6,76.7,102z"/>
	<linearGradient id="XMLID_16_" gradientUnits="userSpaceOnUse" x1="76.7532" y1="53.8211" x2="76.6737" y2="103.3164">
		<stop  offset="0" style="stop-color:#000036"/>
		<stop  offset="1" style="stop-color:#00BAED"/>
	</linearGradient>
	<path id="XMLID_205_" class="st7" d="M101.1,41.4c-4.1,0.9-8.6,1.7-13.6,2.3c-3.9,0.4-7.3,0.7-10.7,0.7c-3.4-0.1-6.8-0.3-10.7-0.7
		c-5-0.6-9.6-1.4-13.6-2.3c-0.2,0.7-1.4,5.7,1.7,9.8c2.2,2.8,5.2,3.7,6.4,4c0.5,0.1,3.7,1,7.3-0.1c1.5-0.5,1.9-0.9,4.6-1.9
		c1.6-0.6,3.8-1.2,4.3-1.3c0.5,0.1,2.7,0.7,4.3,1.3c2.7,1,3.1,1.4,4.6,1.9c3.6,1.1,6.8,0.3,7.3,0.1c1.2-0.3,4.2-1.1,6.4-4
		C102.5,47.1,101.3,42.2,101.1,41.4z"/>
	<path id="XMLID_204_" class="st2" d="M18,138.4c2.5-0.9,14.9-4,24.7-2.8c15.4,1.7,27.8,14.8,26.9,34.7
		C43.2,177.2,35,148.9,18,138.4z"/>
	<linearGradient id="XMLID_17_" gradientUnits="userSpaceOnUse" x1="75.8547" y1="51.3082" x2="75.78" y2="21.7244">
		<stop  offset="8.940361e-04" style="stop-color:#1A2261"/>
		<stop  offset="0.7533" style="stop-color:#4C6CB3"/>
	</linearGradient>
	<ellipse id="XMLID_203_" class="st8" cx="75.8" cy="21.1" rx="14.8" ry="15.7"/>
	<path id="XMLID_202_" class="st2" d="M134.7,138.6c-2.5-0.9-14.9-4-24.7-2.8c-15.4,1.7-27.8,14.8-26.9,34.7
		C109.6,177.4,117.7,149.1,134.7,138.6z"/>
	<path id="XMLID_201_" class="st5" d="M4.6,138.2c5.3,2.3,14.4,10.6,21,18.5c4.6,5.5,6.9,8.3,9.8,10.7c2.7,2.3,8.1,6.8,16.2,9.2
		c10.5,3.2,20.5,1.5,24.9,0.2c-3.8,2.9-17,6.9-25.2,6.3c-7.3-0.5-12.9-2.2-15.7-3.5c-4.5-2.1-10.9-5.9-14.4-12.9
		C19.3,156.2,11.1,149.3,4.6,138.2z"/>
	<path id="XMLID_200_" class="st5" d="M148,139c-5.3,2.3-13.9,9.8-20.5,17.7c-4.6,5.5-6.9,8.3-9.8,10.7c-2.7,2.3-8.1,6.8-16.2,9.2
		c-10.5,3.2-20.6,1.4-25.1,0.1c3.8,2.9,17.1,6.9,25.3,6.4c7.3-0.5,13.3-2.4,16-3.7c4.5-2.1,10.5-5.8,14-12.7
		C133.7,156.2,140.4,151.4,148,139z"/>
	<path id="XMLID_199_" class="st3" d="M67.1,132.5c3,0.9,17.8,0.9,21.1-0.2c-3.4,4.1-11,18.2-11,18.2S70,135.8,67.1,132.5z"/>
	<path id="XMLID_198_" class="st9" d="M72,135.4c1.6,0.5,9.3,0.5,11.1-0.1c-1.8,2.1-5.7,9.5-5.7,9.5S73.5,137.1,72,135.4z"/>
	<path id="XMLID_197_" class="st2" d="M105.8,31.1c-1-6.6-1.9-11-3.6-16.2c-0.8-1.2-1.7-2.3-2.9-3.6c1.7,5.2,3.8,13.3,4.8,20v0
		c1.1,7.5,1.4,15.2,0.9,22.8c-1.7,1.8-3.6,3.4-5.7,4.7c-3.9,2.5-8.5,4-13.3,4.5c-0.7-0.7-1.5-1.4-2.4-1.9
		c-2.8-1.8-11.2-1.7-14.1,0.1c-0.9,0.5-1.7,1.2-2.4,1.9c-4.8-0.5-9.4-2-13.3-4.5c-2.1-1.3-4-2.9-5.7-4.7C47.6,46.7,47.9,39,49,31.5
		c1-6.8,2.8-14.4,4.5-19.6c-1,1.2-1.9,2.4-2.7,3.5c-1.3,5-2.5,9.6-3.5,15.8c-1.1,7.7-1.4,15.6-0.8,23.5l0,0.3l0.2,0.2
		c1.9,2,4,3.7,6.3,5.2c4.3,2.7,9.3,4.3,14.4,4.7l0.4,0l0.3-0.3c0.7-0.8,1.5-1.4,2.3-2c2.3-1.5,10-1.5,12.3-0.1
		c0.9,0.5,1.6,1.2,2.3,2l0.3,0.3l0.4,0c5.2-0.4,10.2-2.1,14.4-4.7c2.3-1.4,4.4-3.2,6.3-5.2l0.2-0.2l0-0.3
		C107.3,46.8,107,38.9,105.8,31.1L105.8,31.1z"/>
</g>
</svg>
