<?xml version="1.0" encoding="utf-8"?>
<!-- Generator: Adobe Illustrator 19.0.0, SVG Export Plug-In . SVG Version: 6.00 Build 0)  -->
<svg version="1.1" id="Слой_1" xmlns="http://www.w3.org/2000/svg" xmlns:xlink="http://www.w3.org/1999/xlink" x="0px" y="0px"
	 viewBox="0 0 252.7 193.4" style="enable-background:new 0 0 252.7 193.4;" xml:space="preserve">
<style type="text/css">
	.st0{fill:#A49FA2;}
	.st1{opacity:0.17;fill:#F0EFF0;}
	.st2{fill:url(#XMLID_16_);}
	.st3{fill:url(#XMLID_17_);}
	.st4{fill:#FF0000;}
	.st5{opacity:0.1;fill:#559AFF;}
</style>
<g id="XMLID_1_">
	<path id="XMLID_172_" class="st0" d="M248.7,150.7H4c-2.2,0-4-1.8-4-4V4c0-2.2,1.8-4,4-4h244.7c2.2,0,4,1.8,4,4v142.7
		C252.7,148.9,250.9,150.7,248.7,150.7z"/>
	<path id="XMLID_171_" class="st1" d="M188.8,0H4C1.8,0,0,1.8,0,4v142.7c0,2.2,1.8,4,4,4h60.7C106,100.4,147.4,50.2,188.8,0z"/>
	<linearGradient id="XMLID_16_" gradientUnits="userSpaceOnUse" x1="8.5564" y1="75.2385" x2="243.9207" y2="75.2385">
		<stop  offset="8.940361e-04" style="stop-color:#1A2261"/>
		<stop  offset="1" style="stop-color:#4C6CB3"/>
	</linearGradient>
	<path id="XMLID_170_" class="st2" d="M239.9,141.8H12.6c-2.2,0-4-1.8-4-4V12.6c0-2.2,1.8-4,4-4h227.4c2.2,0,4,1.8,4,4v125.2
		C243.9,140,242.1,141.8,239.9,141.8z"/>
	<linearGradient id="XMLID_17_" gradientUnits="userSpaceOnUse" x1="127.0717" y1="185.3501" x2="127.0717" y2="150.6626">
		<stop  offset="0" style="stop-color:#FFFFFF"/>
		<stop  offset="1" style="stop-color:#313131"/>
	</linearGradient>
	<path id="XMLID_168_" class="st3" d="M172.3,185.4c0,0-12.6-6.2-13.9-7.9c-1-1.4-1.3-2.8-1.5-3.7c-0.9-9.4-2.1-23.1-2.1-23.1H99.4
		c0,0-1.3,13.7-2.2,23.1c-0.1,0.9-0.5,2.3-1.5,3.7c-1.2,1.7-13.9,7.9-13.9,7.9H172.3z"/>
	<path id="XMLID_167_" class="st0" d="M171.5,193.4H82.6c-1,0-1.8-0.8-1.8-1.8v-4.7c0-1,0.8-1.8,1.8-1.8h88.9c1,0,1.8,0.8,1.8,1.8
		v4.7C173.3,192.6,172.5,193.4,171.5,193.4z"/>
	<g id="XMLID_122_">
		<path id="XMLID_164_" class="st4" d="M140.5,66c-2.8,0.4-5.1,1.6-6.8,3.8c-1.2,1.6-1.9,3.5-1.8,5.6c0,3.9,2.9,8.5,8.7,9.2
			c0,0.3,0,0.5,0,0.8c-8.9,0-17.7,0-26.6,0c0-0.3,0-0.5,0-0.9c3-0.4,5.5-1.8,7.2-4.4c1-1.6,1.5-3.4,1.4-5.3c-0.1-2.3-1-4.3-2.6-6
			c-1.6-1.7-3.6-2.6-6-2.8c0.2-0.9,0.4-1.7,0.6-2.5c1.2-6.6,0.9-13-1.3-19.4c-0.8-2.3-1.9-4.4-3.5-6.2c-0.9-1.1-2.1-2-3.4-2.6
			c-0.1,0-0.1-0.1-0.3-0.2c0.3-0.2,0.5-0.5,0.7-0.7c1-0.8,2.2-1.4,3.4-1.9c2.6-1,5.3-1.6,8-2c4.6-0.7,9.2-0.8,13.8-0.5
			c3.9,0.3,7.7,0.9,11.4,2.2c1.4,0.5,2.7,1.1,3.8,2c0.3,0.3,0.7,0.6,1,0.9c-0.3,0.2-0.5,0.3-0.7,0.4c-1.7,0.8-2.9,2.1-4,3.7
			c-1.6,2.3-2.7,5-3.4,7.7c-1.6,6.3-1.5,12.6,0.1,18.9C140.4,65.9,140.4,65.9,140.5,66z M107.8,35c1.8,1.3,3.3,2.9,4.4,4.7
			c0.9,1.5,1.7,3.2,2.2,4.9c1.9,6.1,2.1,12.2,1.2,18.5c-0.1,0.7-0.3,1.5-0.4,2.2c4.5,1.3,7.6,4,8.2,8.7c0.6,4.8-1.4,8.3-5.6,10.6
			c0.9,0.2,18.3,0.1,18.6,0c-5.5-3.4-5.9-7.1-5.5-10.6c0.6-4.8,3.7-7.5,8.2-8.8c0-0.1,0-0.1,0-0.1c-0.9-4-1.1-8-0.8-12.1
			c0.2-3.4,0.9-6.7,2.1-9.8c1-2.6,2.4-5,4.5-6.9c0.5-0.4,1-0.8,1.5-1.3c-0.2-0.1-0.4-0.3-0.6-0.4c-1.4-0.8-3-1.4-4.5-1.9
			c-3.2-0.9-6.4-1.4-9.7-1.7c-5.6-0.4-11.2-0.1-16.7,1.2c-2.2,0.5-4.3,1.2-6.3,2.3C108.4,34.6,108.2,34.8,107.8,35z"/>
		<path id="XMLID_160_" class="st4" d="M132.4,101.8c-0.3,0-0.5,0-0.7,0c-1.4-0.2-2.7,0-4.1,0.2c-1.5,0.2-2.9-0.1-4.1-1
			c-1.7-1.3-2.1-3.9-0.9-5.7c0.7-1.1,1.8-1.5,3-1.6c0.6,0,1.2,0,1.8,0.1c1.6,0.2,3.3,0.1,4.9,0c0.3,0,0.5,0,0.8,0
			c1.7,0.2,3.3,0,5-0.2c0.9-0.1,1.8,0,2.6,0.4c0.9,0.4,1.5,1.1,1.8,2c1.1,3.3-1,5.5-3.6,6c-0.8,0.1-1.6,0.1-2.4-0.1
			c-0.1,0-0.3-0.1-0.5-0.1c0,0.2-0.1,0.3-0.1,0.4c0,0.7,0,1.4,0,2.1c0.1,0.8,0.1,1.2,1.1,1.2c0.3,0,0.5,0.1,0.5,0.4
			c0,0.2-0.1,0.4-0.4,0.4c-0.1,0-0.1,0-0.2,0c-1.4-0.1-2.9-0.1-4.3,0c-0.2,0-0.5,0-0.6-0.3c-0.1-0.3,0-0.5,0.4-0.6
			c1.1-0.1,1.2-0.2,1.2-1.3c0-2.7,0-5.4,0-8.2c0-0.1,0-0.3,0-0.4c0-0.8-0.3-1.1-1.1-1.1c-0.3,0-0.6,0-0.9,0.1
			c-0.7,0.1-0.9,0.3-0.9,1c0,1.4,0,2.9,0.1,4.3c0,0.7,0.3,0.9,1,1C132.6,101.1,132.6,101.1,132.4,101.8z M140.7,97.6
			c0-0.1,0-0.2,0-0.3c0-1.6-1.3-3.2-3.7-2.7c-0.8,0.2-1.1,0.6-1.1,1.4c0,0.7,0,1.4,0,2.1c0,0.4,0,0.8,0.1,1.2
			c0.1,0.8,0.7,1.3,1.5,1.5c0.9,0.1,1.7-0.1,2.3-0.8C140.4,99.4,140.7,98.6,140.7,97.6z M128.7,97.6c0-0.5,0-0.9,0-1.4
			c0-0.7-0.3-1.1-0.9-1.4c-1.3-0.6-3,0-3.6,1.4c-0.6,1.3-0.3,3.1,0.7,4.1c0.2,0.2,0.3,0.3,0.5,0.4c1.2,0.7,3.3,0.2,3.2-1.8
			C128.7,98.5,128.7,98,128.7,97.6z"/>
		<path id="XMLID_157_" class="st4" d="M139.5,113.3c0-0.7,0-1.3,0-2c0-0.4,0-0.8-0.4-1.1c-0.1-0.1-0.1-0.5-0.1-0.7
			c0-0.1,0.3-0.2,0.4-0.2c1.1,0,2.3,0,3.4,0c0.2,0,0.4,0.1,0.5,0.2c0.2,0.3,0,0.7-0.3,0.7c-1.1,0-1.3,0.5-1.3,1.5c0,1.2,0,2.3,0,3.5
			c0,0.2,0,0.3,0,0.5c0.1,0.8,0.2,1,1.1,1.1c0.1,0,0.3,0,0.3,0c0.1,0.1,0.2,0.3,0.2,0.5c0,0.2-0.1,0.4-0.3,0.4c-0.2,0-0.3,0-0.5,0
			c-1.5-0.2-2.9-0.1-4.4,0c-0.4,0-0.8,0-1.1,0c-1.2-0.2-2.3,0-3.5,0.2c-1.2,0.2-2.5,0.1-3.6-0.4c-2.6-1.3-2.8-4-1.9-5.8
			c0.5-1.1,1.5-1.8,2.7-1.9c0.8-0.1,1.6-0.1,2.4,0c1.4,0.2,2.8,0.2,4.1,0.1c0.1,0,0.1,0,0.2,0c0.5,0,0.7,0,0.7,0.3
			c0,0.3-0.1,0.4-0.6,0.4c-0.8,0.1-1,0.3-1,1.1c0,1.3,0,2.7,0.1,4c0,0.9,0.3,1.2,1.3,1.2c0.2,0,0.4,0,0.6,0c0.8-0.1,1-0.3,1-1.1
			C139.5,114.8,139.5,114.1,139.5,113.3C139.5,113.3,139.5,113.3,139.5,113.3z M134.4,113.3C134.4,113.3,134.4,113.3,134.4,113.3
			c0-0.5,0-1,0-1.5c0-0.5-0.2-0.9-0.6-1.1c-0.3-0.2-0.6-0.3-0.9-0.3c-1.5-0.3-2.8,0.6-3.2,2.1c-0.3,1.4,0,2.6,1,3.6
			c0.7,0.7,1.7,0.9,2.6,0.5c0.9-0.4,1.2-1.1,1.1-2C134.4,114.2,134.4,113.8,134.4,113.3z"/>
		<path id="XMLID_156_" class="st4" d="M112.7,101c-2.7,0.9-5.3,1.4-8.1,0.8c-1.6-0.3-3-1-4.1-2.3c-1.8-2.1-2.2-6.4,0.8-8.8
			c1.9-1.6,4.2-2.1,6.6-1.9c1.3,0.1,2.6,0.5,3.9,0.7c0.4,0.1,0.5,0.3,0.6,0.7c0,0.5,0.1,1,0.2,1.6c0.1,0.7,0,0.8-0.8,0.7
			c-0.4-1.7-1.7-2.4-3.3-2.7c-1-0.2-1.9-0.2-2.9,0.1c-2,0.6-3.3,2-3.7,4.1c-0.5,2.6,0.6,5.2,2.9,6.4c1.5,0.8,3,0.8,4.6,0.3
			c0.4-0.1,0.5-0.3,0.5-0.7c0-0.6,0-1.3,0-1.9c0-0.7-0.2-0.9-0.9-1c-0.3,0-0.6-0.1-0.9-0.1c0-0.1,0-0.2,0-0.3c0-0.4,0.1-0.5,0.5-0.5
			c0.6,0,1.2,0.1,1.8,0.1c1,0,2-0.1,3.1-0.1c0.5,0,0.6,0.1,0.6,0.5c0,0.1-0.2,0.2-0.3,0.3c0,0-0.1,0-0.1,0c-1.1,0.2-1.3,0.4-1.4,1.5
			c0,0.4,0,0.7,0,1.1c0,0.3,0,0.6,0.3,0.9C112.7,100.5,112.6,100.8,112.7,101z"/>
		<path id="XMLID_155_" class="st4" d="M113.8,112.7c-0.1-0.8,0-0.8,0.6-0.8c1.6,0.1,3.1,0.1,4.7,0c0.1,0,0.2,0,0.2,0
			c0.1,0.1,0.3,0.2,0.3,0.3c0.1,0.2,0,0.4-0.2,0.5c-0.1,0-0.2,0-0.4,0c-0.8,0.1-1.1,0.4-1.1,1.2c0,0.5,0,1.1,0,1.6
			c0,0.1,0,0.3,0.1,0.4c0.3,0.2,0.2,0.5,0.2,0.9c-0.8,0.2-1.6,0.5-2.5,0.6c-2.1,0.4-4.1,0.6-6.1-0.1c-0.7-0.2-1.4-0.6-2.1-1
			c-3.5-2.1-3.8-7.7-0.1-10.3c1.3-0.9,2.8-1.5,4.4-1.6c2.1-0.2,4.1,0.3,6.2,0.9c0.1,0.8,0.2,1.6,0.3,2.5c0,0.3-0.1,0.4-0.7,0.4
			c0-0.1-0.1-0.1-0.1-0.2c-0.3-1.2-1.2-2-2.3-2.3c-1.9-0.6-3.8-0.5-5.5,0.7c-1.6,1.1-2.3,2.8-2.2,4.7c0.1,2.3,1.1,4.1,3.2,5.1
			c1.4,0.7,2.9,0.7,4.3,0.1c0.5-0.2,0.5-0.2,0.5-0.8c0-0.6,0-1.3,0-1.9c0-0.7-0.2-0.9-0.9-1C114.4,112.7,114.1,112.7,113.8,112.7z"
			/>
		<path id="XMLID_154_" class="st4" d="M148.8,101.8c-0.3,0-0.6,0-0.9,0c-1.1-0.1-2.2-0.1-3.3,0c-0.2,0-0.5,0-0.8,0
			c-0.2,0-0.4-0.1-0.4-0.4c0-0.2,0.1-0.4,0.3-0.4c0.1,0,0.2,0,0.3,0c0.7-0.1,0.9-0.3,0.9-1c0-0.7,0-1.3,0-2c0-2.3,0-4.6,0-6.8
			c0-0.2,0-0.4,0-0.6c-0.1-0.4-0.2-0.6-0.6-0.7c-0.3-0.1-0.6-0.1-0.8-0.1c-0.1-0.6,0-0.7,0.5-0.7c1.4,0,2.9,0,4.3,0
			c0.5,0,0.6,0.1,0.5,0.7c-0.3,0-0.6,0.1-0.8,0.1c-0.4,0.1-0.7,0.3-0.8,0.8c0,0.5-0.1,1.1-0.1,1.6c0,0.6,0,1.2,0,1.9
			c0.2-0.1,0.4-0.2,0.6-0.3c1.2-0.5,2.4-0.6,3.6-0.2c1.6,0.5,2.6,1.8,2.7,3.5c0,0.6,0,1.2,0,1.8c0,0.3,0,0.5,0,0.8
			c0.1,0.9,0.2,1.1,1.1,1.2c0.3,0,0.5,0.1,0.5,0.5c0,0.4-0.2,0.4-0.5,0.4c-0.3,0-0.5-0.1-0.8-0.1c-1,0-1.9,0-2.9,0
			c-0.3,0-0.5,0-0.8,0c-0.3,0-0.4-0.1-0.4-0.4c0-0.3,0.1-0.4,0.4-0.4c0,0,0,0,0.1,0c1-0.2,1.1-0.3,1.1-1.3c0-0.8,0-1.6,0-2.4
			c0-0.7-0.3-1.3-0.7-1.8c-0.8-1.1-2.4-1.3-3.6-0.2c-0.1,0.1-0.2,0.3-0.2,0.5c0,1.2,0,2.4,0,3.6c0,0.2,0.1,0.4,0.1,0.6
			c0,0.5,0.3,0.7,0.8,0.8c0.1,0,0.2,0,0.2,0C149,101,149,101.1,148.8,101.8z"/>
		<path id="XMLID_153_" class="st4" d="M145.2,110.3c0-1,0-2,0-3c0-0.2,0-0.4,0-0.6c-0.1-0.8-0.2-1-1.1-1.1c-0.1,0-0.1,0-0.2,0
			c-0.3,0-0.4-0.2-0.3-0.4c0-0.2,0.2-0.3,0.4-0.3c0.1,0,0.2,0,0.3,0c1.4,0.2,2.7,0.1,4.1,0c0.1,0,0.3,0,0.4,0c0.2,0,0.4,0.1,0.4,0.3
			c0,0.3-0.1,0.4-0.4,0.4c-0.1,0-0.3,0-0.4,0c-0.8,0.1-0.9,0.3-0.9,1c0,2.3,0,4.6,0,6.8c0,0.3,0,0.7,0,1c0.1,0.5,0.2,0.9,0.4,1.4
			c0.2,0.4,0.5,0.7,1,0.8c0.4,0.1,0.5,0.3,0.4,0.6c-0.1,0.3-0.3,0.3-0.5,0.3c-1.3-0.1-2.2-0.6-2.9-1.7c-0.4-0.7-0.6-1.5-0.6-2.3
			C145.2,112.5,145.2,111.4,145.2,110.3C145.2,110.3,145.2,110.3,145.2,110.3z"/>
		<path id="XMLID_152_" class="st4" d="M125.9,116.7c0.1,0.7,0,0.8-0.6,0.8c-1.4-0.1-2.8-0.2-4.1,0c-0.6,0.1-0.7,0-0.6-0.7
			c0.2,0,0.4,0,0.7-0.1c0.7-0.1,0.9-0.3,1-1.1c0-0.1,0-0.3,0-0.4c0-1.4,0-2.7,0-4.1c0-0.8-0.2-1-1-1.1c-0.1,0-0.3,0-0.4,0
			c-0.1-0.1-0.3-0.2-0.3-0.3c0-0.1,0.2-0.3,0.3-0.4c0.1-0.1,0.2,0,0.4,0c0.6,0,1.3,0.1,1.9,0.1c0.4,0,0.4,0,0.6,0.5
			c0.5-0.4,1.1-0.6,1.7-0.7c0.6,0,1.2-0.1,1.9,0.2c-0.1,0.6-0.2,0.7-0.7,0.6c-0.8-0.1-1.4,0.2-1.8,1c-0.2,0.5-0.4,1.1-0.4,1.7
			c-0.1,1,0,2,0,3c0,0.7,0.1,0.8,0.8,0.9C125.3,116.7,125.6,116.7,125.9,116.7z"/>
		<path id="XMLID_151_" class="st4" d="M118,94.2c1.2-0.7,2.4-0.8,3.6-0.4c-0.1,0.6-0.3,0.7-0.8,0.6c-0.8-0.2-1.4,0.2-1.8,1
			c-0.3,0.5-0.4,1.1-0.4,1.8c0,0.9,0,1.9,0,2.8c0,0.8,0.1,0.9,0.9,1c0.2,0,0.4,0.1,0.7,0.1c0.1,0.7,0,0.7-0.6,0.7
			c-0.5,0-1-0.1-1.5-0.1c-0.9,0-1.8,0.1-2.7,0.1c-0.6,0-0.6,0-0.6-0.7c0.3,0,0.6-0.1,0.8-0.1c0.5-0.1,0.7-0.4,0.8-0.8
			c0-0.2,0-0.4,0-0.6c0-1.3,0-2.7,0-4c0-0.9-0.2-1-1-1.1c-0.1,0-0.2,0-0.3,0c-0.2,0-0.4-0.1-0.4-0.4c0-0.3,0.2-0.4,0.5-0.4
			c0.3,0,0.7,0,1,0.1c0.4,0,0.7,0.1,1.1,0.1C117.8,93.7,118,93.7,118,94.2z"/>
		<path id="XMLID_150_" class="st4" d="M140.6,104c0.1,0.1,0.2,0.1,0.3,0.2c0.4,0.4,0.8,0.8,1.2,1.2c0.2,0.2,0.2,0.4,0,0.6
			c-0.4,0.4-0.8,0.7-1.1,1.1c-0.2,0.2-0.4,0.2-0.7,0c-0.4-0.3-0.7-0.7-1.1-1c-0.2-0.2-0.3-0.4-0.1-0.6c0.4-0.5,0.9-0.9,1.3-1.3
			C140.5,104,140.6,104,140.6,104z"/>
		<path id="XMLID_123_" class="st4" d="M109,34.9c1-0.6,2.2-1,3.4-1.4c2.5-0.8,5.1-1.4,7.8-1.6c1.9-0.2,3.7-0.3,5.6-0.4
			c2.7-0.1,5.3,0.1,8,0.4c2.4,0.3,4.7,0.7,7,1.4c1.4,0.4,2.7,1,4,1.5c0.2,0.1,0.5,0.2,0.8,0.4c-0.3,0.3-0.6,0.6-0.9,0.8
			c-2.6,2.4-4.2,5.4-5.3,8.7c-0.9,2.8-1.4,5.6-1.5,8.6c-0.1,1.7-0.1,3.4-0.1,5.1c0.1,2.1,0.3,4.2,0.7,6.2c0,0.1,0,0.2,0.1,0.3
			c-2.8,0.6-4.9,2.4-6.5,4.6c-1.7,2.4-1.9,5.1-1.5,7.9c0.4,2.9,2.1,4.9,4.4,6.8c-5.1,0-10.1,0-15.2,0c3.1-2.4,4.4-5.7,4.4-8.2
			c0-1.1,0-2.3-0.2-3.4c-0.4-1.5-1.1-2.9-2.1-4c-1.3-1.4-2.6-2.6-4.5-3.3c-0.4-0.1-0.8-0.3-1.3-0.4c0-0.2,0-0.3,0.1-0.5
			c0.7-3.3,0.8-6.7,0.7-10.1c-0.1-3.6-0.7-7.2-1.9-10.6c-0.9-2.4-2-4.6-3.7-6.5C110.3,36.4,109.7,35.6,109,34.9z M129,47.9
			c-1.2-0.9-2.5-1-3.7,0c-1.1,0.9-1.1,2.1-0.6,3.4c-0.7,0.6-1.3,1.2-2,1.9c0.2,0.2,0.4,0.4,0.6,0.6c0.7-0.6,1.3-1.2,2-1.8
			c0.1,0.1,0.2,0.1,0.3,0.1c0.1,0,0.1,0.1,0.2,0.1c1.1,0.6,2.2,0.5,3.1-0.3c0.8-0.7,1.2-1.6,0.9-2.7c-0.1-0.4-0.2-0.6-0.2-0.6
			s0.8-0.7,0.9-0.8c0.6-0.4,1.1-0.9,1.7-1.4c-0.2-0.3-0.4-0.5-0.6-0.7C130.8,46.6,129.9,47.2,129,47.9z M129.8,80.2
			c0-1.4-1.2-2.6-2.7-2.6c-1.4,0-2.7,1.2-2.7,2.6c0,1.4,1.2,2.6,2.7,2.6C128.6,82.9,129.8,81.6,129.8,80.2z M122.4,37l0.9,0.4
			c0,0,1.7-1.1,2.2-1.5c0.2,0.2,0.4,0.3,0.5,0.4c0.8,0.4,1.6,0.4,2.3-0.1c0.7-0.5,1.1-1.2,1-2c-0.1-1.1-1.1-2-2.3-1.9
			c-1.2,0.1-2.2,1.1-2.1,2.3c0,0.2,0.1,0.5,0.1,0.5l-0.4,0.3L122.4,37z M127.5,66c1.2,1.8,1.7,3.6,0.5,5.5c-0.2,0-0.4-0.1-0.6-0.1
			c-0.7-0.1-1.3,0.2-1.7,0.8c-0.5,0.7-0.4,1.6,0.2,2.2c0.6,0.5,1.3,0.8,2.1,0.3c1.3-0.9,0.8-2.5,0.8-2.5s1.6-2.5,0.3-5.3
			c-0.2-0.4-0.9-1.5-1-1.6C127.8,65.6,127.7,65.8,127.5,66z M133.7,38c1.5-0.5,2.9-1,4.4-1.1c0.2,0.3,0.3,0.5,0.4,0.8
			c0.3,0.5,0.8,0.7,1.4,0.7c0.9,0,1.6-0.6,1.7-1.5c0.1-0.7-0.3-1.5-1-1.8c-1.6-0.8-2.7,1-2.7,1s-0.8,0.1-1,0.2
			c-1.4,0.3-2.7,0.6-4,1.2C133.2,37.6,133.4,37.8,133.7,38z M117.5,42.6c0.1-0.2,0.4-0.9,0.4-0.9s-0.9-1.1-1.2-1.4
			c-0.5-0.7-1.1-1.4-1.4-2.2c0.1-0.2,0.3-0.3,0.4-0.5c0.6-0.8,0.5-1.6-0.1-2.3c-0.6-0.6-1.5-0.8-2.2-0.3c-0.7,0.5-1,1.3-0.7,2.1
			c0.2,0.6,0.7,1,1.3,1.1c0.1,0,0.4,0.1,0.4,0.1s0.2,0.3,0.3,0.5C115.2,39.8,116.7,41.8,117.5,42.6z M134.5,60.8
			c-1.1,0.2-1.7,1.2-1.5,2.1c0.2,0.9,0.8,1.5,1.7,1.6c0.7,0,1.4-0.5,1.7-1.2c0.3-0.8,0.2-2-1-2.3c0.2-1.6-0.5-2.9-0.5-2.9l-0.7,1
			C134.2,59.1,134.5,59.8,134.5,60.8z M120.9,61.5c-0.7-0.7-1.8-0.7-2.6-0.1c-0.6,0.5-0.8,1.4-0.4,2c0.3,0.7,1.1,1.2,1.8,1
			c1.3-0.2,1.6-1,1.7-2.1c0.4-0.2,0.7-0.4,1.2-0.7c-0.3-0.3-0.5-0.4-0.7-0.6C121.6,61.2,121.3,61.3,120.9,61.5z M129.9,61.3
			c-1.5,1.4-2.9,2.7-4,4.4c-0.5,0.7-0.9,1.5-1.1,2.4c-0.3,1.2-0.1,2.4,0.5,3.5c0.3-0.2,0.5-0.4,0.7-0.6c-0.8-1.7-0.4-3.2,0.5-4.6
			c0.4-0.6,0.8-1.2,1.3-1.7c0.8-0.8,1.6-1.6,2.4-2.4c0.2-0.2,0.3-0.3,0.5-0.5C130.5,61.6,130.2,61.4,129.9,61.3z M131.6,38.8
			c-0.4-0.4-0.7-0.6-0.7-0.6s-4.7,1.9-8.1,5.3c-0.3,0.3-0.7,0.7-1,1.1c0.3,0.2,0.5,0.4,0.7,0.6C125.1,42.4,128.2,40.4,131.6,38.8z
			 M120.4,46c-0.5,0.8-1,1.5-1.4,2.2c-0.9,1.7-1.4,3.5-1.1,5.5c0.2,1.1,0.6,2.2,1.2,3.2c0.3-0.5,0.5-1,0.5-1s-0.2-0.3-0.3-0.5
			c-0.7-1.3-0.8-2.6-0.5-4c0.3-1.5,0.9-2.9,1.9-4.2c0.1-0.2,0.2-0.3,0.4-0.5C120.9,46.4,120.7,46.2,120.4,46z M132.9,53.8
			c0,0,0.1-0.1,0.1-0.1c1.3-1.5,2.4-3,3.1-4.9c0.5-1.5,0.8-3,0.5-4.6c0-0.1-0.1-0.4-0.1-0.4l-0.8,0.7c0,0,0.1,0.3,0.1,0.6
			c0.1,1-0.1,2-0.4,3c-0.6,1.7-1.5,3.3-2.8,4.7c-0.1,0.1-0.3,0.4-0.3,0.4L132.9,53.8z M136,50.3c-0.3,0.4-0.7,1.3-0.7,1.3
			s0.1,0.3,0.1,0.4c0.2,1.7-0.3,3.2-1.3,4.6c-0.7,1-2.6,3.1-2.7,3.3c0.3,0.2,0.5,0.3,0.8,0.5c0.1-0.1,1.5-1.6,2-2.3
			c0.8-1,1.4-2.1,1.8-3.3C136.5,53.2,136.5,51.8,136,50.3z M118.2,48.7c0.3-0.5,0.6-1.2,0.6-1.2s-0.1-0.4-0.1-0.7
			c-0.2-1-0.2-2.1,0.1-3.1c0.4-1.7,1.3-3,2.5-4.3c0.1-0.1,0.4-0.4,0.4-0.4s-0.7-0.3-0.9-0.4C117.8,41.4,116.8,45.4,118.2,48.7z
			 M126.6,39.9c0,0-5-3.3-10-3.9c0,0.3,0,0.6,0,0.9c0.1,0,3.8,0.6,7.2,2.5c0.6,0.3,1.9,1,1.9,1L126.6,39.9z M127.6,41.6
			c2.8,2,5.2,4.2,6.9,7.2c0.1-0.3,0.4-1.1,0.4-1.1s-0.1-0.2-0.2-0.3c-0.6-0.8-1-1.6-1.7-2.3c-1.2-1.4-2.6-2.6-4.2-3.7
			c-0.1-0.1-0.3-0.2-0.5-0.3C128.2,41.3,128,41.4,127.6,41.6z M119.8,50.2c-0.2,0.4-0.3,1.2-0.3,1.2s0.2,0.4,0.4,0.6
			c1.7,2.2,3.7,4.1,5.9,5.8c0,0,0.2,0.1,0.2,0.1s0.5-0.4,0.7-0.6C124,55.3,121.6,53.1,119.8,50.2z M124.4,60.6
			c2.5-1.5,4.9-3.3,7.1-5.3c-0.2-0.3-0.4-0.4-0.6-0.7c-2.2,2.1-4.6,3.8-7.2,5.4C124,60.2,124.2,60.4,124.4,60.6z M135.8,41.6
			c-1.4-2.7-3.6-4.5-6-6.1c-0.1,0.2-0.2,0.3-0.2,0.4c-0.1,0.1-0.1,0.2-0.2,0.4c2.4,1.6,4.4,3.3,5.8,6
			C135.4,42,135.6,41.8,135.8,41.6z M133.9,45.3c2.2-1.9,4.3-3.8,5.7-6.4c-0.3-0.1-0.6-0.2-0.9-0.3c-1.4,2.4-3.4,4.2-5.4,6
			C133.5,44.9,133.7,45.1,133.9,45.3z M121,57.9c-0.2,0.4-0.4,0.9-0.4,0.9s1.8,1.9,2.4,2.5c1,0.9,3,3,3.2,3.1
			c0.2-0.2,0.4-0.4,0.6-0.7C124.8,61.7,122.9,59.8,121,57.9z M119.5,43.3c-0.2,0.3-0.4,0.8-0.4,0.8s3.5,2.9,4.9,4.1
			c0.1,0,0.1,0.1,0.2,0.1c0.2-0.2,0.4-0.5,0.5-0.7C123,46.2,121.2,44.8,119.5,43.3z M119.8,60.4c0-1,0.2-1.9,0.7-2.7
			c0.5-0.8,0.8-1.5,1.6-2.4c-0.2-0.1-0.5-0.5-0.7-0.6c-1.6,1.6-2.7,4.2-2.4,5.7C119,60.4,119.5,60.4,119.8,60.4z M133.9,56
			c-0.6-1.2-2.8-3.5-4-4.3c-0.1,0.1-0.2,0.2-0.3,0.3c-0.1,0.1-0.2,0.2-0.3,0.3c1.5,1.3,2.9,2.7,4,4.4
			C133.6,56.5,133.7,56.3,133.9,56z M132.4,62.1c0.2-0.3,0.3-0.6,0.4-0.8c-1.5-0.9-2.9-1.8-4.4-2.7c-0.2,0.2-0.5,0.3-0.8,0.6
			C129.2,60.2,130.8,61.1,132.4,62.1z"/>
	</g>
	<path id="XMLID_121_" class="st5" d="M72,142c36.6-44.4,73.1-88.8,109.7-133.2H12.6c-2.2,0-4,1.8-4,4V138c0,2.2,1.8,4,4,4H72z"/>
</g>
</svg>
