<?xml version="1.0" encoding="utf-8"?>
<!-- Generator: Adobe Illustrator 19.0.0, SVG Export Plug-In . SVG Version: 6.00 Build 0)  -->
<svg version="1.1" id="Слой_1" xmlns="http://www.w3.org/2000/svg" xmlns:xlink="http://www.w3.org/1999/xlink" x="0px" y="0px"
	 viewBox="0 0 252.7 193.4" style="enable-background:new 0 0 252.7 193.4;" xml:space="preserve">
<style type="text/css">
	.st0{fill:#A49FA2;}
	.st1{opacity:0.17;fill:#F0EFF0;}
	.st2{fill:url(#XMLID_62_);}
	.st3{fill:url(#XMLID_63_);}
	.st4{fill:#333333;}
	.st5{fill:#CBC9CB;}
	.st6{fill:#F0EFF0;}
	.st7{fill:#FFC8CA;}
	.st8{fill:#D49597;}
	.st9{fill:#FFDCDC;}
	.st10{fill:#666666;}
	.st11{fill:#FF0000;}
	.st12{fill:url(#XMLID_64_);}
	.st13{opacity:0.1;fill:#559AFF;}
</style>
<g id="XMLID_248_">
	<path id="XMLID_49_" class="st0" d="M248.7,150.7H4c-2.2,0-4-1.8-4-4V4c0-2.2,1.8-4,4-4h244.7c2.2,0,4,1.8,4,4v142.7
		C252.7,148.9,250.9,150.7,248.7,150.7z"/>
	<path id="XMLID_48_" class="st1" d="M188.8,0H4C1.8,0,0,1.8,0,4v142.7c0,2.2,1.8,4,4,4h60.7C106,100.4,147.4,50.2,188.8,0z"/>
	<linearGradient id="XMLID_62_" gradientUnits="userSpaceOnUse" x1="8.5565" y1="75.2384" x2="243.9207" y2="75.2384">
		<stop  offset="8.940361e-04" style="stop-color:#1A2261"/>
		<stop  offset="1" style="stop-color:#4C6CB3"/>
	</linearGradient>
	<path id="XMLID_47_" class="st2" d="M239.9,141.8H12.6c-2.2,0-4-1.8-4-4V12.6c0-2.2,1.8-4,4-4h227.4c2.2,0,4,1.8,4,4v125.2
		C243.9,140,242.1,141.8,239.9,141.8z"/>
	<linearGradient id="XMLID_63_" gradientUnits="userSpaceOnUse" x1="127.0717" y1="185.35" x2="127.0717" y2="150.6625">
		<stop  offset="0" style="stop-color:#FFFFFF"/>
		<stop  offset="1" style="stop-color:#313131"/>
	</linearGradient>
	<path id="XMLID_45_" class="st3" d="M172.3,185.3c0,0-12.6-6.2-13.9-7.9c-1-1.4-1.3-2.8-1.5-3.7c-0.9-9.4-2.1-23.1-2.1-23.1H99.4
		c0,0-1.3,13.7-2.2,23.1c-0.1,0.9-0.5,2.3-1.5,3.7c-1.2,1.7-13.9,7.9-13.9,7.9H172.3z"/>
	<path id="XMLID_44_" class="st0" d="M171.5,193.4H82.6c-1,0-1.8-0.8-1.8-1.8v-4.7c0-1,0.8-1.8,1.8-1.8h88.9c1,0,1.8,0.8,1.8,1.8
		v4.7C173.3,192.6,172.5,193.4,171.5,193.4z"/>
	<polygon id="XMLID_43_" class="st4" points="244,90.4 186.3,90.4 186.3,87.3 8.6,87.3 8.6,75.3 244,75.3 	"/>
	<path id="XMLID_42_" class="st4" d="M56.6,49.5L56.7,94l21-0.1l19.2,14.7c0.8,2,2.1,3.8,3.9,5.1l0.2,0.1c1.3,1,2.8,1.7,4.4,2.1
		c0.8,1.3,1.8,2.5,3.1,3.5l0.2,0.1c1.3,1,2.7,1.7,4.3,2.1c0.8,1.5,1.9,2.8,3.3,3.9l0.2,0.2c1.4,1.1,3,1.8,4.7,2.2
		c0.8,1.3,1.8,2.4,3,3.3l0.2,0.1c2.1,1.6,4.6,2.4,7.2,2.4c0.5,0,1.1,0,1.6-0.1c3.1-0.4,5.9-2,7.9-4.5l7.3-9.5c1.2-1.6,2-3.5,2.3-5.5
		c0.8-0.6,1.4-1.3,2-2c1-1.2,1.7-2.6,2.1-4.1c1.4-0.8,2.7-1.8,3.7-3.1c1.2-1.5,2-3.3,2.3-5.2c0.8-1.1,5.8-7.8,5.8-7.8
		c4.3,2.4,7.3,2.4,14.6,2.3l7.1-0.1l-0.1-44.7H56.6z"/>
	<path id="XMLID_41_" class="st0" d="M182,52.6h-46.5l-13.3,18.3c-2.4,3.3-1.7,7.9,1.7,10.3l0.2,0.1c1.3,0.9,2.8,1.4,4.4,1.4
		c0.2,0,0.4,0,0.5,0c0.5,1.5,1.4,2.9,2.8,3.9l0.2,0.1c1.3,0.9,2.8,1.4,4.4,1.4c0.1,0,0.2,0,0.3,0c0.4,1.8,1.4,3.5,2.9,4.6l0.2,0.1
		c1.3,0.9,2.8,1.4,4.4,1.4c0.4,0,0.7,0,1.1-0.1c0.5,1.4,1.4,2.6,2.6,3.5l0.2,0.1c1.3,0.9,2.8,1.4,4.3,1.4c0.4,0,0.8,0,1.2-0.1
		c2-0.3,3.7-1.4,4.9-3l23.9-33.2L182,52.6z"/>
	<g id="XMLID_36_">
		<path id="XMLID_40_" class="st5" d="M137.7,57l-12,16.5c-1,1.3-0.7,3.2,0.7,4.2l0.2,0.1c1.3,1,3.3,0.7,4.2-0.7L145.5,57H137.7z"/>
		<path id="XMLID_39_" class="st5" d="M149.5,57l-15.9,21.9c-1,1.3-0.7,3.2,0.7,4.2l0.2,0.1c1.4,1,3.3,0.7,4.2-0.7L157.3,57H149.5z"
			/>
		<path id="XMLID_38_" class="st5" d="M161.7,57l-20.4,27.9c-1,1.3-0.7,3.2,0.7,4.2l0.2,0.1c1.3,1,3.3,0.7,4.2-0.7l23-31.6H161.7z"
			/>
		<path id="XMLID_37_" class="st5" d="M180.3,57h-6.7l-24,32.9c-1,1.3-0.7,3.2,0.7,4.2l0.2,0.1c1.3,1,3.3,0.7,4.2-0.7l25-34.4
			C180.2,58.5,180.4,57.7,180.3,57z"/>
	</g>
	<g id="XMLID_31_">
		<path id="XMLID_35_" class="st6" d="M137.9,56.8L126.1,73c-0.6,0.8-0.4,2,0.4,2.6c0.8,0.6,2,0.4,2.6-0.4l13.4-18.3H137.9z"/>
		<path id="XMLID_34_" class="st6" d="M149.7,56.8l-16,22c-0.6,0.8-0.4,2,0.4,2.6h0c0.8,0.6,2,0.4,2.6-0.4l17.6-24.1H149.7z"/>
		<path id="XMLID_33_" class="st6" d="M161.9,56.8l-20,27.5c-0.6,0.8-0.4,2,0.4,2.6c0.8,0.6,2,0.4,2.6-0.4l21.6-29.7H161.9z"/>
		<path id="XMLID_32_" class="st6" d="M173.8,56.8L150,89.5c-0.6,0.8-0.4,2,0.4,2.6c0.8,0.6,2,0.4,2.6-0.4L177.5,58
			c0.3-0.4,0.4-0.8,0.3-1.2H173.8z"/>
	</g>
	<path id="XMLID_30_" class="st7" d="M147,53.9v5.8l-20.7,0c0,0,0.1,15.6,0,16.4l24.5,19.1c1.4,1.1,1.6,3,0.6,4.3
		c-1,1.3-3,1.5-4.4,0.5l-23.3-18.2l-2,2.6l23.3,18c1.4,1.1,1.6,3,0.6,4.3c-1,1.3-3,1.5-4.4,0.5l-23.3-18l-2,2.6l23.7,18.5
		c1.4,1.1,1.6,3,0.6,4.3c-1,1.3-3,1.5-4.4,0.5l-23.8-18.6l-2,2.6l23.3,18.4c1.4,1.1,1.6,3,0.6,4.3c-1,1.3-3,1.5-4.4,0.5L75.7,81.3
		V53.9H147z"/>
	<path id="XMLID_28_" class="st8" d="M131.3,127.3c-1.6,0-3.3-0.5-4.7-1.6L71.3,83.5v-34h59.5L130.7,64c0,5.1,0,8.1,0,9.9l22.7,17.8
		c3.3,2.6,3.9,7.3,1.3,10.5c-1.1,1.4-2.6,2.3-4.2,2.7c0,1.6-0.6,3.2-1.6,4.5c-1,1.3-2.4,2.2-4,2.6c0.2,1.9-0.3,3.8-1.5,5.3
		c-1.2,1.5-2.9,2.5-4.8,2.8c0,1.6-0.5,3.1-1.6,4.4C135.7,126.3,133.5,127.3,131.3,127.3z"/>
	<path id="XMLID_27_" class="st7" d="M126.1,53.9l0.2,5.8c0,0,0.1,15.6,0,16.4l24.5,19.1c1.4,1.1,1.6,3,0.6,4.3
		c-1,1.3-3,1.5-4.4,0.5l-23.3-18.2l-2,2.6l23.3,18c1.4,1.1,1.6,3,0.6,4.3c-1,1.3-3,1.5-4.4,0.5l-23.3-18l-2,2.6l23.7,18.5
		c1.4,1.1,1.6,3,0.6,4.3c-1,1.3-3,1.5-4.4,0.5l-23.8-18.6l-2,2.6l23.3,18.4c1.4,1.1,1.6,3,0.6,4.3c-1,1.3-3,1.5-4.4,0.5L75.7,81.3
		V53.9H126.1z"/>
	<path id="XMLID_26_" class="st9" d="M117.5,79.9l-7.3,9.3c-2.8,3.6-8.1,4.1-11.8,1.3l-2-1.5c-3.5-2.7-17.4-13.5-17.4-13.5V64.8
		l3.5-4.8c1.5-1.9,4.3-1.8,4.3-1.8s16.8,0,25.6,0c7.9,0,7.6,7.7,7.6,7.7C120,74,120.3,76.3,117.5,79.9z"/>
	<path id="XMLID_25_" class="st9" d="M108.6,100.5L108.6,100.5c-0.7,0.8-0.5,2,0.3,2.7l22,17.3c0.8,0.7,2.1,0.5,2.7-0.3h0
		c0.7-0.8,0.5-2-0.3-2.7l-22-17.3C110.5,99.5,109.3,99.7,108.6,100.5z"/>
	<path id="XMLID_24_" class="st9" d="M114.5,93.2L114.5,93.2c-0.7,0.8-0.5,2,0.3,2.7l22.5,17.6c0.8,0.7,2.1,0.5,2.7-0.3l0,0
		c0.7-0.8,0.5-2-0.3-2.7l-22.5-17.6C116.4,92.2,115.1,92.4,114.5,93.2z"/>
	<path id="XMLID_23_" class="st9" d="M120.2,85.7L120.2,85.7c-0.7,0.8-0.5,2,0.3,2.7l22.2,17.1c0.8,0.7,2.1,0.5,2.7-0.3l0,0
		c0.7-0.8,0.5-2-0.3-2.7L123,85.4C122.1,84.8,120.9,84.9,120.2,85.7z"/>
	<path id="XMLID_22_" class="st9" d="M125.7,78L125.7,78c-0.7,0.8-0.5,2,0.3,2.7l22.5,17.6c0.8,0.7,2.1,0.5,2.7-0.3v0
		c0.7-0.8,0.5-2-0.3-2.7l-22.5-17.6C127.5,77,126.3,77.2,125.7,78z"/>
	<path id="XMLID_21_" class="st0" d="M146.1,111.4c-0.3-2-1.3-3.7-2.8-4.9l-0.2-0.1c-1.4-1.1-3.2-1.6-5-1.5
		c-0.4-1.5-1.3-2.9-2.6-3.9l-0.2-0.1c-1.4-1.1-3.1-1.6-4.8-1.5c-0.4-1.8-1.3-3.3-2.8-4.4l-0.2-0.1c-1.4-1-3-1.6-4.8-1.5
		c-0.4-1.6-1.3-3-2.7-4l-0.2-0.1c-3.3-2.5-7.9-1.9-10.4,1.4l-7.3,9.5c-2.5,3.2-1.9,7.9,1.4,10.4l0.2,0.1c1.3,1,2.9,1.5,4.5,1.5
		c0.1,0,0.2,0,0.2,0c0.4,1.6,1.3,3,2.7,4l0.2,0.1c1.3,1,2.9,1.5,4.5,1.5c0.1,0,0.2,0,0.3,0c0.3,1.8,1.3,3.3,2.8,4.4l0.2,0.1
		c1.3,1,2.9,1.5,4.5,1.5c0.2,0,0.3,0,0.5,0c0.4,1.6,1.3,3,2.7,4l0.2,0.1c1.3,1,2.9,1.5,4.5,1.5c0.3,0,0.7,0,1-0.1
		c2-0.3,3.7-1.3,4.9-2.8l7.3-9.5C145.8,115.3,146.4,113.4,146.1,111.4z"/>
	<path id="XMLID_20_" class="st5" d="M117.8,96.9l-7.2,9.3c-1.1,1.4-3,1.6-4.4,0.6h0c-1.4-1-1.6-3-0.6-4.4l7.2-9.3
		c1.1-1.4,3-1.6,4.4-0.6h0C118.6,93.6,118.9,95.5,117.8,96.9z"/>
	<path id="XMLID_19_" class="st5" d="M125.5,102.6l-7.2,9.3c-1.1,1.4-3,1.6-4.4,0.6l0,0c-1.4-1-1.6-3-0.6-4.4l7.2-9.3
		c1.1-1.4,3-1.6,4.4-0.6h0C126.3,99.3,126.5,101.2,125.5,102.6z"/>
	<path id="XMLID_18_" class="st5" d="M133.2,108.7L126,118c-1.1,1.4-3,1.6-4.4,0.6l0,0c-1.4-1-1.6-3-0.6-4.4l7.2-9.3
		c1.1-1.4,3-1.6,4.4-0.6v0C134,105.4,134.3,107.3,133.2,108.7z"/>
	<path id="XMLID_17_" class="st5" d="M141.1,114.3l-7.2,9.3c-1.1,1.4-3,1.6-4.4,0.6l0,0c-1.4-1-1.6-3-0.6-4.4l7.2-9.3
		c1.1-1.4,3-1.6,4.4-0.6l0,0C141.8,111,142.1,112.9,141.1,114.3z"/>
	<path id="XMLID_16_" class="st6" d="M108.3,105.2l8-10.4c0.6-0.8,0.5-2-0.3-2.6l0,0c-0.8-0.6-2-0.5-2.6,0.3l-8,10.4
		c-0.6,0.8-0.5,2,0.3,2.6h0C106.5,106.1,107.6,106,108.3,105.2z"/>
	<path id="XMLID_15_" class="st6" d="M115.8,111.1l8-10.4c0.6-0.8,0.5-2-0.3-2.6h0c-0.8-0.6-2-0.5-2.6,0.3l-8,10.4
		c-0.6,0.8-0.5,2,0.3,2.6l0,0C114,112,115.2,111.9,115.8,111.1z"/>
	<path id="XMLID_14_" class="st6" d="M123.7,116.9l8-10.4c0.6-0.8,0.5-2-0.3-2.6l0,0c-0.8-0.6-2-0.5-2.6,0.3l-8,10.4
		c-0.6,0.8-0.5,2,0.3,2.6l0,0C121.9,117.9,123.1,117.7,123.7,116.9z"/>
	<path id="XMLID_13_" class="st6" d="M131.5,122.6l8-10.4c0.6-0.8,0.5-2-0.3-2.6l0,0c-0.8-0.6-2-0.5-2.6,0.3l-8,10.4
		c-0.6,0.8-0.5,2,0.3,2.6v0C129.7,123.6,130.9,123.4,131.5,122.6z"/>
	<path id="XMLID_12_" class="st6" d="M164.8,53.7h-37.7c-0.8,0-1.4,0.3-2,0.8c-0.2,0.1-0.4,0.3-0.5,0.5l-20.7,27.8
		c-1,1.3,3.8,3.3,7.5-0.4l17.1-23h36.3c1.6,0,2.9-1.3,2.9-2.9C167.7,55,166.4,53.7,164.8,53.7z"/>
	<path id="XMLID_11_" class="st0" d="M106.6,88.9c-2.1,0-4-0.6-5.3-1.8c-2.1-1.8-2.5-4.7-0.9-6.9l20.7-27.8c0.3-0.5,0.7-0.9,1.2-1.2
		c1.3-1.2,2.9-1.7,4.7-1.7l43.6,0l0.3,14.4h-40.1l-16,21.4l-0.2,0.2C112.2,87.9,109.3,88.9,106.6,88.9z"/>
	<path id="XMLID_10_" class="st10" d="M165.6,86.1l0.1-36.6l17.7,0l0.1,40.3C171.8,90,171.2,90.4,165.6,86.1z"/>
	<path id="XMLID_9_" class="st0" d="M184,49.5l-22.2,0v27.3c-0.1,4.4,1.7,7.1,3.6,8.8l0,0.3c4.6,4.1,6.7,4.2,18.5,3.9V49.5z"/>
	
		<rect id="XMLID_8_" x="50.1" y="60.5" transform="matrix(2.871786e-03 1 -1 2.871786e-03 139.4126 -0.8037)" class="st11" width="40.1" height="18.1"/>
	<path id="XMLID_7_" class="st6" d="M180.3,53.7l-53.2,0c-0.8,0-1.4,0.3-2,0.8c-0.2,0.1-0.4,0.3-0.5,0.5l-20.7,27.8
		c-1,1.3,3.8,3.3,7.5-0.4l17.1-23h37.2l-0.1,16.9c0,3.7,2,7.7,6.4,9.4c2,0.8,5.1,0.5,8.3,0.5L180.3,53.7z"/>
	<linearGradient id="XMLID_64_" gradientUnits="userSpaceOnUse" x1="8.6369" y1="66.0737" x2="61.1604" y2="66.0737">
		<stop  offset="8.940361e-04" style="stop-color:#1A2261"/>
		<stop  offset="1" style="stop-color:#4C6CB3"/>
	</linearGradient>
	<rect id="XMLID_6_" x="8.6" y="49.5" class="st12" width="52.5" height="33.2"/>
	<rect id="XMLID_5_" x="183.5" y="49.5" class="st0" width="60.5" height="37.1"/>
	<rect id="XMLID_4_" x="184" y="53.7" class="st6" width="59.9" height="28.9"/>
	<path id="XMLID_2_" class="st13" d="M71.9,141.8C108.5,97.4,145,53,181.6,8.6H12.5c-2.2,0-4,1.8-4,4v125.2c0,2.2,1.8,4,4,4H71.9z"
		/>
</g>
</svg>
