<svg xmlns="http://www.w3.org/2000/svg" viewBox="0 0 298.28 234.14"><defs><style>.cls-1{fill:#f48667;}.cls-2{fill:#5b3a89;}.cls-3{fill:#dd646a;}.cls-4{fill:#bf4b7b;}.cls-5{fill:#904181;}</style></defs><title>Ресурс 6</title><g id="Слой_2" data-name="Слой 2"><g id="Слой_1-2" data-name="Слой 1"><path class="cls-1" d="M149.84,96.37v95c52.12,0,95-42.88,95-95s-42.88-95-95-95Z" transform="translate(-0.8 -1.04)"/><path class="cls-2" d="M149.84,96.37v-95a95,95,0,0,0-95,95Z" transform="translate(-0.8 -1.04)"/><path class="cls-3" d="M149.84,96.37l-6,94.81q1.49.09,3,.14t3,0Z" transform="translate(-0.8 -1.04)"/><path class="cls-4" d="M149.84,96.37,55.59,108.27a95,95,0,0,0,88.29,82.91Z" transform="translate(-0.8 -1.04)"/><path class="cls-5" d="M149.84,96.37h-95q0,3,.19,6t.56,5.94Z" transform="translate(-0.8 -1.04)"/><path d="M33.67,5.27A1.68,1.68,0,0,1,34,6.33a1.55,1.55,0,0,1-.69,1.36,3.51,3.51,0,0,1-2,.47H27.84V1.44h3.28A3.21,3.21,0,0,1,33,1.91a1.49,1.49,0,0,1,.66,1.28,1.61,1.61,0,0,1-.89,1.48A1.77,1.77,0,0,1,33.67,5.27ZM29.38,2.61V4.19h1.54A1.57,1.57,0,0,0,31.8,4a.67.67,0,0,0,.3-.6.66.66,0,0,0-.3-.59,1.6,1.6,0,0,0-.87-.2Zm2.74,4.18a.69.69,0,0,0,.31-.62q0-.83-1.24-.83H29.38V7H31.2A1.73,1.73,0,0,0,32.12,6.79Z" transform="translate(-0.8 -1.04)"/><path d="M36.07,7.89a2.54,2.54,0,0,1-1-.95,2.61,2.61,0,0,1-.37-1.37,2.6,2.6,0,0,1,.37-1.37,2.53,2.53,0,0,1,1-.95,3.3,3.3,0,0,1,2.92,0,2.54,2.54,0,0,1,1,.95,2.6,2.6,0,0,1,.37,1.37A2.61,2.61,0,0,1,40,6.95a2.55,2.55,0,0,1-1,.95,3.3,3.3,0,0,1-2.92,0Zm2.41-1.28a1.45,1.45,0,0,0,.37-1,1.45,1.45,0,0,0-.37-1,1.35,1.35,0,0,0-1.9,0,1.44,1.44,0,0,0-.37,1,1.44,1.44,0,0,0,.38,1,1.35,1.35,0,0,0,1.9,0Z" transform="translate(-0.8 -1.04)"/><path d="M46,3.49a2.28,2.28,0,0,1,.59,1.71v3h-1.5V5.43a1.35,1.35,0,0,0-.27-.92,1,1,0,0,0-.78-.3,1.19,1.19,0,0,0-.9.35,1.45,1.45,0,0,0-.34,1V8.16h-1.5V3h1.43v.6a2,2,0,0,1,.74-.5,2.58,2.58,0,0,1,1-.18A2.12,2.12,0,0,1,46,3.49Z" transform="translate(-0.8 -1.04)"/><path d="M53.19,3V8.16H51.77V7.54a2,2,0,0,1-.71.51,2.24,2.24,0,0,1-.89.18,2.2,2.2,0,0,1-1.61-.59A2.33,2.33,0,0,1,48,5.91V3h1.5v2.7q0,1.25,1,1.25a1.13,1.13,0,0,0,.86-.35,1.48,1.48,0,0,0,.33-1V3Z" transform="translate(-0.8 -1.04)"/><path d="M55.07,8.08a3.29,3.29,0,0,1-1-.4l.5-1.08a3.09,3.09,0,0,0,.83.36,3.49,3.49,0,0,0,1,.14q1,0,1-.47a.33.33,0,0,0-.26-.32,3.89,3.89,0,0,0-.8-.16,7.65,7.65,0,0,1-1-.22,1.62,1.62,0,0,1-.71-.44,1.26,1.26,0,0,1-.3-.9,1.41,1.41,0,0,1,.28-.87,1.82,1.82,0,0,1,.83-.59,3.53,3.53,0,0,1,1.28-.21A5,5,0,0,1,57.69,3a3.06,3.06,0,0,1,.9.33l-.5,1.07a3,3,0,0,0-1.49-.38,1.53,1.53,0,0,0-.72.13.4.4,0,0,0-.24.35.34.34,0,0,0,.26.34,4.55,4.55,0,0,0,.83.18,8.78,8.78,0,0,1,1,.23,1.56,1.56,0,0,1,.7.44,1.24,1.24,0,0,1,.3.88,1.36,1.36,0,0,1-.29.85,1.84,1.84,0,0,1-.84.58,3.74,3.74,0,0,1-1.31.21A5,5,0,0,1,55.07,8.08Z" transform="translate(-0.8 -1.04)"/><path d="M64.06,2.69V4.46h3.11V5.71H64.06V8.16H62.5V1.44h5.08V2.69Z" transform="translate(-0.8 -1.04)"/><path d="M73.6,3V8.16H72.18V7.54a2,2,0,0,1-.71.51,2.24,2.24,0,0,1-.89.18A2.2,2.2,0,0,1,69,7.65a2.33,2.33,0,0,1-.59-1.74V3h1.5v2.7q0,1.25,1,1.25a1.13,1.13,0,0,0,.86-.35,1.48,1.48,0,0,0,.33-1V3Z" transform="translate(-0.8 -1.04)"/><path d="M79.68,3.49a2.28,2.28,0,0,1,.59,1.71v3h-1.5V5.43a1.35,1.35,0,0,0-.27-.92,1,1,0,0,0-.78-.3,1.19,1.19,0,0,0-.9.35,1.45,1.45,0,0,0-.34,1V8.16H75V3h1.43v.6a2,2,0,0,1,.74-.5,2.58,2.58,0,0,1,1-.18A2.12,2.12,0,0,1,79.68,3.49Z" transform="translate(-0.8 -1.04)"/><path d="M86.94,1V8.16H85.51V7.56a2,2,0,0,1-1.61.67,2.68,2.68,0,0,1-1.32-.33A2.33,2.33,0,0,1,81.65,7a2.84,2.84,0,0,1-.34-1.4,2.84,2.84,0,0,1,.34-1.4,2.34,2.34,0,0,1,.93-.93,2.67,2.67,0,0,1,1.32-.33,2,2,0,0,1,1.54.62V1ZM85.1,6.62a1.44,1.44,0,0,0,.38-1,1.44,1.44,0,0,0-.37-1,1.25,1.25,0,0,0-.94-.39,1.26,1.26,0,0,0-1,.39,1.44,1.44,0,0,0-.37,1,1.44,1.44,0,0,0,.37,1,1.26,1.26,0,0,0,1,.39A1.25,1.25,0,0,0,85.1,6.62Z" transform="translate(-0.8 -1.04)"/><path d="M53,18.84v.83H48.18V19l2.74-2.64a3.29,3.29,0,0,0,.67-.83,1.58,1.58,0,0,0,.17-.71,1,1,0,0,0-.37-.82,1.67,1.67,0,0,0-1.06-.29,2.11,2.11,0,0,0-1.72.73L48,13.9a2.6,2.6,0,0,1,1-.75,3.65,3.65,0,0,1,1.43-.27,2.59,2.59,0,0,1,1.68.5,1.66,1.66,0,0,1,.62,1.37,2.31,2.31,0,0,1-.23,1,4,4,0,0,1-.87,1.09l-2.05,2Z" transform="translate(-0.8 -1.04)"/><path d="M57.83,16.18a1.8,1.8,0,0,1,.68,1.48,2,2,0,0,1-.28,1.07,1.94,1.94,0,0,1-.85.75,3.25,3.25,0,0,1-1.41.27,4.39,4.39,0,0,1-1.37-.22,3,3,0,0,1-1.09-.6l.44-.76a2.53,2.53,0,0,0,.88.52,3.26,3.26,0,0,0,1.13.2,1.89,1.89,0,0,0,1.18-.32,1.05,1.05,0,0,0,.42-.88,1,1,0,0,0-.46-.92,2.94,2.94,0,0,0-1.57-.31H54L54.35,13h3.79v.83h-3L55,15.63h.75A3.37,3.37,0,0,1,57.83,16.18Z" transform="translate(-0.8 -1.04)"/><path d="M59.54,16.06a2,2,0,0,1-.43-1.32,2,2,0,0,1,.43-1.33,1.51,1.51,0,0,1,2.26,0,2,2,0,0,1,.43,1.33,2,2,0,0,1-.43,1.33,1.51,1.51,0,0,1-2.26,0Zm1.82-.38a1.57,1.57,0,0,0,.25-.95,1.57,1.57,0,0,0-.25-.95.86.86,0,0,0-1.38,0,1.55,1.55,0,0,0-.25.94,1.55,1.55,0,0,0,.25.94.86.86,0,0,0,1.38,0ZM64.72,13h.74l-4.59,6.72h-.74Zm-.93,6.27a2,2,0,0,1-.43-1.33,2,2,0,0,1,.43-1.33,1.51,1.51,0,0,1,2.26,0,2,2,0,0,1,.43,1.32,2,2,0,0,1-.43,1.32,1.51,1.51,0,0,1-2.26,0Zm1.81-.39a1.86,1.86,0,0,0,0-1.88.86.86,0,0,0-1.38,0,1.57,1.57,0,0,0-.25.95,1.57,1.57,0,0,0,.25.95.86.86,0,0,0,1.38,0Z" transform="translate(-0.8 -1.04)"/><path d="M6.63,98.77A1.68,1.68,0,0,1,7,99.83a1.55,1.55,0,0,1-.69,1.36,3.51,3.51,0,0,1-2,.47H.8V94.94H4.08A3.21,3.21,0,0,1,6,95.41a1.49,1.49,0,0,1,.66,1.28,1.61,1.61,0,0,1-.89,1.48A1.77,1.77,0,0,1,6.63,98.77ZM2.34,96.11v1.58H3.89a1.57,1.57,0,0,0,.87-.2.67.67,0,0,0,.3-.6.66.66,0,0,0-.3-.59,1.6,1.6,0,0,0-.87-.2Zm2.74,4.18a.69.69,0,0,0,.31-.62q0-.83-1.24-.83H2.34v1.66H4.16A1.73,1.73,0,0,0,5.08,100.29Z" transform="translate(-0.8 -1.04)"/><path d="M9,101.39a2.54,2.54,0,0,1-1-.95A2.76,2.76,0,0,1,8,97.7a2.53,2.53,0,0,1,1-.95,3.09,3.09,0,0,1,1.46-.34,3.06,3.06,0,0,1,1.46.34,2.54,2.54,0,0,1,1,.95,2.76,2.76,0,0,1,0,2.75,2.55,2.55,0,0,1-1,.95,3.3,3.3,0,0,1-2.92,0Zm2.41-1.28a1.65,1.65,0,0,0,0-2.08,1.35,1.35,0,0,0-1.9,0,1.63,1.63,0,0,0,0,2.08,1.35,1.35,0,0,0,1.9,0Z" transform="translate(-0.8 -1.04)"/><path d="M19.52,96.5v5.16H18.1V101a2,2,0,0,1-.71.51,2.24,2.24,0,0,1-.89.18,2.2,2.2,0,0,1-1.61-.59,2.33,2.33,0,0,1-.59-1.74V96.5h1.5v2.7q0,1.25,1,1.25a1.13,1.13,0,0,0,.86-.35A1.48,1.48,0,0,0,18,99V96.5Z" transform="translate(-0.8 -1.04)"/><path d="M25.6,97a2.28,2.28,0,0,1,.59,1.71v3H24.7V98.93a1.35,1.35,0,0,0-.27-.92,1,1,0,0,0-.78-.3,1.19,1.19,0,0,0-.9.35,1.45,1.45,0,0,0-.34,1v2.55h-1.5V96.5h1.43v.6a2,2,0,0,1,.74-.5,2.58,2.58,0,0,1,1-.18A2.12,2.12,0,0,1,25.6,97Z" transform="translate(-0.8 -1.04)"/><path d="M30.88,101.41a1.54,1.54,0,0,1-.54.25,2.73,2.73,0,0,1-.68.08,2,2,0,0,1-1.43-.47,1.8,1.8,0,0,1-.5-1.38V97.76h-.8V96.61h.8V95.35h1.5v1.26h1.29v1.15H29.23v2.1a.7.7,0,0,0,.17.5.62.62,0,0,0,.47.18,1,1,0,0,0,.6-.19Z" transform="translate(-0.8 -1.04)"/><path d="M36.75,96.5,34.42,102a2.7,2.7,0,0,1-.88,1.26,2.15,2.15,0,0,1-1.26.36,2.63,2.63,0,0,1-.8-.12,1.77,1.77,0,0,1-.64-.35l.55-1.07a1.26,1.26,0,0,0,.4.24,1.24,1.24,0,0,0,.45.09.8.8,0,0,0,.5-.15,1.27,1.27,0,0,0,.35-.5l0,0-2.24-5.2H32.4l1.45,3.5,1.46-3.5Z" transform="translate(-0.8 -1.04)"/><path d="M16.67,112.34v.83H11.84v-.65l2.74-2.64a3.29,3.29,0,0,0,.67-.83,1.58,1.58,0,0,0,.17-.71,1,1,0,0,0-.37-.82,1.67,1.67,0,0,0-1.06-.29,2.11,2.11,0,0,0-1.72.73l-.65-.57a2.6,2.6,0,0,1,1-.75,3.65,3.65,0,0,1,1.43-.27,2.59,2.59,0,0,1,1.68.5,1.66,1.66,0,0,1,.62,1.37,2.31,2.31,0,0,1-.23,1,4,4,0,0,1-.87,1.09l-2.05,2Z" transform="translate(-0.8 -1.04)"/><path d="M17.88,109.56a2.25,2.25,0,0,1,0-2.65,1.51,1.51,0,0,1,2.26,0,2.28,2.28,0,0,1,0,2.66,1.51,1.51,0,0,1-2.26,0Zm1.82-.38a1.91,1.91,0,0,0,0-1.89.86.86,0,0,0-1.38,0,1.86,1.86,0,0,0,0,1.88.86.86,0,0,0,1.38,0Zm3.36-2.72h.74l-4.59,6.72h-.74Zm-.93,6.27a2.28,2.28,0,0,1,0-2.66,1.51,1.51,0,0,1,2.26,0,2.25,2.25,0,0,1,0,2.65,1.51,1.51,0,0,1-2.26,0Zm1.81-.39a1.86,1.86,0,0,0,0-1.88.86.86,0,0,0-1.38,0,1.91,1.91,0,0,0,0,1.89.86.86,0,0,0,1.38,0Z" transform="translate(-0.8 -1.04)"/><path d="M50.37,179.21H48.22v-1.27h5.85v1.27H51.93v5.45H50.37Z" transform="translate(-0.8 -1.04)"/><path d="M59.31,182.5H55.4a1.22,1.22,0,0,0,.5.76,1.65,1.65,0,0,0,1,.28,2,2,0,0,0,.71-.12,1.74,1.74,0,0,0,.58-.38l.8.86a2.68,2.68,0,0,1-2.13.83,3.38,3.38,0,0,1-1.55-.34,2.51,2.51,0,0,1-1-.95,2.61,2.61,0,0,1-.37-1.37,2.64,2.64,0,0,1,.36-1.37,2.52,2.52,0,0,1,1-1,3.06,3.06,0,0,1,2.78,0,2.38,2.38,0,0,1,1,.94,2.79,2.79,0,0,1,.35,1.42S59.33,182.25,59.31,182.5Zm-3.5-1.66a1.23,1.23,0,0,0-.42.79h2.54a1.24,1.24,0,0,0-.42-.78,1.27,1.27,0,0,0-.84-.29A1.29,1.29,0,0,0,55.8,180.84Z" transform="translate(-0.8 -1.04)"/><path d="M64.12,180a2.19,2.19,0,0,1,.64,1.72v2.95h-1.4V184a1.67,1.67,0,0,1-1.57.72,2.43,2.43,0,0,1-1-.2,1.52,1.52,0,0,1-.67-.56,1.44,1.44,0,0,1-.23-.81A1.35,1.35,0,0,1,60.4,182a2.76,2.76,0,0,1,1.67-.41h1.19a1,1,0,0,0-.3-.75,1.31,1.31,0,0,0-.89-.26,2.62,2.62,0,0,0-.81.13,2.15,2.15,0,0,0-.68.35L60,180a3.23,3.23,0,0,1,1-.46,4.55,4.55,0,0,1,1.21-.16A2.69,2.69,0,0,1,64.12,180Zm-1.28,3.56a1,1,0,0,0,.42-.52v-.53h-1q-.92,0-.92.6a.54.54,0,0,0,.22.46,1,1,0,0,0,.62.17A1.31,1.31,0,0,0,62.84,183.55Z" transform="translate(-0.8 -1.04)"/><path d="M74.27,180a2.33,2.33,0,0,1,.57,1.71v3h-1.5v-2.73a1.41,1.41,0,0,0-.25-.92.9.9,0,0,0-.72-.3,1.06,1.06,0,0,0-.83.34,1.46,1.46,0,0,0-.31,1v2.59h-1.5v-2.73q0-1.22-1-1.22a1.06,1.06,0,0,0-.83.34,1.47,1.47,0,0,0-.31,1v2.59h-1.5V179.5h1.43v.59a1.89,1.89,0,0,1,.71-.5,2.37,2.37,0,0,1,.92-.17,2.22,2.22,0,0,1,1,.22,1.75,1.75,0,0,1,.71.63,2.12,2.12,0,0,1,.8-.62,2.52,2.52,0,0,1,1.06-.22A2.08,2.08,0,0,1,74.27,180Z" transform="translate(-0.8 -1.04)"/><path d="M57.42,195.34v.83H52.59v-.65l2.74-2.64a3.29,3.29,0,0,0,.67-.83,1.58,1.58,0,0,0,.17-.71,1,1,0,0,0-.37-.82,1.67,1.67,0,0,0-1.06-.29A2.11,2.11,0,0,0,53,191l-.65-.57a2.6,2.6,0,0,1,1-.75,3.65,3.65,0,0,1,1.43-.27,2.59,2.59,0,0,1,1.68.5,1.66,1.66,0,0,1,.62,1.37,2.31,2.31,0,0,1-.23,1,4,4,0,0,1-.87,1.09l-2.05,2Z" transform="translate(-0.8 -1.04)"/><path d="M62.92,195.34v.83H58.1v-.65l2.74-2.64a3.29,3.29,0,0,0,.67-.83,1.58,1.58,0,0,0,.17-.71,1,1,0,0,0-.37-.82,1.67,1.67,0,0,0-1.06-.29,2.11,2.11,0,0,0-1.72.73l-.65-.57a2.6,2.6,0,0,1,1-.75,3.65,3.65,0,0,1,1.43-.27,2.59,2.59,0,0,1,1.68.5,1.66,1.66,0,0,1,.62,1.37,2.31,2.31,0,0,1-.23,1,4,4,0,0,1-.87,1.09l-2.05,2Z" transform="translate(-0.8 -1.04)"/><path d="M64.13,192.56a2.25,2.25,0,0,1,0-2.65,1.51,1.51,0,0,1,2.26,0,2.28,2.28,0,0,1,0,2.66,1.51,1.51,0,0,1-2.26,0Zm1.82-.38a1.91,1.91,0,0,0,0-1.89.86.86,0,0,0-1.38,0,1.86,1.86,0,0,0,0,1.88.86.86,0,0,0,1.38,0Zm3.36-2.72h.74l-4.59,6.72h-.74Zm-.93,6.27a2.28,2.28,0,0,1,0-2.66,1.51,1.51,0,0,1,2.26,0,2.25,2.25,0,0,1,0,2.65,1.51,1.51,0,0,1-2.26,0Zm1.81-.39a1.86,1.86,0,0,0,0-1.88.86.86,0,0,0-1.38,0,1.91,1.91,0,0,0,0,1.89.86.86,0,0,0,1.38,0Z" transform="translate(-0.8 -1.04)"/><path d="M124.83,206.61v1.78h3.11v1.25h-3.11v2.45h-1.55v-6.72h5.08v1.25Z" transform="translate(-0.8 -1.04)"/><path d="M134.37,206.92v5.16H133v-.61a2,2,0,0,1-.71.51,2.24,2.24,0,0,1-.89.18,2.2,2.2,0,0,1-1.61-.59,2.33,2.33,0,0,1-.59-1.74v-2.92h1.5v2.7q0,1.25,1,1.25a1.13,1.13,0,0,0,.86-.35,1.48,1.48,0,0,0,.33-1v-2.55Z" transform="translate(-0.8 -1.04)"/><path d="M140.45,207.42a2.28,2.28,0,0,1,.59,1.71v3h-1.5v-2.73a1.35,1.35,0,0,0-.27-.92,1,1,0,0,0-.78-.3,1.19,1.19,0,0,0-.9.35,1.45,1.45,0,0,0-.34,1v2.55h-1.5v-5.16h1.43v.6a2,2,0,0,1,.74-.5,2.58,2.58,0,0,1,1-.18A2.12,2.12,0,0,1,140.45,207.42Z" transform="translate(-0.8 -1.04)"/><path d="M147.71,205v7.12h-1.43v-.59a2,2,0,0,1-1.61.67,2.68,2.68,0,0,1-1.32-.33,2.33,2.33,0,0,1-.93-.93,3.09,3.09,0,0,1,0-2.8,2.34,2.34,0,0,1,.93-.93,2.67,2.67,0,0,1,1.32-.33,2,2,0,0,1,1.54.62V205Zm-1.84,5.58a1.63,1.63,0,0,0,0-2.08,1.25,1.25,0,0,0-.94-.39,1.26,1.26,0,0,0-1,.39,1.64,1.64,0,0,0,0,2.08,1.26,1.26,0,0,0,1,.39A1.25,1.25,0,0,0,145.87,210.54Z" transform="translate(-0.8 -1.04)"/><path d="M153.45,207h1.32v1.15h-1.29v3.9H152v-3.9h-.8V207h.8v-.23a1.88,1.88,0,0,1,.52-1.4,2,2,0,0,1,1.47-.52,2.75,2.75,0,0,1,.64.07,1.53,1.53,0,0,1,.5.21l-.39,1.08a1,1,0,0,0-.6-.18q-.68,0-.68.75Z" transform="translate(-0.8 -1.04)"/><path d="M156.45,211.82a2.54,2.54,0,0,1-1-.95,2.76,2.76,0,0,1,0-2.75,2.53,2.53,0,0,1,1-.95,3.3,3.3,0,0,1,2.92,0,2.54,2.54,0,0,1,1,.95,2.76,2.76,0,0,1,0,2.75,2.55,2.55,0,0,1-1,.95,3.3,3.3,0,0,1-2.92,0Zm2.41-1.28a1.65,1.65,0,0,0,0-2.08,1.35,1.35,0,0,0-1.9,0,1.63,1.63,0,0,0,0,2.08,1.35,1.35,0,0,0,1.9,0Z" transform="translate(-0.8 -1.04)"/><path d="M163.9,207a2.69,2.69,0,0,1,1.05-.19v1.38l-.34,0a1.37,1.37,0,0,0-1,.36,1.45,1.45,0,0,0-.36,1.08v2.44h-1.5v-5.16h1.43v.68A1.67,1.67,0,0,1,163.9,207Z" transform="translate(-0.8 -1.04)"/><path d="M116.86,217.18a2.3,2.3,0,0,1,1,.84,2.54,2.54,0,0,1,0,2.59,2.26,2.26,0,0,1-1,.84,3.78,3.78,0,0,1-1.55.29H114v1.85H112.4v-6.72h2.91A3.73,3.73,0,0,1,116.86,217.18Zm-.57,3a1.05,1.05,0,0,0,.37-.86,1.07,1.07,0,0,0-.37-.87,1.64,1.64,0,0,0-1.07-.3H114v2.33h1.27A1.63,1.63,0,0,0,116.29,220.18Z" transform="translate(-0.8 -1.04)"/><path d="M123.11,218.93a2.19,2.19,0,0,1,.64,1.72v2.95h-1.4V223a1.67,1.67,0,0,1-1.57.72,2.43,2.43,0,0,1-1-.2,1.52,1.52,0,0,1-.67-.56,1.44,1.44,0,0,1-.23-.81,1.35,1.35,0,0,1,.54-1.13,2.76,2.76,0,0,1,1.67-.41h1.19a1,1,0,0,0-.3-.75,1.31,1.31,0,0,0-.89-.26,2.62,2.62,0,0,0-.81.13,2.15,2.15,0,0,0-.68.35l-.54-1a3.23,3.23,0,0,1,1-.46,4.55,4.55,0,0,1,1.21-.16A2.69,2.69,0,0,1,123.11,218.93Zm-1.28,3.56a1,1,0,0,0,.42-.52v-.53h-1q-.92,0-.92.6a.54.54,0,0,0,.22.46,1,1,0,0,0,.62.17A1.31,1.31,0,0,0,121.83,222.49Z" transform="translate(-0.8 -1.04)"/><path d="M127.26,218.55a2.69,2.69,0,0,1,1.05-.19v1.38l-.34,0a1.37,1.37,0,0,0-1,.36,1.45,1.45,0,0,0-.36,1.08v2.44h-1.5v-5.16h1.43v.68A1.67,1.67,0,0,1,127.26,218.55Z" transform="translate(-0.8 -1.04)"/><path d="M132.71,223.35a1.54,1.54,0,0,1-.54.25,2.73,2.73,0,0,1-.68.08,2,2,0,0,1-1.43-.47,1.8,1.8,0,0,1-.5-1.38V219.7h-.8v-1.15h.8v-1.26h1.5v1.26h1.29v1.15h-1.29v2.1a.7.7,0,0,0,.17.5.62.62,0,0,0,.47.18,1,1,0,0,0,.6-.19Z" transform="translate(-0.8 -1.04)"/><path d="M138.25,218.94a2.28,2.28,0,0,1,.59,1.71v3h-1.5v-2.73a1.35,1.35,0,0,0-.27-.92,1,1,0,0,0-.78-.3,1.19,1.19,0,0,0-.9.35,1.45,1.45,0,0,0-.34,1v2.55h-1.5v-5.16H135v.6a2,2,0,0,1,.74-.5,2.58,2.58,0,0,1,1-.18A2.12,2.12,0,0,1,138.25,218.94Z" transform="translate(-0.8 -1.04)"/><path d="M145.28,221.44h-3.91a1.22,1.22,0,0,0,.5.76,1.65,1.65,0,0,0,1,.28,2,2,0,0,0,.71-.12,1.74,1.74,0,0,0,.58-.38l.8.86a2.68,2.68,0,0,1-2.13.83,3.38,3.38,0,0,1-1.55-.34,2.51,2.51,0,0,1-1-.95,2.61,2.61,0,0,1-.37-1.37,2.64,2.64,0,0,1,.36-1.37,2.52,2.52,0,0,1,1-1,3.06,3.06,0,0,1,2.78,0,2.38,2.38,0,0,1,1,.94,2.79,2.79,0,0,1,.35,1.42S145.29,221.19,145.28,221.44Zm-3.5-1.66a1.23,1.23,0,0,0-.42.79h2.54a1.24,1.24,0,0,0-.42-.78,1.27,1.27,0,0,0-.84-.29A1.29,1.29,0,0,0,141.77,219.78Z" transform="translate(-0.8 -1.04)"/><path d="M148.46,218.55a2.69,2.69,0,0,1,1.05-.19v1.38l-.34,0a1.37,1.37,0,0,0-1,.36,1.45,1.45,0,0,0-.36,1.08v2.44h-1.5v-5.16h1.43v.68A1.67,1.67,0,0,1,148.46,218.55Z" transform="translate(-0.8 -1.04)"/><path d="M150.9,223.52a3.29,3.29,0,0,1-1-.4l.5-1.08a3.09,3.09,0,0,0,.83.36,3.49,3.49,0,0,0,1,.14q1,0,1-.47a.33.33,0,0,0-.26-.32,3.89,3.89,0,0,0-.8-.16,7.65,7.65,0,0,1-1-.22,1.62,1.62,0,0,1-.71-.44,1.26,1.26,0,0,1-.3-.9,1.41,1.41,0,0,1,.28-.87,1.82,1.82,0,0,1,.83-.59,3.53,3.53,0,0,1,1.28-.21,5,5,0,0,1,1.09.12,3.06,3.06,0,0,1,.9.33l-.5,1.07a3,3,0,0,0-1.49-.38,1.53,1.53,0,0,0-.72.13.4.4,0,0,0-.24.35.34.34,0,0,0,.26.34,4.55,4.55,0,0,0,.83.18,8.78,8.78,0,0,1,1,.23,1.56,1.56,0,0,1,.7.44,1.24,1.24,0,0,1,.3.88,1.36,1.36,0,0,1-.29.85,1.84,1.84,0,0,1-.84.58,3.74,3.74,0,0,1-1.31.21A5,5,0,0,1,150.9,223.52Z" transform="translate(-0.8 -1.04)"/><path d="M160.21,218.94a2.28,2.28,0,0,1,.59,1.71v3h-1.5v-2.73A1.35,1.35,0,0,0,159,220a1,1,0,0,0-.78-.3,1.19,1.19,0,0,0-.9.35,1.45,1.45,0,0,0-.34,1v2.55h-1.5v-7.12H157V219a2,2,0,0,1,.72-.46,2.61,2.61,0,0,1,.92-.16A2.12,2.12,0,0,1,160.21,218.94Z" transform="translate(-0.8 -1.04)"/><path d="M162.22,217.48a.81.81,0,0,1,0-1.19,1,1,0,0,1,.67-.24,1,1,0,0,1,.67.23.74.74,0,0,1,.26.58.82.82,0,0,1-.26.62.94.94,0,0,1-.67.24A1,1,0,0,1,162.22,217.48Zm-.08,1h1.5v5.16h-1.5Z" transform="translate(-0.8 -1.04)"/><path d="M169.4,218.69a2.39,2.39,0,0,1,.93.93,3.07,3.07,0,0,1,0,2.79,2.38,2.38,0,0,1-.93.93,2.63,2.63,0,0,1-1.31.33,2,2,0,0,1-1.55-.62v2.41H165v-7h1.43V219a2,2,0,0,1,1.62-.67A2.63,2.63,0,0,1,169.4,218.69Zm-.62,3.37a1.65,1.65,0,0,0,0-2.08,1.34,1.34,0,0,0-1.89,0,1.65,1.65,0,0,0,0,2.08,1.34,1.34,0,0,0,1.89,0Z" transform="translate(-0.8 -1.04)"/><path d="M172.14,223.52a3.29,3.29,0,0,1-1-.4l.5-1.08a3.09,3.09,0,0,0,.83.36,3.49,3.49,0,0,0,1,.14q1,0,1-.47a.33.33,0,0,0-.26-.32,3.89,3.89,0,0,0-.8-.16,7.65,7.65,0,0,1-1-.22,1.62,1.62,0,0,1-.71-.44,1.26,1.26,0,0,1-.3-.9,1.41,1.41,0,0,1,.28-.87,1.82,1.82,0,0,1,.83-.59,3.53,3.53,0,0,1,1.28-.21,5,5,0,0,1,1.09.12,3.06,3.06,0,0,1,.9.33l-.5,1.07a3,3,0,0,0-1.49-.38,1.53,1.53,0,0,0-.72.13.4.4,0,0,0-.24.35.34.34,0,0,0,.26.34,4.55,4.55,0,0,0,.83.18,8.78,8.78,0,0,1,1,.23,1.56,1.56,0,0,1,.7.44,1.24,1.24,0,0,1,.3.88,1.36,1.36,0,0,1-.29.85,1.84,1.84,0,0,1-.84.58,3.74,3.74,0,0,1-1.31.21A5,5,0,0,1,172.14,223.52Z" transform="translate(-0.8 -1.04)"/><path d="M140.56,228.4v6.72h-1v-5.88h-1.52v-.83Z" transform="translate(-0.8 -1.04)"/><path d="M142.35,231.5a2.25,2.25,0,0,1,0-2.65,1.51,1.51,0,0,1,2.26,0,2.28,2.28,0,0,1,0,2.66,1.51,1.51,0,0,1-2.26,0Zm1.82-.38a1.91,1.91,0,0,0,0-1.89.86.86,0,0,0-1.38,0,1.86,1.86,0,0,0,0,1.88.86.86,0,0,0,1.38,0Zm3.36-2.72h.74l-4.59,6.72h-.74Zm-.93,6.27a2.28,2.28,0,0,1,0-2.66,1.51,1.51,0,0,1,2.26,0,2.25,2.25,0,0,1,0,2.65,1.51,1.51,0,0,1-2.26,0Zm1.81-.39a1.86,1.86,0,0,0,0-1.88.86.86,0,0,0-1.38,0,1.91,1.91,0,0,0,0,1.89.86.86,0,0,0,1.38,0Z" transform="translate(-0.8 -1.04)"/><path d="M254.16,69.36h1.55v6.72h-1.55Z" transform="translate(-0.8 -1.04)"/><path d="M261.89,71.42a2.28,2.28,0,0,1,.59,1.71v3H261V73.36a1.35,1.35,0,0,0-.27-.92,1,1,0,0,0-.78-.3,1.19,1.19,0,0,0-.9.35,1.45,1.45,0,0,0-.34,1v2.55h-1.5V70.92h1.43v.6a2,2,0,0,1,.74-.5,2.58,2.58,0,0,1,1-.18A2.12,2.12,0,0,1,261.89,71.42Z" transform="translate(-0.8 -1.04)"/><path d="M268.86,70.92l-2.18,5.16h-1.54L263,70.92h1.55l1.43,3.51,1.48-3.51Z" transform="translate(-0.8 -1.04)"/><path d="M274.36,73.92h-3.91a1.22,1.22,0,0,0,.5.76,1.65,1.65,0,0,0,1,.28,2,2,0,0,0,.71-.12,1.74,1.74,0,0,0,.58-.38l.8.86a2.68,2.68,0,0,1-2.13.83,3.38,3.38,0,0,1-1.55-.34,2.51,2.51,0,0,1-1-.95A2.61,2.61,0,0,1,269,73.5a2.64,2.64,0,0,1,.36-1.37,2.52,2.52,0,0,1,1-1,3.06,3.06,0,0,1,2.78,0,2.38,2.38,0,0,1,1,.94,2.79,2.79,0,0,1,.35,1.42S274.38,73.67,274.36,73.92Zm-3.5-1.66a1.23,1.23,0,0,0-.42.79H273a1.24,1.24,0,0,0-.42-.78,1.27,1.27,0,0,0-.84-.29A1.29,1.29,0,0,0,270.86,72.26Z" transform="translate(-0.8 -1.04)"/><path d="M275.87,76a3.29,3.29,0,0,1-1-.4l.5-1.08a3.09,3.09,0,0,0,.83.36,3.49,3.49,0,0,0,1,.14q1,0,1-.47a.33.33,0,0,0-.26-.32,3.89,3.89,0,0,0-.8-.16,7.65,7.65,0,0,1-1-.22,1.62,1.62,0,0,1-.71-.44,1.26,1.26,0,0,1-.3-.9,1.41,1.41,0,0,1,.28-.87,1.82,1.82,0,0,1,.83-.59,3.53,3.53,0,0,1,1.28-.21,5,5,0,0,1,1.09.12,3.06,3.06,0,0,1,.9.33l-.5,1.07a3,3,0,0,0-1.49-.38,1.53,1.53,0,0,0-.72.13.4.4,0,0,0-.24.35.34.34,0,0,0,.26.34,4.55,4.55,0,0,0,.83.18,8.78,8.78,0,0,1,1,.23,1.56,1.56,0,0,1,.7.44,1.24,1.24,0,0,1,.3.88,1.36,1.36,0,0,1-.29.85,1.84,1.84,0,0,1-.84.58,3.74,3.74,0,0,1-1.31.21A5,5,0,0,1,275.87,76Z" transform="translate(-0.8 -1.04)"/><path d="M283.82,75.83a1.54,1.54,0,0,1-.54.25,2.73,2.73,0,0,1-.68.08,2,2,0,0,1-1.43-.47,1.8,1.8,0,0,1-.5-1.38V72.19h-.8V71h.8V69.78h1.5V71h1.29v1.15h-1.29v2.1a.7.7,0,0,0,.17.5.62.62,0,0,0,.47.18,1,1,0,0,0,.6-.19Z" transform="translate(-0.8 -1.04)"/><path d="M285.49,75.82a2.54,2.54,0,0,1-1-.95,2.76,2.76,0,0,1,0-2.75,2.53,2.53,0,0,1,1-.95,3.3,3.3,0,0,1,2.92,0,2.54,2.54,0,0,1,1,.95,2.76,2.76,0,0,1,0,2.75,2.55,2.55,0,0,1-1,.95,3.3,3.3,0,0,1-2.92,0Zm2.41-1.28a1.65,1.65,0,0,0,0-2.08,1.35,1.35,0,0,0-1.9,0,1.63,1.63,0,0,0,0,2.08,1.35,1.35,0,0,0,1.9,0Z" transform="translate(-0.8 -1.04)"/><path d="M292.94,71a2.69,2.69,0,0,1,1.05-.19v1.38l-.34,0a1.37,1.37,0,0,0-1,.36,1.45,1.45,0,0,0-.36,1.08v2.44h-1.5V70.92h1.43v.68A1.67,1.67,0,0,1,292.94,71Z" transform="translate(-0.8 -1.04)"/><path d="M295.38,76a3.29,3.29,0,0,1-1-.4l.5-1.08a3.09,3.09,0,0,0,.83.36,3.49,3.49,0,0,0,1,.14q1,0,1-.47a.33.33,0,0,0-.26-.32,3.89,3.89,0,0,0-.8-.16,7.65,7.65,0,0,1-1-.22,1.62,1.62,0,0,1-.71-.44,1.26,1.26,0,0,1-.3-.9,1.41,1.41,0,0,1,.28-.87,1.82,1.82,0,0,1,.83-.59,3.53,3.53,0,0,1,1.28-.21A5,5,0,0,1,298,71a3.06,3.06,0,0,1,.9.33l-.5,1.07a3,3,0,0,0-1.49-.38,1.53,1.53,0,0,0-.72.13.4.4,0,0,0-.24.35.34.34,0,0,0,.26.34A4.55,4.55,0,0,0,297,73a8.78,8.78,0,0,1,1,.23,1.56,1.56,0,0,1,.7.44,1.24,1.24,0,0,1,.3.88,1.36,1.36,0,0,1-.29.85A1.84,1.84,0,0,1,298,76a3.74,3.74,0,0,1-1.31.21A5,5,0,0,1,295.38,76Z" transform="translate(-0.8 -1.04)"/><path d="M270.83,84.1a1.8,1.8,0,0,1,.68,1.48,2,2,0,0,1-.28,1.07,1.94,1.94,0,0,1-.85.75,3.25,3.25,0,0,1-1.41.27,4.39,4.39,0,0,1-1.37-.22,3,3,0,0,1-1.09-.6l.44-.76a2.53,2.53,0,0,0,.88.52,3.26,3.26,0,0,0,1.13.2,1.89,1.89,0,0,0,1.18-.32,1.05,1.05,0,0,0,.42-.88,1,1,0,0,0-.46-.92,2.94,2.94,0,0,0-1.57-.31H267l.36-3.51h3.79v.83h-3L268,83.56h.75A3.37,3.37,0,0,1,270.83,84.1Z" transform="translate(-0.8 -1.04)"/><path d="M273.63,87.27a2.73,2.73,0,0,1-1-1.19,5,5,0,0,1,0-3.69,2.74,2.74,0,0,1,1-1.19,2.65,2.65,0,0,1,2.82,0,2.74,2.74,0,0,1,1,1.19,5,5,0,0,1,0,3.69,2.73,2.73,0,0,1-1,1.19,2.64,2.64,0,0,1-2.82,0Zm2.71-1.11a4,4,0,0,0,0-3.84,1.6,1.6,0,0,0-2.59,0,4,4,0,0,0,0,3.84,1.6,1.6,0,0,0,2.59,0Z" transform="translate(-0.8 -1.04)"/><path d="M279,84a2.25,2.25,0,0,1,0-2.65,1.51,1.51,0,0,1,2.26,0,2.28,2.28,0,0,1,0,2.66A1.51,1.51,0,0,1,279,84Zm1.82-.38a1.91,1.91,0,0,0,0-1.89.86.86,0,0,0-1.38,0,1.86,1.86,0,0,0,0,1.88.86.86,0,0,0,1.38,0Zm3.36-2.72H285l-4.59,6.72h-.74Zm-.93,6.27a2.28,2.28,0,0,1,0-2.66,1.51,1.51,0,0,1,2.26,0,2.25,2.25,0,0,1,0,2.65,1.51,1.51,0,0,1-2.26,0Zm1.81-.39a1.86,1.86,0,0,0,0-1.88.86.86,0,0,0-1.38,0,1.91,1.91,0,0,0,0,1.89.86.86,0,0,0,1.38,0Z" transform="translate(-0.8 -1.04)"/></g></g></svg>