<?xml version="1.0" encoding="utf-8"?>
<!-- Generator: Adobe Illustrator 19.0.0, SVG Export Plug-In . SVG Version: 6.00 Build 0)  -->
<svg version="1.1" id="Слой_1" xmlns="http://www.w3.org/2000/svg" xmlns:xlink="http://www.w3.org/1999/xlink" x="0px" y="0px"
	 viewBox="0 0 236.5 215.5" style="enable-background:new 0 0 236.5 215.5;" xml:space="preserve">
<style type="text/css">
	.st0{fill:#010202;}
	.st1{fill:#991915;}
	.st2{fill:#F9CBCC;}
	.st3{fill:#EC6669;}
	.st4{fill:#E30D18;}
</style>
<g id="XMLID_104_">
	<path id="XMLID_105_" class="st0" d="M5.5,195.1c0,0.6-0.2,1.1-0.5,1.5c-0.3,0.4-0.8,0.6-1.3,0.8c0.1,0.2,0.3,0.4,0.5,0.6
		s0.4,0.6,0.6,0.9c0.2,0.3,0.4,0.7,0.6,1s0.4,0.7,0.5,1H5.2c-0.2-0.3-0.4-0.6-0.5-1c-0.2-0.3-0.4-0.6-0.6-0.9
		c-0.2-0.3-0.4-0.6-0.6-0.8c-0.2-0.3-0.4-0.5-0.5-0.7c-0.3,0-0.5,0-0.8,0H0.8v3.4H0v-8.2c0.3-0.1,0.6-0.1,1-0.2
		c0.4,0,0.7-0.1,1.1-0.1c1.1,0,2,0.2,2.6,0.6C5.3,193.6,5.5,194.2,5.5,195.1z M2.2,193.2c-0.3,0-0.6,0-0.8,0c-0.2,0-0.4,0-0.6,0.1
		v3.5h1.1c0.4,0,0.7,0,1.1-0.1c0.3,0,0.6-0.1,0.9-0.2c0.2-0.1,0.4-0.3,0.6-0.5s0.2-0.5,0.2-0.9c0-0.4-0.1-0.7-0.2-0.9
		c-0.1-0.2-0.3-0.4-0.6-0.6c-0.2-0.1-0.5-0.2-0.8-0.3C2.8,193.2,2.5,193.2,2.2,193.2z"/>
	<path id="XMLID_108_" class="st0" d="M7,197.8c0-0.5,0.1-1,0.2-1.4c0.2-0.4,0.4-0.7,0.6-1s0.5-0.5,0.9-0.6c0.3-0.1,0.7-0.2,1-0.2
		c0.8,0,1.4,0.2,1.8,0.7s0.7,1.3,0.7,2.3c0,0.1,0,0.1,0,0.2s0,0.1,0,0.2H7.8c0,0.8,0.2,1.3,0.6,1.8s0.9,0.6,1.7,0.6
		c0.4,0,0.8,0,1-0.1c0.2-0.1,0.4-0.1,0.5-0.2l0.1,0.7c-0.1,0.1-0.3,0.1-0.6,0.2S10.5,201,10,201c-0.5,0-1-0.1-1.4-0.2
		c-0.4-0.2-0.7-0.4-0.9-0.7c-0.2-0.3-0.4-0.6-0.5-1C7.1,198.7,7,198.3,7,197.8z M11.4,197.3c0-0.6-0.2-1.2-0.5-1.5
		c-0.3-0.4-0.7-0.5-1.2-0.5c-0.3,0-0.5,0.1-0.8,0.2c-0.2,0.1-0.4,0.3-0.6,0.4c-0.2,0.2-0.3,0.4-0.4,0.7c-0.1,0.2-0.1,0.5-0.2,0.8
		H11.4z"/>
	<path id="XMLID_111_" class="st0" d="M15.2,200.3c0.4,0,0.8-0.1,1.1-0.2c0.3-0.1,0.4-0.4,0.4-0.8c0-0.2,0-0.3-0.1-0.4
		s-0.1-0.2-0.3-0.3s-0.3-0.2-0.5-0.3c-0.2-0.1-0.4-0.2-0.7-0.3c-0.2-0.1-0.5-0.2-0.7-0.3c-0.2-0.1-0.4-0.2-0.6-0.3s-0.3-0.3-0.4-0.5
		c-0.1-0.2-0.1-0.4-0.1-0.7c0-0.5,0.2-0.9,0.6-1.2s0.9-0.5,1.6-0.5c0.4,0,0.8,0,1.1,0.1c0.3,0.1,0.5,0.1,0.6,0.2l-0.2,0.7
		c-0.1,0-0.3-0.1-0.5-0.2c-0.2-0.1-0.6-0.1-1-0.1c-0.2,0-0.3,0-0.5,0.1c-0.2,0-0.3,0.1-0.4,0.2c-0.1,0.1-0.2,0.2-0.3,0.3
		c-0.1,0.1-0.1,0.3-0.1,0.4c0,0.2,0,0.3,0.1,0.4s0.2,0.2,0.3,0.3s0.3,0.2,0.5,0.3c0.2,0.1,0.4,0.2,0.6,0.3c0.2,0.1,0.5,0.2,0.7,0.3
		c0.2,0.1,0.4,0.2,0.6,0.4c0.2,0.1,0.3,0.3,0.4,0.5c0.1,0.2,0.2,0.4,0.2,0.7c0,0.6-0.2,1-0.6,1.3s-1,0.4-1.7,0.4c-0.5,0-1,0-1.2-0.1
		s-0.5-0.2-0.6-0.2l0.2-0.7c0,0,0.1,0,0.2,0.1s0.2,0.1,0.3,0.1c0.1,0,0.3,0.1,0.5,0.1C14.7,200.3,15,200.3,15.2,200.3z"/>
	<path id="XMLID_113_" class="st0" d="M18.7,197.8c0-0.5,0.1-1,0.2-1.4c0.2-0.4,0.4-0.7,0.6-1s0.5-0.5,0.9-0.6
		c0.3-0.1,0.7-0.2,1-0.2c0.8,0,1.4,0.2,1.8,0.7s0.7,1.3,0.7,2.3c0,0.1,0,0.1,0,0.2s0,0.1,0,0.2h-4.4c0,0.8,0.2,1.3,0.6,1.8
		s0.9,0.6,1.7,0.6c0.4,0,0.8,0,1-0.1c0.2-0.1,0.4-0.1,0.5-0.2l0.1,0.7c-0.1,0.1-0.3,0.1-0.6,0.2s-0.7,0.1-1.1,0.1
		c-0.5,0-1-0.1-1.4-0.2c-0.4-0.2-0.7-0.4-0.9-0.7c-0.2-0.3-0.4-0.6-0.5-1C18.8,198.7,18.7,198.3,18.7,197.8z M23.1,197.3
		c0-0.6-0.2-1.2-0.5-1.5c-0.3-0.4-0.7-0.5-1.2-0.5c-0.3,0-0.5,0.1-0.8,0.2c-0.2,0.1-0.4,0.3-0.6,0.4c-0.2,0.2-0.3,0.4-0.4,0.7
		c-0.1,0.2-0.1,0.5-0.2,0.8H23.1z"/>
	<path id="XMLID_116_" class="st0" d="M27.8,194.6c0.3,0,0.5,0,0.7,0.1c0.2,0,0.4,0.1,0.5,0.1l-0.2,0.7c-0.1,0-0.2-0.1-0.4-0.1
		c-0.2,0-0.5-0.1-0.8-0.1c-0.3,0-0.6,0-0.8,0.1c-0.2,0-0.3,0.1-0.4,0.1v5.4h-0.8V195c0.2-0.1,0.5-0.2,0.8-0.3
		C26.8,194.6,27.3,194.6,27.8,194.6z"/>
	<path id="XMLID_118_" class="st0" d="M32.3,200c0.2-0.3,0.3-0.7,0.5-1.2c0.2-0.4,0.3-0.9,0.5-1.4c0.2-0.5,0.3-1,0.5-1.4
		c0.1-0.5,0.3-0.9,0.4-1.4h0.8c-0.1,0.6-0.3,1.1-0.5,1.7c-0.2,0.6-0.4,1.1-0.6,1.6c-0.2,0.5-0.4,1-0.6,1.5s-0.4,0.9-0.6,1.4h-0.7
		c-0.2-0.4-0.4-0.9-0.6-1.4c-0.2-0.5-0.4-1-0.6-1.5c-0.2-0.5-0.4-1.1-0.6-1.6c-0.2-0.6-0.3-1.1-0.5-1.7h0.8c0.1,0.4,0.2,0.9,0.4,1.4
		c0.1,0.5,0.3,1,0.5,1.4c0.2,0.5,0.3,0.9,0.5,1.4C31.9,199.3,32.1,199.7,32.3,200z"/>
	<path id="XMLID_120_" class="st0" d="M35.8,197.8c0-0.5,0.1-1,0.2-1.4c0.2-0.4,0.4-0.7,0.6-1s0.5-0.5,0.9-0.6
		c0.3-0.1,0.7-0.2,1-0.2c0.8,0,1.4,0.2,1.8,0.7s0.7,1.3,0.7,2.3c0,0.1,0,0.1,0,0.2s0,0.1,0,0.2h-4.4c0,0.8,0.2,1.3,0.6,1.8
		s0.9,0.6,1.7,0.6c0.4,0,0.8,0,1-0.1c0.2-0.1,0.4-0.1,0.5-0.2l0.1,0.7c-0.1,0.1-0.3,0.1-0.6,0.2s-0.7,0.1-1.1,0.1
		c-0.5,0-1-0.1-1.4-0.2c-0.4-0.2-0.7-0.4-0.9-0.7c-0.2-0.3-0.4-0.6-0.5-1C35.8,198.7,35.8,198.3,35.8,197.8z M40.2,197.3
		c0-0.6-0.2-1.2-0.5-1.5c-0.3-0.4-0.7-0.5-1.2-0.5c-0.3,0-0.5,0.1-0.8,0.2c-0.2,0.1-0.4,0.3-0.6,0.4c-0.2,0.2-0.3,0.4-0.4,0.7
		c-0.1,0.2-0.1,0.5-0.2,0.8H40.2z"/>
	<path id="XMLID_123_" class="st0" d="M45.5,200.9v-8.3h4.7v0.7h-3.9v2.9h3.5v0.7h-3.5v4H45.5z"/>
	<path id="XMLID_125_" class="st0" d="M56.3,200.7c-0.2,0.1-0.5,0.1-0.9,0.2s-0.9,0.1-1.4,0.1c-0.5,0-0.9-0.1-1.2-0.2
		s-0.6-0.3-0.8-0.6c-0.2-0.2-0.3-0.5-0.4-0.9c-0.1-0.4-0.1-0.7-0.1-1.2v-3.5h0.8v3.2c0,0.4,0,0.8,0.1,1.1c0.1,0.3,0.2,0.6,0.3,0.7
		s0.3,0.3,0.6,0.4s0.5,0.1,0.8,0.1c0.4,0,0.7,0,1-0.1c0.3,0,0.4-0.1,0.5-0.1v-5.4h0.8V200.7z"/>
	<path id="XMLID_127_" class="st0" d="M58.4,194.9c0.2-0.1,0.5-0.1,0.9-0.2c0.4-0.1,0.9-0.1,1.4-0.1c0.5,0,0.9,0.1,1.2,0.2
		c0.3,0.1,0.6,0.3,0.8,0.6c0.2,0.3,0.3,0.6,0.4,0.9c0.1,0.4,0.1,0.7,0.1,1.2v3.5h-0.8v-3.2c0-0.4,0-0.8-0.1-1.1s-0.2-0.6-0.3-0.7
		c-0.1-0.2-0.3-0.3-0.6-0.4c-0.2-0.1-0.5-0.1-0.9-0.1c-0.4,0-0.7,0-1,0.1c-0.3,0-0.4,0.1-0.5,0.1v5.4h-0.8V194.9z"/>
	<path id="XMLID_129_" class="st0" d="M70.1,200.7c-0.2,0.1-0.5,0.2-0.9,0.2c-0.4,0.1-0.8,0.1-1.4,0.1c-0.5,0-0.9-0.1-1.2-0.2
		c-0.4-0.1-0.7-0.4-1-0.6c-0.3-0.3-0.5-0.6-0.6-1c-0.1-0.4-0.2-0.9-0.2-1.4c0-0.5,0.1-0.9,0.2-1.3c0.1-0.4,0.3-0.7,0.5-1
		c0.2-0.3,0.5-0.5,0.9-0.7c0.3-0.2,0.7-0.2,1.2-0.2c0.4,0,0.8,0.1,1.1,0.2c0.3,0.1,0.5,0.2,0.7,0.3v-3.3l0.8-0.1V200.7z M69.3,195.8
		c-0.1-0.1-0.2-0.1-0.3-0.2s-0.2-0.1-0.4-0.2c-0.1-0.1-0.3-0.1-0.5-0.1s-0.3-0.1-0.5-0.1c-0.4,0-0.7,0.1-1,0.2
		c-0.3,0.1-0.5,0.3-0.6,0.5s-0.3,0.5-0.3,0.8c-0.1,0.3-0.1,0.6-0.1,1c0,0.8,0.2,1.4,0.6,1.9c0.4,0.4,0.9,0.7,1.6,0.7
		c0.4,0,0.7,0,0.9-0.1c0.2,0,0.4-0.1,0.5-0.1V195.8z"/>
	<path id="XMLID_132_" class="st0" d="M24.6,208.7c0.5-0.2,0.9-0.4,1.3-0.6c0.4-0.3,0.7-0.6,1.1-1.1h0.6v8.3h-0.8v-7.1
		c-0.1,0.1-0.2,0.2-0.3,0.3c-0.1,0.1-0.3,0.2-0.5,0.3c-0.2,0.1-0.4,0.2-0.6,0.3c-0.2,0.1-0.4,0.2-0.6,0.2L24.6,208.7z"/>
	<path id="XMLID_134_" class="st0" d="M33.4,215.5c-0.4,0-0.7-0.1-1.1-0.2c-0.3-0.1-0.6-0.3-0.8-0.5c-0.2-0.2-0.4-0.4-0.5-0.7
		s-0.2-0.6-0.2-0.9c0-0.3,0-0.5,0.1-0.8c0.1-0.2,0.2-0.4,0.3-0.6c0.1-0.2,0.3-0.3,0.5-0.5c0.2-0.1,0.4-0.3,0.5-0.4
		c-0.5-0.2-0.8-0.5-1-0.9c-0.2-0.3-0.3-0.7-0.3-1.1c0-0.3,0.1-0.7,0.2-0.9c0.1-0.3,0.3-0.5,0.5-0.7s0.5-0.3,0.8-0.5
		c0.3-0.1,0.6-0.2,1-0.2c0.4,0,0.8,0.1,1.1,0.2s0.6,0.3,0.8,0.5c0.2,0.2,0.3,0.4,0.4,0.7c0.1,0.3,0.1,0.5,0.1,0.8
		c0,0.3,0,0.5-0.1,0.7s-0.2,0.4-0.3,0.6c-0.1,0.2-0.3,0.3-0.4,0.5s-0.3,0.3-0.5,0.3c0.6,0.2,1,0.5,1.2,0.9c0.2,0.4,0.3,0.7,0.3,1.1
		c0,0.3-0.1,0.7-0.2,0.9s-0.3,0.5-0.5,0.7c-0.2,0.2-0.5,0.4-0.8,0.5C34.2,215.4,33.8,215.5,33.4,215.5z M35.2,213.2
		c0-0.3-0.1-0.6-0.2-0.8c-0.1-0.2-0.3-0.4-0.5-0.5s-0.5-0.2-0.7-0.3s-0.5-0.2-0.8-0.3c-0.4,0.2-0.7,0.5-0.9,0.8
		c-0.2,0.3-0.3,0.7-0.3,1.2c0,0.2,0,0.4,0.1,0.6c0.1,0.2,0.2,0.4,0.3,0.5c0.1,0.1,0.3,0.3,0.6,0.3s0.5,0.1,0.8,0.1s0.6,0,0.8-0.1
		c0.2-0.1,0.4-0.2,0.6-0.3s0.3-0.3,0.3-0.5C35.2,213.6,35.2,213.4,35.2,213.2z M31.8,209c0,0.2,0,0.4,0.1,0.6
		c0.1,0.2,0.1,0.4,0.3,0.5c0.1,0.1,0.3,0.3,0.6,0.4c0.3,0.1,0.6,0.2,1,0.4c0.4-0.2,0.7-0.5,0.9-0.8c0.2-0.3,0.3-0.7,0.3-1.1
		c0-0.2,0-0.4-0.1-0.5c-0.1-0.2-0.2-0.3-0.3-0.5s-0.3-0.3-0.5-0.3c-0.2-0.1-0.4-0.1-0.7-0.1c-0.3,0-0.5,0-0.7,0.1
		c-0.2,0.1-0.4,0.2-0.5,0.3c-0.1,0.1-0.2,0.3-0.3,0.5C31.9,208.6,31.8,208.8,31.8,209z"/>
	<path id="XMLID_138_" class="st0" d="M41.1,208.9c0,0.4,0,0.7-0.1,0.9c-0.1,0.3-0.2,0.5-0.4,0.7s-0.4,0.3-0.6,0.4
		c-0.2,0.1-0.4,0.1-0.7,0.1c-0.2,0-0.5,0-0.7-0.1c-0.2-0.1-0.4-0.2-0.6-0.4s-0.3-0.4-0.4-0.7c-0.1-0.3-0.1-0.6-0.1-0.9
		c0-0.4,0-0.7,0.1-0.9c0.1-0.3,0.2-0.5,0.4-0.7c0.2-0.2,0.4-0.3,0.6-0.4c0.2-0.1,0.4-0.1,0.7-0.1c0.2,0,0.5,0,0.7,0.1
		c0.2,0.1,0.4,0.2,0.6,0.4c0.2,0.2,0.3,0.4,0.4,0.7C41.1,208.3,41.1,208.6,41.1,208.9z M40.4,208.9c0-0.5-0.1-0.8-0.3-1.1
		c-0.2-0.3-0.5-0.4-0.8-0.4c-0.4,0-0.6,0.1-0.8,0.4c-0.2,0.3-0.3,0.6-0.3,1.1s0.1,0.8,0.3,1.1s0.5,0.4,0.8,0.4
		c0.4,0,0.6-0.1,0.8-0.4C40.3,209.8,40.4,209.4,40.4,208.9z M43.8,207h0.8l-4.7,8.3H39L43.8,207z M42.5,213.3c0-0.4,0-0.7,0.1-0.9
		c0.1-0.3,0.2-0.5,0.4-0.7c0.2-0.2,0.4-0.3,0.6-0.4c0.2-0.1,0.4-0.1,0.7-0.1c0.2,0,0.5,0,0.7,0.1c0.2,0.1,0.4,0.2,0.6,0.4
		c0.2,0.2,0.3,0.4,0.4,0.7c0.1,0.3,0.1,0.6,0.1,0.9c0,0.4,0,0.7-0.1,0.9c-0.1,0.3-0.2,0.5-0.4,0.7c-0.2,0.2-0.4,0.3-0.6,0.4
		s-0.4,0.1-0.7,0.1c-0.2,0-0.5,0-0.7-0.1c-0.2-0.1-0.4-0.2-0.6-0.4c-0.2-0.2-0.3-0.4-0.4-0.7C42.5,214,42.5,213.7,42.5,213.3z
		 M43.2,213.3c0,0.5,0.1,0.8,0.3,1.1s0.5,0.4,0.8,0.4c0.4,0,0.6-0.1,0.8-0.4s0.3-0.6,0.3-1.1s-0.1-0.8-0.3-1.1
		c-0.2-0.3-0.5-0.4-0.8-0.4c-0.4,0-0.6,0.1-0.8,0.4C43.3,212.5,43.2,212.9,43.2,213.3z"/>
</g>
<g id="XMLID_82_">
	<path id="XMLID_83_" class="st0" d="M17.4,65.6v0.7h-2.7v7.6h-0.8v-7.6h-2.7v-0.7H17.4z"/>
	<path id="XMLID_85_" class="st0" d="M17.7,70.8c0-0.5,0.1-1,0.2-1.4c0.2-0.4,0.4-0.7,0.6-1s0.5-0.5,0.9-0.6c0.3-0.1,0.7-0.2,1-0.2
		c0.8,0,1.4,0.2,1.8,0.7s0.7,1.3,0.7,2.3c0,0.1,0,0.1,0,0.2c0,0.1,0,0.1,0,0.2h-4.4c0,0.8,0.2,1.3,0.6,1.8s0.9,0.6,1.7,0.6
		c0.4,0,0.8,0,1-0.1c0.2-0.1,0.4-0.1,0.5-0.2l0.1,0.7c-0.1,0.1-0.3,0.1-0.6,0.2S21.2,74,20.8,74c-0.5,0-1-0.1-1.4-0.2
		c-0.4-0.2-0.7-0.4-0.9-0.7c-0.2-0.3-0.4-0.6-0.5-1C17.8,71.7,17.7,71.3,17.7,70.8z M22.1,70.3c0-0.6-0.2-1.2-0.5-1.5
		c-0.3-0.4-0.7-0.5-1.2-0.5c-0.3,0-0.5,0.1-0.8,0.2c-0.2,0.1-0.4,0.3-0.6,0.4c-0.2,0.2-0.3,0.4-0.4,0.7c-0.1,0.2-0.1,0.5-0.2,0.8
		H22.1z"/>
	<path id="XMLID_88_" class="st0" d="M26.5,67.5c0.4,0,0.8,0.1,1,0.2c0.3,0.1,0.5,0.3,0.7,0.5c0.2,0.2,0.3,0.4,0.4,0.7
		c0.1,0.3,0.1,0.6,0.1,0.9v3.9c-0.1,0-0.2,0-0.3,0.1c-0.2,0-0.3,0.1-0.5,0.1c-0.2,0-0.4,0.1-0.7,0.1c-0.2,0-0.5,0-0.8,0
		c-0.3,0-0.6,0-0.9-0.1c-0.3-0.1-0.5-0.2-0.7-0.3c-0.2-0.2-0.4-0.4-0.5-0.6c-0.1-0.2-0.2-0.5-0.2-0.9c0-0.3,0.1-0.6,0.2-0.9
		c0.1-0.2,0.3-0.4,0.5-0.6c0.2-0.2,0.5-0.3,0.8-0.3c0.3-0.1,0.7-0.1,1-0.1c0.1,0,0.2,0,0.4,0c0.1,0,0.2,0,0.4,0c0.1,0,0.2,0,0.3,0.1
		c0.1,0,0.1,0,0.2,0.1V70c0-0.2,0-0.4,0-0.6c0-0.2-0.1-0.4-0.2-0.6s-0.3-0.3-0.5-0.4c-0.2-0.1-0.5-0.1-0.8-0.1c-0.5,0-0.8,0-1,0.1
		c-0.2,0.1-0.4,0.1-0.5,0.2l-0.1-0.7c0.1-0.1,0.3-0.1,0.6-0.2C25.8,67.6,26.1,67.5,26.5,67.5z M26.6,73.3c0.3,0,0.6,0,0.8,0
		c0.2,0,0.4,0,0.6-0.1V71c-0.1,0-0.2-0.1-0.4-0.1c-0.2,0-0.5-0.1-0.8-0.1c-0.2,0-0.4,0-0.6,0c-0.2,0-0.4,0.1-0.6,0.2
		c-0.2,0.1-0.3,0.2-0.4,0.4c-0.1,0.2-0.2,0.4-0.2,0.6c0,0.2,0,0.4,0.1,0.6c0.1,0.2,0.2,0.3,0.3,0.4c0.1,0.1,0.3,0.2,0.5,0.2
		C26.1,73.3,26.4,73.3,26.6,73.3z"/>
	<path id="XMLID_91_" class="st0" d="M30.8,67.9c0.2-0.1,0.5-0.1,0.9-0.2c0.4-0.1,0.9-0.1,1.4-0.1c0.8,0,1.4,0.2,1.7,0.7
		c0,0,0.1-0.1,0.2-0.2c0.1-0.1,0.3-0.2,0.4-0.2c0.2-0.1,0.4-0.1,0.6-0.2c0.2-0.1,0.5-0.1,0.8-0.1c0.5,0,0.9,0.1,1.1,0.2
		c0.3,0.1,0.5,0.3,0.7,0.6s0.3,0.6,0.3,0.9c0.1,0.4,0.1,0.7,0.1,1.2v3.5h-0.8v-3.2c0-0.4,0-0.8-0.1-1.1c0-0.3-0.1-0.5-0.2-0.7
		c-0.1-0.2-0.3-0.3-0.5-0.4c-0.2-0.1-0.5-0.2-0.8-0.2c-0.2,0-0.5,0-0.7,0.1c-0.2,0-0.4,0.1-0.5,0.2c-0.1,0.1-0.3,0.1-0.4,0.2
		s-0.2,0.1-0.2,0.1c0.1,0.2,0.1,0.4,0.2,0.7c0,0.3,0.1,0.5,0.1,0.8v3.5h-0.8v-3.2c0-0.4,0-0.8-0.1-1.1c0-0.3-0.1-0.5-0.2-0.7
		c-0.1-0.2-0.3-0.3-0.5-0.4c-0.2-0.1-0.5-0.2-0.8-0.2c-0.4,0-0.7,0-1,0.1c-0.3,0-0.4,0.1-0.5,0.1v5.4h-0.8V67.9z"/>
	<path id="XMLID_93_" class="st0" d="M16.6,87.7c0.8,0,1.3-0.2,1.6-0.5c0.3-0.3,0.5-0.7,0.5-1.3c0-0.4-0.1-0.6-0.2-0.9
		c-0.1-0.2-0.3-0.4-0.5-0.6s-0.5-0.2-0.8-0.3c-0.3-0.1-0.6-0.1-1-0.1h-0.1v-0.6h0.3c0.2,0,0.4,0,0.7-0.1c0.2,0,0.4-0.1,0.6-0.2
		c0.2-0.1,0.3-0.3,0.5-0.5s0.2-0.5,0.2-0.8c0-0.3,0-0.5-0.1-0.7c-0.1-0.2-0.2-0.3-0.4-0.4c-0.1-0.1-0.3-0.2-0.5-0.2
		c-0.2-0.1-0.4-0.1-0.6-0.1c-0.4,0-0.8,0.1-1,0.2c-0.2,0.1-0.4,0.2-0.6,0.3l-0.3-0.6c0.1-0.1,0.2-0.1,0.3-0.2
		c0.1-0.1,0.3-0.1,0.4-0.2c0.2-0.1,0.4-0.1,0.6-0.2s0.4-0.1,0.7-0.1c0.4,0,0.8,0.1,1.1,0.2c0.3,0.1,0.6,0.2,0.8,0.4
		c0.2,0.2,0.3,0.4,0.4,0.7c0.1,0.3,0.1,0.5,0.1,0.8c0,0.5-0.1,0.9-0.4,1.2c-0.3,0.3-0.6,0.5-1,0.7c0.2,0.1,0.4,0.1,0.7,0.3
		s0.4,0.3,0.6,0.4c0.2,0.2,0.3,0.4,0.4,0.7c0.1,0.3,0.2,0.6,0.2,0.9c0,0.4-0.1,0.7-0.2,1c-0.1,0.3-0.3,0.6-0.6,0.8
		c-0.2,0.2-0.6,0.4-0.9,0.5c-0.4,0.1-0.8,0.2-1.3,0.2c-0.3,0-0.5,0-0.7-0.1c-0.2,0-0.4-0.1-0.6-0.1s-0.3-0.1-0.4-0.1
		c-0.1,0-0.2-0.1-0.3-0.1l0.2-0.7c0,0,0.1,0.1,0.2,0.1c0.1,0,0.2,0.1,0.4,0.1c0.2,0,0.3,0.1,0.5,0.1C16.2,87.7,16.4,87.7,16.6,87.7z
		"/>
	<path id="XMLID_95_" class="st0" d="M21.3,84.1c0-1.4,0.2-2.5,0.7-3.2s1.1-1.1,2-1.1c0.8,0,1.5,0.4,2,1.1c0.5,0.7,0.7,1.8,0.7,3.2
		c0,1.4-0.2,2.5-0.7,3.2c-0.5,0.7-1.1,1.1-2,1.1c-0.8,0-1.5-0.4-2-1.1C21.5,86.6,21.3,85.5,21.3,84.1z M25.8,84.1
		c0-0.5,0-0.9-0.1-1.4c-0.1-0.4-0.2-0.8-0.3-1.2S25,81,24.8,80.8c-0.2-0.2-0.5-0.3-0.9-0.3c-0.4,0-0.6,0.1-0.9,0.3
		c-0.2,0.2-0.4,0.5-0.6,0.8c-0.1,0.3-0.2,0.7-0.3,1.2c-0.1,0.4-0.1,0.9-0.1,1.4c0,0.5,0,0.9,0.1,1.4c0.1,0.4,0.2,0.8,0.3,1.2
		c0.1,0.3,0.3,0.6,0.6,0.8s0.5,0.3,0.9,0.3c0.3,0,0.6-0.1,0.9-0.3s0.4-0.5,0.6-0.8s0.2-0.7,0.3-1.2C25.7,85.1,25.8,84.6,25.8,84.1z"
		/>
	<path id="XMLID_98_" class="st0" d="M31.6,81.9c0,0.4,0,0.7-0.1,0.9c-0.1,0.3-0.2,0.5-0.4,0.7s-0.4,0.3-0.6,0.4
		c-0.2,0.1-0.4,0.1-0.7,0.1c-0.2,0-0.5,0-0.7-0.1c-0.2-0.1-0.4-0.2-0.6-0.4s-0.3-0.4-0.4-0.7c-0.1-0.3-0.1-0.6-0.1-0.9
		c0-0.4,0-0.7,0.1-0.9c0.1-0.3,0.2-0.5,0.4-0.7c0.2-0.2,0.4-0.3,0.6-0.4c0.2-0.1,0.4-0.1,0.7-0.1c0.2,0,0.5,0,0.7,0.1
		c0.2,0.1,0.4,0.2,0.6,0.4c0.2,0.2,0.3,0.4,0.4,0.7C31.6,81.3,31.6,81.6,31.6,81.9z M30.9,81.9c0-0.5-0.1-0.8-0.3-1.1
		c-0.2-0.3-0.5-0.4-0.8-0.4c-0.4,0-0.6,0.1-0.8,0.4c-0.2,0.3-0.3,0.6-0.3,1.1s0.1,0.8,0.3,1.1s0.5,0.4,0.8,0.4
		c0.4,0,0.6-0.1,0.8-0.4C30.8,82.8,30.9,82.4,30.9,81.9z M34.3,80h0.8l-4.7,8.3h-0.8L34.3,80z M33,86.3c0-0.4,0-0.7,0.1-0.9
		c0.1-0.3,0.2-0.5,0.4-0.7c0.2-0.2,0.4-0.3,0.6-0.4c0.2-0.1,0.4-0.1,0.7-0.1c0.2,0,0.5,0,0.7,0.1c0.2,0.1,0.4,0.2,0.6,0.4
		c0.2,0.2,0.3,0.4,0.4,0.7c0.1,0.3,0.1,0.6,0.1,0.9c0,0.4,0,0.7-0.1,0.9c-0.1,0.3-0.2,0.5-0.4,0.7c-0.2,0.2-0.4,0.3-0.6,0.4
		s-0.4,0.1-0.7,0.1c-0.2,0-0.5,0-0.7-0.1c-0.2-0.1-0.4-0.2-0.6-0.4c-0.2-0.2-0.3-0.4-0.4-0.7C33,87,33,86.7,33,86.3z M33.7,86.3
		c0,0.5,0.1,0.8,0.3,1.1s0.5,0.4,0.8,0.4c0.4,0,0.6-0.1,0.8-0.4s0.3-0.6,0.3-1.1s-0.1-0.8-0.3-1.1c-0.2-0.3-0.5-0.4-0.8-0.4
		c-0.4,0-0.6,0.1-0.8,0.4C33.8,85.5,33.7,85.9,33.7,86.3z"/>
</g>
<g id="XMLID_58_">
	<path id="XMLID_59_" class="st0" d="M100.7,8.5c-0.1,0-0.3,0-0.5,0c-0.2,0-0.4,0-0.6,0s-0.4,0-0.5-0.1c-0.2,0-0.3-0.1-0.4-0.1v-8
		c0.1,0,0.3-0.1,0.5-0.1c0.2,0,0.4-0.1,0.5-0.1s0.4,0,0.6,0c0.2,0,0.3,0,0.5,0c0.4,0,0.9,0,1.3,0.1c0.4,0.1,0.8,0.2,1.1,0.4
		c0.3,0.2,0.5,0.4,0.7,0.7c0.2,0.3,0.3,0.6,0.3,1c0,0.4-0.1,0.8-0.3,1.1s-0.5,0.5-0.9,0.7c0.2,0.1,0.5,0.1,0.7,0.2
		c0.2,0.1,0.4,0.2,0.5,0.4s0.3,0.4,0.4,0.6s0.1,0.5,0.1,0.8c0,0.8-0.3,1.4-0.9,1.8C102.9,8.3,102,8.5,100.7,8.5z M99.5,3.7h1.6
		c0.3,0,0.6,0,0.8-0.1c0.3,0,0.5-0.1,0.7-0.2c0.2-0.1,0.4-0.3,0.5-0.5c0.1-0.2,0.2-0.4,0.2-0.7c0-0.3-0.1-0.5-0.2-0.7
		c-0.1-0.2-0.3-0.3-0.5-0.5c-0.2-0.1-0.5-0.2-0.8-0.3c-0.3-0.1-0.6-0.1-1-0.1c-0.3,0-0.5,0-0.8,0c-0.2,0-0.4,0-0.5,0.1V3.7z
		 M99.5,4.4v3.3c0.1,0,0.3,0,0.5,0.1c0.2,0,0.5,0,0.7,0c0.4,0,0.7,0,1.1-0.1c0.3,0,0.7-0.1,0.9-0.3c0.3-0.1,0.5-0.3,0.6-0.5
		c0.2-0.2,0.2-0.5,0.2-0.9c0-0.3-0.1-0.6-0.2-0.8c-0.1-0.2-0.3-0.4-0.5-0.5c-0.2-0.1-0.5-0.2-0.8-0.3c-0.3,0-0.6-0.1-1-0.1H99.5z"/>
	<path id="XMLID_63_" class="st0" d="M111.5,5.3c0,0.5-0.1,0.9-0.2,1.3c-0.1,0.4-0.3,0.7-0.6,1c-0.3,0.3-0.5,0.5-0.9,0.7
		c-0.3,0.2-0.7,0.2-1.1,0.2c-0.4,0-0.8-0.1-1.1-0.2c-0.3-0.2-0.6-0.4-0.9-0.7c-0.3-0.3-0.4-0.6-0.6-1c-0.1-0.4-0.2-0.8-0.2-1.3
		c0-0.5,0.1-0.9,0.2-1.3c0.1-0.4,0.3-0.7,0.6-1c0.3-0.3,0.5-0.5,0.9-0.7c0.3-0.2,0.7-0.2,1.1-0.2c0.4,0,0.8,0.1,1.1,0.2
		c0.3,0.2,0.6,0.4,0.9,0.7c0.3,0.3,0.4,0.6,0.6,1C111.4,4.4,111.5,4.8,111.5,5.3z M110.7,5.3c0-0.8-0.2-1.4-0.5-1.9
		c-0.4-0.5-0.8-0.7-1.5-0.7c-0.6,0-1.1,0.2-1.5,0.7c-0.4,0.5-0.5,1.1-0.5,1.9c0,0.8,0.2,1.4,0.5,1.8c0.4,0.5,0.8,0.7,1.5,0.7
		c0.6,0,1.1-0.2,1.5-0.7S110.7,6.1,110.7,5.3z"/>
	<path id="XMLID_66_" class="st0" d="M117.9,8.2c-0.2,0.1-0.5,0.1-0.9,0.2s-0.9,0.1-1.4,0.1c-0.5,0-0.9-0.1-1.2-0.2
		s-0.6-0.3-0.8-0.6c-0.2-0.2-0.3-0.5-0.4-0.9s-0.1-0.7-0.1-1.2V2.2h0.8v3.2c0,0.4,0,0.8,0.1,1.1s0.2,0.5,0.3,0.7s0.3,0.3,0.6,0.4
		s0.5,0.1,0.8,0.1c0.4,0,0.7,0,1-0.1s0.4-0.1,0.5-0.1V2.2h0.8V8.2z"/>
	<path id="XMLID_68_" class="st0" d="M120,2.4c0.2-0.1,0.5-0.1,0.9-0.2c0.4-0.1,0.9-0.1,1.4-0.1c0.5,0,0.9,0.1,1.2,0.2
		c0.3,0.1,0.6,0.3,0.8,0.6s0.3,0.6,0.4,0.9s0.1,0.7,0.1,1.2v3.5h-0.8V5.2c0-0.4,0-0.8-0.1-1.1c-0.1-0.3-0.2-0.6-0.3-0.7
		c-0.1-0.2-0.3-0.3-0.6-0.4c-0.2-0.1-0.5-0.1-0.9-0.1c-0.4,0-0.7,0-1,0.1c-0.3,0-0.4,0.1-0.5,0.1v5.4H120V2.4z"/>
	<path id="XMLID_70_" class="st0" d="M127.6,2.2h2.5v0.7h-2.5v3.3c0,0.4,0,0.6,0.1,0.9c0.1,0.2,0.1,0.4,0.3,0.5
		c0.1,0.1,0.2,0.2,0.4,0.2c0.2,0,0.3,0.1,0.5,0.1c0.3,0,0.6,0,0.8-0.1c0.2-0.1,0.4-0.1,0.5-0.2l0.2,0.6c-0.1,0.1-0.3,0.2-0.6,0.2
		c-0.3,0.1-0.6,0.1-0.9,0.1c-0.4,0-0.7,0-1-0.2c-0.3-0.1-0.5-0.3-0.6-0.5c-0.2-0.2-0.3-0.5-0.3-0.8c-0.1-0.3-0.1-0.7-0.1-1.1V0.4
		l0.8-0.1V2.2z"/>
	<path id="XMLID_72_" class="st0" d="M133.2,8.5c-0.3-0.5-0.5-1-0.8-1.5c-0.2-0.5-0.5-1.1-0.7-1.6c-0.2-0.5-0.4-1.1-0.6-1.6
		c-0.2-0.5-0.3-1.1-0.5-1.6h0.8c0.1,0.4,0.2,0.8,0.3,1.2c0.1,0.4,0.3,0.9,0.5,1.4c0.2,0.5,0.4,1,0.6,1.5c0.2,0.5,0.4,1,0.7,1.5
		c0.2-0.5,0.3-1,0.5-1.4c0.1-0.4,0.3-0.9,0.4-1.3c0.1-0.4,0.2-0.9,0.3-1.3s0.2-0.9,0.3-1.5h0.8c-0.3,1.2-0.6,2.3-0.9,3.4
		s-0.7,2.1-1.1,3c-0.2,0.4-0.3,0.7-0.5,0.9c-0.2,0.3-0.3,0.5-0.5,0.6c-0.2,0.2-0.4,0.3-0.7,0.4c-0.3,0.1-0.6,0.1-0.9,0.1
		c-0.2,0-0.4,0-0.5-0.1c-0.2,0-0.3-0.1-0.3-0.1l0.2-0.6c0,0,0.1,0.1,0.3,0.1s0.3,0.1,0.5,0.1c0.2,0,0.4,0,0.6-0.1
		c0.2,0,0.3-0.1,0.5-0.2c0.1-0.1,0.3-0.3,0.4-0.5C133,9,133.1,8.8,133.2,8.5z"/>
	<path id="XMLID_74_" class="st0" d="M114,16.5c0,0.3-0.1,0.6-0.2,0.9c-0.1,0.3-0.3,0.5-0.5,0.8c-0.2,0.3-0.4,0.5-0.6,0.7
		c-0.2,0.2-0.5,0.5-0.7,0.7c-0.2,0.2-0.4,0.4-0.6,0.6c-0.2,0.2-0.4,0.4-0.5,0.6c-0.2,0.2-0.3,0.4-0.4,0.6c-0.1,0.2-0.1,0.4-0.1,0.6
		v0h3.9v0.7h-4.8c0,0,0,0,0-0.1s0-0.1,0-0.2c0-0.4,0.1-0.7,0.2-1c0.1-0.3,0.3-0.6,0.5-0.9s0.4-0.6,0.7-0.8c0.3-0.2,0.5-0.5,0.8-0.7
		c0.2-0.2,0.4-0.4,0.6-0.6c0.2-0.2,0.3-0.4,0.5-0.6c0.1-0.2,0.2-0.4,0.3-0.6c0.1-0.2,0.1-0.5,0.1-0.7c0-0.6-0.1-1-0.4-1.2
		c-0.3-0.2-0.7-0.4-1.1-0.4c-0.3,0-0.5,0-0.7,0.1c-0.2,0.1-0.4,0.1-0.5,0.2s-0.3,0.2-0.4,0.3s-0.2,0.2-0.2,0.2l-0.4-0.5
		c0-0.1,0.1-0.1,0.3-0.2s0.3-0.2,0.5-0.3c0.2-0.1,0.4-0.2,0.7-0.3s0.5-0.1,0.8-0.1c0.8,0,1.4,0.2,1.8,0.6
		C113.8,15.3,114,15.8,114,16.5z"/>
	<path id="XMLID_76_" class="st0" d="M119.6,16.4c0,0.4,0,0.7-0.1,0.9c-0.1,0.3-0.2,0.5-0.4,0.7s-0.4,0.3-0.6,0.4
		c-0.2,0.1-0.4,0.1-0.7,0.1c-0.2,0-0.5,0-0.7-0.1c-0.2-0.1-0.4-0.2-0.6-0.4s-0.3-0.4-0.4-0.7c-0.1-0.3-0.1-0.6-0.1-0.9
		c0-0.4,0-0.7,0.1-0.9c0.1-0.3,0.2-0.5,0.4-0.7c0.2-0.2,0.4-0.3,0.6-0.4c0.2-0.1,0.4-0.1,0.7-0.1c0.2,0,0.5,0,0.7,0.1
		c0.2,0.1,0.4,0.2,0.6,0.4c0.2,0.2,0.3,0.4,0.4,0.7C119.5,15.8,119.6,16.1,119.6,16.4z M118.9,16.4c0-0.5-0.1-0.8-0.3-1.1
		c-0.2-0.3-0.5-0.4-0.8-0.4c-0.4,0-0.6,0.1-0.8,0.4c-0.2,0.3-0.3,0.6-0.3,1.1s0.1,0.8,0.3,1.1s0.5,0.4,0.8,0.4
		c0.4,0,0.6-0.1,0.8-0.4C118.8,17.3,118.9,16.9,118.9,16.4z M122.2,14.5h0.8l-4.7,8.3h-0.8L122.2,14.5z M120.9,20.8
		c0-0.4,0-0.7,0.1-0.9c0.1-0.3,0.2-0.5,0.4-0.7c0.2-0.2,0.4-0.3,0.6-0.4c0.2-0.1,0.4-0.1,0.7-0.1c0.2,0,0.5,0,0.7,0.1
		c0.2,0.1,0.4,0.2,0.6,0.4c0.2,0.2,0.3,0.4,0.4,0.7c0.1,0.3,0.1,0.6,0.1,0.9c0,0.4,0,0.7-0.1,0.9c-0.1,0.3-0.2,0.5-0.4,0.7
		c-0.2,0.2-0.4,0.3-0.6,0.4c-0.2,0.1-0.4,0.1-0.7,0.1c-0.2,0-0.5,0-0.7-0.1c-0.2-0.1-0.4-0.2-0.6-0.4c-0.2-0.2-0.3-0.4-0.4-0.7
		C121,21.5,120.9,21.2,120.9,20.8z M121.6,20.8c0,0.5,0.1,0.8,0.3,1.1s0.5,0.4,0.8,0.4c0.4,0,0.6-0.1,0.8-0.4
		c0.2-0.3,0.3-0.6,0.3-1.1s-0.1-0.8-0.3-1.1c-0.2-0.3-0.5-0.4-0.8-0.4c-0.4,0-0.6,0.1-0.8,0.4C121.7,20,121.6,20.4,121.6,20.8z"/>
</g>
<g id="XMLID_14_">
	<path id="XMLID_16_" class="st0" d="M189.5,23.6h0.8v8.3h-0.8V23.6z"/>
	<path id="XMLID_18_" class="st0" d="M192.5,25.9c0.2-0.1,0.5-0.1,0.9-0.2c0.4-0.1,0.9-0.1,1.4-0.1c0.5,0,0.9,0.1,1.2,0.2
		c0.3,0.1,0.6,0.3,0.8,0.6s0.3,0.6,0.4,0.9s0.1,0.7,0.1,1.2v3.5h-0.8v-3.2c0-0.4,0-0.8-0.1-1.1c-0.1-0.3-0.2-0.6-0.3-0.7
		c-0.1-0.2-0.3-0.3-0.6-0.4c-0.2-0.1-0.5-0.1-0.9-0.1c-0.4,0-0.7,0-1,0.1c-0.3,0-0.4,0.1-0.5,0.1v5.4h-0.8V25.9z"/>
	<path id="XMLID_23_" class="st0" d="M201.2,31c0.2-0.3,0.3-0.7,0.5-1.2c0.2-0.4,0.3-0.9,0.5-1.4s0.3-1,0.5-1.4
		c0.1-0.5,0.3-0.9,0.4-1.4h0.8c-0.1,0.6-0.3,1.1-0.5,1.7c-0.2,0.6-0.4,1.1-0.6,1.6c-0.2,0.5-0.4,1-0.6,1.5s-0.4,0.9-0.6,1.4h-0.7
		c-0.2-0.4-0.4-0.9-0.6-1.4c-0.2-0.5-0.4-1-0.6-1.5c-0.2-0.5-0.4-1.1-0.6-1.6c-0.2-0.6-0.3-1.1-0.5-1.7h0.8c0.1,0.4,0.2,0.9,0.4,1.4
		c0.1,0.5,0.3,1,0.5,1.4c0.2,0.5,0.3,0.9,0.5,1.4S201,30.7,201.2,31z"/>
	<path id="XMLID_26_" class="st0" d="M204.7,28.8c0-0.5,0.1-1,0.2-1.4c0.2-0.4,0.4-0.7,0.6-1s0.5-0.5,0.9-0.6c0.3-0.1,0.7-0.2,1-0.2
		c0.8,0,1.4,0.2,1.8,0.7s0.7,1.3,0.7,2.3c0,0.1,0,0.1,0,0.2c0,0.1,0,0.1,0,0.2h-4.4c0,0.8,0.2,1.3,0.6,1.8c0.4,0.4,0.9,0.6,1.7,0.6
		c0.4,0,0.8,0,1-0.1c0.2-0.1,0.4-0.1,0.5-0.2l0.1,0.7c-0.1,0.1-0.3,0.1-0.6,0.2c-0.3,0.1-0.7,0.1-1.1,0.1c-0.5,0-1-0.1-1.4-0.2
		s-0.7-0.4-0.9-0.7c-0.2-0.3-0.4-0.6-0.5-1C204.7,29.7,204.7,29.3,204.7,28.8z M209.1,28.3c0-0.6-0.2-1.2-0.5-1.5
		c-0.3-0.4-0.7-0.5-1.2-0.5c-0.3,0-0.5,0.1-0.8,0.2c-0.2,0.1-0.4,0.3-0.6,0.4c-0.2,0.2-0.3,0.4-0.4,0.7s-0.1,0.5-0.2,0.8H209.1z"/>
	<path id="XMLID_31_" class="st0" d="M212.9,31.3c0.4,0,0.8-0.1,1.1-0.2s0.4-0.4,0.4-0.8c0-0.2,0-0.3-0.1-0.4
		c-0.1-0.1-0.1-0.2-0.3-0.3c-0.1-0.1-0.3-0.2-0.5-0.3c-0.2-0.1-0.4-0.2-0.7-0.3c-0.2-0.1-0.5-0.2-0.7-0.3c-0.2-0.1-0.4-0.2-0.6-0.3
		c-0.2-0.1-0.3-0.3-0.4-0.5s-0.1-0.4-0.1-0.7c0-0.5,0.2-0.9,0.6-1.2c0.4-0.3,0.9-0.5,1.6-0.5c0.4,0,0.8,0,1.1,0.1
		c0.3,0.1,0.5,0.1,0.6,0.2l-0.2,0.7c-0.1,0-0.3-0.1-0.5-0.2c-0.2-0.1-0.6-0.1-1-0.1c-0.2,0-0.3,0-0.5,0.1c-0.2,0-0.3,0.1-0.4,0.2
		c-0.1,0.1-0.2,0.2-0.3,0.3s-0.1,0.3-0.1,0.4s0,0.3,0.1,0.4c0.1,0.1,0.2,0.2,0.3,0.3s0.3,0.2,0.5,0.3s0.4,0.2,0.6,0.3
		c0.2,0.1,0.5,0.2,0.7,0.3s0.4,0.2,0.6,0.4c0.2,0.1,0.3,0.3,0.4,0.5c0.1,0.2,0.2,0.4,0.2,0.7c0,0.6-0.2,1-0.6,1.3s-1,0.4-1.7,0.4
		c-0.5,0-1,0-1.2-0.1c-0.3-0.1-0.5-0.2-0.6-0.2l0.2-0.7c0,0,0.1,0,0.2,0.1s0.2,0.1,0.3,0.1s0.3,0.1,0.5,0.1
		C212.4,31.3,212.6,31.3,212.9,31.3z"/>
	<path id="XMLID_35_" class="st0" d="M217.5,25.7h2.5v0.7h-2.5v3.3c0,0.4,0,0.6,0.1,0.9c0.1,0.2,0.1,0.4,0.3,0.5
		c0.1,0.1,0.2,0.2,0.4,0.2c0.2,0,0.3,0.1,0.5,0.1c0.3,0,0.6,0,0.8-0.1c0.2-0.1,0.4-0.1,0.5-0.2l0.2,0.6c-0.1,0.1-0.3,0.2-0.6,0.2
		c-0.3,0.1-0.6,0.1-0.9,0.1c-0.4,0-0.7,0-1-0.2c-0.3-0.1-0.5-0.3-0.6-0.5c-0.2-0.2-0.3-0.5-0.3-0.8s-0.1-0.7-0.1-1.1v-5.7l0.8-0.1
		V25.7z"/>
	<path id="XMLID_37_" class="st0" d="M226.7,28.8c0,0.5-0.1,0.9-0.2,1.3c-0.1,0.4-0.3,0.7-0.6,1c-0.3,0.3-0.5,0.5-0.9,0.7
		c-0.3,0.2-0.7,0.2-1.1,0.2c-0.4,0-0.8-0.1-1.1-0.2s-0.6-0.4-0.9-0.7c-0.3-0.3-0.4-0.6-0.6-1c-0.1-0.4-0.2-0.8-0.2-1.3
		c0-0.5,0.1-0.9,0.2-1.3c0.1-0.4,0.3-0.7,0.6-1c0.3-0.3,0.6-0.5,0.9-0.7c0.3-0.2,0.7-0.2,1.1-0.2c0.4,0,0.8,0.1,1.1,0.2
		c0.3,0.2,0.6,0.4,0.9,0.7c0.3,0.3,0.4,0.6,0.6,1C226.6,27.9,226.7,28.3,226.7,28.8z M225.9,28.8c0-0.8-0.2-1.4-0.5-1.9
		c-0.4-0.5-0.8-0.7-1.5-0.7c-0.6,0-1.1,0.2-1.5,0.7c-0.4,0.5-0.5,1.1-0.5,1.9c0,0.8,0.2,1.4,0.5,1.8c0.4,0.5,0.8,0.7,1.5,0.7
		c0.6,0,1.1-0.2,1.5-0.7C225.7,30.2,225.9,29.6,225.9,28.8z"/>
	<path id="XMLID_40_" class="st0" d="M230.5,25.6c0.3,0,0.5,0,0.7,0.1c0.2,0,0.4,0.1,0.5,0.1l-0.2,0.7c-0.1,0-0.2-0.1-0.4-0.1
		c-0.2,0-0.5-0.1-0.8-0.1c-0.3,0-0.6,0-0.8,0.1c-0.2,0-0.3,0.1-0.4,0.1v5.4h-0.8V26c0.2-0.1,0.5-0.2,0.8-0.3
		C229.6,25.6,230,25.6,230.5,25.6z"/>
	<path id="XMLID_42_" class="st0" d="M234.1,31.3c0.4,0,0.8-0.1,1.1-0.2c0.3-0.1,0.4-0.4,0.4-0.8c0-0.2,0-0.3-0.1-0.4
		s-0.1-0.2-0.3-0.3c-0.1-0.1-0.3-0.2-0.5-0.3c-0.2-0.1-0.4-0.2-0.7-0.3c-0.2-0.1-0.5-0.2-0.7-0.3c-0.2-0.1-0.4-0.2-0.6-0.3
		c-0.2-0.1-0.3-0.3-0.4-0.5s-0.1-0.4-0.1-0.7c0-0.5,0.2-0.9,0.6-1.2s0.9-0.5,1.6-0.5c0.4,0,0.8,0,1,0.1c0.3,0.1,0.5,0.1,0.6,0.2
		l-0.2,0.7c-0.1,0-0.3-0.1-0.5-0.2s-0.6-0.1-1-0.1c-0.2,0-0.3,0-0.5,0.1c-0.2,0-0.3,0.1-0.4,0.2s-0.2,0.2-0.3,0.3s-0.1,0.3-0.1,0.4
		s0,0.3,0.1,0.4c0.1,0.1,0.2,0.2,0.3,0.3c0.1,0.1,0.3,0.2,0.5,0.3c0.2,0.1,0.4,0.2,0.6,0.3c0.2,0.1,0.5,0.2,0.7,0.3
		c0.2,0.1,0.4,0.2,0.6,0.4c0.2,0.1,0.3,0.3,0.4,0.5c0.1,0.2,0.2,0.4,0.2,0.7c0,0.6-0.2,1-0.6,1.3s-1,0.4-1.7,0.4c-0.5,0-1,0-1.2-0.1
		s-0.5-0.2-0.6-0.2l0.2-0.7c0,0,0.1,0,0.2,0.1s0.2,0.1,0.3,0.1c0.1,0,0.3,0.1,0.5,0.1C233.7,31.3,233.9,31.3,234.1,31.3z"/>
	<path id="XMLID_44_" class="st0" d="M203.8,45.7c0.4,0,0.7,0,1-0.1c0.3-0.1,0.5-0.2,0.6-0.4c0.2-0.2,0.3-0.3,0.3-0.6
		s0.1-0.4,0.1-0.7c0-0.3-0.1-0.6-0.2-0.9c-0.1-0.3-0.3-0.5-0.6-0.6c-0.3-0.2-0.6-0.3-1.1-0.4s-1-0.1-1.7-0.1c0-0.4,0.1-0.8,0.1-1.1
		c0-0.3,0.1-0.7,0.1-1s0-0.6,0.1-0.9s0-0.6,0-0.9h3.7v0.7h-3.1c0,0.2,0,0.3,0,0.6s0,0.5,0,0.7s0,0.5-0.1,0.7c0,0.2,0,0.4-0.1,0.6
		c0.6,0,1.1,0.1,1.6,0.2c0.4,0.1,0.8,0.3,1.1,0.6c0.3,0.2,0.5,0.5,0.6,0.8c0.1,0.3,0.2,0.7,0.2,1.1c0,0.4-0.1,0.7-0.2,1
		c-0.1,0.3-0.3,0.6-0.5,0.8c-0.2,0.2-0.5,0.4-0.9,0.5c-0.4,0.1-0.8,0.2-1.3,0.2c-0.3,0-0.5,0-0.7-0.1c-0.2,0-0.4-0.1-0.6-0.1
		s-0.3-0.1-0.4-0.1c-0.1,0-0.2-0.1-0.3-0.1l0.2-0.7c0,0,0.1,0.1,0.2,0.1c0.1,0,0.3,0.1,0.4,0.1s0.3,0.1,0.5,0.1
		C203.4,45.7,203.6,45.7,203.8,45.7z"/>
	<path id="XMLID_46_" class="st0" d="M208.4,42.1c0-1.4,0.2-2.5,0.7-3.2c0.5-0.7,1.1-1.1,2-1.1c0.8,0,1.5,0.4,2,1.1
		c0.5,0.7,0.7,1.8,0.7,3.2c0,1.4-0.2,2.5-0.7,3.2c-0.5,0.7-1.1,1.1-2,1.1s-1.5-0.4-2-1.1C208.7,44.6,208.4,43.5,208.4,42.1z
		 M212.9,42.1c0-0.5,0-0.9-0.1-1.4c-0.1-0.4-0.2-0.8-0.3-1.2c-0.1-0.3-0.3-0.6-0.6-0.8c-0.2-0.2-0.5-0.3-0.9-0.3
		c-0.4,0-0.6,0.1-0.9,0.3c-0.2,0.2-0.4,0.5-0.6,0.8c-0.1,0.3-0.2,0.7-0.3,1.2c-0.1,0.4-0.1,0.9-0.1,1.4c0,0.5,0,0.9,0.1,1.4
		c0.1,0.4,0.2,0.8,0.3,1.2c0.1,0.3,0.3,0.6,0.6,0.8s0.5,0.3,0.9,0.3c0.3,0,0.6-0.1,0.9-0.3s0.4-0.5,0.6-0.8c0.1-0.3,0.2-0.7,0.3-1.2
		C212.9,43.1,212.9,42.6,212.9,42.1z"/>
	<path id="XMLID_52_" class="st0" d="M218.8,39.9c0,0.4,0,0.7-0.1,0.9c-0.1,0.3-0.2,0.5-0.4,0.7s-0.4,0.3-0.6,0.4
		c-0.2,0.1-0.4,0.1-0.7,0.1s-0.5,0-0.7-0.1c-0.2-0.1-0.4-0.2-0.6-0.4s-0.3-0.4-0.4-0.7c-0.1-0.3-0.1-0.6-0.1-0.9
		c0-0.4,0-0.7,0.1-0.9c0.1-0.3,0.2-0.5,0.4-0.7c0.2-0.2,0.4-0.3,0.6-0.4c0.2-0.1,0.4-0.1,0.7-0.1s0.5,0,0.7,0.1
		c0.2,0.1,0.4,0.2,0.6,0.4c0.2,0.2,0.3,0.4,0.4,0.7C218.7,39.3,218.8,39.6,218.8,39.9z M218.1,39.9c0-0.5-0.1-0.8-0.3-1.1
		c-0.2-0.3-0.5-0.4-0.8-0.4c-0.4,0-0.6,0.1-0.8,0.4c-0.2,0.3-0.3,0.6-0.3,1.1s0.1,0.8,0.3,1.1s0.5,0.4,0.8,0.4
		c0.4,0,0.6-0.1,0.8-0.4C218,40.8,218.1,40.4,218.1,39.9z M221.4,38h0.8l-4.7,8.3h-0.8L221.4,38z M220.2,44.3c0-0.4,0-0.7,0.1-0.9
		c0.1-0.3,0.2-0.5,0.4-0.7c0.2-0.2,0.4-0.3,0.6-0.4c0.2-0.1,0.4-0.1,0.7-0.1c0.2,0,0.5,0,0.7,0.1c0.2,0.1,0.4,0.2,0.6,0.4
		c0.2,0.2,0.3,0.4,0.4,0.7c0.1,0.3,0.1,0.6,0.1,0.9c0,0.4,0,0.7-0.1,0.9c-0.1,0.3-0.2,0.5-0.4,0.7c-0.2,0.2-0.4,0.3-0.6,0.4
		s-0.4,0.1-0.7,0.1c-0.2,0-0.5,0-0.7-0.1c-0.2-0.1-0.4-0.2-0.6-0.4c-0.2-0.2-0.3-0.4-0.4-0.7C220.2,45,220.2,44.7,220.2,44.3z
		 M220.9,44.3c0,0.5,0.1,0.8,0.3,1.1s0.5,0.4,0.8,0.4c0.4,0,0.6-0.1,0.8-0.4s0.3-0.6,0.3-1.1s-0.1-0.8-0.3-1.1
		c-0.2-0.3-0.5-0.4-0.8-0.4c-0.4,0-0.6,0.1-0.8,0.4C221,43.5,220.9,43.9,220.9,44.3z"/>
</g>
<path id="XMLID_50_" class="st1" d="M127.5,30.7v172.7c47.7,0,86.3-38.7,86.3-86.3S175.2,30.7,127.5,30.7z"/>
<path id="XMLID_49_" class="st2" d="M127.5,117L116,31.5c0,0,7.6-0.8,11.5-0.8C127.5,56.2,127.5,117,127.5,117z"/>
<path id="XMLID_47_" class="st3" d="M127.5,117L49.5,154c0,0-3.1-7.3-3.5-8.5c-0.8-2-4.8-12.9-4.8-28.4c0-41.1,28.7-75.4,67.1-84.2
	c0.4-0.1,3.7-0.9,7.7-1.4L127.5,117z"/>
<path id="XMLID_15_" class="st4" d="M127.5,117c0,22.3,0.1,57.3,0,86.3c-34.5,0-64.2-20.2-78.1-49.4"/>
</svg>
