<svg xmlns="http://www.w3.org/2000/svg" viewBox="0 0 313.34 235.38"><defs><style>.cls-1{fill:#96fe01;}.cls-2{fill:#50f1a6;}.cls-3{fill:#45cefa;}.cls-4{fill:#36a0f2;}</style></defs><title>Ресурс 8</title><g id="Слой_2" data-name="Слой 2"><g id="Слой_1-2" data-name="Слой 1"><path class="cls-1" d="M147.47,118.86l27.81,85.59a90.18,90.18,0,0,0,62.18-85.59c0-49.37-40.62-90-90-90Z" transform="translate(-0.8 -1.04)"/><path class="cls-2" d="M147.47,118.86l-72.8,52.9a90.16,90.16,0,0,0,97.61,33.61q1.51-.43,3-.92Z" transform="translate(-0.8 -1.04)"/><path class="cls-3" d="M147.47,118.89,119.66,33.3a90,90,0,0,0-45,138.48Z" transform="translate(-0.8 -1.04)"/><path class="cls-4" d="M147.47,118.89v-90a90,90,0,0,0-27.81,4.4Z" transform="translate(-0.8 -1.04)"/><path d="M98.46,223.39H95.34l-.59,1.44H93.15l3-6.72h1.54l3,6.72H99.05ZM98,222.21l-1.07-2.57-1.07,2.57Z" transform="translate(-0.8 -1.04)"/><path d="M101.35,218.7a.81.81,0,0,1,0-1.19,1,1,0,0,1,.67-.24,1,1,0,0,1,.67.23.74.74,0,0,1,.26.58.82.82,0,0,1-.26.62.94.94,0,0,1-.67.24A1,1,0,0,1,101.35,218.7Zm-.08,1h1.5v5.16h-1.5Z" transform="translate(-0.8 -1.04)"/><path d="M107,218.11h1.55v5.45h3.37v1.27H107Z" transform="translate(-0.8 -1.04)"/><path d="M116.66,220.16a2.19,2.19,0,0,1,.64,1.72v2.95h-1.4v-.64a1.67,1.67,0,0,1-1.57.72,2.43,2.43,0,0,1-1-.2,1.52,1.52,0,0,1-.67-.56,1.44,1.44,0,0,1-.23-.81,1.35,1.35,0,0,1,.54-1.13,2.76,2.76,0,0,1,1.67-.41h1.19a1,1,0,0,0-.3-.75,1.31,1.31,0,0,0-.89-.26,2.62,2.62,0,0,0-.81.13,2.15,2.15,0,0,0-.68.35l-.54-1a3.23,3.23,0,0,1,1-.46,4.55,4.55,0,0,1,1.21-.16A2.69,2.69,0,0,1,116.66,220.16Zm-1.28,3.56a1,1,0,0,0,.42-.52v-.53h-1q-.92,0-.92.6a.54.54,0,0,0,.22.46,1,1,0,0,0,.62.17A1.31,1.31,0,0,0,115.39,223.72Z" transform="translate(-0.8 -1.04)"/><path d="M123,219.92a2.39,2.39,0,0,1,.93.93,3.07,3.07,0,0,1,0,2.79,2.38,2.38,0,0,1-.93.93,2.63,2.63,0,0,1-1.31.33,2,2,0,0,1-1.62-.67v.59h-1.43V217.7h1.5v2.5a2,2,0,0,1,1.55-.62A2.63,2.63,0,0,1,123,219.92Zm-.62,3.37a1.65,1.65,0,0,0,0-2.08,1.34,1.34,0,0,0-1.89,0,1.65,1.65,0,0,0,0,2.08,1.34,1.34,0,0,0,1.89,0Z" transform="translate(-0.8 -1.04)"/><path d="M104.11,235.51v.83H99.28v-.65l2.74-2.64a3.29,3.29,0,0,0,.67-.83,1.58,1.58,0,0,0,.17-.71,1,1,0,0,0-.37-.82,1.67,1.67,0,0,0-1.06-.29,2.11,2.11,0,0,0-1.72.73l-.65-.57a2.6,2.6,0,0,1,1-.75,3.65,3.65,0,0,1,1.43-.27,2.59,2.59,0,0,1,1.68.5,1.66,1.66,0,0,1,.62,1.37,2.31,2.31,0,0,1-.23,1,4,4,0,0,1-.87,1.09l-2.05,2Z" transform="translate(-0.8 -1.04)"/><path d="M106.2,236a2.73,2.73,0,0,1-1-1.19,5,5,0,0,1,0-3.69,2.74,2.74,0,0,1,1-1.19,2.65,2.65,0,0,1,2.82,0,2.74,2.74,0,0,1,1,1.19,5,5,0,0,1,0,3.69,2.73,2.73,0,0,1-1,1.19,2.64,2.64,0,0,1-2.82,0Zm2.71-1.11a4,4,0,0,0,0-3.84,1.6,1.6,0,0,0-2.59,0,4,4,0,0,0,0,3.84,1.6,1.6,0,0,0,2.59,0Z" transform="translate(-0.8 -1.04)"/><path d="M111.6,232.72a2.25,2.25,0,0,1,0-2.65,1.51,1.51,0,0,1,2.26,0,2.28,2.28,0,0,1,0,2.66,1.51,1.51,0,0,1-2.26,0Zm1.82-.38a1.91,1.91,0,0,0,0-1.89.86.86,0,0,0-1.38,0,1.86,1.86,0,0,0,0,1.88.86.86,0,0,0,1.38,0Zm3.36-2.72h.74l-4.59,6.72h-.74Zm-.93,6.27a2.28,2.28,0,0,1,0-2.66,1.51,1.51,0,0,1,2.26,0,2.25,2.25,0,0,1,0,2.65,1.51,1.51,0,0,1-2.26,0Zm1.81-.39a1.86,1.86,0,0,0,0-1.88.86.86,0,0,0-1.38,0,1.91,1.91,0,0,0,0,1.89.86.86,0,0,0,1.38,0Z" transform="translate(-0.8 -1.04)"/><path d="M246.76,90.48h3.05a4.29,4.29,0,0,1,1.93.42,3.12,3.12,0,0,1,1.31,1.18,3.58,3.58,0,0,1,0,3.53,3.13,3.13,0,0,1-1.31,1.17,4.29,4.29,0,0,1-1.93.42h-3.05Zm3,5.44a2.26,2.26,0,0,0,1.61-.56,2.23,2.23,0,0,0,0-3,2.26,2.26,0,0,0-1.61-.56h-1.42v4.17Z" transform="translate(-0.8 -1.04)"/><path d="M259.61,95h-3.91a1.22,1.22,0,0,0,.5.76,1.65,1.65,0,0,0,1,.28,2,2,0,0,0,.71-.12,1.74,1.74,0,0,0,.58-.38l.8.86a2.68,2.68,0,0,1-2.13.83,3.38,3.38,0,0,1-1.55-.34,2.51,2.51,0,0,1-1-.95,2.61,2.61,0,0,1-.37-1.37,2.64,2.64,0,0,1,.36-1.37,2.52,2.52,0,0,1,1-1,3.06,3.06,0,0,1,2.78,0,2.38,2.38,0,0,1,1,.94,2.79,2.79,0,0,1,.35,1.42S259.63,94.79,259.61,95Zm-3.5-1.66a1.23,1.23,0,0,0-.42.79h2.54a1.24,1.24,0,0,0-.42-.78,1.27,1.27,0,0,0-.84-.29A1.29,1.29,0,0,0,256.11,93.38Z" transform="translate(-0.8 -1.04)"/><path d="M265.67,92l-2.18,5.16h-1.54L259.78,92h1.55l1.43,3.51L264.23,92Z" transform="translate(-0.8 -1.04)"/><path d="M271.17,95h-3.91a1.22,1.22,0,0,0,.5.76,1.65,1.65,0,0,0,1,.28,2,2,0,0,0,.71-.12,1.74,1.74,0,0,0,.58-.38l.8.86a2.68,2.68,0,0,1-2.13.83,3.38,3.38,0,0,1-1.55-.34,2.51,2.51,0,0,1-1-.95,2.61,2.61,0,0,1-.37-1.37,2.64,2.64,0,0,1,.36-1.37,2.52,2.52,0,0,1,1-1,3.06,3.06,0,0,1,2.78,0,2.38,2.38,0,0,1,1,.94,2.79,2.79,0,0,1,.35,1.42S271.19,94.79,271.17,95Zm-3.5-1.66a1.23,1.23,0,0,0-.42.79h2.54a1.24,1.24,0,0,0-.42-.78,1.27,1.27,0,0,0-.84-.29A1.29,1.29,0,0,0,267.67,93.38Z" transform="translate(-0.8 -1.04)"/><path d="M272.2,90.08h1.5V97.2h-1.5Z" transform="translate(-0.8 -1.04)"/><path d="M276.08,96.94a2.54,2.54,0,0,1-1-.95,2.76,2.76,0,0,1,0-2.75,2.53,2.53,0,0,1,1-.95,3.3,3.3,0,0,1,2.92,0,2.54,2.54,0,0,1,1,.95A2.76,2.76,0,0,1,280,96a2.55,2.55,0,0,1-1,.95,3.3,3.3,0,0,1-2.92,0Zm2.41-1.28a1.65,1.65,0,0,0,0-2.08,1.35,1.35,0,0,0-1.9,0,1.63,1.63,0,0,0,0,2.08,1.35,1.35,0,0,0,1.9,0Z" transform="translate(-0.8 -1.04)"/><path d="M285.73,92.29a2.39,2.39,0,0,1,.93.93,3.07,3.07,0,0,1,0,2.79,2.38,2.38,0,0,1-.93.93,2.63,2.63,0,0,1-1.31.33,2,2,0,0,1-1.55-.62v2.41h-1.5V92h1.43v.59a2,2,0,0,1,1.62-.67A2.63,2.63,0,0,1,285.73,92.29Zm-.62,3.37a1.65,1.65,0,0,0,0-2.08,1.34,1.34,0,0,0-1.89,0,1.65,1.65,0,0,0,0,2.08,1.34,1.34,0,0,0,1.89,0Z" transform="translate(-0.8 -1.04)"/><path d="M296.15,92.53a2.33,2.33,0,0,1,.57,1.71v3h-1.5V94.47a1.41,1.41,0,0,0-.25-.92.9.9,0,0,0-.72-.3,1.06,1.06,0,0,0-.83.34,1.46,1.46,0,0,0-.31,1V97.2h-1.5V94.47q0-1.22-1-1.22a1.06,1.06,0,0,0-.83.34,1.47,1.47,0,0,0-.31,1V97.2H288V92h1.43v.59a1.89,1.89,0,0,1,.71-.5A2.37,2.37,0,0,1,291,92a2.22,2.22,0,0,1,1,.22,1.75,1.75,0,0,1,.71.63,2.12,2.12,0,0,1,.8-.62,2.52,2.52,0,0,1,1.06-.22A2.08,2.08,0,0,1,296.15,92.53Z" transform="translate(-0.8 -1.04)"/><path d="M303.15,95h-3.91a1.22,1.22,0,0,0,.5.76,1.65,1.65,0,0,0,1,.28,2,2,0,0,0,.71-.12,1.74,1.74,0,0,0,.58-.38l.8.86a2.68,2.68,0,0,1-2.13.83,3.38,3.38,0,0,1-1.55-.34,2.51,2.51,0,0,1-1-.95,2.61,2.61,0,0,1-.37-1.37,2.64,2.64,0,0,1,.36-1.37,2.52,2.52,0,0,1,1-1,3.06,3.06,0,0,1,2.78,0,2.38,2.38,0,0,1,1,.94,2.79,2.79,0,0,1,.35,1.42S303.17,94.79,303.15,95Zm-3.5-1.66a1.23,1.23,0,0,0-.42.79h2.54a1.24,1.24,0,0,0-.42-.78,1.27,1.27,0,0,0-.84-.29A1.29,1.29,0,0,0,299.65,93.38Z" transform="translate(-0.8 -1.04)"/><path d="M308.86,92.54a2.28,2.28,0,0,1,.59,1.71v3H308V94.47a1.35,1.35,0,0,0-.27-.92,1,1,0,0,0-.78-.3,1.19,1.19,0,0,0-.9.35,1.45,1.45,0,0,0-.34,1V97.2h-1.5V92h1.43v.6a2,2,0,0,1,.74-.5,2.58,2.58,0,0,1,1-.18A2.12,2.12,0,0,1,308.86,92.54Z" transform="translate(-0.8 -1.04)"/><path d="M314.14,97a1.54,1.54,0,0,1-.54.25,2.73,2.73,0,0,1-.68.08,2,2,0,0,1-1.43-.47,1.8,1.8,0,0,1-.5-1.38V93.3h-.8V92.15h.8V90.89h1.5v1.26h1.29V93.3h-1.29v2.1a.7.7,0,0,0,.17.5.62.62,0,0,0,.47.18,1,1,0,0,0,.6-.19Z" transform="translate(-0.8 -1.04)"/><path d="M276.49,107.07h-1.28v1.65h-.93v-1.65h-3.73v-.67L274,102h1l-3.29,4.24h2.58v-1.46h.9v1.46h1.28Z" transform="translate(-0.8 -1.04)"/><path d="M281.07,105.22a1.8,1.8,0,0,1,.68,1.48,2,2,0,0,1-.28,1.07,1.94,1.94,0,0,1-.85.75,3.25,3.25,0,0,1-1.41.27,4.39,4.39,0,0,1-1.37-.22,3,3,0,0,1-1.09-.6l.44-.76a2.53,2.53,0,0,0,.88.52,3.26,3.26,0,0,0,1.13.2,1.89,1.89,0,0,0,1.18-.32,1.05,1.05,0,0,0,.42-.88,1,1,0,0,0-.46-.92,2.94,2.94,0,0,0-1.57-.31h-1.53l.36-3.51h3.79v.83h-3l-.18,1.84H279A3.37,3.37,0,0,1,281.07,105.22Z" transform="translate(-0.8 -1.04)"/><path d="M282.77,105.1a2.25,2.25,0,0,1,0-2.65,1.51,1.51,0,0,1,2.26,0,2.28,2.28,0,0,1,0,2.66,1.51,1.51,0,0,1-2.26,0Zm1.82-.38a1.91,1.91,0,0,0,0-1.89.86.86,0,0,0-1.38,0,1.86,1.86,0,0,0,0,1.88.86.86,0,0,0,1.38,0ZM288,102h.74l-4.59,6.72h-.74Zm-.93,6.27a2.28,2.28,0,0,1,0-2.66,1.51,1.51,0,0,1,2.26,0,2.25,2.25,0,0,1,0,2.65,1.51,1.51,0,0,1-2.26,0Zm1.81-.39a1.86,1.86,0,0,0,0-1.88.86.86,0,0,0-1.38,0,1.91,1.91,0,0,0,0,1.89.86.86,0,0,0,1.38,0Z" transform="translate(-0.8 -1.04)"/><path d="M6.91,72.16v-4l-2,3.32h-.7l-2-3.23v3.94H.8V65.44H2.08L4.6,69.62l2.48-4.18H8.35l0,6.72Z" transform="translate(-0.8 -1.04)"/><path d="M13.78,67.49a2.19,2.19,0,0,1,.64,1.72v2.95H13v-.64a1.67,1.67,0,0,1-1.57.72,2.43,2.43,0,0,1-1-.2,1.52,1.52,0,0,1-.67-.56,1.44,1.44,0,0,1-.23-.81,1.35,1.35,0,0,1,.54-1.13,2.76,2.76,0,0,1,1.67-.41h1.19a1,1,0,0,0-.3-.75,1.31,1.31,0,0,0-.89-.26,2.62,2.62,0,0,0-.81.13,2.15,2.15,0,0,0-.68.35l-.54-1a3.23,3.23,0,0,1,1-.46,4.55,4.55,0,0,1,1.21-.16A2.69,2.69,0,0,1,13.78,67.49ZM12.51,71a1,1,0,0,0,.42-.52V70h-1q-.92,0-.92.6a.54.54,0,0,0,.22.46,1,1,0,0,0,.62.17A1.31,1.31,0,0,0,12.51,71Z" transform="translate(-0.8 -1.04)"/><path d="M17.93,67.11A2.69,2.69,0,0,1,19,66.92V68.3l-.34,0a1.37,1.37,0,0,0-1,.36,1.45,1.45,0,0,0-.36,1.08v2.44h-1.5V67h1.43v.68A1.67,1.67,0,0,1,17.93,67.11Z" transform="translate(-0.8 -1.04)"/><path d="M22.09,70.13l-.72.71v1.31h-1.5V65h1.5v4L23.56,67h1.79L23.2,69.18l2.34,3H23.73Z" transform="translate(-0.8 -1.04)"/><path d="M31,70H27.11a1.22,1.22,0,0,0,.5.76,1.65,1.65,0,0,0,1,.28,2,2,0,0,0,.71-.12,1.74,1.74,0,0,0,.58-.38l.8.86a2.68,2.68,0,0,1-2.13.83A3.38,3.38,0,0,1,27,71.89a2.51,2.51,0,0,1-1-.95,2.61,2.61,0,0,1-.37-1.37A2.64,2.64,0,0,1,26,68.21a2.52,2.52,0,0,1,1-1,3.06,3.06,0,0,1,2.78,0,2.38,2.38,0,0,1,1,.94A2.79,2.79,0,0,1,31,69.6S31,69.75,31,70Zm-3.5-1.66a1.23,1.23,0,0,0-.42.79h2.54a1.24,1.24,0,0,0-.42-.78,1.27,1.27,0,0,0-.84-.29A1.29,1.29,0,0,0,27.52,68.34Z" transform="translate(-0.8 -1.04)"/><path d="M35.38,71.91a1.54,1.54,0,0,1-.54.25,2.73,2.73,0,0,1-.68.08,2,2,0,0,1-1.43-.47,1.8,1.8,0,0,1-.5-1.38V68.26h-.8V67.11h.8V65.85h1.5v1.26H35v1.15H33.73v2.1a.7.7,0,0,0,.17.5.62.62,0,0,0,.47.18,1,1,0,0,0,.6-.19Z" transform="translate(-0.8 -1.04)"/><path d="M36.3,66a.81.81,0,0,1,0-1.19A1,1,0,0,1,37,64.6a1,1,0,0,1,.67.23.74.74,0,0,1,.26.58.82.82,0,0,1-.26.62.94.94,0,0,1-.67.24A1,1,0,0,1,36.3,66Zm-.08,1h1.5v5.16h-1.5Z" transform="translate(-0.8 -1.04)"/><path d="M43.8,67.49a2.28,2.28,0,0,1,.59,1.71v3h-1.5V69.43a1.35,1.35,0,0,0-.27-.92,1,1,0,0,0-.78-.3,1.19,1.19,0,0,0-.9.35,1.45,1.45,0,0,0-.34,1v2.55h-1.5V67h1.43v.6a2,2,0,0,1,.74-.5,2.58,2.58,0,0,1,1-.18A2.12,2.12,0,0,1,43.8,67.49Z" transform="translate(-0.8 -1.04)"/><path d="M51.13,67v4.3a2.76,2.76,0,0,1-.74,2.11,3.05,3.05,0,0,1-2.16.69,5.41,5.41,0,0,1-1.42-.18,3.11,3.11,0,0,1-1.11-.53l.59-1.08a2.45,2.45,0,0,0,.83.43,3.29,3.29,0,0,0,1,.16,1.62,1.62,0,0,0,1.15-.35,1.4,1.4,0,0,0,.37-1.06v-.22a2.1,2.1,0,0,1-1.63.64,2.73,2.73,0,0,1-1.3-.31,2.38,2.38,0,0,1-.94-.88,2.64,2.64,0,0,1,0-2.61,2.38,2.38,0,0,1,.94-.88,2.73,2.73,0,0,1,1.3-.31,2,2,0,0,1,1.71.74V67Zm-1.86,3.33a1.3,1.3,0,0,0,0-1.83,1.37,1.37,0,0,0-1-.35,1.39,1.39,0,0,0-1,.35,1.29,1.29,0,0,0,0,1.83,1.4,1.4,0,0,0,1,.35A1.38,1.38,0,0,0,49.27,70.33Z" transform="translate(-0.8 -1.04)"/><path d="M20.46,80.39A1.77,1.77,0,0,1,21,81.7a1.94,1.94,0,0,1-.29,1,2,2,0,0,1-.86.74,3.23,3.23,0,0,1-1.4.27,4.41,4.41,0,0,1-1.38-.22,2.94,2.94,0,0,1-1.08-.6l.44-.76a2.53,2.53,0,0,0,.88.52,3.28,3.28,0,0,0,1.14.2,1.89,1.89,0,0,0,1.17-.32,1,1,0,0,0,.42-.87,1,1,0,0,0-.41-.86,2.08,2.08,0,0,0-1.25-.31h-.54v-.67l1.69-2.07H16.28V77h4.43v.65L19,79.78A2.4,2.4,0,0,1,20.46,80.39Z" transform="translate(-0.8 -1.04)"/><path d="M23.2,83.34a2.73,2.73,0,0,1-1-1.19,5,5,0,0,1,0-3.69,2.74,2.74,0,0,1,1-1.19,2.65,2.65,0,0,1,2.82,0,2.74,2.74,0,0,1,1,1.19,5,5,0,0,1,0,3.69,2.73,2.73,0,0,1-1,1.19,2.64,2.64,0,0,1-2.82,0Zm2.71-1.11a4,4,0,0,0,0-3.84,1.6,1.6,0,0,0-2.59,0,4,4,0,0,0,0,3.84,1.6,1.6,0,0,0,2.59,0Z" transform="translate(-0.8 -1.04)"/><path d="M28.6,80.06a2.25,2.25,0,0,1,0-2.65,1.51,1.51,0,0,1,2.26,0,2.28,2.28,0,0,1,0,2.66,1.51,1.51,0,0,1-2.26,0Zm1.82-.38a1.91,1.91,0,0,0,0-1.89.86.86,0,0,0-1.38,0,1.86,1.86,0,0,0,0,1.88.86.86,0,0,0,1.38,0ZM33.78,77h.74l-4.59,6.72H29.2Zm-.93,6.27a2.28,2.28,0,0,1,0-2.66,1.51,1.51,0,0,1,2.26,0,2.25,2.25,0,0,1,0,2.65,1.51,1.51,0,0,1-2.26,0Zm1.81-.39a1.86,1.86,0,0,0,0-1.88.86.86,0,0,0-1.38,0,1.91,1.91,0,0,0,0,1.89.86.86,0,0,0,1.38,0Z" transform="translate(-0.8 -1.04)"/><path d="M120.37,1.44h1.55V6.89h3.37V8.16h-4.92Z" transform="translate(-0.8 -1.04)"/><path d="M131.05,6h-3.91a1.22,1.22,0,0,0,.5.76,1.65,1.65,0,0,0,1,.28,2,2,0,0,0,.71-.12,1.74,1.74,0,0,0,.58-.38l.8.86a2.68,2.68,0,0,1-2.13.83A3.38,3.38,0,0,1,127,7.89a2.51,2.51,0,0,1-1-.95,2.61,2.61,0,0,1-.37-1.37A2.64,2.64,0,0,1,126,4.21a2.52,2.52,0,0,1,1-1,3.06,3.06,0,0,1,2.78,0,2.38,2.38,0,0,1,1,.94,2.79,2.79,0,0,1,.35,1.42S131.07,5.75,131.05,6Zm-3.5-1.66a1.23,1.23,0,0,0-.42.79h2.54a1.24,1.24,0,0,0-.42-.78,1.27,1.27,0,0,0-.84-.29A1.29,1.29,0,0,0,127.55,4.34Z" transform="translate(-0.8 -1.04)"/><path d="M137.41,3v4.3a2.76,2.76,0,0,1-.74,2.11,3.05,3.05,0,0,1-2.16.69,5.41,5.41,0,0,1-1.42-.18A3.11,3.11,0,0,1,132,9.39l.59-1.08a2.45,2.45,0,0,0,.83.43,3.29,3.29,0,0,0,1,.16,1.62,1.62,0,0,0,1.15-.35,1.4,1.4,0,0,0,.37-1.06V7.27a2.1,2.1,0,0,1-1.63.64A2.73,2.73,0,0,1,133,7.6a2.38,2.38,0,0,1-.94-.88,2.46,2.46,0,0,1-.35-1.31,2.45,2.45,0,0,1,.35-1.3,2.38,2.38,0,0,1,.94-.88,2.73,2.73,0,0,1,1.3-.31,2,2,0,0,1,1.71.74V3Zm-1.86,3.33a1.19,1.19,0,0,0,.38-.92,1.19,1.19,0,0,0-.38-.92,1.37,1.37,0,0,0-1-.35,1.39,1.39,0,0,0-1,.35,1.18,1.18,0,0,0-.38.92,1.18,1.18,0,0,0,.38.92,1.4,1.4,0,0,0,1,.35A1.38,1.38,0,0,0,135.55,6.33Z" transform="translate(-0.8 -1.04)"/><path d="M142.72,3.49a2.19,2.19,0,0,1,.64,1.72V8.16H142V7.52a1.67,1.67,0,0,1-1.57.72,2.43,2.43,0,0,1-1-.2,1.52,1.52,0,0,1-.67-.56,1.44,1.44,0,0,1-.23-.81A1.35,1.35,0,0,1,139,5.54a2.76,2.76,0,0,1,1.67-.41h1.19a1,1,0,0,0-.3-.75,1.31,1.31,0,0,0-.89-.26,2.62,2.62,0,0,0-.81.13,2.15,2.15,0,0,0-.68.35l-.54-1a3.23,3.23,0,0,1,1-.46,4.55,4.55,0,0,1,1.21-.16A2.69,2.69,0,0,1,142.72,3.49ZM141.45,7a1,1,0,0,0,.42-.52V6h-1q-.92,0-.92.6a.54.54,0,0,0,.22.46,1,1,0,0,0,.62.17A1.31,1.31,0,0,0,141.45,7Z" transform="translate(-0.8 -1.04)"/><path d="M144.72,1h1.5V8.16h-1.5Z" transform="translate(-0.8 -1.04)"/><path d="M131,16.18a1.8,1.8,0,0,1,.68,1.48,2,2,0,0,1-.28,1.07,1.94,1.94,0,0,1-.85.75,3.25,3.25,0,0,1-1.41.27,4.39,4.39,0,0,1-1.37-.22,3,3,0,0,1-1.09-.6l.44-.76a2.53,2.53,0,0,0,.88.52,3.26,3.26,0,0,0,1.13.2,1.89,1.89,0,0,0,1.18-.32,1.05,1.05,0,0,0,.42-.88,1,1,0,0,0-.46-.92,2.94,2.94,0,0,0-1.57-.31h-1.53L127.5,13h3.79v.83h-3l-.18,1.84h.75A3.37,3.37,0,0,1,131,16.18Z" transform="translate(-0.8 -1.04)"/><path d="M132.69,16.06a2,2,0,0,1-.43-1.32,2,2,0,0,1,.43-1.33,1.51,1.51,0,0,1,2.26,0,2,2,0,0,1,.43,1.33,2,2,0,0,1-.43,1.33,1.51,1.51,0,0,1-2.26,0Zm1.82-.38a1.57,1.57,0,0,0,.25-.95,1.57,1.57,0,0,0-.25-.95.86.86,0,0,0-1.38,0,1.55,1.55,0,0,0-.25.94,1.55,1.55,0,0,0,.25.94.86.86,0,0,0,1.38,0ZM137.88,13h.74L134,19.68h-.74ZM137,19.23a2,2,0,0,1-.43-1.33,2,2,0,0,1,.43-1.33,1.51,1.51,0,0,1,2.26,0,2,2,0,0,1,.43,1.32,2,2,0,0,1-.43,1.32,1.51,1.51,0,0,1-2.26,0Zm1.81-.39a1.86,1.86,0,0,0,0-1.88.86.86,0,0,0-1.38,0,1.57,1.57,0,0,0-.25.95,1.57,1.57,0,0,0,.25.95.86.86,0,0,0,1.38,0Z" transform="translate(-0.8 -1.04)"/></g></g></svg>