<?xml version="1.0" encoding="utf-8"?>
<!-- Generator: Adobe Illustrator 19.0.0, SVG Export Plug-In . SVG Version: 6.00 Build 0)  -->
<svg version="1.1" id="Слой_1" xmlns="http://www.w3.org/2000/svg" xmlns:xlink="http://www.w3.org/1999/xlink" x="0px" y="0px"
	 viewBox="0 0 243.5 216.4" style="enable-background:new 0 0 243.5 216.4;" xml:space="preserve">
<style type="text/css">
	.st0{fill:#010202;}
	.st1{fill:#9EC9ED;}
	.st2{fill:#262958;}
	.st3{fill:#2864AE;}
	.st4{fill:#528FCC;}
</style>
<g id="XMLID_124_">
	<path id="XMLID_125_" class="st0" d="M7.8,112.6c0,0.7-0.1,1.3-0.3,1.9s-0.5,1-0.8,1.4c-0.4,0.4-0.8,0.6-1.2,0.8
		c-0.5,0.2-1,0.3-1.5,0.3s-1-0.1-1.5-0.3c-0.5-0.2-0.9-0.5-1.2-0.8c-0.4-0.4-0.6-0.8-0.8-1.4C0.1,114,0,113.4,0,112.6
		c0-0.7,0.1-1.3,0.3-1.9c0.2-0.5,0.5-1,0.8-1.4c0.4-0.4,0.8-0.6,1.2-0.8c0.5-0.2,1-0.3,1.5-0.3s1,0.1,1.5,0.3
		c0.5,0.2,0.9,0.5,1.2,0.8c0.4,0.4,0.6,0.8,0.8,1.4C7.7,111.3,7.8,111.9,7.8,112.6z M6.9,112.6c0-0.6-0.1-1.1-0.2-1.5
		c-0.1-0.4-0.3-0.8-0.6-1.1s-0.6-0.5-1-0.7c-0.4-0.2-0.8-0.2-1.3-0.2s-0.9,0.1-1.3,0.2c-0.4,0.2-0.7,0.4-1,0.7s-0.5,0.7-0.6,1.1
		c-0.1,0.4-0.2,0.9-0.2,1.5c0,0.6,0.1,1.1,0.2,1.5c0.1,0.4,0.3,0.8,0.6,1.1c0.3,0.3,0.6,0.6,1,0.7s0.8,0.3,1.3,0.3s0.9-0.1,1.3-0.3
		s0.7-0.4,1-0.7c0.3-0.3,0.5-0.7,0.6-1.1C6.9,113.7,6.9,113.2,6.9,112.6z"/>
	<path id="XMLID_128_" class="st0" d="M10.4,119H9.6v-8.2c0.2-0.1,0.5-0.2,0.9-0.2c0.4-0.1,0.8-0.1,1.4-0.1c0.5,0,0.9,0.1,1.2,0.2
		c0.4,0.1,0.7,0.4,1,0.6c0.3,0.3,0.5,0.6,0.6,1c0.1,0.4,0.2,0.9,0.2,1.4c0,0.5-0.1,0.9-0.2,1.3c-0.1,0.4-0.3,0.7-0.5,1
		s-0.5,0.5-0.9,0.7c-0.3,0.2-0.7,0.2-1.2,0.2c-0.4,0-0.8-0.1-1.1-0.2c-0.3-0.1-0.5-0.2-0.7-0.3V119z M10.4,115.7
		c0.1,0.1,0.2,0.1,0.3,0.2c0.1,0.1,0.2,0.1,0.4,0.2c0.1,0.1,0.3,0.1,0.5,0.1c0.2,0,0.3,0.1,0.5,0.1c0.4,0,0.7-0.1,1-0.2
		s0.5-0.3,0.6-0.5c0.2-0.2,0.3-0.5,0.3-0.8c0.1-0.3,0.1-0.6,0.1-1c0-0.8-0.2-1.4-0.6-1.9c-0.4-0.4-0.9-0.7-1.6-0.7
		c-0.4,0-0.7,0-0.9,0.1c-0.2,0-0.4,0.1-0.5,0.1V115.7z"/>
	<path id="XMLID_131_" class="st0" d="M16.2,113.7c0-0.5,0.1-1,0.2-1.4c0.2-0.4,0.4-0.7,0.6-1c0.3-0.3,0.5-0.5,0.9-0.6
		c0.3-0.1,0.7-0.2,1-0.2c0.8,0,1.4,0.2,1.8,0.7s0.7,1.3,0.7,2.3c0,0.1,0,0.1,0,0.2c0,0.1,0,0.1,0,0.2H17c0,0.8,0.2,1.3,0.6,1.8
		s0.9,0.6,1.7,0.6c0.4,0,0.8,0,1-0.1c0.2-0.1,0.4-0.1,0.5-0.2l0.1,0.7c-0.1,0.1-0.3,0.1-0.6,0.2s-0.7,0.1-1.1,0.1
		c-0.5,0-1-0.1-1.4-0.2c-0.4-0.2-0.7-0.4-0.9-0.7c-0.2-0.3-0.4-0.6-0.5-1C16.3,114.6,16.2,114.2,16.2,113.7z M20.6,113.2
		c0-0.6-0.2-1.2-0.5-1.5c-0.3-0.4-0.7-0.5-1.2-0.5c-0.3,0-0.5,0.1-0.8,0.2c-0.2,0.1-0.4,0.3-0.6,0.4c-0.2,0.2-0.3,0.4-0.4,0.7
		c-0.1,0.2-0.1,0.5-0.2,0.8H20.6z"/>
	<path id="XMLID_134_" class="st0" d="M25.3,110.5c0.3,0,0.5,0,0.7,0.1c0.2,0,0.4,0.1,0.5,0.1l-0.2,0.7c-0.1,0-0.2-0.1-0.4-0.1
		c-0.2,0-0.5-0.1-0.8-0.1c-0.3,0-0.6,0-0.8,0.1s-0.3,0.1-0.4,0.1v5.4h-0.8v-5.9c0.2-0.1,0.5-0.2,0.8-0.3
		C24.3,110.5,24.8,110.5,25.3,110.5z"/>
	<path id="XMLID_136_" class="st0" d="M29.5,110.5c0.4,0,0.8,0.1,1,0.2c0.3,0.1,0.5,0.3,0.7,0.5c0.2,0.2,0.3,0.4,0.4,0.7
		s0.1,0.6,0.1,0.9v3.9c-0.1,0-0.2,0-0.3,0.1c-0.2,0-0.3,0.1-0.5,0.1c-0.2,0-0.4,0.1-0.7,0.1c-0.2,0-0.5,0-0.8,0
		c-0.3,0-0.6,0-0.9-0.1c-0.3-0.1-0.5-0.2-0.7-0.3c-0.2-0.2-0.4-0.4-0.5-0.6c-0.1-0.2-0.2-0.5-0.2-0.9c0-0.3,0.1-0.6,0.2-0.9
		s0.3-0.4,0.5-0.6c0.2-0.2,0.5-0.3,0.8-0.3c0.3-0.1,0.7-0.1,1-0.1c0.1,0,0.2,0,0.4,0c0.1,0,0.2,0,0.4,0c0.1,0,0.2,0,0.3,0.1
		c0.1,0,0.1,0,0.2,0.1v-0.4c0-0.2,0-0.4,0-0.6c0-0.2-0.1-0.4-0.2-0.6s-0.3-0.3-0.5-0.4c-0.2-0.1-0.5-0.1-0.8-0.1c-0.5,0-0.8,0-1,0.1
		s-0.4,0.1-0.5,0.2l-0.1-0.7c0.1-0.1,0.3-0.1,0.6-0.2C28.8,110.5,29.1,110.5,29.5,110.5z M29.6,116.2c0.3,0,0.6,0,0.8,0
		c0.2,0,0.4,0,0.6-0.1V114c-0.1,0-0.2-0.1-0.4-0.1c-0.2,0-0.5-0.1-0.8-0.1c-0.2,0-0.4,0-0.6,0c-0.2,0-0.4,0.1-0.6,0.2
		c-0.2,0.1-0.3,0.2-0.4,0.4c-0.1,0.2-0.2,0.4-0.2,0.6c0,0.2,0,0.4,0.1,0.6c0.1,0.2,0.2,0.3,0.3,0.4s0.3,0.2,0.5,0.2
		C29.1,116.2,29.3,116.2,29.6,116.2z"/>
	<path id="XMLID_139_" class="st0" d="M34.5,110.6h2.5v0.7h-2.5v3.3c0,0.4,0,0.6,0.1,0.9s0.1,0.4,0.3,0.5c0.1,0.1,0.2,0.2,0.4,0.2
		s0.3,0.1,0.5,0.1c0.3,0,0.6,0,0.8-0.1c0.2-0.1,0.4-0.1,0.5-0.2l0.2,0.6c-0.1,0.1-0.3,0.2-0.6,0.2c-0.3,0.1-0.6,0.1-0.9,0.1
		c-0.4,0-0.7,0-1-0.2c-0.3-0.1-0.5-0.3-0.6-0.5c-0.2-0.2-0.3-0.5-0.3-0.8c-0.1-0.3-0.1-0.7-0.1-1.1v-5.7l0.8-0.1V110.6z"/>
	<path id="XMLID_141_" class="st0" d="M39.3,108.7c0,0.2-0.1,0.3-0.2,0.4c-0.1,0.1-0.2,0.2-0.4,0.2s-0.3-0.1-0.4-0.2
		c-0.1-0.1-0.2-0.3-0.2-0.4c0-0.2,0.1-0.3,0.2-0.4c0.1-0.1,0.2-0.2,0.4-0.2s0.3,0.1,0.4,0.2C39.3,108.4,39.3,108.6,39.3,108.7z
		 M39.2,116.8h-0.8v-6.2h0.8V116.8z"/>
	<path id="XMLID_144_" class="st0" d="M46.5,113.7c0,0.5-0.1,0.9-0.2,1.3c-0.1,0.4-0.3,0.7-0.6,1c-0.3,0.3-0.5,0.5-0.9,0.7
		c-0.3,0.2-0.7,0.2-1.1,0.2c-0.4,0-0.8-0.1-1.1-0.2c-0.3-0.2-0.6-0.4-0.9-0.7c-0.3-0.3-0.4-0.6-0.6-1c-0.1-0.4-0.2-0.8-0.2-1.3
		s0.1-0.9,0.2-1.3c0.1-0.4,0.3-0.7,0.6-1c0.3-0.3,0.5-0.5,0.9-0.7c0.3-0.2,0.7-0.2,1.1-0.2c0.4,0,0.8,0.1,1.1,0.2
		c0.3,0.2,0.6,0.4,0.9,0.7c0.3,0.3,0.4,0.6,0.6,1C46.5,112.8,46.5,113.2,46.5,113.7z M45.7,113.7c0-0.8-0.2-1.4-0.5-1.9
		c-0.4-0.5-0.8-0.7-1.5-0.7c-0.6,0-1.1,0.2-1.5,0.7c-0.4,0.5-0.5,1.1-0.5,1.9s0.2,1.4,0.5,1.8c0.4,0.5,0.8,0.7,1.5,0.7
		c0.6,0,1.1-0.2,1.5-0.7S45.7,114.5,45.7,113.7z"/>
	<path id="XMLID_147_" class="st0" d="M48.2,110.8c0.2-0.1,0.5-0.1,0.9-0.2c0.4-0.1,0.9-0.1,1.4-0.1c0.5,0,0.9,0.1,1.2,0.2
		c0.3,0.1,0.6,0.3,0.8,0.6c0.2,0.3,0.3,0.6,0.4,0.9c0.1,0.4,0.1,0.7,0.1,1.2v3.5h-0.8v-3.2c0-0.4,0-0.8-0.1-1.1
		c-0.1-0.3-0.2-0.6-0.3-0.7c-0.1-0.2-0.3-0.3-0.6-0.4c-0.2-0.1-0.5-0.1-0.9-0.1c-0.4,0-0.7,0-1,0.1s-0.4,0.1-0.5,0.1v5.4h-0.8V110.8
		z"/>
	<path id="XMLID_149_" class="st0" d="M56.3,116.3c0.4,0,0.8-0.1,1.1-0.2c0.3-0.1,0.4-0.4,0.4-0.8c0-0.2,0-0.3-0.1-0.4
		s-0.1-0.2-0.3-0.3c-0.1-0.1-0.3-0.2-0.5-0.3c-0.2-0.1-0.4-0.2-0.7-0.3c-0.2-0.1-0.5-0.2-0.7-0.3c-0.2-0.1-0.4-0.2-0.6-0.3
		s-0.3-0.3-0.4-0.5c-0.1-0.2-0.1-0.4-0.1-0.7c0-0.5,0.2-0.9,0.6-1.2c0.4-0.3,0.9-0.5,1.6-0.5c0.4,0,0.8,0,1.1,0.1
		c0.3,0.1,0.5,0.1,0.6,0.2l-0.2,0.7c-0.1,0-0.3-0.1-0.5-0.2c-0.2-0.1-0.6-0.1-1-0.1c-0.2,0-0.3,0-0.5,0.1c-0.2,0-0.3,0.1-0.4,0.2
		c-0.1,0.1-0.2,0.2-0.3,0.3c-0.1,0.1-0.1,0.3-0.1,0.4c0,0.2,0,0.3,0.1,0.4s0.2,0.2,0.3,0.3c0.1,0.1,0.3,0.2,0.5,0.3
		c0.2,0.1,0.4,0.2,0.6,0.3c0.2,0.1,0.5,0.2,0.7,0.3c0.2,0.1,0.4,0.2,0.6,0.4s0.3,0.3,0.4,0.5s0.2,0.4,0.2,0.7c0,0.6-0.2,1-0.6,1.3
		s-1,0.4-1.7,0.4c-0.5,0-1,0-1.2-0.1s-0.5-0.2-0.6-0.2l0.2-0.7c0,0,0.1,0,0.2,0.1s0.2,0.1,0.3,0.1c0.1,0,0.3,0.1,0.5,0.1
		S56.1,116.3,56.3,116.3z"/>
	<path id="XMLID_151_" class="st0" d="M22.9,125c0,0.3-0.1,0.6-0.2,0.9c-0.1,0.3-0.3,0.5-0.5,0.8c-0.2,0.3-0.4,0.5-0.6,0.7
		c-0.2,0.2-0.5,0.5-0.7,0.7c-0.2,0.2-0.4,0.4-0.6,0.6c-0.2,0.2-0.4,0.4-0.5,0.6c-0.2,0.2-0.3,0.4-0.4,0.6c-0.1,0.2-0.1,0.4-0.1,0.6
		v0h3.9v0.7h-4.8c0,0,0,0,0-0.1s0-0.1,0-0.2c0-0.4,0.1-0.7,0.2-1c0.1-0.3,0.3-0.6,0.5-0.9s0.4-0.6,0.7-0.8c0.3-0.2,0.5-0.5,0.8-0.7
		c0.2-0.2,0.4-0.4,0.6-0.6c0.2-0.2,0.3-0.4,0.5-0.6c0.1-0.2,0.2-0.4,0.3-0.6c0.1-0.2,0.1-0.5,0.1-0.7c0-0.6-0.1-1-0.4-1.2
		c-0.3-0.2-0.7-0.4-1.1-0.4c-0.3,0-0.5,0-0.7,0.1c-0.2,0.1-0.4,0.1-0.5,0.2s-0.3,0.2-0.4,0.3s-0.2,0.2-0.2,0.2l-0.4-0.5
		c0-0.1,0.1-0.1,0.3-0.2s0.3-0.2,0.5-0.3c0.2-0.1,0.4-0.2,0.7-0.3s0.5-0.1,0.8-0.1c0.8,0,1.4,0.2,1.8,0.6
		C22.7,123.7,22.9,124.3,22.9,125z"/>
	<path id="XMLID_153_" class="st0" d="M24.9,127.1c0-1.4,0.2-2.5,0.7-3.2s1.1-1.1,2-1.1c0.8,0,1.5,0.4,2,1.1
		c0.5,0.7,0.7,1.8,0.7,3.2c0,1.4-0.2,2.5-0.7,3.2c-0.5,0.7-1.1,1.1-2,1.1c-0.8,0-1.5-0.4-2-1.1C25.2,129.5,24.9,128.5,24.9,127.1z
		 M29.4,127.1c0-0.5,0-0.9-0.1-1.4c-0.1-0.4-0.2-0.8-0.3-1.2s-0.3-0.6-0.6-0.8c-0.2-0.2-0.5-0.3-0.9-0.3c-0.4,0-0.6,0.1-0.9,0.3
		c-0.2,0.2-0.4,0.5-0.6,0.8c-0.1,0.3-0.2,0.7-0.3,1.2c-0.1,0.4-0.1,0.9-0.1,1.4c0,0.5,0,0.9,0.1,1.4c0.1,0.4,0.2,0.8,0.3,1.2
		c0.1,0.3,0.3,0.6,0.6,0.8s0.5,0.3,0.9,0.3c0.3,0,0.6-0.1,0.9-0.3s0.4-0.5,0.6-0.8s0.2-0.7,0.3-1.2C29.4,128,29.4,127.5,29.4,127.1z
		"/>
	<path id="XMLID_156_" class="st0" d="M35.3,124.9c0,0.4,0,0.7-0.1,0.9c-0.1,0.3-0.2,0.5-0.4,0.7s-0.4,0.3-0.6,0.4
		c-0.2,0.1-0.4,0.1-0.7,0.1c-0.2,0-0.5,0-0.7-0.1c-0.2-0.1-0.4-0.2-0.6-0.4s-0.3-0.4-0.4-0.7c-0.1-0.3-0.1-0.6-0.1-0.9
		c0-0.4,0-0.7,0.1-0.9c0.1-0.3,0.2-0.5,0.4-0.7c0.2-0.2,0.4-0.3,0.6-0.4c0.2-0.1,0.4-0.1,0.7-0.1c0.2,0,0.5,0,0.7,0.1
		c0.2,0.1,0.4,0.2,0.6,0.4c0.2,0.2,0.3,0.4,0.4,0.7C35.2,124.2,35.3,124.5,35.3,124.9z M34.6,124.9c0-0.5-0.1-0.8-0.3-1.1
		c-0.2-0.3-0.5-0.4-0.8-0.4c-0.4,0-0.6,0.1-0.8,0.4c-0.2,0.3-0.3,0.6-0.3,1.1s0.1,0.8,0.3,1.1s0.5,0.4,0.8,0.4
		c0.4,0,0.6-0.1,0.8-0.4C34.5,125.7,34.6,125.3,34.6,124.9z M37.9,122.9h0.8l-4.7,8.3h-0.8L37.9,122.9z M36.6,129.2
		c0-0.4,0-0.7,0.1-0.9c0.1-0.3,0.2-0.5,0.4-0.7c0.2-0.2,0.4-0.3,0.6-0.4c0.2-0.1,0.4-0.1,0.7-0.1c0.2,0,0.5,0,0.7,0.1
		c0.2,0.1,0.4,0.2,0.6,0.4c0.2,0.2,0.3,0.4,0.4,0.7c0.1,0.3,0.1,0.6,0.1,0.9c0,0.4,0,0.7-0.1,0.9c-0.1,0.3-0.2,0.5-0.4,0.7
		c-0.2,0.2-0.4,0.3-0.6,0.4s-0.4,0.1-0.7,0.1c-0.2,0-0.5,0-0.7-0.1c-0.2-0.1-0.4-0.2-0.6-0.4c-0.2-0.2-0.3-0.4-0.4-0.7
		C36.7,129.9,36.6,129.6,36.6,129.2z M37.4,129.2c0,0.5,0.1,0.8,0.3,1.1s0.5,0.4,0.8,0.4c0.4,0,0.6-0.1,0.8-0.4s0.3-0.6,0.3-1.1
		s-0.1-0.8-0.3-1.1c-0.2-0.3-0.5-0.4-0.8-0.4c-0.4,0-0.6,0.1-0.8,0.4C37.4,128.4,37.4,128.8,37.4,129.2z"/>
</g>
<g id="XMLID_90_">
	<path id="XMLID_91_" class="st0" d="M51.3,32.6c-0.1-0.2-0.2-0.5-0.3-0.8c-0.1-0.3-0.3-0.7-0.5-1.1c-0.2-0.4-0.4-0.8-0.6-1.2
		c-0.2-0.4-0.4-0.8-0.6-1.2c-0.2-0.4-0.3-0.7-0.5-0.9s-0.2-0.5-0.3-0.6c-0.1,1-0.2,2.1-0.2,3.3c-0.1,1.2-0.1,2.4-0.2,3.7h-0.8
		c0.1-1.5,0.2-3,0.2-4.3c0.1-1.4,0.2-2.7,0.3-4h0.7c0.2,0.4,0.5,0.9,0.8,1.4c0.3,0.5,0.5,1.1,0.8,1.6s0.5,1.1,0.8,1.7
		c0.3,0.5,0.5,1,0.7,1.5c0.2-0.4,0.4-0.9,0.7-1.5s0.5-1.1,0.8-1.7c0.3-0.6,0.5-1.1,0.8-1.6c0.3-0.5,0.5-1,0.8-1.4h0.7
		c0.1,1.3,0.2,2.6,0.3,4c0.1,1.4,0.2,2.8,0.2,4.3h-0.8c0-1.3-0.1-2.5-0.2-3.7s-0.1-2.3-0.2-3.3c-0.1,0.1-0.2,0.3-0.3,0.6
		c-0.1,0.3-0.3,0.6-0.5,0.9c-0.2,0.4-0.4,0.7-0.6,1.2c-0.2,0.4-0.4,0.8-0.6,1.2s-0.4,0.7-0.5,1.1c-0.1,0.3-0.3,0.6-0.3,0.8H51.3z"/>
	<path id="XMLID_93_" class="st0" d="M59.7,27.5c0.4,0,0.8,0.1,1,0.2c0.3,0.1,0.5,0.3,0.7,0.5c0.2,0.2,0.3,0.4,0.4,0.7
		c0.1,0.3,0.1,0.6,0.1,0.9v3.9c-0.1,0-0.2,0-0.3,0.1c-0.2,0-0.3,0.1-0.5,0.1c-0.2,0-0.4,0.1-0.7,0.1c-0.2,0-0.5,0-0.8,0
		c-0.3,0-0.6,0-0.9-0.1c-0.3-0.1-0.5-0.2-0.7-0.3c-0.2-0.2-0.4-0.4-0.5-0.6c-0.1-0.2-0.2-0.5-0.2-0.9c0-0.3,0.1-0.6,0.2-0.9
		c0.1-0.2,0.3-0.4,0.5-0.6c0.2-0.2,0.5-0.3,0.8-0.3c0.3-0.1,0.7-0.1,1-0.1c0.1,0,0.2,0,0.4,0c0.1,0,0.2,0,0.4,0c0.1,0,0.2,0,0.3,0.1
		c0.1,0,0.1,0,0.2,0.1v-0.4c0-0.2,0-0.4,0-0.6c0-0.2-0.1-0.4-0.2-0.6s-0.3-0.3-0.5-0.4c-0.2-0.1-0.5-0.1-0.8-0.1c-0.5,0-0.8,0-1,0.1
		c-0.2,0.1-0.4,0.1-0.5,0.2l-0.1-0.7c0.1-0.1,0.3-0.1,0.6-0.2C59,27.5,59.3,27.5,59.7,27.5z M59.8,33.2c0.3,0,0.6,0,0.8,0
		c0.2,0,0.4,0,0.6-0.1V31c-0.1,0-0.2-0.1-0.4-0.1c-0.2,0-0.5-0.1-0.8-0.1c-0.2,0-0.4,0-0.6,0c-0.2,0-0.4,0.1-0.6,0.2
		c-0.2,0.1-0.3,0.2-0.4,0.4c-0.1,0.2-0.2,0.4-0.2,0.6c0,0.2,0,0.4,0.1,0.6c0.1,0.2,0.2,0.3,0.3,0.4c0.1,0.1,0.3,0.2,0.5,0.2
		C59.3,33.2,59.6,33.2,59.8,33.2z"/>
	<path id="XMLID_96_" class="st0" d="M66.1,27.5c0.3,0,0.5,0,0.7,0.1c0.2,0,0.4,0.1,0.5,0.1l-0.2,0.7c-0.1,0-0.2-0.1-0.4-0.1
		c-0.2,0-0.5-0.1-0.8-0.1c-0.3,0-0.6,0-0.8,0.1c-0.2,0-0.3,0.1-0.4,0.1v5.4H64v-5.9c0.2-0.1,0.5-0.2,0.8-0.3
		C65.1,27.5,65.6,27.5,66.1,27.5z"/>
	<path id="XMLID_98_" class="st0" d="M70,30.4c0.3,0.2,0.6,0.4,0.9,0.7c0.3,0.3,0.6,0.5,0.9,0.8s0.5,0.6,0.8,0.9
		c0.2,0.3,0.5,0.6,0.6,0.9h-0.9c-0.2-0.3-0.4-0.6-0.7-0.9c-0.2-0.3-0.5-0.6-0.8-0.9c-0.3-0.3-0.5-0.5-0.8-0.7
		c-0.3-0.2-0.5-0.4-0.7-0.5v3h-0.8v-9.2l0.8-0.1v5.8c0.2-0.1,0.4-0.3,0.6-0.6c0.2-0.2,0.5-0.5,0.8-0.7c0.3-0.2,0.5-0.5,0.7-0.7
		c0.2-0.2,0.4-0.4,0.6-0.6h1c-0.2,0.2-0.4,0.4-0.6,0.6c-0.2,0.2-0.5,0.5-0.7,0.7c-0.3,0.3-0.5,0.5-0.8,0.8
		C70.5,30,70.3,30.2,70,30.4z"/>
	<path id="XMLID_100_" class="st0" d="M73.8,30.7c0-0.5,0.1-1,0.2-1.4c0.2-0.4,0.4-0.7,0.6-1s0.5-0.5,0.9-0.6c0.3-0.1,0.7-0.2,1-0.2
		c0.8,0,1.4,0.2,1.8,0.7s0.7,1.3,0.7,2.3c0,0.1,0,0.1,0,0.2c0,0.1,0,0.1,0,0.2h-4.4c0,0.8,0.2,1.3,0.6,1.8s0.9,0.6,1.7,0.6
		c0.4,0,0.8,0,1-0.1c0.2-0.1,0.4-0.1,0.5-0.2l0.1,0.7c-0.1,0.1-0.3,0.1-0.6,0.2s-0.7,0.1-1.1,0.1c-0.5,0-1-0.1-1.4-0.2
		c-0.4-0.2-0.7-0.4-0.9-0.7c-0.2-0.3-0.4-0.6-0.5-1C73.9,31.6,73.8,31.2,73.8,30.7z M78.2,30.2c0-0.6-0.2-1.2-0.5-1.5
		c-0.3-0.4-0.7-0.5-1.2-0.5c-0.3,0-0.5,0.1-0.8,0.2c-0.2,0.1-0.4,0.3-0.6,0.4c-0.2,0.2-0.3,0.4-0.4,0.7c-0.1,0.2-0.1,0.5-0.2,0.8
		H78.2z"/>
	<path id="XMLID_103_" class="st0" d="M81.5,27.6H84v0.7h-2.5v3.3c0,0.4,0,0.6,0.1,0.9c0.1,0.2,0.1,0.4,0.3,0.5
		c0.1,0.1,0.2,0.2,0.4,0.2c0.2,0,0.3,0.1,0.5,0.1c0.3,0,0.6,0,0.8-0.1c0.2-0.1,0.4-0.1,0.5-0.2l0.2,0.6c-0.1,0.1-0.3,0.2-0.6,0.2
		c-0.3,0.1-0.6,0.1-0.9,0.1c-0.4,0-0.7,0-1-0.2c-0.3-0.1-0.5-0.3-0.6-0.5c-0.2-0.2-0.3-0.5-0.3-0.8s-0.1-0.7-0.1-1.1v-5.7l0.8-0.1
		V27.6z"/>
	<path id="XMLID_105_" class="st0" d="M86.4,25.7c0,0.2-0.1,0.3-0.2,0.4c-0.1,0.1-0.2,0.2-0.4,0.2s-0.3-0.1-0.4-0.2
		c-0.1-0.1-0.2-0.3-0.2-0.4c0-0.2,0.1-0.3,0.2-0.4c0.1-0.1,0.2-0.2,0.4-0.2s0.3,0.1,0.4,0.2C86.3,25.4,86.4,25.6,86.4,25.7z
		 M86.2,33.8h-0.8v-6.2h0.8V33.8z"/>
	<path id="XMLID_108_" class="st0" d="M88.3,27.8c0.2-0.1,0.5-0.1,0.9-0.2c0.4-0.1,0.9-0.1,1.4-0.1c0.5,0,0.9,0.1,1.2,0.2
		c0.3,0.1,0.6,0.3,0.8,0.6c0.2,0.3,0.3,0.6,0.4,0.9c0.1,0.4,0.1,0.7,0.1,1.2v3.5h-0.8v-3.2c0-0.4,0-0.8-0.1-1.1
		c-0.1-0.3-0.2-0.6-0.3-0.7c-0.1-0.2-0.3-0.3-0.6-0.4c-0.2-0.1-0.5-0.1-0.9-0.1c-0.4,0-0.7,0-1,0.1c-0.3,0-0.4,0.1-0.5,0.1v5.4h-0.8
		V27.8z"/>
	<path id="XMLID_110_" class="st0" d="M99.2,33.1c0,0-0.1,0.1-0.2,0.1c-0.1,0.1-0.2,0.1-0.4,0.2s-0.3,0.1-0.5,0.1
		c-0.2,0-0.4,0.1-0.6,0.1c-0.4,0-0.7-0.1-1-0.2s-0.6-0.3-0.9-0.5c-0.3-0.2-0.5-0.6-0.6-0.9c-0.2-0.4-0.2-0.8-0.2-1.4
		c0-0.4,0.1-0.8,0.2-1.2c0.1-0.4,0.3-0.7,0.6-1c0.3-0.3,0.6-0.5,0.9-0.6c0.4-0.2,0.8-0.2,1.2-0.2c0.6,0,1,0,1.4,0.1
		c0.3,0.1,0.6,0.1,0.9,0.2v5.7c0,0.9-0.2,1.6-0.7,2c-0.5,0.4-1.2,0.6-2.2,0.6c-0.4,0-0.8,0-1.1-0.1c-0.3-0.1-0.6-0.1-0.8-0.2
		l0.2-0.7c0.2,0.1,0.5,0.2,0.8,0.2c0.3,0.1,0.7,0.1,1,0.1c0.7,0,1.3-0.1,1.6-0.4c0.3-0.3,0.5-0.8,0.5-1.5V33.1z M99.1,28.4
		c-0.1,0-0.3-0.1-0.5-0.1c-0.2,0-0.5-0.1-0.9-0.1c-0.3,0-0.6,0.1-0.9,0.2c-0.3,0.1-0.5,0.3-0.7,0.5c-0.2,0.2-0.3,0.5-0.4,0.8
		c-0.1,0.3-0.1,0.6-0.1,1c0,0.4,0.1,0.8,0.2,1c0.1,0.3,0.3,0.5,0.4,0.7c0.2,0.2,0.4,0.3,0.6,0.4s0.5,0.1,0.7,0.1
		c0.4,0,0.7-0.1,1-0.2c0.3-0.1,0.5-0.2,0.7-0.4V28.4z"/>
	<path id="XMLID_113_" class="st0" d="M63.2,41.6c0.5-0.2,0.9-0.4,1.3-0.6c0.4-0.3,0.7-0.6,1.1-1.1h0.6v8.3h-0.8v-7.1
		c-0.1,0.1-0.2,0.2-0.3,0.3c-0.1,0.1-0.3,0.2-0.5,0.3c-0.2,0.1-0.4,0.2-0.6,0.3c-0.2,0.1-0.4,0.2-0.6,0.2L63.2,41.6z"/>
	<path id="XMLID_115_" class="st0" d="M69.4,44.1c0-1.4,0.2-2.5,0.7-3.2s1.1-1.1,2-1.1c0.8,0,1.5,0.4,2,1.1c0.5,0.7,0.7,1.8,0.7,3.2
		c0,1.4-0.2,2.5-0.7,3.2c-0.5,0.7-1.1,1.1-2,1.1c-0.8,0-1.5-0.4-2-1.1C69.7,46.5,69.4,45.5,69.4,44.1z M73.9,44.1
		c0-0.5,0-0.9-0.1-1.4c-0.1-0.4-0.2-0.8-0.3-1.2s-0.3-0.6-0.6-0.8c-0.2-0.2-0.5-0.3-0.9-0.3c-0.4,0-0.6,0.1-0.9,0.3
		c-0.2,0.2-0.4,0.5-0.6,0.8c-0.1,0.3-0.2,0.7-0.3,1.2c-0.1,0.4-0.1,0.9-0.1,1.4c0,0.5,0,0.9,0.1,1.4c0.1,0.4,0.2,0.8,0.3,1.2
		c0.1,0.3,0.3,0.6,0.6,0.8s0.5,0.3,0.9,0.3c0.3,0,0.6-0.1,0.9-0.3s0.4-0.5,0.6-0.8s0.2-0.7,0.3-1.2C73.9,45,73.9,44.5,73.9,44.1z"/>
	<path id="XMLID_118_" class="st0" d="M79.8,41.9c0,0.4,0,0.7-0.1,0.9c-0.1,0.3-0.2,0.5-0.4,0.7s-0.4,0.3-0.6,0.4
		C78.5,44,78.2,44,78,44c-0.2,0-0.5,0-0.7-0.1c-0.2-0.1-0.4-0.2-0.6-0.4s-0.3-0.4-0.4-0.7c-0.1-0.3-0.1-0.6-0.1-0.9
		c0-0.4,0-0.7,0.1-0.9c0.1-0.3,0.2-0.5,0.4-0.7c0.2-0.2,0.4-0.3,0.6-0.4c0.2-0.1,0.4-0.1,0.7-0.1c0.2,0,0.5,0,0.7,0.1
		c0.2,0.1,0.4,0.2,0.6,0.4c0.2,0.2,0.3,0.4,0.4,0.7C79.7,41.2,79.8,41.5,79.8,41.9z M79.1,41.9c0-0.5-0.1-0.8-0.3-1.1
		c-0.2-0.3-0.5-0.4-0.8-0.4c-0.4,0-0.6,0.1-0.8,0.4c-0.2,0.3-0.3,0.6-0.3,1.1s0.1,0.8,0.3,1.1s0.5,0.4,0.8,0.4
		c0.4,0,0.6-0.1,0.8-0.4C79,42.7,79.1,42.3,79.1,41.9z M82.4,39.9h0.8l-4.7,8.3h-0.8L82.4,39.9z M81.1,46.2c0-0.4,0-0.7,0.1-0.9
		c0.1-0.3,0.2-0.5,0.4-0.7c0.2-0.2,0.4-0.3,0.6-0.4c0.2-0.1,0.4-0.1,0.7-0.1c0.2,0,0.5,0,0.7,0.1c0.2,0.1,0.4,0.2,0.6,0.4
		c0.2,0.2,0.3,0.4,0.4,0.7c0.1,0.3,0.1,0.6,0.1,0.9c0,0.4,0,0.7-0.1,0.9c-0.1,0.3-0.2,0.5-0.4,0.7c-0.2,0.2-0.4,0.3-0.6,0.4
		s-0.4,0.1-0.7,0.1c-0.2,0-0.5,0-0.7-0.1c-0.2-0.1-0.4-0.2-0.6-0.4c-0.2-0.2-0.3-0.4-0.4-0.7C81.2,46.9,81.1,46.6,81.1,46.2z
		 M81.9,46.2c0,0.5,0.1,0.8,0.3,1.1s0.5,0.4,0.8,0.4c0.4,0,0.6-0.1,0.8-0.4s0.3-0.6,0.3-1.1s-0.1-0.8-0.3-1.1
		c-0.2-0.3-0.5-0.4-0.8-0.4c-0.4,0-0.6,0.1-0.8,0.4C81.9,45.4,81.9,45.8,81.9,46.2z"/>
</g>
<g id="XMLID_68_">
	<path id="XMLID_69_" class="st0" d="M140.5,8.6v0.7h-4.7V1h0.8v7.6H140.5z"/>
	<path id="XMLID_71_" class="st0" d="M141.4,6.2c0-0.5,0.1-1,0.2-1.4c0.2-0.4,0.4-0.7,0.6-1s0.5-0.5,0.9-0.6c0.3-0.1,0.7-0.2,1-0.2
		c0.8,0,1.4,0.2,1.8,0.7c0.5,0.5,0.7,1.3,0.7,2.3c0,0.1,0,0.1,0,0.2c0,0.1,0,0.1,0,0.2h-4.4c0,0.8,0.2,1.3,0.6,1.8s0.9,0.6,1.7,0.6
		c0.4,0,0.8,0,1-0.1s0.4-0.1,0.5-0.2l0.1,0.7c-0.1,0.1-0.3,0.1-0.6,0.2s-0.7,0.1-1.1,0.1c-0.5,0-1-0.1-1.4-0.2
		c-0.4-0.2-0.7-0.4-0.9-0.7c-0.2-0.3-0.4-0.6-0.5-1C141.5,7.1,141.4,6.7,141.4,6.2z M145.8,5.7c0-0.6-0.2-1.2-0.5-1.5
		c-0.3-0.4-0.7-0.5-1.2-0.5c-0.3,0-0.5,0.1-0.8,0.2s-0.4,0.3-0.6,0.4c-0.2,0.2-0.3,0.4-0.4,0.7s-0.1,0.5-0.2,0.8H145.8z"/>
	<path id="XMLID_74_" class="st0" d="M152.4,8.6c0,0-0.1,0.1-0.2,0.1c-0.1,0.1-0.2,0.1-0.4,0.2c-0.1,0.1-0.3,0.1-0.5,0.1
		c-0.2,0-0.4,0.1-0.6,0.1c-0.4,0-0.7-0.1-1-0.2s-0.6-0.3-0.9-0.5c-0.3-0.2-0.5-0.6-0.6-0.9C148,7.1,148,6.6,148,6.1
		c0-0.4,0.1-0.8,0.2-1.2c0.1-0.4,0.3-0.7,0.6-1s0.6-0.5,0.9-0.6c0.4-0.2,0.8-0.2,1.2-0.2c0.6,0,1,0,1.4,0.1c0.3,0.1,0.6,0.1,0.9,0.2
		V9c0,0.9-0.2,1.6-0.7,2c-0.5,0.4-1.2,0.6-2.2,0.6c-0.4,0-0.8,0-1.1-0.1s-0.6-0.1-0.8-0.2l0.2-0.7c0.2,0.1,0.5,0.2,0.8,0.2
		c0.3,0.1,0.7,0.1,1,0.1c0.7,0,1.3-0.1,1.6-0.4c0.3-0.3,0.5-0.8,0.5-1.5V8.6z M152.4,3.9c-0.1,0-0.3-0.1-0.5-0.1
		c-0.2,0-0.5-0.1-0.9-0.1c-0.3,0-0.6,0.1-0.9,0.2c-0.3,0.1-0.5,0.3-0.7,0.5c-0.2,0.2-0.3,0.5-0.4,0.8c-0.1,0.3-0.1,0.6-0.1,1
		c0,0.4,0.1,0.8,0.2,1c0.1,0.3,0.3,0.5,0.4,0.7s0.4,0.3,0.6,0.4c0.2,0.1,0.5,0.1,0.7,0.1c0.4,0,0.7-0.1,1-0.2s0.5-0.2,0.7-0.4V3.9z"
		/>
	<path id="XMLID_77_" class="st0" d="M157.1,3c0.4,0,0.8,0.1,1,0.2c0.3,0.1,0.5,0.3,0.7,0.5c0.2,0.2,0.3,0.4,0.4,0.7
		c0.1,0.3,0.1,0.6,0.1,0.9v3.9c-0.1,0-0.2,0-0.3,0.1c-0.2,0-0.3,0.1-0.5,0.1c-0.2,0-0.4,0.1-0.7,0.1c-0.2,0-0.5,0-0.8,0
		c-0.3,0-0.6,0-0.9-0.1c-0.3-0.1-0.5-0.2-0.7-0.3c-0.2-0.2-0.4-0.4-0.5-0.6c-0.1-0.2-0.2-0.5-0.2-0.9c0-0.3,0.1-0.6,0.2-0.9
		c0.1-0.2,0.3-0.4,0.5-0.6c0.2-0.2,0.5-0.3,0.8-0.3c0.3-0.1,0.7-0.1,1-0.1c0.1,0,0.2,0,0.4,0c0.1,0,0.2,0,0.4,0c0.1,0,0.2,0,0.3,0.1
		c0.1,0,0.1,0,0.2,0.1V5.4c0-0.2,0-0.4,0-0.6c0-0.2-0.1-0.4-0.2-0.6s-0.3-0.3-0.5-0.4c-0.2-0.1-0.5-0.1-0.8-0.1c-0.5,0-0.8,0-1,0.1
		c-0.2,0.1-0.4,0.1-0.5,0.2l-0.1-0.7c0.1-0.1,0.3-0.1,0.6-0.2C156.4,3,156.7,3,157.1,3z M157.2,8.7c0.3,0,0.6,0,0.8,0
		c0.2,0,0.4,0,0.6-0.1V6.5c-0.1,0-0.2-0.1-0.4-0.1c-0.2,0-0.5-0.1-0.8-0.1c-0.2,0-0.4,0-0.6,0c-0.2,0-0.4,0.1-0.6,0.2
		c-0.2,0.1-0.3,0.2-0.4,0.4c-0.1,0.2-0.2,0.4-0.2,0.6c0,0.2,0,0.4,0.1,0.6c0.1,0.2,0.2,0.3,0.3,0.4c0.1,0.1,0.3,0.2,0.5,0.2
		C156.7,8.7,156.9,8.7,157.2,8.7z"/>
	<path id="XMLID_80_" class="st0" d="M162.9,9.4c-0.3,0-0.5,0-0.7-0.1c-0.2-0.1-0.4-0.2-0.5-0.3c-0.1-0.1-0.2-0.3-0.3-0.5
		c-0.1-0.2-0.1-0.4-0.1-0.7V0.1l0.8-0.1v7.8c0,0.2,0,0.3,0.1,0.5c0,0.1,0.1,0.2,0.2,0.3c0.1,0.1,0.2,0.1,0.3,0.1
		c0.1,0,0.3,0.1,0.4,0.1L162.9,9.4z"/>
	<path id="XMLID_82_" class="st0" d="M143.5,23.2c0.4,0,0.7,0,1-0.1c0.3-0.1,0.5-0.2,0.6-0.4s0.3-0.3,0.3-0.6
		c0.1-0.2,0.1-0.4,0.1-0.7c0-0.3-0.1-0.6-0.2-0.9s-0.3-0.5-0.6-0.6c-0.3-0.2-0.6-0.3-1.1-0.4c-0.4-0.1-1-0.1-1.7-0.1
		c0-0.4,0.1-0.8,0.1-1.1c0-0.3,0.1-0.7,0.1-1c0-0.3,0-0.6,0.1-0.9s0-0.6,0-0.9h3.7v0.7h-3.1c0,0.2,0,0.3,0,0.6s0,0.5,0,0.7
		c0,0.3,0,0.5-0.1,0.7c0,0.2,0,0.4-0.1,0.6c0.6,0,1.1,0.1,1.6,0.2c0.4,0.1,0.8,0.3,1.1,0.6c0.3,0.2,0.5,0.5,0.6,0.8s0.2,0.7,0.2,1.1
		c0,0.4-0.1,0.7-0.2,1s-0.3,0.6-0.5,0.8s-0.5,0.4-0.9,0.5c-0.4,0.1-0.8,0.2-1.3,0.2c-0.3,0-0.5,0-0.7-0.1c-0.2,0-0.4-0.1-0.6-0.1
		s-0.3-0.1-0.4-0.1c-0.1,0-0.2-0.1-0.3-0.1l0.2-0.7c0,0,0.1,0.1,0.2,0.1c0.1,0,0.3,0.1,0.4,0.1c0.2,0,0.3,0.1,0.5,0.1
		C143.1,23.2,143.3,23.2,143.5,23.2z"/>
	<path id="XMLID_84_" class="st0" d="M151.7,17.4c0,0.4,0,0.7-0.1,0.9c-0.1,0.3-0.2,0.5-0.4,0.7s-0.4,0.3-0.6,0.4s-0.4,0.1-0.7,0.1
		c-0.2,0-0.5,0-0.7-0.1c-0.2-0.1-0.4-0.2-0.6-0.4s-0.3-0.4-0.4-0.7c-0.1-0.3-0.1-0.6-0.1-0.9c0-0.4,0-0.7,0.1-0.9
		c0.1-0.3,0.2-0.5,0.4-0.7c0.2-0.2,0.4-0.3,0.6-0.4c0.2-0.1,0.4-0.1,0.7-0.1c0.2,0,0.5,0,0.7,0.1c0.2,0.1,0.4,0.2,0.6,0.4
		c0.2,0.2,0.3,0.4,0.4,0.7C151.7,16.7,151.7,17,151.7,17.4z M151,17.4c0-0.5-0.1-0.8-0.3-1.1c-0.2-0.3-0.5-0.4-0.8-0.4
		c-0.4,0-0.6,0.1-0.8,0.4c-0.2,0.3-0.3,0.6-0.3,1.1s0.1,0.8,0.3,1.1s0.5,0.4,0.8,0.4c0.4,0,0.6-0.1,0.8-0.4S151,17.8,151,17.4z
		 M154.4,15.4h0.8l-4.7,8.3h-0.8L154.4,15.4z M153.1,21.7c0-0.4,0-0.7,0.1-0.9c0.1-0.3,0.2-0.5,0.4-0.7c0.2-0.2,0.4-0.3,0.6-0.4
		c0.2-0.1,0.4-0.1,0.7-0.1s0.5,0,0.7,0.1c0.2,0.1,0.4,0.2,0.6,0.4c0.2,0.2,0.3,0.4,0.4,0.7c0.1,0.3,0.1,0.6,0.1,0.9
		c0,0.4,0,0.7-0.1,0.9c-0.1,0.3-0.2,0.5-0.4,0.7c-0.2,0.2-0.4,0.3-0.6,0.4s-0.4,0.1-0.7,0.1s-0.5,0-0.7-0.1s-0.4-0.2-0.6-0.4
		c-0.2-0.2-0.3-0.4-0.4-0.7C153.1,22.4,153.1,22.1,153.1,21.7z M153.8,21.7c0,0.5,0.1,0.8,0.3,1.1s0.5,0.4,0.8,0.4
		c0.4,0,0.6-0.1,0.8-0.4s0.3-0.6,0.3-1.1s-0.1-0.8-0.3-1.1c-0.2-0.3-0.5-0.4-0.8-0.4c-0.4,0-0.6,0.1-0.8,0.4
		C153.9,20.9,153.8,21.3,153.8,21.7z"/>
</g>
<g id="XMLID_16_">
	<path id="XMLID_17_" class="st0" d="M38.2,197.6c0,0.7-0.1,1.3-0.3,1.9c-0.2,0.5-0.5,1-0.9,1.3c-0.4,0.4-0.9,0.6-1.4,0.8
		c-0.6,0.2-1.2,0.3-1.8,0.3c-0.3,0-0.7,0-1.1-0.1c-0.4,0-0.7-0.1-1-0.2v-8c0.3-0.1,0.6-0.1,1-0.2c0.4,0,0.7-0.1,1.1-0.1
		c0.7,0,1.3,0.1,1.8,0.3c0.6,0.2,1,0.4,1.4,0.8c0.4,0.4,0.7,0.8,0.9,1.3C38,196.3,38.2,196.9,38.2,197.6z M32.4,201.1
		c0,0,0.2,0,0.4,0c0.2,0,0.5,0,0.9,0c0.6,0,1.1-0.1,1.6-0.2s0.8-0.4,1.1-0.7c0.3-0.3,0.5-0.7,0.7-1.1c0.2-0.4,0.2-0.9,0.2-1.5
		s-0.1-1-0.2-1.5c-0.2-0.4-0.4-0.8-0.7-1.1c-0.3-0.3-0.7-0.5-1.1-0.7s-1-0.2-1.6-0.2c-0.4,0-0.7,0-0.9,0c-0.2,0-0.3,0-0.4,0V201.1z"
		/>
	<path id="XMLID_20_" class="st0" d="M39.6,198.7c0-0.5,0.1-1,0.2-1.4c0.2-0.4,0.4-0.7,0.6-1c0.3-0.3,0.5-0.5,0.9-0.6
		c0.3-0.1,0.7-0.2,1-0.2c0.8,0,1.4,0.2,1.8,0.7s0.7,1.3,0.7,2.3c0,0.1,0,0.1,0,0.2c0,0.1,0,0.1,0,0.2h-4.4c0,0.8,0.2,1.3,0.6,1.8
		s0.9,0.6,1.7,0.6c0.4,0,0.8,0,1-0.1c0.2-0.1,0.4-0.1,0.5-0.2l0.1,0.7c-0.1,0.1-0.3,0.1-0.6,0.2s-0.7,0.1-1.1,0.1
		c-0.5,0-1-0.1-1.4-0.2c-0.4-0.2-0.7-0.4-0.9-0.7c-0.2-0.3-0.4-0.6-0.5-1C39.6,199.6,39.6,199.2,39.6,198.7z M44,198.2
		c0-0.6-0.2-1.2-0.5-1.5c-0.3-0.4-0.7-0.5-1.2-0.5c-0.3,0-0.5,0.1-0.8,0.2c-0.2,0.1-0.4,0.3-0.6,0.4c-0.2,0.2-0.3,0.4-0.4,0.7
		c-0.1,0.2-0.1,0.5-0.2,0.8H44z"/>
	<path id="XMLID_23_" class="st0" d="M48.4,201c0.2-0.3,0.3-0.7,0.5-1.2c0.2-0.4,0.3-0.9,0.5-1.4c0.2-0.5,0.3-1,0.5-1.4
		s0.3-0.9,0.4-1.4H51c-0.1,0.6-0.3,1.1-0.5,1.7c-0.2,0.6-0.4,1.1-0.6,1.6c-0.2,0.5-0.4,1-0.6,1.5c-0.2,0.5-0.4,0.9-0.6,1.4H48
		c-0.2-0.4-0.4-0.9-0.6-1.4c-0.2-0.5-0.4-1-0.6-1.5c-0.2-0.5-0.4-1.1-0.6-1.6c-0.2-0.6-0.3-1.1-0.5-1.7h0.8c0.1,0.4,0.2,0.9,0.4,1.4
		c0.1,0.5,0.3,1,0.5,1.4c0.2,0.5,0.3,0.9,0.5,1.4C48,200.2,48.2,200.6,48.4,201z"/>
	<path id="XMLID_25_" class="st0" d="M51.9,198.7c0-0.5,0.1-1,0.2-1.4c0.2-0.4,0.4-0.7,0.6-1c0.3-0.3,0.5-0.5,0.9-0.6
		c0.3-0.1,0.7-0.2,1-0.2c0.8,0,1.4,0.2,1.8,0.7s0.7,1.3,0.7,2.3c0,0.1,0,0.1,0,0.2c0,0.1,0,0.1,0,0.2h-4.4c0,0.8,0.2,1.3,0.6,1.8
		s0.9,0.6,1.7,0.6c0.4,0,0.8,0,1-0.1c0.2-0.1,0.4-0.1,0.5-0.2l0.1,0.7c-0.1,0.1-0.3,0.1-0.6,0.2s-0.7,0.1-1.1,0.1
		c-0.5,0-1-0.1-1.4-0.2c-0.4-0.2-0.7-0.4-0.9-0.7c-0.2-0.3-0.4-0.6-0.5-1C52,199.6,51.9,199.2,51.9,198.7z M56.3,198.2
		c0-0.6-0.2-1.2-0.5-1.5c-0.3-0.4-0.7-0.5-1.2-0.5c-0.3,0-0.5,0.1-0.8,0.2c-0.2,0.1-0.4,0.3-0.6,0.4c-0.2,0.2-0.3,0.4-0.4,0.7
		c-0.1,0.2-0.1,0.5-0.2,0.8H56.3z"/>
	<path id="XMLID_34_" class="st0" d="M60.4,201.9c-0.3,0-0.5,0-0.7-0.1c-0.2-0.1-0.4-0.2-0.5-0.3c-0.1-0.1-0.2-0.3-0.3-0.5
		c-0.1-0.2-0.1-0.4-0.1-0.7v-7.7l0.8-0.1v7.8c0,0.2,0,0.3,0.1,0.5s0.1,0.2,0.2,0.3c0.1,0.1,0.2,0.1,0.3,0.1c0.1,0,0.3,0.1,0.4,0.1
		L60.4,201.9z"/>
	<path id="XMLID_40_" class="st0" d="M67.2,198.7c0,0.5-0.1,0.9-0.2,1.3c-0.1,0.4-0.3,0.7-0.6,1c-0.3,0.3-0.5,0.5-0.9,0.7
		c-0.3,0.2-0.7,0.2-1.1,0.2c-0.4,0-0.8-0.1-1.1-0.2c-0.3-0.2-0.6-0.4-0.9-0.7c-0.3-0.3-0.4-0.6-0.6-1c-0.1-0.4-0.2-0.8-0.2-1.3
		s0.1-0.9,0.2-1.3c0.1-0.4,0.3-0.7,0.6-1c0.3-0.3,0.5-0.5,0.9-0.7c0.3-0.2,0.7-0.2,1.1-0.2c0.4,0,0.8,0.1,1.1,0.2
		c0.3,0.2,0.6,0.4,0.9,0.7c0.3,0.3,0.4,0.6,0.6,1C67.1,197.8,67.2,198.2,67.2,198.7z M66.4,198.7c0-0.8-0.2-1.4-0.5-1.9
		c-0.4-0.5-0.8-0.7-1.5-0.7c-0.6,0-1.1,0.2-1.5,0.7c-0.4,0.5-0.5,1.1-0.5,1.9s0.2,1.4,0.5,1.8c0.4,0.5,0.8,0.7,1.5,0.7
		c0.6,0,1.1-0.2,1.5-0.7S66.4,199.5,66.4,198.7z"/>
	<path id="XMLID_43_" class="st0" d="M69.7,204h-0.8v-8.2c0.2-0.1,0.5-0.2,0.9-0.2s0.8-0.1,1.4-0.1c0.5,0,0.9,0.1,1.2,0.2
		c0.4,0.1,0.7,0.4,1,0.6c0.3,0.3,0.5,0.6,0.6,1c0.1,0.4,0.2,0.9,0.2,1.4c0,0.5-0.1,0.9-0.2,1.3c-0.1,0.4-0.3,0.7-0.5,1
		s-0.5,0.5-0.9,0.7c-0.3,0.2-0.7,0.2-1.2,0.2c-0.4,0-0.8-0.1-1.1-0.2c-0.3-0.1-0.5-0.2-0.7-0.3V204z M69.7,200.7
		c0.1,0.1,0.2,0.1,0.3,0.2c0.1,0.1,0.2,0.1,0.4,0.2c0.1,0.1,0.3,0.1,0.5,0.1c0.2,0,0.3,0.1,0.5,0.1c0.4,0,0.7-0.1,1-0.2
		s0.5-0.3,0.6-0.5c0.2-0.2,0.3-0.5,0.3-0.8c0.1-0.3,0.1-0.6,0.1-1c0-0.8-0.2-1.4-0.6-1.9c-0.4-0.4-0.9-0.7-1.6-0.7
		c-0.4,0-0.7,0-0.9,0.1c-0.2,0-0.4,0.1-0.5,0.1V200.7z"/>
	<path id="XMLID_46_" class="st0" d="M75.9,195.8c0.2-0.1,0.5-0.1,0.9-0.2c0.4-0.1,0.9-0.1,1.4-0.1c0.8,0,1.4,0.2,1.7,0.7
		c0,0,0.1-0.1,0.2-0.2c0.1-0.1,0.3-0.2,0.4-0.2c0.2-0.1,0.4-0.1,0.6-0.2c0.2-0.1,0.5-0.1,0.8-0.1c0.5,0,0.9,0.1,1.1,0.2
		c0.3,0.1,0.5,0.3,0.7,0.6s0.3,0.6,0.3,0.9c0.1,0.4,0.1,0.7,0.1,1.2v3.5h-0.8v-3.2c0-0.4,0-0.8-0.1-1.1c0-0.3-0.1-0.5-0.2-0.7
		c-0.1-0.2-0.3-0.3-0.5-0.4c-0.2-0.1-0.5-0.2-0.8-0.2c-0.2,0-0.5,0-0.7,0.1c-0.2,0-0.4,0.1-0.5,0.2s-0.3,0.1-0.4,0.2
		c-0.1,0.1-0.2,0.1-0.2,0.1c0.1,0.2,0.1,0.4,0.2,0.7c0,0.3,0.1,0.5,0.1,0.8v3.5h-0.8v-3.2c0-0.4,0-0.8-0.1-1.1
		c0-0.3-0.1-0.5-0.2-0.7c-0.1-0.2-0.3-0.3-0.5-0.4c-0.2-0.1-0.5-0.2-0.8-0.2c-0.4,0-0.7,0-1,0.1c-0.3,0-0.4,0.1-0.5,0.1v5.4h-0.8
		V195.8z"/>
	<path id="XMLID_49_" class="st0" d="M85.9,198.7c0-0.5,0.1-1,0.2-1.4c0.2-0.4,0.4-0.7,0.6-1c0.3-0.3,0.5-0.5,0.9-0.6
		c0.3-0.1,0.7-0.2,1-0.2c0.8,0,1.4,0.2,1.8,0.7s0.7,1.3,0.7,2.3c0,0.1,0,0.1,0,0.2c0,0.1,0,0.1,0,0.2h-4.4c0,0.8,0.2,1.3,0.6,1.8
		s0.9,0.6,1.7,0.6c0.4,0,0.8,0,1-0.1c0.2-0.1,0.4-0.1,0.5-0.2l0.1,0.7c-0.1,0.1-0.3,0.1-0.6,0.2s-0.7,0.1-1.1,0.1
		c-0.5,0-1-0.1-1.4-0.2c-0.4-0.2-0.7-0.4-0.9-0.7c-0.2-0.3-0.4-0.6-0.5-1C85.9,199.6,85.9,199.2,85.9,198.7z M90.3,198.2
		c0-0.6-0.2-1.2-0.5-1.5c-0.3-0.4-0.7-0.5-1.2-0.5c-0.3,0-0.5,0.1-0.8,0.2c-0.2,0.1-0.4,0.3-0.6,0.4c-0.2,0.2-0.3,0.4-0.4,0.7
		c-0.1,0.2-0.1,0.5-0.2,0.8H90.3z"/>
	<path id="XMLID_52_" class="st0" d="M92.8,195.8c0.2-0.1,0.5-0.1,0.9-0.2c0.4-0.1,0.9-0.1,1.4-0.1c0.5,0,0.9,0.1,1.2,0.2
		c0.3,0.1,0.6,0.3,0.8,0.6c0.2,0.3,0.3,0.6,0.4,0.9c0.1,0.4,0.1,0.7,0.1,1.2v3.5h-0.8v-3.2c0-0.4,0-0.8-0.1-1.1
		c-0.1-0.3-0.2-0.6-0.3-0.7c-0.1-0.2-0.3-0.3-0.6-0.4c-0.2-0.1-0.5-0.1-0.9-0.1c-0.4,0-0.7,0-1,0.1s-0.4,0.1-0.5,0.1v5.4h-0.8V195.8
		z"/>
	<path id="XMLID_55_" class="st0" d="M100.4,195.6h2.5v0.7h-2.5v3.3c0,0.4,0,0.6,0.1,0.9c0.1,0.2,0.1,0.4,0.3,0.5
		c0.1,0.1,0.2,0.2,0.4,0.2c0.2,0,0.3,0.1,0.5,0.1c0.3,0,0.6,0,0.8-0.1s0.4-0.1,0.5-0.2l0.2,0.6c-0.1,0.1-0.3,0.2-0.6,0.2
		s-0.6,0.1-0.9,0.1c-0.4,0-0.7,0-1-0.2c-0.3-0.1-0.5-0.3-0.6-0.5c-0.2-0.2-0.3-0.5-0.3-0.8c-0.1-0.3-0.1-0.7-0.1-1.1v-5.7l0.8-0.1
		V195.6z"/>
	<path id="XMLID_57_" class="st0" d="M56,212.9c0-1.6,0.4-2.9,1.2-3.7c0.8-0.8,1.9-1.3,3.4-1.4l0,0.7c-0.5,0-0.9,0.1-1.4,0.2
		s-0.8,0.3-1.1,0.5c-0.3,0.2-0.6,0.6-0.8,0.9c-0.2,0.4-0.4,0.9-0.4,1.4c0.2-0.1,0.5-0.2,0.8-0.3s0.6-0.1,1-0.1
		c0.4,0,0.8,0.1,1.1,0.2c0.3,0.1,0.6,0.3,0.8,0.6c0.2,0.2,0.3,0.5,0.4,0.8c0.1,0.3,0.1,0.6,0.1,1c0,0.3,0,0.6-0.1,0.9
		c-0.1,0.3-0.2,0.6-0.4,0.8s-0.5,0.5-0.8,0.6c-0.3,0.2-0.7,0.2-1.1,0.2c-0.9,0-1.5-0.3-2-0.9C56.3,214.9,56,214,56,212.9z
		 M58.6,211.9c-0.4,0-0.7,0-1,0.1s-0.5,0.2-0.8,0.3c0,0.1,0,0.2,0,0.3c0,0.1,0,0.2,0,0.3c0,0.4,0,0.7,0.1,1.1
		c0.1,0.3,0.1,0.6,0.3,0.9s0.3,0.5,0.6,0.6c0.2,0.1,0.5,0.2,0.9,0.2c0.3,0,0.5-0.1,0.8-0.2s0.4-0.2,0.5-0.4s0.2-0.4,0.3-0.6
		c0.1-0.2,0.1-0.5,0.1-0.7c0-0.6-0.1-1.1-0.4-1.4C59.6,212.1,59.2,211.9,58.6,211.9z"/>
	<path id="XMLID_60_" class="st0" d="M64.8,215.7c0.4,0,0.7,0,1-0.1c0.3-0.1,0.5-0.2,0.6-0.4c0.2-0.2,0.3-0.3,0.3-0.6
		s0.1-0.4,0.1-0.7c0-0.3-0.1-0.6-0.2-0.9s-0.3-0.5-0.6-0.6c-0.3-0.2-0.6-0.3-1.1-0.4c-0.4-0.1-1-0.1-1.7-0.1c0-0.4,0.1-0.8,0.1-1.1
		c0-0.3,0.1-0.7,0.1-1c0-0.3,0-0.6,0.1-0.9c0-0.3,0-0.6,0-0.9h3.7v0.7h-3.1c0,0.2,0,0.3,0,0.6c0,0.2,0,0.5,0,0.7s0,0.5-0.1,0.7
		c0,0.2,0,0.4-0.1,0.6c0.6,0,1.1,0.1,1.6,0.2c0.4,0.1,0.8,0.3,1.1,0.6c0.3,0.2,0.5,0.5,0.6,0.8s0.2,0.7,0.2,1.1c0,0.4-0.1,0.7-0.2,1
		c-0.1,0.3-0.3,0.6-0.5,0.8c-0.2,0.2-0.5,0.4-0.9,0.5c-0.4,0.1-0.8,0.2-1.3,0.2c-0.3,0-0.5,0-0.7-0.1c-0.2,0-0.4-0.1-0.6-0.1
		s-0.3-0.1-0.4-0.1c-0.1,0-0.2-0.1-0.3-0.1l0.2-0.7c0,0,0.1,0.1,0.2,0.1c0.1,0,0.3,0.1,0.4,0.1c0.2,0,0.3,0.1,0.5,0.1
		C64.3,215.7,64.5,215.7,64.8,215.7z"/>
	<path id="XMLID_62_" class="st0" d="M73,209.9c0,0.4,0,0.7-0.1,0.9c-0.1,0.3-0.2,0.5-0.4,0.7s-0.4,0.3-0.6,0.4
		c-0.2,0.1-0.4,0.1-0.7,0.1c-0.2,0-0.5,0-0.7-0.1c-0.2-0.1-0.4-0.2-0.6-0.4s-0.3-0.4-0.4-0.7c-0.1-0.3-0.1-0.6-0.1-0.9
		c0-0.4,0-0.7,0.1-0.9c0.1-0.3,0.2-0.5,0.4-0.7c0.2-0.2,0.4-0.3,0.6-0.4c0.2-0.1,0.4-0.1,0.7-0.1c0.2,0,0.5,0,0.7,0.1
		c0.2,0.1,0.4,0.2,0.6,0.4c0.2,0.2,0.3,0.4,0.4,0.7C72.9,209.2,73,209.5,73,209.9z M72.2,209.9c0-0.5-0.1-0.8-0.3-1.1
		c-0.2-0.3-0.5-0.4-0.8-0.4c-0.4,0-0.6,0.1-0.8,0.4c-0.2,0.3-0.3,0.6-0.3,1.1s0.1,0.8,0.3,1.1s0.5,0.4,0.8,0.4
		c0.4,0,0.6-0.1,0.8-0.4C72.2,210.7,72.2,210.3,72.2,209.9z M75.6,207.9h0.8l-4.7,8.3h-0.8L75.6,207.9z M74.3,214.2
		c0-0.4,0-0.7,0.1-0.9c0.1-0.3,0.2-0.5,0.4-0.7c0.2-0.2,0.4-0.3,0.6-0.4c0.2-0.1,0.4-0.1,0.7-0.1c0.2,0,0.5,0,0.7,0.1
		c0.2,0.1,0.4,0.2,0.6,0.4c0.2,0.2,0.3,0.4,0.4,0.7c0.1,0.3,0.1,0.6,0.1,0.9c0,0.4,0,0.7-0.1,0.9c-0.1,0.3-0.2,0.5-0.4,0.7
		c-0.2,0.2-0.4,0.3-0.6,0.4s-0.4,0.1-0.7,0.1c-0.2,0-0.5,0-0.7-0.1c-0.2-0.1-0.4-0.2-0.6-0.4c-0.2-0.2-0.3-0.4-0.4-0.7
		C74.4,214.9,74.3,214.6,74.3,214.2z M75,214.2c0,0.5,0.1,0.8,0.3,1.1s0.5,0.4,0.8,0.4c0.4,0,0.6-0.1,0.8-0.4s0.3-0.6,0.3-1.1
		s-0.1-0.8-0.3-1.1c-0.2-0.3-0.5-0.4-0.8-0.4c-0.4,0-0.6,0.1-0.8,0.4C75.1,213.4,75,213.8,75,214.2z"/>
</g>
<path id="XMLID_53_" class="st1" d="M157.2,117.8c-3.5-12-13.7-41.4-27-82c7.1-2.6,17.8-4.3,27-4.3C157.2,57,157.2,98.6,157.2,117.8
	z"/>
<path id="XMLID_48_" class="st2" d="M157.2,31.5v98.9c0-4.5,0-8.7,0-12.6l-69.7,51c15.7,21.5,41.1,35.4,69.7,35.4c0-0.8,0-1.5,0-2.3
	v2.3c47.7,0,86.3-38.7,86.3-86.3S204.9,31.5,157.2,31.5z"/>
<g id="XMLID_27_">
	<path id="XMLID_32_" class="st3" d="M130.2,35.8"/>
	<path id="XMLID_31_" class="st3" d="M87,67.6c-10.1,14.1-16.1,31.5-16.1,50.2c0,14.1,3.3,24.4,4.5,27.7
		c4.7,12.6,9.9,20.3,12.2,23.3c0,0,38.3-28.1,69.7-51C119.2,90.9,100.1,77.4,87,67.6z"/>
</g>
<path id="XMLID_13_" class="st4" d="M157.2,117.8c-38-26.9-57.1-40.4-70.2-50.2c10.6-14.8,25.7-26,43.3-31.8
	C141.3,68.8,153.3,104.6,157.2,117.8z"/>
</svg>
