<?xml version="1.0" encoding="utf-8"?>
<!-- Generator: Adobe Illustrator 19.0.0, SVG Export Plug-In . SVG Version: 6.00 Build 0)  -->
<svg version="1.1" id="Слой_1" xmlns="http://www.w3.org/2000/svg" xmlns:xlink="http://www.w3.org/1999/xlink" x="0px" y="0px"
	 viewBox="0 0 199 194.8" style="enable-background:new 0 0 199 194.8;" xml:space="preserve">
<style type="text/css">
	.st0{fill:#333333;}
	.st1{fill:#A49FA2;}
	.st2{fill:#FFFFFF;}
	.st3{fill:url(#XMLID_16_);}
	.st4{fill:url(#XMLID_17_);}
</style>
<g id="XMLID_405_">
	<path id="XMLID_435_" class="st0" d="M91.7,111v57.3h7.8v-65.1c0-1.9-1.5-3.4-3.4-3.4H27.4v7.8h60.8
		C90.1,107.6,91.7,109.1,91.7,111z"/>
	<path id="XMLID_422_" class="st0" d="M163.4,168.1H30.9c-1.9,0-3.4-1.5-3.4-3.4V26.5h-7.8v146c0,1.9,1.5,3.4,3.4,3.4h140.2V168.1z"
		/>
	<path id="XMLID_419_" class="st1" d="M43.9,48.7h-39c-2.7,0-4.8-2.2-4.8-4.8v-39C0,2.2,2.2,0,4.8,0h39c2.7,0,4.8,2.2,4.8,4.8v39
		C48.7,46.5,46.5,48.7,43.9,48.7z"/>
	<path id="XMLID_420_" class="st1" d="M193.8,194.8h-38.3c-2.9,0-5.2-2.3-5.2-5.2v-38.3c0-2.9,2.3-5.2,5.2-5.2h38.3
		c2.9,0,5.2,2.3,5.2,5.2v38.3C199,192.5,196.7,194.8,193.8,194.8z"/>
	<path id="XMLID_421_" class="st1" d="M113.1,127.7H73.7c-2.6,0-4.7-2.1-4.7-4.7V83.7c0-2.6,2.1-4.7,4.7-4.7h39.3
		c2.6,0,4.7,2.1,4.7,4.7V123C117.7,125.6,115.7,127.7,113.1,127.7z"/>
	<path id="XMLID_425_" class="st2" d="M35.5,38.2H13.2c-1.5,0-2.8-1.2-2.8-2.8V13.2c0-1.5,1.2-2.8,2.8-2.8h22.3
		c1.5,0,2.8,1.2,2.8,2.8v22.3C38.2,37,37,38.2,35.5,38.2z"/>
	<path id="XMLID_445_" class="st2" d="M104.8,117.9H82.5c-1.5,0-2.8-1.2-2.8-2.8V92.9c0-1.5,1.2-2.8,2.8-2.8h22.3
		c1.5,0,2.8,1.2,2.8,2.8v22.3C107.6,116.7,106.3,117.9,104.8,117.9z"/>
	<path id="XMLID_502_" class="st2" d="M186.5,185.2h-22.3c-1.5,0-2.8-1.2-2.8-2.8v-22.3c0-1.5,1.2-2.8,2.8-2.8h22.3
		c1.5,0,2.8,1.2,2.8,2.8v22.3C189.2,184,188,185.2,186.5,185.2z"/>
	<radialGradient id="XMLID_16_" cx="23.9167" cy="103.4999" r="11.1667" gradientUnits="userSpaceOnUse">
		<stop  offset="0" style="stop-color:#4C6CB3"/>
		<stop  offset="0.8682" style="stop-color:#1A2261"/>
	</radialGradient>
	<circle id="XMLID_3_" class="st3" cx="23.9" cy="103.5" r="11.2"/>
	<radialGradient id="XMLID_17_" cx="96.5833" cy="171.4999" r="11.1667" gradientUnits="userSpaceOnUse">
		<stop  offset="0" style="stop-color:#4C6CB3"/>
		<stop  offset="0.8682" style="stop-color:#1A2261"/>
	</radialGradient>
	<circle id="XMLID_423_" class="st4" cx="96.6" cy="171.5" r="11.2"/>
</g>
</svg>
