<?xml version="1.0" encoding="utf-8"?>
<!-- Generator: Adobe Illustrator 19.0.0, SVG Export Plug-In . SVG Version: 6.00 Build 0)  -->
<svg version="1.1" id="Слой_1" xmlns="http://www.w3.org/2000/svg" xmlns:xlink="http://www.w3.org/1999/xlink" x="0px" y="0px"
	 viewBox="0 0 252.7 193.4" style="enable-background:new 0 0 252.7 193.4;" xml:space="preserve">
<style type="text/css">
	.st0{fill:#A49FA2;}
	.st1{opacity:0.17;fill:#F0EFF0;}
	.st2{fill:url(#XMLID_15_);}
	.st3{fill:url(#XMLID_16_);}
	.st4{fill:#F0EFF0;}
	.st5{opacity:0.1;fill:#559AFF;}
	.st6{fill:#CBC9CB;}
	.st7{fill:#FF0000;}
</style>
<g id="XMLID_390_">
	<path id="XMLID_364_" class="st0" d="M248.7,150.7H4c-2.2,0-4-1.8-4-4V4c0-2.2,1.8-4,4-4h244.7c2.2,0,4,1.8,4,4v142.7
		C252.7,148.9,250.9,150.7,248.7,150.7z"/>
	<path id="XMLID_363_" class="st1" d="M188.8,0H4C1.8,0,0,1.8,0,4v142.7c0,2.2,1.8,4,4,4h60.7C106,100.4,147.4,50.2,188.8,0z"/>
	<linearGradient id="XMLID_15_" gradientUnits="userSpaceOnUse" x1="8.5565" y1="75.2383" x2="243.9207" y2="75.2383">
		<stop  offset="8.940361e-04" style="stop-color:#1A2261"/>
		<stop  offset="1" style="stop-color:#4C6CB3"/>
	</linearGradient>
	<path id="XMLID_362_" class="st2" d="M239.9,141.8H12.6c-2.2,0-4-1.8-4-4V12.6c0-2.2,1.8-4,4-4h227.4c2.2,0,4,1.8,4,4v125.2
		C243.9,140,242.1,141.8,239.9,141.8z"/>
	<linearGradient id="XMLID_16_" gradientUnits="userSpaceOnUse" x1="127.0717" y1="185.3499" x2="127.0717" y2="150.6624">
		<stop  offset="0" style="stop-color:#FFFFFF"/>
		<stop  offset="1" style="stop-color:#313131"/>
	</linearGradient>
	<path id="XMLID_360_" class="st3" d="M172.3,185.3c0,0-12.6-6.2-13.9-7.9c-1-1.4-1.3-2.8-1.5-3.7c-0.9-9.4-2.1-23.1-2.1-23.1H99.4
		c0,0-1.3,13.7-2.2,23.1c-0.1,0.9-0.5,2.3-1.5,3.7c-1.2,1.7-13.9,7.9-13.9,7.9H172.3z"/>
	<path id="XMLID_359_" class="st0" d="M171.5,193.4H82.6c-1,0-1.8-0.8-1.8-1.8v-4.7c0-1,0.8-1.8,1.8-1.8h88.9c1,0,1.8,0.8,1.8,1.8
		v4.7C173.3,192.6,172.5,193.4,171.5,193.4z"/>
	<rect id="XMLID_358_" x="18.9" y="19.8" class="st4" width="215.1" height="110.9"/>
	<path id="XMLID_337_" class="st5" d="M72.3,141.8C108.8,97.4,145.4,53,182,8.6H12.9c-2.2,0-4,1.8-4,4v125.2c0,2.2,1.8,4,4,4H72.3z"
		/>
	<g id="XMLID_230_">
		<rect id="XMLID_355_" x="53.3" y="43.2" class="st6" width="35.5" height="2.3"/>
		<rect id="XMLID_354_" x="53.3" y="48.2" class="st6" width="35.5" height="2.3"/>
		<rect id="XMLID_353_" x="53.3" y="53.2" class="st6" width="35.5" height="2.3"/>
		<polygon id="XMLID_367_" class="st7" points="41.1,51.4 36.8,47.1 35.8,48.1 41.1,53.4 50.1,44.4 49,43.5 		"/>
	</g>
	<g id="XMLID_338_">
		<rect id="XMLID_369_" x="53.3" y="68.2" class="st6" width="35.5" height="2.3"/>
		<rect id="XMLID_368_" x="53.3" y="73.2" class="st6" width="35.5" height="2.3"/>
		<rect id="XMLID_366_" x="53.3" y="78.2" class="st6" width="35.5" height="2.3"/>
		<polygon id="XMLID_365_" class="st7" points="41.1,76.4 36.8,72.1 35.8,73.1 41.1,78.4 50.1,69.4 49,68.5 		"/>
	</g>
	<g id="XMLID_370_">
		<rect id="XMLID_374_" x="53.3" y="94.2" class="st6" width="35.5" height="2.3"/>
		<rect id="XMLID_373_" x="53.3" y="99.2" class="st6" width="35.5" height="2.3"/>
		<rect id="XMLID_372_" x="53.3" y="104.2" class="st6" width="35.5" height="2.3"/>
		<polygon id="XMLID_371_" class="st7" points="41.1,102.4 36.8,98.1 35.8,99.1 41.1,104.4 50.1,95.4 49,94.5 		"/>
	</g>
	<g id="XMLID_385_">
		<rect id="XMLID_389_" x="117.3" y="43.2" class="st6" width="35.5" height="2.3"/>
		<rect id="XMLID_388_" x="117.3" y="48.2" class="st6" width="35.5" height="2.3"/>
		<rect id="XMLID_387_" x="117.3" y="53.2" class="st6" width="35.5" height="2.3"/>
		<polygon id="XMLID_386_" class="st7" points="105.1,51.4 100.8,47.1 99.8,48.1 105.1,53.4 114.1,44.4 113,43.5 		"/>
	</g>
	<g id="XMLID_380_">
		<rect id="XMLID_384_" x="117.3" y="68.2" class="st6" width="35.5" height="2.3"/>
		<rect id="XMLID_383_" x="117.3" y="73.2" class="st6" width="35.5" height="2.3"/>
		<rect id="XMLID_382_" x="117.3" y="78.2" class="st6" width="35.5" height="2.3"/>
		<polygon id="XMLID_381_" class="st7" points="105.1,76.4 100.8,72.1 99.8,73.1 105.1,78.4 114.1,69.4 113,68.5 		"/>
	</g>
	<g id="XMLID_375_">
		<rect id="XMLID_379_" x="117.3" y="94.2" class="st6" width="35.5" height="2.3"/>
		<rect id="XMLID_378_" x="117.3" y="99.2" class="st6" width="35.5" height="2.3"/>
		<rect id="XMLID_377_" x="117.3" y="104.2" class="st6" width="35.5" height="2.3"/>
		<polygon id="XMLID_376_" class="st7" points="105.1,102.4 100.8,98.1 99.8,99.1 105.1,104.4 114.1,95.4 113,94.5 		"/>
	</g>
	<g id="XMLID_400_">
		<rect id="XMLID_404_" x="180.3" y="43.2" class="st6" width="35.5" height="2.3"/>
		<rect id="XMLID_403_" x="180.3" y="48.2" class="st6" width="35.5" height="2.3"/>
		<rect id="XMLID_402_" x="180.3" y="53.2" class="st6" width="35.5" height="2.3"/>
		<polygon id="XMLID_401_" class="st7" points="168.1,51.4 163.8,47.1 162.8,48.1 168.1,53.4 177.1,44.4 176,43.5 		"/>
	</g>
	<g id="XMLID_395_">
		<rect id="XMLID_399_" x="180.3" y="68.2" class="st6" width="35.5" height="2.3"/>
		<rect id="XMLID_398_" x="180.3" y="73.2" class="st6" width="35.5" height="2.3"/>
		<rect id="XMLID_397_" x="180.3" y="78.2" class="st6" width="35.5" height="2.3"/>
		<polygon id="XMLID_396_" class="st7" points="168.1,76.4 163.8,72.1 162.8,73.1 168.1,78.4 177.1,69.4 176,68.5 		"/>
	</g>
	<rect id="XMLID_394_" x="180.3" y="94.2" class="st6" width="35.5" height="2.3"/>
	<rect id="XMLID_393_" x="180.3" y="99.2" class="st6" width="35.5" height="2.3"/>
	<rect id="XMLID_392_" x="180.3" y="104.2" class="st6" width="35.5" height="2.3"/>
	<polygon id="XMLID_391_" class="st7" points="168.1,102.4 163.8,98.1 162.8,99.1 168.1,104.4 177.1,95.4 176,94.5 	"/>
</g>
</svg>
