<?xml version="1.0" encoding="utf-8"?>
<!-- Generator: Adobe Illustrator 19.0.0, SVG Export Plug-In . SVG Version: 6.00 Build 0)  -->
<svg version="1.1" id="Слой_1" xmlns="http://www.w3.org/2000/svg" xmlns:xlink="http://www.w3.org/1999/xlink" x="0px" y="0px"
	 viewBox="0 0 252.7 193.4" style="enable-background:new 0 0 252.7 193.4;" xml:space="preserve">
<style type="text/css">
	.st0{fill:#A49FA2;}
	.st1{opacity:0.17;fill:#F0EFF0;}
	.st2{fill:url(#XMLID_15_);}
	.st3{fill:url(#XMLID_16_);}
	.st4{opacity:0.1;fill:#559AFF;}
	.st5{fill:#333333;}
	.st6{fill:#F0EFF0;}
</style>
<g id="XMLID_417_">
	<g id="XMLID_434_">
		<path id="XMLID_508_" class="st0" d="M248.7,150.7H4c-2.2,0-4-1.8-4-4V4c0-2.2,1.8-4,4-4h244.7c2.2,0,4,1.8,4,4v142.7
			C252.7,148.9,250.9,150.7,248.7,150.7z"/>
		<path id="XMLID_507_" class="st1" d="M188.8,0H4C1.8,0,0,1.8,0,4v142.7c0,2.2,1.8,4,4,4h60.7C106,100.4,147.4,50.2,188.8,0z"/>
		<linearGradient id="XMLID_15_" gradientUnits="userSpaceOnUse" x1="8.5565" y1="75.2383" x2="243.9207" y2="75.2383">
			<stop  offset="8.940361e-04" style="stop-color:#1A2261"/>
			<stop  offset="1" style="stop-color:#4C6CB3"/>
		</linearGradient>
		<path id="XMLID_506_" class="st2" d="M239.9,141.8H12.6c-2.2,0-4-1.8-4-4V12.6c0-2.2,1.8-4,4-4h227.4c2.2,0,4,1.8,4,4v125.2
			C243.9,140,242.1,141.8,239.9,141.8z"/>
		<linearGradient id="XMLID_16_" gradientUnits="userSpaceOnUse" x1="127.0717" y1="185.3499" x2="127.0717" y2="150.6624">
			<stop  offset="0" style="stop-color:#FFFFFF"/>
			<stop  offset="1" style="stop-color:#313131"/>
		</linearGradient>
		<path id="XMLID_504_" class="st3" d="M172.3,185.3c0,0-12.6-6.2-13.9-7.9c-1-1.4-1.3-2.8-1.5-3.7c-0.9-9.4-2.1-23.1-2.1-23.1H99.4
			c0,0-1.3,13.7-2.2,23.1c-0.1,0.9-0.5,2.3-1.5,3.7c-1.2,1.7-13.9,7.9-13.9,7.9H172.3z"/>
		<path id="XMLID_503_" class="st0" d="M171.5,193.4H82.6c-1,0-1.8-0.8-1.8-1.8v-4.7c0-1,0.8-1.8,1.8-1.8h88.9c1,0,1.8,0.8,1.8,1.8
			v4.7C173.3,192.6,172.5,193.4,171.5,193.4z"/>
		<path id="XMLID_501_" class="st4" d="M72,141.8C108.6,97.4,145.1,53,181.7,8.7H12.6c-2.2,0-4,1.8-4,4v125.2c0,2.2,1.8,4,4,4H72z"
			/>
		<g id="XMLID_428_">
			<path id="XMLID_431_" class="st5" d="M139.6,47.2c-7.4,0-13.4,6-13.4,13.4c0,7.4,6,13.4,13.4,13.4c7.4,0,13.4-6,13.4-13.4
				C153,53.2,147,47.2,139.6,47.2z M139.6,71c-5.7,0-10.4-4.7-10.4-10.4c0-5.7,4.7-10.4,10.4-10.4c5.7,0,10.4,4.7,10.4,10.4
				C150,66.3,145.4,71,139.6,71z"/>
			<path id="XMLID_522_" class="st5" d="M89.7,79.8c-7.4,0-13.4,6-13.4,13.4c0,7.4,6,13.4,13.4,13.4c7.4,0,13.4-6,13.4-13.4
				C103.1,85.8,97.1,79.8,89.7,79.8z M89.7,103.6c-5.7,0-10.4-4.7-10.4-10.4c0-5.7,4.7-10.4,10.4-10.4c5.7,0,10.4,4.7,10.4,10.4
				C100.1,98.9,95.4,103.6,89.7,103.6z"/>
			<path id="XMLID_525_" class="st5" d="M183.8,99.3h-2.9c-0.3-1.1-0.8-2.2-1.4-3.2l2.1-2.1c1-1,1-2.7,0-3.7l-2.6-2.6
				c-1-1-2.7-1-3.7,0l-2.1,2.1c-1-0.6-2.1-1-3.2-1.3v-3c0-1.5-1.2-2.6-2.6-2.6h-3.6c-0.2,0-0.4,0-0.6,0.1l1.6-1.6
				c1.3-1.3,1.3-3.4,0-4.7l-3.7-3.7c1.2-2,2-4.1,2.6-6.3h5.2c1.8,0,3.3-1.5,3.3-3.3v-5.8c0-1.8-1.5-3.3-3.3-3.3h-5.3
				c-0.6-2.2-1.5-4.2-2.6-6.2l3.8-3.8c1.3-1.3,1.3-3.4,0-4.7l-4.1-4.1c-1.3-1.3-3.4-1.3-4.7,0l-3.9,3.9c-1.9-1.1-4-2-6.1-2.5v-5.5
				c0-1.8-1.5-3.3-3.3-3.3h-5.8c-1.8,0-3.3,1.5-3.3,3.3v5.5c-2.1,0.6-4.2,1.4-6.1,2.5l-3.9-3.9c-1.3-1.3-3.4-1.3-4.7,0l-4.1,4.1
				c-1.3,1.3-1.3,3.4,0,4.7l3.8,3.8c-1.1,1.9-2,4-2.6,6.2h-5.3c-1.8,0-3.3,1.5-3.3,3.3v5.8c0,1.8,1.5,3.3,3.3,3.3h5.2
				c0.6,2.2,1.4,4.3,2.6,6.3l-3.3,3.3c0.3-0.5,0.5-1.1,0.5-1.7c0-0.9-0.3-1.7-1-2.3l-4.1-4.1c-1.3-1.3-3.4-1.3-4.7,0l-3.9,3.9
				c-1.9-1.1-4-2-6.1-2.5v-5.5c0-1.8-1.5-3.3-3.3-3.3h-5.8c-1.8,0-3.3,1.5-3.3,3.3v5.5c-2.1,0.6-4.2,1.4-6.1,2.5l-3.9-3.9
				c-1.3-1.3-3.4-1.3-4.7,0l-4.1,4.1c-0.6,0.6-1,1.5-1,2.3s0.3,1.7,1,2.3l3.8,3.8c-1.1,1.9-2,4-2.6,6.2h-5.3c-1.8,0-3.3,1.5-3.3,3.3
				v5.8c0,1.8,1.5,3.3,3.3,3.3h5.2c0.6,2.2,1.4,4.3,2.6,6.3l-3.7,3.7c-1.3,1.3-1.3,3.4,0,4.7l4.1,4.1c1.3,1.3,3.4,1.3,4.7,0l3.6-3.6
				c2,1.2,4.1,2.1,6.4,2.7v5.1c0,1.8,1.5,3.3,3.3,3.3h5.8c1.8,0,3.3-1.5,3.3-3.3V117c2.2-0.6,4.4-1.5,6.4-2.7l3.6,3.6
				c1.3,1.3,3.4,1.3,4.7,0l4.1-4.1c1.3-1.3,1.3-3.4,0-4.7l-3.7-3.7c1.2-2,2-4.1,2.6-6.3h5.2c1.8,0,3.3-1.5,3.3-3.3v-5.8
				c0-1.8-1.5-3.3-3.3-3.3h-5.3c-0.6-2.2-1.5-4.2-2.6-6.2l3.4-3.4c-0.8,1.3-0.6,3,0.5,4.1l4.1,4.1c1.3,1.3,3.4,1.3,4.7,0l3.6-3.6
				c2,1.2,4.1,2.1,6.4,2.7v5.1c0,1.8,1.5,3.3,3.3,3.3h5.8c1.8,0,3.3-1.5,3.3-3.3v-5.1c2.2-0.6,4.4-1.5,6.4-2.7l3.6,3.6
				c1.3,1.3,3.4,1.3,4.7,0l0.6-0.6c-0.1,0.2-0.1,0.4-0.1,0.6v3c-1.1,0.3-2.2,0.8-3.2,1.3l-2.1-2.1c-1-1-2.7-1-3.7,0l-2.6,2.6
				c-1,1-1,2.7,0,3.7l2.1,2.1c-0.6,1-1,2.1-1.4,3.2h-2.9c-1.5,0-2.6,1.2-2.6,2.6v3.6c0,1.5,1.2,2.6,2.6,2.6h2.9
				c0.3,1.2,0.8,2.3,1.4,3.3l-2,2c-1,1-1,2.7,0,3.7l2.6,2.6c1,1,2.7,1,3.7,0l2-2c1.1,0.6,2.2,1.1,3.4,1.4v2.8c0,1.5,1.2,2.6,2.6,2.6
				h3.6c1.5,0,2.6-1.2,2.6-2.6v-2.8c1.2-0.3,2.3-0.8,3.4-1.4l2,2c1,1,2.7,1,3.7,0l2.6-2.6c1-1,1-2.7,0-3.7l-2-2
				c0.6-1.1,1-2.2,1.4-3.3h2.9c1.5,0,2.6-1.2,2.6-2.6V102C186.4,100.5,185.2,99.3,183.8,99.3z M112.5,74.7l-5.5,5.5l0.7,1
				c1.5,2.2,2.5,4.7,3.1,7.4l0.3,1.2h7.7c0.2,0,0.3,0.1,0.3,0.3v5.8c0,0.2-0.1,0.3-0.3,0.3h-7.7l-0.2,1.2c-0.5,2.7-1.6,5.2-3.1,7.5
				l-0.7,1l5.4,5.4c0.1,0.1,0.1,0.3,0,0.4l-4.1,4.1c-0.1,0.1-0.3,0.1-0.4,0l-5.3-5.3l-1,0.7c-2.3,1.5-4.9,2.6-7.6,3.2l-1.2,0.2v7.5
				c0,0.2-0.1,0.3-0.3,0.3h-5.8c-0.2,0-0.3-0.1-0.3-0.3v-7.5l-1.2-0.2c-2.7-0.6-5.2-1.6-7.6-3.2l-1-0.7l-5.3,5.3
				c-0.1,0.1-0.3,0.1-0.4,0l-4.1-4.1c-0.1-0.1-0.1-0.3,0-0.4l5.4-5.4l-0.7-1c-1.5-2.3-2.5-4.8-3.1-7.5l-0.2-1.2h-7.7
				c-0.2,0-0.3-0.1-0.3-0.3v-5.8c0-0.2,0.1-0.3,0.3-0.3h7.7l0.3-1.2c0.6-2.6,1.6-5.1,3.1-7.4l0.7-1l-5.5-5.5
				c-0.1-0.1-0.1-0.2-0.1-0.2s0-0.1,0.1-0.2l4.1-4.1c0.1-0.1,0.3-0.1,0.4,0l5.6,5.6l1-0.7c2.3-1.5,4.7-2.5,7.3-3l1.2-0.2v-7.9
				c0-0.2,0.1-0.3,0.3-0.3h5.8c0.2,0,0.3,0.1,0.3,0.3v7.9l1.2,0.2c2.6,0.5,5.1,1.6,7.3,3l1,0.7l5.6-5.6c0.1-0.1,0.3-0.1,0.4,0
				l4.1,4.1c0.1,0.1,0.1,0.2,0.1,0.2S112.6,74.6,112.5,74.7z M158.4,83.2c-0.1,0.1-0.3,0.1-0.4,0l-5.3-5.3l-1,0.7
				c-2.3,1.5-4.9,2.6-7.6,3.2l-1.2,0.2v7.5c0,0.2-0.1,0.3-0.3,0.3h-5.8c-0.2,0-0.3-0.1-0.3-0.3V82l-1.2-0.2
				c-2.7-0.6-5.2-1.6-7.6-3.2l-1-0.7l-5.3,5.3c-0.1,0.1-0.3,0.1-0.4,0l-4.1-4.1c-0.1-0.1-0.1-0.3,0-0.4l5.4-5.4l-0.7-1
				c-1.5-2.3-2.5-4.8-3.1-7.5l-0.2-1.2h-7.7c-0.2,0-0.3-0.1-0.3-0.3v-5.8c0-0.2,0.1-0.3,0.3-0.3h7.7l0.3-1.2
				c0.6-2.6,1.6-5.1,3.1-7.4l0.7-1l-5.5-5.5c-0.1-0.1-0.1-0.3,0-0.4l4.1-4.1c0.1-0.1,0.3-0.1,0.4,0l5.6,5.6l1-0.7
				c2.3-1.5,4.7-2.5,7.3-3l1.2-0.2v-7.9c0-0.2,0.1-0.3,0.3-0.3h5.8c0.2,0,0.3,0.1,0.3,0.3v7.9l1.2,0.2c2.6,0.5,5,1.6,7.3,3l1,0.7
				l5.6-5.6c0.1-0.1,0.3-0.1,0.4,0l4.1,4.1c0.1,0.1,0.1,0.3,0,0.4l-5.5,5.5l0.7,1c1.5,2.2,2.5,4.7,3.1,7.4l0.3,1.2h7.7
				c0.2,0,0.3,0.1,0.3,0.3v5.8c0,0.2-0.1,0.3-0.3,0.3H161l-0.2,1.2c-0.5,2.7-1.6,5.2-3.1,7.5l-0.7,1l5.4,5.4c0.1,0.1,0.1,0.3,0,0.4
				L158.4,83.2z M183.4,105.2h-4.9l-0.2,1.2c-0.3,1.6-0.9,3.1-1.8,4.5l-0.7,1l3.4,3.4l-2.1,2.1l-3.4-3.4l-1,0.7
				c-1.4,0.9-2.9,1.6-4.6,1.9l-1.2,0.2v4.8H164V117l-1.2-0.2c-1.6-0.3-3.2-1-4.6-1.9l-1-0.7l-3.4,3.4l-2.1-2.1l3.4-3.4l-0.7-1
				c-0.9-1.4-1.5-2.9-1.8-4.5l-0.2-1.2h-4.9v-2.9h5l0.3-1.2c0.3-1.6,1-3.1,1.9-4.5l0.7-1l-3.6-3.6l2.1-2.1l3.6,3.6l1-0.7
				c1.4-0.9,2.9-1.5,4.4-1.8l1.2-0.2v-5.1h2.9v5.1l1.2,0.2c1.6,0.3,3.1,0.9,4.4,1.8l1,0.7l3.6-3.6l2.1,2.1l-3.6,3.6l0.7,1
				c0.9,1.4,1.5,2.9,1.9,4.5l0.3,1.2h5V105.2z"/>
			<path id="XMLID_530_" class="st5" d="M165.4,94.9c-5,0-9,4-9,9c0,5,4,9,9,9s9-4,9-9C174.4,98.9,170.4,94.9,165.4,94.9z
				 M165.4,109.9c-3.3,0-6-2.7-6-6c0-3.3,2.7-6,6-6s6,2.7,6,6C171.4,107.2,168.7,109.9,165.4,109.9z"/>
		</g>
	</g>
	<path id="XMLID_515_" class="st6" d="M168.7,55.7h-6.5c-0.6-2.9-1.8-5.5-3.3-7.9l4.7-4.7c0.7-0.7,0.7-1.9,0-2.6l-4.1-4.1
		c-0.7-0.7-1.9-0.7-2.6,0l-4.7,4.7c-2.4-1.5-5-2.6-7.8-3.2v-6.7c0-1-0.8-1.8-1.8-1.8h-5.8c-1,0-1.8,0.8-1.8,1.8V38
		c-2.8,0.6-5.5,1.7-7.8,3.2l-4.7-4.7c-0.7-0.7-1.9-0.7-2.6,0l-4.1,4.1c-0.7,0.7-0.7,1.9,0,2.6l4.7,4.7c-1.6,2.4-2.7,5-3.3,7.9h-6.5
		c-1,0-1.8,0.8-1.8,1.8v5.8c0,1,0.8,1.8,1.8,1.8h6.4c0.6,2.9,1.7,5.6,3.3,8l-4.5,4.5c-0.7,0.7-0.7,1.9,0,2.6l4.1,4.1
		c0.7,0.7,1.9,0.7,2.6,0l4.5-4.5c2.4,1.6,5.1,2.8,8.1,3.4v6.3c0,1,0.8,1.8,1.8,1.8h5.8c1,0,1.8-0.8,1.8-1.8v-6.3
		c2.9-0.6,5.7-1.8,8.1-3.4l4.5,4.5c0.7,0.7,1.9,0.7,2.6,0l4.1-4.1c0.7-0.7,0.7-1.9,0-2.6l-4.5-4.5c1.6-2.4,2.7-5.1,3.3-8h6.4
		c1,0,1.8-0.8,1.8-1.8v-5.8C170.5,56.5,169.7,55.7,168.7,55.7z M139.6,72.5c-6.6,0-11.9-5.3-11.9-11.9s5.3-11.9,11.9-11.9
		c6.6,0,11.9,5.3,11.9,11.9S146.2,72.5,139.6,72.5z"/>
	<path id="XMLID_512_" class="st6" d="M118.7,88.3h-6.5c-0.6-2.9-1.8-5.5-3.3-7.9l4.7-4.7c0.7-0.7,0.7-1.9,0-2.6l-4.1-4.1
		c-0.7-0.7-1.9-0.7-2.6,0l-4.7,4.7c-2.4-1.5-5-2.6-7.8-3.2v-6.7c0-1-0.8-1.8-1.8-1.8h-5.8c-1,0-1.8,0.8-1.8,1.8v6.7
		c-2.8,0.6-5.5,1.7-7.8,3.2l-4.7-4.7c-0.7-0.7-1.9-0.7-2.6,0l-4.1,4.1c-0.7,0.7-0.7,1.9,0,2.6l4.7,4.7c-1.6,2.4-2.7,5-3.3,7.9h-6.5
		c-1,0-1.8,0.8-1.8,1.8v5.8c0,1,0.8,1.8,1.8,1.8H67c0.6,2.9,1.7,5.6,3.3,8l-4.5,4.5c-0.7,0.7-0.7,1.9,0,2.6l4.1,4.1
		c0.7,0.7,1.9,0.7,2.6,0l4.5-4.5c2.4,1.6,5.1,2.8,8.1,3.4v6.3c0,1,0.8,1.8,1.8,1.8h5.8c1,0,1.8-0.8,1.8-1.8v-6.3
		c2.9-0.6,5.7-1.8,8.1-3.4l4.5,4.5c0.7,0.7,1.9,0.7,2.6,0l4.1-4.1c0.7-0.7,0.7-1.9,0-2.6l-4.5-4.5c1.6-2.4,2.7-5.1,3.3-8h6.4
		c1,0,1.8-0.8,1.8-1.8v-5.8C120.6,89.1,119.7,88.3,118.7,88.3z M89.7,105.1c-6.6,0-11.9-5.3-11.9-11.9c0-6.6,5.3-11.9,11.9-11.9
		c6.6,0,11.9,5.3,11.9,11.9C101.6,99.8,96.2,105.1,89.7,105.1z"/>
	<path id="XMLID_436_" class="st6" d="M183.8,100.8h-4.1c-0.4-1.8-1.1-3.5-2.1-5l2.9-2.9c0.4-0.4,0.4-1.2,0-1.6l-2.6-2.6
		c-0.4-0.4-1.2-0.4-1.6,0l-3,3c-1.5-1-3.2-1.7-4.9-2v-4.2c0-0.6-0.5-1.1-1.1-1.1h-3.6c-0.6,0-1.1,0.5-1.1,1.1v4.2
		c-1.8,0.4-3.5,1.1-4.9,2l-3-3c-0.4-0.4-1.2-0.4-1.6,0l-2.6,2.6c-0.4,0.4-0.4,1.2,0,1.6l2.9,2.9c-1,1.5-1.7,3.2-2.1,5h-4.1
		c-0.6,0-1.1,0.5-1.1,1.1v3.6c0,0.6,0.5,1.1,1.1,1.1h4.1c0.4,1.8,1.1,3.5,2.1,5.1l-2.8,2.8c-0.4,0.4-0.4,1.2,0,1.6l2.6,2.6
		c0.4,0.4,1.2,0.4,1.6,0l2.8-2.8c1.5,1,3.2,1.8,5.1,2.1v4c0,0.6,0.5,1.1,1.1,1.1h3.6c0.6,0,1.1-0.5,1.1-1.1v-4
		c1.9-0.4,3.6-1.1,5.1-2.1l2.8,2.8c0.4,0.4,1.2,0.4,1.6,0l2.6-2.6c0.4-0.4,0.4-1.2,0-1.6l-2.8-2.8c1-1.5,1.7-3.2,2.1-5.1h4.1
		c0.6,0,1.1-0.5,1.1-1.1V102C184.9,101.3,184.4,100.8,183.8,100.8z M165.4,111.4c-4.1,0-7.5-3.4-7.5-7.5c0-4.1,3.4-7.5,7.5-7.5
		c4.1,0,7.5,3.4,7.5,7.5C172.9,108.1,169.6,111.4,165.4,111.4z"/>
</g>
</svg>
