<svg xmlns="http://www.w3.org/2000/svg" viewBox="0 0 72.57602 78.30558">
  <defs>
    <style>
      .cls-1 {
        fill: #be0000;
      }

      .cls-2 {
        fill: red;
      }
    </style>
  </defs>
  <title>RedCircleRIP</title>
  <g id="Слой_2" data-name="Слой 2">
    <g id="Слой_1-2" data-name="Слой 1">
      <path class="cls-1" d="M14.39651,7.07979C7.29791,12.06329.58619,19.26648.02151,32.14229c-.46924,10.69974,6.7654,25.23967,19,30.8125C30.959,68.39229,40.376,78.30558,40.376,78.30558s4.07934-15.48339,9.8033-20.09a32.12556,32.12556,0,0,0,13.23-26.01c0-16.46416-23.03335-32.19-23.03335-32.19S25.43818-.6719,14.39651,7.07979Z"/>
      <path class="cls-2" d="M40.376.0156a32.18809,32.18809,0,0,0-18.92,58.23A96.4431,96.4431,0,0,1,38.5726,75.76036q.93787,1.26828,1.80341,2.54523a93.64192,93.64192,0,0,1,18.97-20.09,32.18751,32.18751,0,0,0-18.97-58.2Z"/>
    </g>
  </g>
</svg>
