<?xml version="1.0" encoding="utf-8"?>
<!-- Generator: Adobe Illustrator 19.0.0, SVG Export Plug-In . SVG Version: 6.00 Build 0)  -->
<svg version="1.1" id="Слой_1" xmlns="http://www.w3.org/2000/svg" xmlns:xlink="http://www.w3.org/1999/xlink" x="0px" y="0px"
	 viewBox="0 0 1254.9 731.8" style="enable-background:new 0 0 1254.9 731.8;" xml:space="preserve">
<style type="text/css">
	.st0{fill:none;stroke:#3198CC;stroke-width:2;stroke-linecap:round;stroke-miterlimit:10;}
	.st1{fill:none;stroke:#0098CC;stroke-width:2;stroke-linecap:round;stroke-miterlimit:10;}
	.st2{fill:url(#SVGID_1_);}
	.st3{fill:url(#SVGID_2_);}
	.st4{fill:none;stroke:url(#SVGID_3_);stroke-width:2;stroke-miterlimit:10;}
	.st5{fill:url(#SVGID_4_);}
	.st6{fill:none;stroke:url(#SVGID_5_);stroke-width:2;stroke-miterlimit:10;}
	.st7{fill:url(#SVGID_6_);}
	.st8{fill:#E20616;}
	.st9{fill:none;stroke:#FFFFFF;stroke-miterlimit:10;}
	.st10{fill:none;stroke:url(#SVGID_7_);stroke-miterlimit:10;}
	.st11{fill:none;stroke:url(#SVGID_8_);stroke-miterlimit:10;}
	.st12{fill:none;stroke:url(#SVGID_9_);stroke-miterlimit:10;}
	.st13{fill:none;stroke:url(#SVGID_10_);stroke-miterlimit:10;}
	.st14{fill:#0066CC;}
	.st15{fill:none;}
	.st16{fill:#FFFFFF;}
	.st17{font-family:'MyriadPro-Regular';}
	.st18{font-size:12.5089px;}
</style>
<g>
	<g>
		<line id="XMLID_20_" class="st0" x1="294.6" y1="265.4" x2="315.3" y2="265.4"/>
		<polyline id="XMLID_19_" class="st0" points="301.6,273.1 294,265.5 301.6,257.9 		"/>
		<polyline id="XMLID_18_" class="st0" points="360.7,249.6 368.2,242 360.6,234.4 		"/>
		<line id="XMLID_17_" class="st0" x1="322.2" y1="265.4" x2="333" y2="265.4"/>
		<line id="XMLID_16_" class="st0" x1="339.9" y1="265.4" x2="350.8" y2="265.4"/>
		<line id="XMLID_15_" class="st0" x1="357.6" y1="265.4" x2="368.7" y2="265.4"/>
		<line id="XMLID_8_" class="st0" x1="294.1" y1="241.9" x2="306.3" y2="241.9"/>
		<line id="XMLID_7_" class="st0" x1="313.2" y1="241.9" x2="324" y2="241.9"/>
		<line id="XMLID_6_" class="st0" x1="330.9" y1="241.9" x2="341.7" y2="241.9"/>
	</g>
	<line id="XMLID_5_" class="st0" x1="348.6" y1="241.9" x2="368.4" y2="241.9"/>
</g>
<path id="XMLID_13_" class="st1" d="M710.5,64.8v-30c0-6,4.9-10.9,10.9-10.9h166.9c6,0,10.9,4.9,10.9,10.9v28"/>
<polyline id="XMLID_11_" class="st0" points="891.8,55.7 899.3,63.4 907,55.9 "/>
<linearGradient id="SVGID_1_" gradientUnits="userSpaceOnUse" x1="368.8756" y1="398.832" x2="771.8756" y2="398.832">
	<stop  offset="8.940361e-04" style="stop-color:#262B5B"/>
	<stop  offset="1" style="stop-color:#4D6CB1"/>
</linearGradient>
<path class="st2" d="M767.9,731.8h-395c-2.2,0-4-1.8-4-4v-658c0-2.2,1.8-4,4-4h395c2.2,0,4,1.8,4,4v658
	C771.9,730,770.1,731.8,767.9,731.8z"/>
<linearGradient id="SVGID_2_" gradientUnits="userSpaceOnUse" x1="368.8756" y1="398.832" x2="771.8756" y2="398.832">
	<stop  offset="8.940361e-04" style="stop-color:#262B5B"/>
	<stop  offset="1" style="stop-color:#4D6CB1"/>
</linearGradient>
<path class="st3" d="M767.9,731.8h-395c-2.2,0-4-1.8-4-4v-658c0-2.2,1.8-4,4-4h395c2.2,0,4,1.8,4,4v658
	C771.9,730,770.1,731.8,767.9,731.8z"/>
<linearGradient id="SVGID_3_" gradientUnits="userSpaceOnUse" x1="849.8756" y1="397.832" x2="1254.8756" y2="397.832">
	<stop  offset="8.940361e-04" style="stop-color:#262B5B"/>
	<stop  offset="1" style="stop-color:#4D6CB1"/>
</linearGradient>
<path class="st4" d="M1249.9,729.8h-395c-2.2,0-4-1.8-4-4v-656c0-2.2,1.8-4,4-4h395c2.2,0,4,1.8,4,4v656
	C1253.9,728,1252.1,729.8,1249.9,729.8z"/>
<linearGradient id="SVGID_4_" gradientUnits="userSpaceOnUse" x1="850.8755" y1="680.6254" x2="1253.8756" y2="680.6254">
	<stop  offset="8.940361e-04" style="stop-color:#262B5B"/>
	<stop  offset="1" style="stop-color:#4D6CB1"/>
</linearGradient>
<path class="st5" d="M850.9,631.4v94.4c0,2.2,1.8,4,4,4h395c2.2,0,4-1.8,4-4v-94.4H850.9z"/>
<linearGradient id="SVGID_5_" gradientUnits="userSpaceOnUse" x1="1.978767e-05" y1="245.832" x2="294" y2="245.832">
	<stop  offset="8.940361e-04" style="stop-color:#262B5B"/>
	<stop  offset="1" style="stop-color:#4D6CB1"/>
</linearGradient>
<path class="st6" d="M289,425.8H5c-2.2,0-4-1.8-4-4v-352c0-2.2,1.8-4,4-4h284c2.2,0,4,1.8,4,4v352C293,424,291.2,425.8,289,425.8z"
	/>
<linearGradient id="SVGID_6_" gradientUnits="userSpaceOnUse" x1="1.4004" y1="-143.3511" x2="292.4004" y2="-143.3511" gradientTransform="matrix(1 0 0 -1 0 -28.7246)">
	<stop  offset="8.940361e-04" style="stop-color:#262B5B"/>
	<stop  offset="1" style="stop-color:#4D6CB1"/>
</linearGradient>
<path class="st7" d="M1.4,163.8V69.4c0-2.2,1.8-4,4-4h283c2.2,0,4,1.8,4,4v94.4H1.4z"/>
<g id="XMLID_33_">
	<path id="XMLID_184_" class="st8" d="M588.3,154.8c-3.9,0.5-7.1,2.2-9.5,5.3c-1.7,2.3-2.6,4.9-2.6,7.8c0,5.5,4.1,11.9,12.1,12.9
		c0,0.4,0,0.7,0,1.2c-12.4,0-24.8,0-37.2,0c0-0.4,0-0.7,0-1.2c4.3-0.5,7.7-2.5,10.1-6.1c1.5-2.3,2.1-4.7,2-7.4
		c-0.2-3.3-1.4-6.1-3.7-8.4c-2.3-2.3-5.1-3.6-8.4-4c0.3-1.2,0.6-2.4,0.8-3.5c1.7-9.2,1.3-18.2-1.8-27.1c-1.1-3.2-2.7-6.1-4.9-8.7
		c-1.3-1.5-2.9-2.7-4.7-3.6c-0.1,0-0.2-0.1-0.4-0.2c0.4-0.3,0.6-0.7,1-0.9c1.4-1.2,3.1-2,4.8-2.7c3.6-1.4,7.4-2.3,11.2-2.9
		c6.4-1,12.9-1.1,19.4-0.6c5.4,0.4,10.8,1.3,16,3.1c1.9,0.7,3.7,1.5,5.4,2.7c0.5,0.4,0.9,0.8,1.5,1.2c-0.4,0.2-0.7,0.4-1,0.5
		c-2.3,1.2-4.1,3-5.6,5.1c-2.3,3.3-3.8,6.9-4.7,10.8c-2.2,8.8-2.2,17.6,0.1,26.4C588.2,154.5,588.3,154.6,588.3,154.8z M542.7,111.3
		c2.6,1.9,4.6,4,6.1,6.6c1.3,2.1,2.3,4.4,3.1,6.8c2.7,8.5,3,17.1,1.7,25.8c-0.2,1-0.4,2.1-0.6,3.1c6.3,1.8,10.6,5.5,11.5,12.2
		c0.9,6.7-2,11.5-7.8,14.9c1.2,0.2,25.5,0.2,26,0c-7.7-4.7-8.3-9.9-7.7-14.8c0.8-6.7,5.2-10.4,11.5-12.2c0-0.1,0-0.1,0-0.2
		c-1.3-5.6-1.5-11.2-1.1-16.9c0.3-4.7,1.2-9.3,3-13.8c1.4-3.6,3.4-7,6.3-9.6c0.7-0.6,1.4-1.2,2.1-1.8c-0.3-0.2-0.6-0.4-0.9-0.6
		c-2-1.2-4.1-1.9-6.3-2.6c-4.4-1.3-9-2-13.6-2.3c-7.9-0.6-15.6-0.1-23.3,1.6c-3.1,0.7-6,1.7-8.8,3.2
		C543.5,110.9,543.1,111.1,542.7,111.3z"/>
	<path id="XMLID_180_" class="st8" d="M577,204.8c-0.4,0-0.7,0-1,0c-1.9-0.3-3.8,0-5.8,0.3c-2.1,0.3-4-0.1-5.7-1.5
		c-2.3-1.8-2.9-5.5-1.2-7.9c1-1.5,2.5-2.1,4.2-2.2c0.8,0,1.6,0,2.4,0.1c2.3,0.3,4.6,0.2,6.8,0c0.4,0,0.8-0.1,1.1,0
		c2.3,0.3,4.7,0,7-0.2c1.3-0.2,2.5,0,3.7,0.5c1.2,0.6,2.1,1.5,2.5,2.8c1.5,4.6-1.4,7.7-5,8.3c-1.1,0.2-2.3,0.1-3.4-0.2
		c-0.2-0.1-0.4-0.1-0.6-0.2c0,0.2-0.1,0.4-0.1,0.6c0,1,0,2,0,3c0.1,1.1,0.1,1.6,1.6,1.7c0.4,0,0.7,0.2,0.6,0.6
		c0,0.3-0.1,0.6-0.5,0.6c-0.1,0-0.2,0-0.3,0c-2-0.2-4-0.2-6,0c-0.3,0-0.7,0.1-0.8-0.4c-0.1-0.4,0-0.8,0.6-0.8
		c1.6-0.2,1.6-0.3,1.6-1.8c0-3.8,0-7.6,0-11.4c0-0.2,0-0.4,0-0.5c0-1.1-0.4-1.5-1.6-1.5c-0.4,0-0.9,0.1-1.3,0.1
		c-0.9,0.2-1.2,0.5-1.2,1.4c0,2,0,4,0.1,6.1c0,1,0.4,1.3,1.3,1.4C577.2,203.8,577.3,203.8,577,204.8z M588.6,199c0-0.1,0-0.2,0-0.4
		c-0.1-2.3-1.8-4.4-5.1-3.7c-1.1,0.2-1.5,0.9-1.5,2c0,1,0,1.9,0,2.9c0,0.6,0,1.2,0.1,1.7c0.2,1.1,1,1.9,2.1,2
		c1.3,0.2,2.4-0.2,3.2-1.2C588.3,201.4,588.7,200.3,588.6,199z M571.9,198.9c0-0.6,0-1.3,0-1.9c0.1-1-0.4-1.5-1.2-1.9
		c-1.9-0.9-4.1,0-5,1.9c-0.8,1.8-0.4,4.3,1,5.7c0.2,0.2,0.5,0.4,0.8,0.6c1.6,1,4.6,0.3,4.5-2.5C571.9,200.1,571.9,199.5,571.9,198.9
		z"/>
	<path id="XMLID_172_" class="st8" d="M587,220.9c0-0.9,0-1.9,0-2.8c0-0.6-0.1-1.1-0.6-1.6c-0.2-0.2-0.2-0.6-0.2-1
		c0-0.1,0.4-0.2,0.6-0.2c1.6,0,3.2-0.1,4.8-0.1c0.2,0,0.5,0.1,0.7,0.2c0.3,0.4,0.1,0.9-0.5,0.9c-1.5,0-1.8,0.7-1.8,2.1
		c0,1.6,0,3.2,0,4.8c0,0.2,0,0.5,0,0.7c0.1,1.2,0.3,1.4,1.5,1.5c0.1,0,0.4,0,0.4,0.1c0.2,0.2,0.3,0.4,0.3,0.6
		c0.1,0.3-0.1,0.5-0.5,0.5c-0.2,0-0.5,0-0.7,0c-2-0.3-4.1-0.1-6.1,0c-0.5,0-1.1,0.1-1.6,0c-1.6-0.2-3.3-0.1-4.9,0.2
		c-1.7,0.3-3.4,0.2-5-0.6c-3.7-1.9-3.9-5.6-2.7-8.2c0.7-1.6,2.1-2.5,3.8-2.7c1.1-0.1,2.2-0.1,3.3,0c1.9,0.3,3.8,0.3,5.8,0.1
		c0.1,0,0.2,0,0.3,0c0.7,0,0.9,0.1,1,0.5c0,0.4-0.1,0.5-0.8,0.6c-1.1,0.1-1.4,0.4-1.4,1.6c0,1.9,0,3.7,0.1,5.6
		c0,1.3,0.5,1.7,1.8,1.7c0.3,0,0.6,0,0.9-0.1c1.1-0.1,1.4-0.4,1.5-1.5C587,223,587,221.9,587,220.9C587,220.9,587,220.9,587,220.9z
		 M579.8,220.9C579.8,220.9,579.8,220.9,579.8,220.9c0-0.7,0-1.4,0-2.1c0-0.7-0.3-1.2-0.9-1.5c-0.4-0.2-0.8-0.4-1.2-0.5
		c-2.1-0.4-3.9,0.9-4.4,2.9c-0.4,1.9,0,3.6,1.3,5c0.9,1,2.3,1.2,3.6,0.7c1.2-0.5,1.6-1.5,1.6-2.8
		C579.8,222.1,579.8,221.5,579.8,220.9z"/>
	<path id="XMLID_171_" class="st8" d="M549.5,203.7c-3.8,1.2-7.5,1.9-11.3,1.1c-2.2-0.5-4.2-1.5-5.7-3.2c-2.6-2.9-3-9,1.1-12.3
		c2.7-2.2,5.8-3,9.2-2.6c1.9,0.2,3.7,0.7,5.5,1c0.6,0.1,0.7,0.4,0.8,1c0,0.7,0.1,1.5,0.2,2.2c0.1,1,0,1.1-1.1,0.9
		c-0.5-2.4-2.4-3.4-4.6-3.8c-1.3-0.2-2.7-0.2-4,0.2c-2.9,0.9-4.6,2.8-5.2,5.7c-0.8,3.7,0.9,7.3,4,9c2.1,1.1,4.3,1.1,6.5,0.4
		c0.5-0.2,0.8-0.4,0.7-1c-0.1-0.9,0-1.8,0-2.7c0-1-0.2-1.2-1.2-1.4c-0.4-0.1-0.8-0.1-1.3-0.2c0-0.1-0.1-0.3,0-0.4
		c0-0.6,0.1-0.7,0.7-0.7c0.8,0,1.6,0.1,2.5,0.1c1.4,0,2.9-0.1,4.3-0.1c0.7,0,0.9,0.2,0.8,0.7c0,0.2-0.3,0.3-0.4,0.5c0,0-0.1,0-0.2,0
		c-1.6,0.2-1.8,0.5-1.9,2.1c0,0.5,0,1,0,1.5c0,0.4,0,0.8,0.4,1.2C549.4,202.9,549.4,203.3,549.5,203.7z"/>
	<path id="XMLID_116_" class="st8" d="M551.1,220c-0.1-1.1-0.1-1.2,0.8-1.1c2.2,0.1,4.4,0.2,6.6,0c0.1,0,0.3-0.1,0.3,0
		c0.2,0.1,0.4,0.2,0.5,0.4c0.1,0.3,0,0.6-0.3,0.7c-0.2,0.1-0.3,0-0.5,0.1c-1.2,0.1-1.5,0.5-1.6,1.7c0,0.8,0,1.5,0,2.3
		c0,0.2,0.1,0.4,0.2,0.5c0.4,0.3,0.3,0.7,0.2,1.2c-1.1,0.3-2.3,0.7-3.5,0.9c-2.9,0.6-5.8,0.8-8.6-0.1c-1-0.3-2-0.8-2.9-1.3
		c-4.8-3-5.3-10.8-0.2-14.3c1.9-1.3,3.9-2.1,6.2-2.2c2.9-0.2,5.8,0.4,8.6,1.3c0.1,1.2,0.3,2.3,0.4,3.5c0,0.4-0.2,0.5-1,0.5
		c0-0.1-0.1-0.2-0.1-0.3c-0.4-1.7-1.6-2.8-3.3-3.2c-2.7-0.8-5.3-0.7-7.6,1c-2.2,1.6-3.2,3.9-3.1,6.5c0.1,3.3,1.6,5.7,4.5,7.2
		c2,0.9,4,0.9,6.1,0.2c0.8-0.3,0.8-0.3,0.8-1.1c0-0.9,0-1.8,0-2.7c0-0.9-0.3-1.2-1.2-1.4C551.9,220.1,551.5,220,551.1,220z"/>
	<path id="XMLID_106_" class="st8" d="M600,204.7c-0.4,0-0.8,0-1.2,0c-1.5-0.2-3.1-0.2-4.6,0c-0.3,0-0.7,0.1-1.1,0
		c-0.3,0-0.5-0.2-0.5-0.6c0-0.3,0.1-0.6,0.5-0.6c0.1,0,0.3,0,0.4,0c0.9-0.1,1.2-0.4,1.3-1.3c0-0.9,0-1.9,0-2.8c0-3.2,0-6.4,0-9.6
		c0-0.3,0-0.5,0-0.8c-0.1-0.6-0.3-0.8-0.9-0.9c-0.4-0.1-0.8-0.1-1.2-0.2c-0.1-0.9,0-1,0.7-1c2,0,4,0,6,0c0.7,0,0.8,0.1,0.7,1
		c-0.4,0.1-0.8,0.1-1.2,0.2c-0.6,0.1-1,0.5-1.1,1.1c0,0.8-0.1,1.5-0.1,2.3c0,0.8,0,1.7,0,2.6c0.3-0.2,0.6-0.3,0.8-0.4
		c1.6-0.7,3.3-0.8,5-0.3c2.3,0.6,3.7,2.5,3.7,4.9c0,0.8,0,1.7,0,2.5c0,0.4,0,0.7,0,1.1c0.1,1.3,0.3,1.5,1.6,1.7
		c0.4,0.1,0.6,0.2,0.6,0.7c0,0.5-0.3,0.6-0.7,0.6c-0.4,0-0.8-0.1-1.1-0.1c-1.3,0-2.7,0-4,0c-0.4,0-0.8,0.1-1.1,0.1
		c-0.4,0-0.6-0.2-0.6-0.6c0-0.4,0.1-0.6,0.5-0.6c0,0,0.1,0,0.1,0c1.4-0.2,1.6-0.4,1.6-1.7c0-1.1,0-2.2-0.1-3.3c0-0.9-0.4-1.8-1-2.5
		c-1.2-1.6-3.4-1.8-5.1-0.2c-0.2,0.2-0.3,0.5-0.3,0.7c0,1.7,0,3.4,0,5.1c0,0.3,0.1,0.5,0.1,0.8c0.1,0.7,0.5,1,1.1,1.2
		c0.1,0,0.2,0,0.3,0.1C600.2,203.7,600.3,203.7,600,204.7z"/>
	<path id="XMLID_67_" class="st8" d="M594.9,216.7c0-1.4,0-2.8,0-4.1c0-0.3,0-0.5,0-0.8c-0.1-1.2-0.3-1.4-1.5-1.5
		c-0.1,0-0.2,0-0.3,0c-0.4,0-0.5-0.3-0.5-0.6c0-0.3,0.2-0.5,0.5-0.5c0.1,0,0.2,0,0.4,0c1.9,0.3,3.8,0.1,5.7,0c0.2,0,0.4,0,0.5,0
		c0.3,0,0.5,0.2,0.5,0.5c0,0.4-0.2,0.6-0.5,0.6c-0.2,0-0.4,0-0.5,0c-1.1,0.1-1.3,0.4-1.3,1.4c0,3.2,0,6.4,0,9.6c0,0.5,0,0.9,0.1,1.4
		c0.1,0.7,0.3,1.3,0.6,1.9c0.3,0.6,0.7,1,1.4,1.2c0.5,0.1,0.7,0.4,0.6,0.8c-0.1,0.4-0.4,0.4-0.7,0.4c-1.8-0.1-3.1-0.8-4-2.4
		c-0.6-1-0.8-2.1-0.9-3.3C594.9,219.8,594.9,218.2,594.9,216.7C594.9,216.7,594.9,216.7,594.9,216.7z"/>
	<path id="XMLID_66_" class="st8" d="M567.9,225.7c0.1,1,0,1.1-0.8,1c-1.9-0.1-3.8-0.2-5.8,0c-0.8,0.1-0.9-0.1-0.9-1
		c0.3,0,0.6-0.1,0.9-0.1c1-0.2,1.3-0.5,1.4-1.5c0-0.2,0-0.4,0-0.5c0-1.9,0-3.8,0-5.7c0-1.1-0.3-1.4-1.4-1.5c-0.2,0-0.4,0-0.6-0.1
		c-0.2-0.1-0.4-0.3-0.4-0.5c0-0.2,0.2-0.4,0.4-0.6c0.1-0.1,0.3,0,0.5,0c0.9,0.1,1.8,0.1,2.7,0.2c0.5,0,0.5,0,0.8,0.7
		c0.7-0.6,1.5-0.9,2.4-0.9c0.9-0.1,1.7-0.1,2.6,0.2c-0.1,0.8-0.3,1-1,0.9c-1.1-0.2-2,0.3-2.5,1.4c-0.3,0.7-0.5,1.6-0.6,2.4
		c-0.1,1.4,0,2.8,0,4.2c0,0.9,0.2,1.1,1.1,1.3C567.2,225.6,567.5,225.6,567.9,225.7z"/>
	<path id="XMLID_63_" class="st8" d="M556.9,194.1c1.7-1,3.3-1.1,5-0.6c-0.1,0.8-0.4,0.9-1,0.8c-1.1-0.2-1.9,0.3-2.5,1.4
		c-0.4,0.8-0.6,1.6-0.6,2.5c0,1.3,0,2.6,0,3.9c0,1.1,0.2,1.2,1.2,1.4c0.3,0,0.6,0.1,0.9,0.1c0.1,0.9,0,1-0.8,1
		c-0.7,0-1.4-0.1-2.1-0.1c-1.3,0-2.5,0.1-3.8,0.1c-0.8,0-0.8,0-0.8-1c0.4-0.1,0.8-0.1,1.2-0.2c0.7-0.1,1-0.5,1.1-1.2
		c0-0.3,0.1-0.5,0.1-0.8c0-1.9,0-3.7,0-5.6c0-1.2-0.2-1.4-1.4-1.6c-0.1,0-0.3,0-0.4,0c-0.3,0-0.6-0.2-0.6-0.5c0-0.4,0.3-0.6,0.7-0.5
		c0.5,0,0.9,0,1.4,0.1c0.5,0,1,0.1,1.5,0.1C556.5,193.4,556.9,193.5,556.9,194.1z"/>
	<path id="XMLID_62_" class="st8" d="M588.5,207.8c0.1,0.1,0.3,0.1,0.4,0.2c0.5,0.5,1.1,1.1,1.6,1.6c0.3,0.3,0.3,0.6,0,0.8
		c-0.5,0.5-1.1,1-1.6,1.5c-0.3,0.3-0.6,0.3-0.9,0c-0.5-0.5-1-1-1.5-1.4c-0.2-0.2-0.4-0.5-0.1-0.8c0.6-0.6,1.2-1.2,1.9-1.9
		C588.3,207.9,588.4,207.8,588.5,207.8z"/>
	<path id="XMLID_35_" class="st8" d="M544.3,111.3c1.4-0.8,3.1-1.5,4.8-2c3.5-1.2,7.2-1.9,10.9-2.3c2.6-0.3,5.2-0.5,7.8-0.6
		c3.7-0.2,7.4,0.1,11.1,0.5c3.3,0.4,6.6,0.9,9.8,1.9c1.9,0.6,3.7,1.4,5.6,2.1c0.3,0.1,0.7,0.3,1.1,0.6c-0.5,0.4-0.9,0.8-1.3,1.2
		c-3.7,3.3-5.9,7.5-7.4,12.2c-1.3,3.9-2,7.9-2.2,12c-0.1,2.4-0.2,4.8-0.1,7.2c0.1,2.9,0.4,5.8,1,8.7c0,0.1,0,0.3,0.1,0.5
		c-4,0.9-6.8,3.3-9.1,6.5c-2.4,3.3-2.6,7.1-2.1,11c0.5,4,3,6.9,6.1,9.5c-7.2,0-14.2,0-21.3,0c4.3-3.4,6.1-7.9,6.1-11.5
		c0-1.6,0.1-3.2-0.3-4.7c-0.6-2.1-1.5-4-3-5.6c-1.8-1.9-3.7-3.7-6.2-4.6c-0.6-0.2-1.2-0.4-1.8-0.6c0-0.2,0.1-0.5,0.1-0.7
		c1-4.7,1.2-9.4,1-14.2c-0.2-5.1-1-10-2.7-14.8c-1.2-3.3-2.8-6.4-5.2-9.1C546.2,113.3,545.3,112.3,544.3,111.3z M572.3,129.5
		c-1.7-1.3-3.5-1.4-5.2,0c-1.5,1.3-1.6,3-0.8,4.7c-0.9,0.9-1.8,1.7-2.8,2.6c0.3,0.3,0.6,0.6,0.9,0.9c1-0.9,1.9-1.7,2.7-2.5
		c0.2,0.1,0.3,0.1,0.4,0.2c0.1,0.1,0.2,0.1,0.3,0.2c1.5,0.8,3,0.6,4.3-0.4c1.2-0.9,1.6-2.3,1.3-3.8c-0.1-0.5-0.2-0.8-0.2-0.8
		s1.1-1,1.3-1.1c0.8-0.6,1.6-1.2,2.4-1.9c-0.3-0.4-0.6-0.6-0.8-1C574.8,127.5,573.5,128.5,572.3,129.5z M573.4,174.6
		c0-2-1.7-3.7-3.7-3.7c-2,0-3.7,1.7-3.7,3.7c0,2,1.7,3.7,3.7,3.7C571.6,178.3,573.4,176.6,573.4,174.6z M563,114.2l1.3,0.6
		c0,0,2.4-1.5,3.1-2c0.3,0.2,0.5,0.4,0.7,0.5c1.1,0.6,2.2,0.6,3.2-0.1c1-0.7,1.5-1.6,1.3-2.8c-0.2-1.5-1.5-2.8-3.2-2.6
		c-1.7,0.1-3.1,1.6-3,3.2c0,0.3,0.1,0.7,0.1,0.7l-0.6,0.4L563,114.2z M570.1,154.8c1.7,2.5,2.3,5,0.6,7.7c-0.3-0.1-0.6-0.1-0.8-0.2
		c-1-0.1-1.8,0.2-2.4,1.1c-0.6,1-0.5,2.2,0.3,3.1c0.8,0.8,1.8,1.1,3,0.4c1.8-1.2,1.1-3.5,1.1-3.5s2.2-3.4,0.4-7.3
		c-0.3-0.6-1.2-2-1.4-2.2C570.7,154.1,570.4,154.4,570.1,154.8z M578.8,115.6c2.1-0.7,4.1-1.4,6.2-1.5c0.2,0.4,0.4,0.7,0.6,1
		c0.5,0.6,1.2,1,2,1c1.2,0,2.2-0.9,2.4-2.1c0.2-1-0.4-2.1-1.4-2.6c-2.2-1.1-3.8,1.3-3.8,1.3s-1.1,0.2-1.4,0.2
		c-1.9,0.4-3.7,0.9-5.7,1.7C578.2,115,578.5,115.3,578.8,115.6z M556.2,122.1c0.1-0.2,0.6-1.3,0.6-1.3s-1.3-1.5-1.6-2
		c-0.7-1-1.5-1.9-2-3.1c0.2-0.2,0.5-0.4,0.6-0.6c0.8-1.1,0.7-2.3-0.1-3.2c-0.8-0.9-2.1-1.1-3.1-0.4c-1,0.6-1.5,1.9-1,3
		c0.3,0.8,0.9,1.4,1.8,1.5c0.2,0,0.6,0.2,0.6,0.2s0.3,0.4,0.4,0.6C553,118,555.1,120.9,556.2,122.1z M579.9,147.5
		c-1.5,0.3-2.3,1.7-2.1,2.9c0.2,1.2,1.2,2.1,2.4,2.2c0.9,0.1,2-0.7,2.4-1.6c0.5-1.2,0.2-2.7-1.3-3.3c0.3-2.2-0.6-4.1-0.6-4.1l-1,1.4
		C579.6,145,580,146,579.9,147.5z M561,148.4c-1-1-2.6-1-3.6-0.1c-0.8,0.7-1.1,1.9-0.6,2.9s1.6,1.6,2.5,1.4c1.8-0.3,2.3-1.4,2.3-3
		c0.5-0.3,1-0.6,1.7-1c-0.4-0.4-0.7-0.6-0.9-0.9C561.9,147.9,561.4,148.2,561,148.4z M573.6,148.1c-2,2-4.1,3.8-5.6,6.1
		c-0.7,1-1.3,2.2-1.6,3.4c-0.4,1.7-0.2,3.3,0.7,5c0.4-0.3,0.7-0.6,1-0.8c-1.1-2.3-0.6-4.4,0.7-6.4c0.6-0.8,1.2-1.7,1.9-2.4
		c1.1-1.2,2.2-2.3,3.3-3.4c0.2-0.2,0.4-0.4,0.7-0.7C574.3,148.5,574,148.3,573.6,148.1z M575.9,116.7c-0.6-0.6-1-0.8-1-0.8
		s-6.6,2.7-11.4,7.4c-0.5,0.4-0.9,0.9-1.5,1.5c0.4,0.3,0.7,0.5,1,0.8C566.9,121.7,571.2,119,575.9,116.7z M560.3,126.8
		c-0.7,1.1-1.3,2.1-1.9,3.1c-1.3,2.4-1.9,4.9-1.6,7.7c0.2,1.6,0.8,3,1.7,4.4c0.4-0.7,0.8-1.4,0.8-1.4s-0.2-0.3-0.4-0.7
		c-1-1.8-1.1-3.7-0.7-5.6c0.5-2.1,1.3-4.1,2.6-5.9c0.2-0.2,0.3-0.5,0.5-0.8C561,127.3,560.7,127.1,560.3,126.8z M577.7,137.7
		c0,0,0.1-0.1,0.2-0.2c1.8-2.1,3.4-4.2,4.3-6.9c0.7-2.1,1.1-4.3,0.7-6.5c0-0.2-0.2-0.6-0.2-0.6l-1.1,1c0,0,0.1,0.4,0.1,0.8
		c0.1,1.4-0.1,2.8-0.5,4.1c-0.9,2.4-2.1,4.7-3.9,6.6c-0.1,0.2-0.5,0.5-0.5,0.5L577.7,137.7z M582.1,132.8c-0.4,0.6-1,1.8-1,1.8
		s0.1,0.4,0.1,0.6c0.3,2.4-0.4,4.5-1.8,6.4c-1,1.5-3.6,4.3-3.8,4.5c0.4,0.2,0.8,0.5,1.1,0.7c0.2-0.2,2.1-2.3,2.8-3.2
		c1.1-1.4,2-3,2.5-4.7C582.8,136.9,582.7,134.9,582.1,132.8z M557.2,130.5c0.4-0.7,0.8-1.6,0.8-1.6s-0.1-0.6-0.2-1
		c-0.3-1.4-0.2-2.9,0.1-4.3c0.6-2.3,1.9-4.3,3.5-6c0.2-0.2,0.6-0.6,0.6-0.6s-0.9-0.4-1.3-0.5C556.7,120.4,555.2,125.9,557.2,130.5z
		 M568.9,118.2c0,0-7-4.6-13.9-5.4c0,0.5,0,0.9,0,1.3c0.1,0.1,5.3,0.8,10,3.5c0.8,0.4,2.7,1.5,2.7,1.5L568.9,118.2z M570.3,120.7
		c3.9,2.8,7.3,5.8,9.6,10.1c0.2-0.5,0.6-1.6,0.6-1.6s-0.2-0.3-0.3-0.5c-0.8-1.1-1.5-2.2-2.3-3.2c-1.7-1.9-3.7-3.7-5.8-5.2
		c-0.2-0.1-0.4-0.3-0.7-0.4C571.1,120.2,570.8,120.4,570.3,120.7z M559.4,132.6c-0.3,0.5-0.5,1.6-0.5,1.6s0.2,0.5,0.5,0.9
		c2.3,3.1,5.1,5.8,8.2,8.1c0.1,0,0.3,0.2,0.3,0.2s0.7-0.5,1-0.8C565.3,139.8,561.9,136.7,559.4,132.6z M565.8,147.2
		c3.6-2.2,6.9-4.6,9.9-7.5c-0.3-0.4-0.6-0.6-0.9-0.9c-3.1,2.9-6.4,5.3-10,7.5C565.2,146.6,565.5,146.8,565.8,147.2z M581.7,120.6
		c-1.9-3.7-5.1-6.3-8.4-8.5c-0.1,0.2-0.2,0.4-0.3,0.6c-0.1,0.2-0.2,0.3-0.3,0.5c3.3,2.2,6.2,4.6,8.1,8.4
		C581.3,121.1,581.5,120.8,581.7,120.6z M579.1,125.8c3.1-2.6,6-5.3,8-8.9c-0.5-0.1-0.8-0.3-1.3-0.4c-1.9,3.3-4.7,5.8-7.6,8.4
		C578.5,125.2,578.8,125.4,579.1,125.8z M561,143.3c-0.3,0.5-0.6,1.2-0.6,1.2s2.5,2.7,3.4,3.5c1.3,1.3,4.2,4.2,4.4,4.3
		c0.3-0.3,0.5-0.6,0.8-0.9C566.4,148.8,563.7,146,561,143.3z M559,123c-0.3,0.5-0.6,1.1-0.6,1.1s4.8,4,6.9,5.7
		c0.1,0.1,0.2,0.1,0.3,0.2c0.3-0.3,0.5-0.6,0.8-0.9C563.9,127,561.4,125,559,123z M559.4,146.9c0-1.4,0.3-2.6,0.9-3.8
		c0.6-1.1,1.2-2,2.2-3.3c-0.2-0.2-0.6-0.6-0.9-0.9c-2.2,2.2-3.7,5.8-3.4,8C558.3,146.9,559.1,146.9,559.4,146.9z M579.1,140.8
		c-0.9-1.7-3.9-4.9-5.5-6c-0.1,0.1-0.3,0.3-0.4,0.4c-0.1,0.1-0.2,0.3-0.4,0.5c2.1,1.9,4,3.8,5.6,6.2
		C578.7,141.4,578.9,141.1,579.1,140.8z M577,149.2c0.2-0.5,0.4-0.8,0.6-1.2c-2.1-1.2-4.1-2.5-6.2-3.7c-0.3,0.2-0.6,0.5-1.1,0.8
		C572.6,146.6,574.7,147.9,577,149.2z"/>
</g>
<path class="st9" d="M735.5,347.8h-330c-2.2,0-4-1.8-4-4v-55c0-2.2,1.8-4,4-4h330c2.2,0,4,1.8,4,4v55
	C739.5,346,737.7,347.8,735.5,347.8z"/>
<path class="st9" d="M735.5,423.8h-330c-2.2,0-4-1.8-4-4v-55c0-2.2,1.8-4,4-4h330c2.2,0,4,1.8,4,4v55
	C739.5,422,737.7,423.8,735.5,423.8z"/>
<path class="st9" d="M735.5,543.8h-330c-2.2,0-4-1.8-4-4v-99c0-2.2,1.8-4,4-4h330c2.2,0,4,1.8,4,4v99
	C739.5,542,737.7,543.8,735.5,543.8z"/>
<linearGradient id="SVGID_7_" gradientUnits="userSpaceOnUse" x1="1050.5424" y1="170.41" x2="1225.5228" y2="170.41">
	<stop  offset="8.940361e-04" style="stop-color:#262B5B"/>
	<stop  offset="1" style="stop-color:#4D6CB1"/>
</linearGradient>
<path class="st10" d="M1221,200.5h-166c-2.2,0-4-1.8-4-4v-52.2c0-2.2,1.8-4,4-4h166c2.2,0,4,1.8,4,4v52.2
	C1225,198.7,1223.2,200.5,1221,200.5z"/>
<linearGradient id="SVGID_8_" gradientUnits="userSpaceOnUse" x1="1050.5424" y1="241.91" x2="1225.5228" y2="241.91">
	<stop  offset="8.940361e-04" style="stop-color:#262B5B"/>
	<stop  offset="1" style="stop-color:#4D6CB1"/>
</linearGradient>
<path class="st11" d="M1221,271.5h-166c-2.2,0-4-1.8-4-4v-51.2c0-2.2,1.8-4,4-4h166c2.2,0,4,1.8,4,4v51.2
	C1225,269.7,1223.2,271.5,1221,271.5z"/>
<linearGradient id="SVGID_9_" gradientUnits="userSpaceOnUse" x1="1050.5424" y1="314.41" x2="1225.5228" y2="314.41">
	<stop  offset="8.940361e-04" style="stop-color:#262B5B"/>
	<stop  offset="1" style="stop-color:#4D6CB1"/>
</linearGradient>
<path class="st12" d="M1221,345.5h-166c-2.2,0-4-1.8-4-4v-54.2c0-2.2,1.8-4,4-4h166c2.2,0,4,1.8,4,4v54.2
	C1225,343.7,1223.2,345.5,1221,345.5z"/>
<linearGradient id="SVGID_10_" gradientUnits="userSpaceOnUse" x1="882.0423" y1="242.832" x2="1034.7098" y2="242.832">
	<stop  offset="8.940361e-04" style="stop-color:#262B5B"/>
	<stop  offset="1" style="stop-color:#4D6CB1"/>
</linearGradient>
<path class="st13" d="M1018.5,345.8h-132c-2.2,0-4-1.8-4-4v-198c0-2.2,1.8-4,4-4h132c2.2,0,4,1.8,4,4v84.5l11.5,13l-11.5,13v87.5
	C1022.5,344,1020.7,345.8,1018.5,345.8z"/>
<polygon class="st14" points="1200.7,189.7 1198.3,186 1196,189.7 1196,179.3 1200.7,179.3 "/>
<path class="st14" d="M1191.5,180.2c-0.6-0.5-1.4-0.8-2.3-0.8c-1.1,0-2.3,0.5-3,1.4c-0.7-1-2.3-1.6-3.9-1.3
	c-1.6,0.3-2.5,1.5-2.5,3.2c0,3,5,7.1,6.4,7.1c1.3,0,6.4-4.1,6.4-7.1C1192.5,181.6,1192.2,180.8,1191.5,180.2z"/>
<polygon class="st14" points="1200.7,260.7 1198.3,257 1196,260.7 1196,250.3 1200.7,250.3 "/>
<path class="st14" d="M1191.5,251.2c-0.6-0.5-1.4-0.8-2.3-0.8c-1.1,0-2.3,0.5-3,1.4c-0.7-1-2.3-1.6-3.9-1.3
	c-1.6,0.3-2.5,1.5-2.5,3.2c0,3,5,7.1,6.4,7.1c1.3,0,6.4-4.1,6.4-7.1C1192.5,252.6,1192.2,251.8,1191.5,251.2z"/>
<g>
	<path class="st14" d="M1211.5,260.2c0.1,0,0.1,0,0.2-0.1c0.1-0.1,0-0.2-0.1-0.3l-6.3-4.2l6.2-4.4c0.1-0.1,0.1-0.2,0-0.3
		c-0.1-0.1-0.2-0.1-0.3,0l-6.7,4.7l6.8,4.5C1211.4,260.1,1211.5,260.2,1211.5,260.2z"/>
	<g>
		<circle class="st14" cx="1211.4" cy="251.2" r="0.8"/>
		<circle class="st14" cx="1211.5" cy="259.9" r="0.8"/>
		<circle class="st14" cx="1205" cy="255.6" r="0.8"/>
	</g>
</g>
<polygon class="st14" points="1200.7,334.7 1198.3,331 1196,334.7 1196,324.3 1200.7,324.3 "/>
<path class="st14" d="M1191.5,325.2c-0.6-0.5-1.4-0.8-2.3-0.8c-1.1,0-2.3,0.5-3,1.4c-0.7-1-2.3-1.6-3.9-1.3
	c-1.6,0.3-2.5,1.5-2.5,3.2c0,3,5,7.1,6.4,7.1c1.3,0,6.4-4.1,6.4-7.1C1192.5,326.6,1192.2,325.8,1191.5,325.2z"/>
<g>
	<path class="st14" d="M1211.5,334.2c0.1,0,0.1,0,0.2-0.1c0.1-0.1,0-0.2-0.1-0.3l-6.3-4.2l6.2-4.4c0.1-0.1,0.1-0.2,0-0.3
		c-0.1-0.1-0.2-0.1-0.3,0l-6.7,4.7l6.8,4.5C1211.4,334.1,1211.5,334.2,1211.5,334.2z"/>
	<g>
		<circle class="st14" cx="1211.4" cy="325.2" r="0.8"/>
		<circle class="st14" cx="1211.5" cy="333.9" r="0.8"/>
		<circle class="st14" cx="1205" cy="329.6" r="0.8"/>
	</g>
</g>
<g>
	<path class="st14" d="M1211.5,189.2c0.1,0,0.1,0,0.2-0.1c0.1-0.1,0-0.2-0.1-0.3l-6.3-4.2l6.2-4.4c0.1-0.1,0.1-0.2,0-0.3
		c-0.1-0.1-0.2-0.1-0.3,0l-6.7,4.7l6.8,4.5C1211.4,189.1,1211.5,189.2,1211.5,189.2z"/>
	<g>
		<circle class="st14" cx="1211.4" cy="180.2" r="0.8"/>
		<circle class="st14" cx="1211.5" cy="188.9" r="0.8"/>
		<circle class="st14" cx="1205" cy="184.6" r="0.8"/>
	</g>
</g>
<rect id="XMLID_34_" x="368.7" y="251.6" class="st15" width="404" height="307.9"/>
<text id="XMLID_31_" transform="matrix(1 0 0 1 496.6698 260.4727)"><tspan x="0" y="0" class="st16 st17 st18">GRAPHGRAIL AI ECOSYSTEM</tspan><tspan x="20.1" y="60" class="st16 st17 st18">Morphology analysis</tspan><tspan x="28.7" y="135.1" class="st16 st17 st18">Syntactic analysis</tspan><tspan x="-24.8" y="210.1" class="st16 st17 st18">Syntax-driven sentence segmentation</tspan><tspan x="9.7" y="225.2" class="st16 st17 st18">Pre-trained word vectors</tspan><tspan x="14.1" y="240.2" class="st16 st17 st18">Part-of-speech tagging</tspan><tspan x="-3.1" y="255.2" class="st16 st17 st18">Labelled bependency parsing</tspan></text>
<rect id="XMLID_30_" x="850" y="102.6" class="st15" width="404" height="15.9"/>
<text id="XMLID_29_" transform="matrix(1 0 0 1 994.325 111.4727)" class="st17 st18">DAPPS MARKETPLACE</text>
<rect id="XMLID_26_" x="1069.2" y="152.6" class="st15" width="169" height="170.7"/>
<text id="XMLID_27_" transform="matrix(1 0 0 1 1069.2292 161.4727)"><tspan x="0" y="0" class="st17 st18">Ethereum weather checker</tspan><tspan x="0" y="72" class="st17 st18">Ethereum legal issue</tspan><tspan x="0" y="144" class="st17 st18">EOS logistics</tspan></text>
<rect id="XMLID_22_" x="907.2" y="187.6" class="st15" width="95" height="110.9"/>
<text id="XMLID_25_" transform="matrix(1 0 0 1 907.2286 196.4709)"><tspan x="0" y="0" class="st17 st18">Banking</tspan><tspan x="0" y="23" class="st17 st18">Media</tspan><tspan x="0" y="46" class="st17 st18">Blockchain</tspan><tspan x="0" y="69" class="st17 st18">Legal</tspan><tspan x="0" y="92" class="st17 st18">Smart-contract</tspan></text>
<rect id="XMLID_12_" x="886.2" y="674.1" class="st15" width="336.5" height="19.4"/>
<text id="XMLID_23_" transform="matrix(1 0 0 1 1001.2333 682.9471)" class="st16 st17 st18">BUY &amp; SELL MODELS</text>
<rect id="XMLID_9_" x="760.2" y="1.6" class="st15" width="95" height="12.9"/>
<text id="XMLID_21_" transform="matrix(1 0 0 1 760.2276 10.4704)" class="st17 st18">Linguistic model</text>
<rect id="XMLID_2_" x="2.3" y="110.6" class="st15" width="291.5" height="19.4"/>
<text id="XMLID_4_" transform="matrix(1 0 0 1 95.011 119.4479)" class="st16 st17 st18">EXTERNAL SOURCES</text>
<g id="v9qlls.tif">
	
		<image style="overflow:visible;" width="735" height="457" id="Слой_1_1_" xlink:href="953B15F41261A17E.png"  transform="matrix(0.3186 0 0 0.3186 29.0123 218.337)">
	</image>
</g>
<g id="n3oNd9.tif_1_">
	
		<image style="overflow:visible;" width="655" height="255" id="Слой_1_5_" xlink:href="953B15F41261A182.png"  transform="matrix(0.513 0 0 0.513 403 564.8319)">
	</image>
</g>
</svg>
