<?xml version="1.0" encoding="utf-8"?>
<!-- Generator: Adobe Illustrator 19.0.0, SVG Export Plug-In . SVG Version: 6.00 Build 0)  -->
<svg version="1.1" id="Слой_1" xmlns="http://www.w3.org/2000/svg" xmlns:xlink="http://www.w3.org/1999/xlink" x="0px" y="0px"
	 viewBox="0 0 1261.3 921.2" style="enable-background:new 0 0 1261.3 921.2;" xml:space="preserve">
<style type="text/css">
	.st0{fill:url(#XMLID_204_);}
	.st1{fill:#3198CC;}
	.st2{fill:#70C8F1;}
	.st3{fill:#FFFFFF;}
	.st4{fill:url(#XMLID_256_);}
	.st5{fill:url(#XMLID_257_);}
	.st6{fill:url(#XMLID_258_);}
	.st7{fill:url(#XMLID_260_);}
	.st8{fill:url(#XMLID_261_);}
	.st9{fill:url(#XMLID_262_);}
	.st10{fill:url(#XMLID_263_);}
	.st11{fill:url(#XMLID_264_);}
	.st12{fill:url(#XMLID_265_);}
	.st13{fill:url(#XMLID_266_);}
	.st14{fill:url(#XMLID_267_);}
	.st15{fill:none;}
	.st16{fill:#1D1D1B;}
	.st17{font-family:'MyriadPro-Regular';}
	.st18{font-size:25.0177px;}
	.st19{font-size:12.5089px;}
	.st20{fill:#E20616;}
	.st21{fill:#0098CC;}
	.st22{font-size:37.5266px;}
	.st23{fill:#8991B1;}
	.st24{fill:#62698F;}
	.st25{fill:#464A75;}
</style>
<g id="XMLID_75_">
	<linearGradient id="XMLID_204_" gradientUnits="userSpaceOnUse" x1="343.7599" y1="399.1417" x2="893.9574" y2="399.1417">
		<stop  offset="8.940361e-04" style="stop-color:#262B5B"/>
		<stop  offset="1" style="stop-color:#4D6CB1"/>
	</linearGradient>
	<path id="XMLID_14_" class="st0" d="M428.5,359c8.1-76.6,72.9-136.4,151.7-136.4c55,0,103.3,29.1,130.1,72.8c9-3,18.6-4.7,28.5-4.7
		c43.9,0,80.4,31.9,87.6,73.8C866,381.2,894,420.5,894,465.9v0c0,60.4-49.4,109.7-109.7,109.7H453.5c-60.4,0-109.7-49.4-109.7-109.7
		v0C343.8,414.1,380.1,370.4,428.5,359z"/>
	<g id="XMLID_286_">
		<path id="XMLID_203_" class="st1" d="M803.3,728.8h-33.4c-1.7,0-3.1-1.4-3.1-3.1v-60.5c0-1.7,1.4-3.1,3.1-3.1h33.4
			c1.7,0,3.1,1.4,3.1,3.1v60.5C806.3,727.4,805,728.8,803.3,728.8z M769.9,664.2c-0.6,0-1.1,0.5-1.1,1.1v60.5c0,0.6,0.5,1.1,1.1,1.1
			h33.4c0.6,0,1.1-0.5,1.1-1.1v-60.5c0-0.6-0.5-1.1-1.1-1.1H769.9z"/>
		<path id="XMLID_202_" class="st1" d="M800.2,715.3H773c-1.7,0-3-1.4-3-3.1v-40.7c0-1.7,1.4-3.1,3-3.1h27.2c1.7,0,3,1.4,3,3.1v40.7
			C803.2,713.9,801.9,715.3,800.2,715.3z M773,670.4c-0.6,0-1,0.5-1,1.1v40.7c0,0.6,0.5,1.1,1,1.1h27.2c0.6,0,1-0.5,1-1.1v-40.7
			c0-0.6-0.5-1.1-1-1.1H773z"/>
		<path id="XMLID_201_" class="st1" d="M786.6,724.6c-2.3,0-4.1-1.9-4.1-4.1c0-2.3,1.9-4.1,4.1-4.1c2.3,0,4.1,1.9,4.1,4.1
			C790.7,722.8,788.9,724.6,786.6,724.6z M786.6,718.4c-1.2,0-2.1,1-2.1,2.1c0,1.2,1,2.1,2.1,2.1c1.2,0,2.1-1,2.1-2.1
			C788.7,719.3,787.8,718.4,786.6,718.4z"/>
		<path id="XMLID_200_" class="st1" d="M775.1,680.9c-0.3,0-0.6-0.1-0.8-0.3c-0.4-0.4-0.3-1,0.1-1.4l7.3-6.3c0.4-0.4,1-0.3,1.4,0.1
			c0.4,0.4,0.3,1-0.1,1.4l-7.3,6.3C775.6,680.8,775.3,680.9,775.1,680.9z"/>
		<path id="XMLID_199_" class="st1" d="M774.6,688.7c-0.3,0-0.5-0.1-0.7-0.3c-0.4-0.4-0.4-1,0.1-1.4l14.1-13c0.4-0.4,1-0.4,1.4,0.1
			c0.4,0.4,0.4,1-0.1,1.4l-14.1,13C775.1,688.6,774.8,688.7,774.6,688.7z"/>
		<path id="XMLID_198_" class="st1" d="M789.7,667.3h-6.3c-0.6,0-1-0.4-1-1s0.4-1,1-1h6.3c0.6,0,1,0.4,1,1S790.3,667.3,789.7,667.3z
			"/>
	</g>
	<g id="XMLID_285_">
		<path id="XMLID_197_" class="st1" d="M731.5,714.9h-63.8c-1.8,0-3.3-1.5-3.3-3.3v-45.5c0-1.8,1.5-3.3,3.3-3.3h63.8
			c1.8,0,3.3,1.5,3.3,3.3v45.5C734.8,713.5,733.3,714.9,731.5,714.9z M667.8,664.8c-0.7,0-1.3,0.6-1.3,1.3v45.5
			c0,0.7,0.6,1.3,1.3,1.3h63.8c0.7,0,1.3-0.6,1.3-1.3v-45.5c0-0.7-0.6-1.3-1.3-1.3H667.8z"/>
		<path id="XMLID_196_" class="st1" d="M730.3,703.5h-61.2v-36.2h61.2V703.5z M671.1,701.5h57.2v-32.2h-57.2V701.5z"/>
		<path id="XMLID_195_" class="st1" d="M711,728.6h-21.6c-1.8,0-3.3-1.5-3.3-3.3v-0.6l5.7-3.4v-6.3c0-0.6,0.4-1,1-1s1,0.4,1,1v7.4
			l-5.6,3.4c0.2,0.5,0.6,0.8,1.2,0.8H711c0.5,0,1-0.3,1.2-0.8l-5.6-3.4v-7.4c0-0.6,0.4-1,1-1s1,0.4,1,1v6.3l5.7,3.4v0.6
			C714.3,727.1,712.9,728.6,711,728.6z"/>
		<path id="XMLID_194_" class="st1" d="M674,679.6c-0.3,0-0.5-0.1-0.7-0.3c-0.4-0.4-0.4-1,0-1.4l6.8-6.8c0.4-0.4,1-0.4,1.4,0
			s0.4,1,0,1.4l-6.8,6.8C674.6,679.5,674.3,679.6,674,679.6z"/>
		<path id="XMLID_174_" class="st1" d="M673.5,688.2c-0.3,0-0.5-0.1-0.7-0.3c-0.4-0.4-0.4-1,0-1.4l14.2-14.2c0.4-0.4,1-0.4,1.4,0
			s0.4,1,0,1.4l-14.2,14.2C674,688.1,673.7,688.2,673.5,688.2z"/>
	</g>
	<g id="XMLID_287_">
		<path id="XMLID_173_" class="st1" d="M902.3,728.8h-33.4c-1.7,0-3.1-1.4-3.1-3.1v-60.5c0-1.7,1.4-3.1,3.1-3.1h33.4
			c1.7,0,3.1,1.4,3.1,3.1v60.5C905.4,727.4,904,728.8,902.3,728.8z M868.9,664.2c-0.6,0-1.1,0.5-1.1,1.1v60.5c0,0.6,0.5,1.1,1.1,1.1
			h33.4c0.6,0,1.1-0.5,1.1-1.1v-60.5c0-0.6-0.5-1.1-1.1-1.1H868.9z"/>
		<path id="XMLID_119_" class="st1" d="M899.2,723.1H872c-1.7,0-3-1.5-3-3.4v-47.7c0-1.9,1.4-3.4,3-3.4h27.2c1.7,0,3,1.5,3,3.4v47.7
			C902.2,721.5,900.9,723.1,899.2,723.1z M872,670.4c-0.6,0-1,0.7-1,1.4v47.7c0,0.8,0.5,1.4,1,1.4h27.2c0.6,0,1-0.7,1-1.4v-47.7
			c0-0.8-0.5-1.4-1-1.4H872z"/>
		<path id="XMLID_118_" class="st1" d="M874.1,680.9c-0.3,0-0.6-0.1-0.8-0.3c-0.4-0.4-0.3-1,0.1-1.4l7.3-6.3c0.4-0.4,1-0.3,1.4,0.1
			c0.4,0.4,0.3,1-0.1,1.4l-7.3,6.3C874.6,680.8,874.4,680.9,874.1,680.9z"/>
		<path id="XMLID_117_" class="st1" d="M873.6,688.7c-0.3,0-0.5-0.1-0.7-0.3c-0.4-0.4-0.4-1,0.1-1.4l14.1-13c0.4-0.4,1-0.4,1.4,0.1
			c0.4,0.4,0.4,1-0.1,1.4l-14.1,13C874.1,688.6,873.9,688.7,873.6,688.7z"/>
		<path id="XMLID_241_" class="st1" d="M888.7,667.3h-6.3c-0.6,0-1-0.4-1-1s0.4-1,1-1h6.3c0.6,0,1,0.4,1,1S889.3,667.3,888.7,667.3z
			"/>
	</g>
	<path id="XMLID_699_" class="st2" d="M423.8,168.9H253.6c-2.2,0-4-1.8-4-4V4.5c0-2.2,1.8-4,4-4h170.2c2.2,0,4,1.8,4,4v160.4
		C427.8,167.1,426,168.9,423.8,168.9z"/>
	<circle id="XMLID_97_" class="st3" cx="451.9" cy="466" r="70.9"/>
	<circle id="XMLID_98_" class="st3" cx="619.7" cy="466" r="70.9"/>
	<circle id="XMLID_101_" class="st3" cx="785.5" cy="466" r="70.9"/>
	<linearGradient id="XMLID_256_" gradientUnits="userSpaceOnUse" x1="125.6233" y1="789.7452" x2="268.4328" y2="789.7452">
		<stop  offset="8.940361e-04" style="stop-color:#262B5B"/>
		<stop  offset="1" style="stop-color:#4D6CB1"/>
	</linearGradient>
	<path id="XMLID_130_" class="st4" d="M264.4,829H129.6c-2.2,0-4-1.8-4-4v-70.4c0-2.2,1.8-4,4-4h134.8c2.2,0,4,1.8,4,4V825
		C268.4,827.2,266.6,829,264.4,829z"/>
	<linearGradient id="XMLID_257_" gradientUnits="userSpaceOnUse" x1="283.0265" y1="789.7452" x2="425.836" y2="789.7452">
		<stop  offset="8.940361e-04" style="stop-color:#262B5B"/>
		<stop  offset="1" style="stop-color:#4D6CB1"/>
	</linearGradient>
	<path id="XMLID_120_" class="st5" d="M421.8,829H287c-2.2,0-4-1.8-4-4v-70.4c0-2.2,1.8-4,4-4h134.8c2.2,0,4,1.8,4,4V825
		C425.8,827.2,424,829,421.8,829z"/>
	<linearGradient id="XMLID_258_" gradientUnits="userSpaceOnUse" x1="125.6233" y1="881.998" x2="268.4328" y2="881.998">
		<stop  offset="8.940361e-04" style="stop-color:#262B5B"/>
		<stop  offset="1" style="stop-color:#4D6CB1"/>
	</linearGradient>
	<path id="XMLID_110_" class="st6" d="M264.4,921.2H129.6c-2.2,0-4-1.8-4-4v-70.4c0-2.2,1.8-4,4-4h134.8c2.2,0,4,1.8,4,4v70.4
		C268.4,919.4,266.6,921.2,264.4,921.2z"/>
	<linearGradient id="XMLID_260_" gradientUnits="userSpaceOnUse" x1="283.0265" y1="881.998" x2="425.836" y2="881.998">
		<stop  offset="8.940361e-04" style="stop-color:#262B5B"/>
		<stop  offset="1" style="stop-color:#4D6CB1"/>
	</linearGradient>
	<path id="XMLID_109_" class="st7" d="M421.8,921.2H287c-2.2,0-4-1.8-4-4v-70.4c0-2.2,1.8-4,4-4h134.8c2.2,0,4,1.8,4,4v70.4
		C425.8,919.4,424,921.2,421.8,921.2z"/>
	<linearGradient id="XMLID_261_" gradientUnits="userSpaceOnUse" x1="662.9832" y1="835.8716" x2="918.3725" y2="835.8716">
		<stop  offset="8.940361e-04" style="stop-color:#262B5B"/>
		<stop  offset="1" style="stop-color:#4D6CB1"/>
	</linearGradient>
	<path id="XMLID_108_" class="st8" d="M914.4,921.2H667c-2.2,0-4-1.8-4-4V754.5c0-2.2,1.8-4,4-4h247.4c2.2,0,4,1.8,4,4v162.7
		C918.4,919.4,916.6,921.2,914.4,921.2z"/>
	<linearGradient id="XMLID_262_" gradientUnits="userSpaceOnUse" x1="1082.5513" y1="835.8716" x2="1260.8026" y2="835.8716">
		<stop  offset="8.940361e-04" style="stop-color:#262B5B"/>
		<stop  offset="1" style="stop-color:#4D6CB1"/>
	</linearGradient>
	<path id="XMLID_105_" class="st9" d="M1256.8,921.2h-170.3c-2.2,0-4-1.8-4-4V754.5c0-2.2,1.8-4,4-4h170.3c2.2,0,4,1.8,4,4v162.7
		C1260.8,919.4,1259,921.2,1256.8,921.2z"/>
	<linearGradient id="XMLID_263_" gradientUnits="userSpaceOnUse" x1="1.759751e-02" y1="465.3688" x2="178.4276" y2="465.3688">
		<stop  offset="8.940361e-04" style="stop-color:#262B5B"/>
		<stop  offset="1" style="stop-color:#4D6CB1"/>
	</linearGradient>
	<path id="XMLID_690_" class="st10" d="M178.4,571V359.7c0-2.3-1.9-4.2-4.2-4.2H4.2c-2.3,0-4.2,1.9-4.2,4.2V571
		c0,2.3,1.9,4.2,4.2,4.2h170.1C176.6,575.2,178.4,573.3,178.4,571z"/>
	<linearGradient id="XMLID_264_" gradientUnits="userSpaceOnUse" x1="249.6488" y1="84.7281" x2="427.8231" y2="84.7281">
		<stop  offset="8.940361e-04" style="stop-color:#262B5B"/>
		<stop  offset="1" style="stop-color:#4D6CB1"/>
	</linearGradient>
	<path id="XMLID_689_" class="st11" d="M423.7,0.5H253.8c-2.3,0-4.2,1.9-4.2,4.2v160.1c0,2.3,1.9,4.2,4.2,4.2h169.8
		c2.3,0,4.2-1.9,4.2-4.2V4.7C427.8,2.4,425.9,0.5,423.7,0.5z"/>
	<linearGradient id="XMLID_265_" gradientUnits="userSpaceOnUse" x1="665.0255" y1="84.2068" x2="843.1998" y2="84.2068">
		<stop  offset="8.940361e-04" style="stop-color:#262B5B"/>
		<stop  offset="1" style="stop-color:#4D6CB1"/>
	</linearGradient>
	<path id="XMLID_688_" class="st12" d="M669.2,168.4H839c2.3,0,4.2-1.9,4.2-4.2V4.2c0-2.3-1.9-4.2-4.2-4.2H669.2
		c-2.3,0-4.2,1.9-4.2,4.2v160.1C665,166.5,666.9,168.4,669.2,168.4z"/>
	<linearGradient id="XMLID_266_" gradientUnits="userSpaceOnUse" x1="1082.2948" y1="464.4187" x2="1260.7048" y2="464.4187">
		<stop  offset="8.940361e-04" style="stop-color:#262B5B"/>
		<stop  offset="1" style="stop-color:#4D6CB1"/>
	</linearGradient>
	<path id="XMLID_687_" class="st13" d="M1256.5,353.4h-49.8l-32.8,45.7l-31.7-45.7h-55.8c-2.3,0-4.2,1.9-4.2,4.2v213.8
		c0,2.3,1.9,4.2,4.2,4.2h170.1c2.3,0,4.2-1.9,4.2-4.2V357.5C1260.7,355.2,1258.8,353.4,1256.5,353.4z"/>
	<linearGradient id="XMLID_267_" gradientUnits="userSpaceOnUse" x1="1082.2947" y1="84.6103" x2="1260.7046" y2="84.6103">
		<stop  offset="8.940361e-04" style="stop-color:#262B5B"/>
		<stop  offset="1" style="stop-color:#4D6CB1"/>
	</linearGradient>
	<path id="XMLID_686_" class="st14" d="M1086.5,169h170.1c2.3,0,4.2-1.9,4.2-4.2V4.3c0-2.3-1.9-4.2-4.2-4.2h-170.1
		c-2.3,0-4.2,1.9-4.2,4.2v160.5C1082.3,167.2,1084.2,169,1086.5,169z"/>
	<rect id="XMLID_474_" x="380.8" y="442.9" class="st15" width="143.2" height="68.8"/>
	<text id="XMLID_684_" transform="matrix(1 0 0 1 442.3195 460.6711)"><tspan x="0" y="0" class="st16 st17 st18">M</tspan><tspan x="-28.6" y="25" class="st16 st17 st19">MARKETPLACE</tspan></text>
	<rect id="XMLID_472_" x="548.3" y="444.3" class="st15" width="143.2" height="62.5"/>
	<text id="XMLID_682_" transform="matrix(1 0 0 1 609.2116 462.0613)"><tspan x="0" y="0" class="st16 st17 st18">AI</tspan><tspan x="-25.8" y="25" class="st16 st17 st19">AI - DESIDNER</tspan></text>
	<rect id="XMLID_470_" x="715.6" y="442.2" class="st15" width="141.1" height="54.7"/>
	<text id="XMLID_680_" transform="matrix(1 0 0 1 775.5392 459.9768)"><tspan x="0" y="0" class="st16 st17 st18">W</tspan><tspan x="-20.5" y="25" class="st16 st17 st19">WORKZILLA</tspan></text>
	<rect id="XMLID_466_" x="464.5" y="543.3" class="st15" width="136.9" height="13.2"/>
	<text id="XMLID_678_" transform="matrix(1 0 0 1 498.6584 552.2048)" class="st3 st17 st19">приложение</text>
	<rect id="XMLID_462_" x="636.2" y="543" class="st15" width="136.9" height="13.2"/>
	<text id="XMLID_676_" transform="matrix(1 0 0 1 657.8801 551.8572)" class="st3 st17 st19">данные разметка</text>
	<rect id="XMLID_459_" x="680.7" y="405.2" class="st15" width="76.4" height="14.6"/>
	<text id="XMLID_674_" transform="matrix(1 0 0 1 680.6584 414.0945)" class="st3 st17 st19">ТОКЕНЫ</text>
	<g id="XMLID_627_">
		<path id="XMLID_669_" class="st20" d="M558.7,316.7c-3.9,0.5-7.1,2.2-9.5,5.3c-1.7,2.3-2.6,4.9-2.6,7.8c0,5.5,4.1,11.9,12.1,12.9
			c0,0.4,0,0.7,0,1.2c-12.4,0-24.8,0-37.2,0c0-0.4,0-0.7,0-1.2c4.3-0.5,7.7-2.5,10.1-6.1c1.5-2.3,2.1-4.7,2-7.4
			c-0.2-3.3-1.4-6.1-3.7-8.4c-2.3-2.3-5.1-3.6-8.4-4c0.3-1.2,0.6-2.4,0.8-3.5c1.7-9.2,1.3-18.2-1.8-27.1c-1.1-3.2-2.7-6.1-4.9-8.7
			c-1.3-1.5-2.9-2.7-4.7-3.6c-0.1,0-0.2-0.1-0.4-0.2c0.4-0.3,0.7-0.7,1-0.9c1.4-1.2,3.1-2,4.8-2.7c3.6-1.4,7.4-2.3,11.2-2.9
			c6.4-1,12.9-1.1,19.4-0.6c5.4,0.4,10.8,1.3,16,3.1c1.9,0.7,3.7,1.5,5.4,2.7c0.5,0.4,0.9,0.8,1.5,1.2c-0.4,0.2-0.7,0.4-1,0.5
			c-2.3,1.2-4.1,3-5.6,5.1c-2.3,3.3-3.8,6.9-4.7,10.8c-2.2,8.8-2.2,17.6,0.1,26.4C558.7,316.5,558.7,316.5,558.7,316.7z
			 M513.1,273.3c2.6,1.9,4.6,4,6.1,6.6c1.3,2.1,2.3,4.4,3.1,6.8c2.7,8.5,3,17.1,1.7,25.8c-0.2,1-0.4,2.1-0.6,3.1
			c6.3,1.8,10.6,5.5,11.5,12.2c0.9,6.7-2,11.5-7.8,14.9c1.2,0.2,25.5,0.2,26,0c-7.7-4.7-8.3-9.9-7.7-14.8
			c0.8-6.7,5.2-10.4,11.5-12.2c0-0.1,0-0.1,0-0.2c-1.3-5.6-1.5-11.2-1.1-16.9c0.3-4.7,1.2-9.3,3-13.8c1.4-3.6,3.4-7,6.3-9.6
			c0.7-0.6,1.4-1.2,2.1-1.8c-0.3-0.2-0.6-0.4-0.9-0.6c-2-1.2-4.1-1.9-6.3-2.6c-4.4-1.3-9-2-13.6-2.3c-7.9-0.6-15.6-0.1-23.3,1.6
			c-3.1,0.7-6,1.7-8.8,3.2C513.9,272.8,513.6,273,513.1,273.3z"/>
		<path id="XMLID_665_" class="st20" d="M547.4,366.8c-0.4,0-0.7,0-1,0c-1.9-0.3-3.8,0-5.8,0.3c-2.1,0.3-4-0.1-5.7-1.5
			c-2.3-1.8-2.9-5.5-1.2-7.9c1-1.5,2.5-2.1,4.2-2.2c0.8,0,1.6,0,2.4,0.1c2.3,0.3,4.6,0.2,6.8,0c0.4,0,0.8-0.1,1.1,0
			c2.3,0.3,4.7,0,7-0.2c1.3-0.2,2.5,0,3.7,0.5c1.2,0.6,2.1,1.5,2.5,2.8c1.5,4.6-1.4,7.7-5,8.3c-1.1,0.2-2.3,0.1-3.4-0.2
			c-0.2-0.1-0.4-0.1-0.6-0.2c0,0.2-0.1,0.4-0.1,0.6c0,1,0,2,0,3c0.1,1.1,0.1,1.6,1.6,1.7c0.4,0,0.7,0.2,0.6,0.6
			c0,0.3-0.1,0.6-0.5,0.6c-0.1,0-0.2,0-0.3,0c-2-0.2-4-0.2-6,0c-0.3,0-0.7,0.1-0.8-0.4c-0.1-0.4,0-0.8,0.6-0.8
			c1.6-0.2,1.6-0.3,1.6-1.8c0-3.8,0-7.6,0-11.4c0-0.2,0-0.4,0-0.5c0-1.1-0.4-1.5-1.6-1.5c-0.4,0-0.9,0.1-1.3,0.1
			c-0.9,0.2-1.2,0.5-1.2,1.4c0,2,0,4,0.1,6.1c0,1,0.4,1.3,1.3,1.4C547.7,365.7,547.7,365.8,547.4,366.8z M559.1,360.9
			c0-0.1,0-0.2,0-0.4c-0.1-2.3-1.8-4.4-5.1-3.7c-1.1,0.2-1.5,0.9-1.5,2c0,1,0,1.9,0,2.9c0,0.6,0,1.2,0.1,1.7c0.2,1.1,1,1.9,2.1,2
			c1.3,0.2,2.4-0.2,3.2-1.2C558.7,363.4,559.1,362.2,559.1,360.9z M542.3,360.8c0-0.6,0-1.3,0-1.9c0.1-1-0.4-1.5-1.2-1.9
			c-1.9-0.9-4.1,0-5,1.9c-0.8,1.8-0.4,4.3,1,5.7c0.2,0.2,0.5,0.4,0.8,0.6c1.6,1,4.6,0.3,4.5-2.5C542.3,362,542.3,361.4,542.3,360.8z
			"/>
		<path id="XMLID_662_" class="st20" d="M557.4,382.8c0-0.9,0-1.9,0-2.8c0-0.6-0.1-1.1-0.6-1.6c-0.2-0.2-0.2-0.6-0.2-1
			c0-0.1,0.4-0.2,0.6-0.2c1.6,0,3.2-0.1,4.8-0.1c0.2,0,0.5,0.1,0.7,0.2c0.3,0.4,0.1,0.9-0.5,0.9c-1.5,0-1.8,0.7-1.8,2.1
			c0,1.6,0,3.2,0,4.8c0,0.2,0,0.5,0,0.7c0.1,1.2,0.3,1.4,1.5,1.5c0.1,0,0.4,0,0.4,0.1c0.2,0.2,0.3,0.4,0.3,0.6
			c0.1,0.3-0.1,0.5-0.5,0.5c-0.2,0-0.5,0-0.7,0c-2-0.3-4.1-0.1-6.1,0c-0.5,0-1.1,0.1-1.6,0c-1.6-0.2-3.3-0.1-4.9,0.2
			c-1.7,0.3-3.4,0.2-5-0.6c-3.7-1.9-3.9-5.6-2.7-8.2c0.7-1.6,2.1-2.5,3.8-2.7c1.1-0.1,2.2-0.1,3.3,0c1.9,0.3,3.8,0.3,5.8,0.1
			c0.1,0,0.2,0,0.3,0c0.7,0,0.9,0.1,1,0.5c0,0.4-0.1,0.5-0.8,0.6c-1.1,0.1-1.4,0.4-1.4,1.6c0,1.9,0,3.7,0.1,5.6
			c0,1.3,0.5,1.7,1.8,1.7c0.3,0,0.6,0,0.9-0.1c1.1-0.1,1.4-0.4,1.5-1.5C557.4,384.9,557.4,383.9,557.4,382.8
			C557.4,382.8,557.4,382.8,557.4,382.8z M550.3,382.9C550.3,382.9,550.3,382.9,550.3,382.9c0-0.7,0-1.4,0-2.1
			c0-0.7-0.3-1.2-0.9-1.5c-0.4-0.2-0.8-0.4-1.2-0.5c-2.1-0.4-3.9,0.9-4.4,2.9c-0.4,1.9,0,3.6,1.3,5c0.9,1,2.3,1.2,3.6,0.7
			c1.2-0.5,1.6-1.5,1.6-2.8C550.3,384,550.3,383.4,550.3,382.9z"/>
		<path id="XMLID_661_" class="st20" d="M519.9,365.6c-3.8,1.2-7.5,1.9-11.3,1.1c-2.2-0.5-4.2-1.5-5.7-3.2c-2.6-2.9-3-9,1.1-12.3
			c2.7-2.2,5.8-3,9.2-2.6c1.9,0.2,3.7,0.7,5.5,1c0.6,0.1,0.7,0.4,0.8,1c0,0.7,0.1,1.5,0.2,2.2c0.1,1,0,1.1-1.1,0.9
			c-0.5-2.4-2.4-3.4-4.6-3.8c-1.3-0.2-2.7-0.2-4,0.2c-2.9,0.9-4.6,2.8-5.2,5.7c-0.8,3.7,0.9,7.3,4,9c2.1,1.1,4.3,1.1,6.5,0.4
			c0.5-0.2,0.8-0.4,0.7-1c-0.1-0.9,0-1.8,0-2.7c0-1-0.2-1.2-1.2-1.4c-0.4-0.1-0.8-0.1-1.3-0.2c0-0.1-0.1-0.3,0-0.4
			c0-0.6,0.1-0.7,0.7-0.7c0.8,0,1.6,0.1,2.5,0.1c1.4,0,2.9-0.1,4.3-0.1c0.7,0,0.9,0.2,0.8,0.7c0,0.2-0.3,0.3-0.4,0.5
			c0,0-0.1,0-0.2,0c-1.6,0.2-1.8,0.5-1.9,2.1c0,0.5,0,1,0,1.5c0,0.4,0,0.8,0.4,1.2C519.9,364.9,519.8,365.3,519.9,365.6z"/>
		<path id="XMLID_660_" class="st20" d="M521.5,382c-0.1-1.1-0.1-1.2,0.8-1.1c2.2,0.1,4.4,0.2,6.6,0c0.1,0,0.3-0.1,0.3,0
			c0.2,0.1,0.4,0.2,0.5,0.4c0.1,0.3,0,0.6-0.3,0.7c-0.2,0.1-0.3,0-0.5,0.1c-1.2,0.1-1.5,0.5-1.6,1.7c0,0.8,0,1.5,0,2.3
			c0,0.2,0.1,0.4,0.2,0.5c0.4,0.3,0.3,0.7,0.2,1.2c-1.1,0.3-2.3,0.7-3.5,0.9c-2.9,0.6-5.8,0.8-8.6-0.1c-1-0.3-2-0.8-2.9-1.3
			c-4.8-3-5.3-10.8-0.2-14.3c1.9-1.3,3.9-2.1,6.2-2.2c2.9-0.2,5.8,0.4,8.6,1.3c0.1,1.2,0.3,2.3,0.4,3.5c0,0.4-0.2,0.5-1,0.5
			c0-0.1-0.1-0.2-0.1-0.3c-0.4-1.7-1.6-2.8-3.3-3.2c-2.7-0.8-5.3-0.7-7.6,1c-2.2,1.6-3.2,3.9-3.1,6.5c0.1,3.3,1.6,5.7,4.5,7.2
			c2,0.9,4,0.9,6.1,0.2c0.8-0.3,0.8-0.3,0.8-1.1c0-0.9,0-1.8,0-2.7c0-0.9-0.3-1.2-1.2-1.4C522.3,382,521.9,382,521.5,382z"/>
		<path id="XMLID_659_" class="st20" d="M570.4,366.7c-0.4,0-0.8,0-1.2,0c-1.5-0.2-3.1-0.2-4.6,0c-0.3,0-0.7,0.1-1.1,0
			c-0.3,0-0.5-0.2-0.5-0.6c0-0.3,0.1-0.6,0.5-0.6c0.1,0,0.3,0,0.4,0c0.9-0.1,1.2-0.4,1.3-1.3c0-0.9,0-1.9,0-2.8c0-3.2,0-6.4,0-9.6
			c0-0.3,0-0.5,0-0.8c-0.1-0.6-0.3-0.8-0.9-0.9c-0.4-0.1-0.8-0.1-1.2-0.2c-0.1-0.9,0-1,0.7-1c2,0,4,0,6,0c0.7,0,0.8,0.1,0.7,1
			c-0.4,0.1-0.8,0.1-1.2,0.2c-0.6,0.1-1,0.5-1.1,1.1c0,0.8-0.1,1.5-0.1,2.3c0,0.8,0,1.7,0,2.6c0.3-0.2,0.6-0.3,0.8-0.4
			c1.6-0.7,3.3-0.8,5-0.3c2.3,0.6,3.7,2.5,3.7,4.9c0,0.8,0,1.7,0,2.5c0,0.4,0,0.7,0,1.1c0.1,1.3,0.3,1.5,1.6,1.7
			c0.4,0.1,0.6,0.2,0.6,0.7c0,0.5-0.3,0.6-0.7,0.6c-0.4,0-0.8-0.1-1.1-0.1c-1.3,0-2.7,0-4,0c-0.4,0-0.8,0.1-1.1,0.1
			c-0.4,0-0.6-0.2-0.6-0.6c0-0.4,0.1-0.6,0.5-0.6c0,0,0.1,0,0.1,0c1.4-0.2,1.6-0.4,1.6-1.7c0-1.1,0-2.2-0.1-3.3c0-0.9-0.4-1.8-1-2.5
			c-1.2-1.6-3.4-1.8-5.1-0.2c-0.2,0.2-0.3,0.5-0.3,0.7c0,1.7,0,3.4,0,5.1c0,0.3,0.1,0.5,0.1,0.8c0.1,0.7,0.5,1,1.1,1.2
			c0.1,0,0.2,0,0.3,0.1C570.7,365.7,570.7,365.7,570.4,366.7z"/>
		<path id="XMLID_658_" class="st20" d="M565.3,378.7c0-1.4,0-2.8,0-4.1c0-0.3,0-0.5,0-0.8c-0.1-1.2-0.3-1.4-1.5-1.5
			c-0.1,0-0.2,0-0.3,0c-0.4,0-0.5-0.3-0.5-0.6c0-0.3,0.2-0.5,0.5-0.5c0.1,0,0.2,0,0.4,0c1.9,0.3,3.8,0.1,5.7,0c0.2,0,0.4,0,0.5,0
			c0.3,0,0.5,0.2,0.5,0.5c0,0.4-0.2,0.6-0.5,0.6c-0.2,0-0.4,0-0.5,0c-1.1,0.1-1.3,0.4-1.3,1.4c0,3.2,0,6.4,0,9.6
			c0,0.5,0,0.9,0.1,1.4c0.1,0.7,0.3,1.3,0.6,1.9c0.3,0.6,0.7,1,1.4,1.2c0.5,0.1,0.7,0.4,0.6,0.8c-0.1,0.4-0.4,0.4-0.7,0.4
			c-1.8-0.1-3.1-0.8-4-2.4c-0.6-1-0.8-2.1-0.9-3.3C565.3,381.7,565.4,380.2,565.3,378.7C565.4,378.7,565.3,378.7,565.3,378.7z"/>
		<path id="XMLID_657_" class="st20" d="M538.3,387.6c0.1,1,0,1.1-0.8,1c-1.9-0.1-3.8-0.2-5.8,0c-0.8,0.1-0.9-0.1-0.9-1
			c0.3,0,0.6-0.1,0.9-0.1c1-0.2,1.3-0.5,1.4-1.5c0-0.2,0-0.4,0-0.5c0-1.9,0-3.8,0-5.7c0-1.1-0.3-1.4-1.4-1.5c-0.2,0-0.4,0-0.6-0.1
			c-0.2-0.1-0.4-0.3-0.4-0.5c0-0.2,0.2-0.4,0.4-0.6c0.1-0.1,0.3,0,0.5,0c0.9,0.1,1.8,0.1,2.7,0.2c0.5,0,0.5,0,0.8,0.7
			c0.7-0.6,1.5-0.9,2.4-0.9c0.9-0.1,1.7-0.1,2.6,0.2c-0.1,0.8-0.3,1-1,0.9c-1.1-0.2-2,0.3-2.5,1.4c-0.3,0.7-0.5,1.6-0.6,2.4
			c-0.1,1.4,0,2.8,0,4.2c0,0.9,0.2,1.1,1.1,1.3C537.6,387.5,537.9,387.6,538.3,387.6z"/>
		<path id="XMLID_656_" class="st20" d="M527.4,356.1c1.7-1,3.3-1.1,5-0.6c-0.1,0.8-0.4,0.9-1,0.8c-1.1-0.2-1.9,0.3-2.5,1.4
			c-0.4,0.8-0.6,1.6-0.6,2.5c0,1.3,0,2.6,0,3.9c0,1.1,0.2,1.2,1.2,1.4c0.3,0,0.6,0.1,0.9,0.1c0.1,0.9,0,1-0.8,1
			c-0.7,0-1.4-0.1-2.1-0.1c-1.3,0-2.5,0.1-3.8,0.1c-0.8,0-0.8,0-0.8-1c0.4-0.1,0.8-0.1,1.2-0.2c0.7-0.1,1-0.5,1.1-1.2
			c0-0.3,0.1-0.5,0.1-0.8c0-1.9,0-3.7,0-5.6c0-1.2-0.2-1.4-1.4-1.6c-0.1,0-0.3,0-0.4,0c-0.3,0-0.6-0.2-0.6-0.5
			c0-0.4,0.3-0.6,0.7-0.5c0.5,0,0.9,0,1.4,0.1c0.5,0,1,0.1,1.5,0.1C527,355.4,527.4,355.4,527.4,356.1z"/>
		<path id="XMLID_655_" class="st20" d="M559,369.7c0.1,0.1,0.3,0.1,0.4,0.2c0.5,0.5,1.1,1.1,1.6,1.6c0.3,0.3,0.3,0.6,0,0.8
			c-0.5,0.5-1.1,1-1.6,1.5c-0.3,0.3-0.6,0.3-0.9,0c-0.5-0.5-1-1-1.5-1.4c-0.2-0.2-0.4-0.5-0.1-0.8c0.6-0.6,1.2-1.2,1.9-1.9
			C558.8,369.8,558.9,369.8,559,369.7z"/>
		<path id="XMLID_628_" class="st20" d="M514.8,273.2c1.4-0.8,3.1-1.5,4.8-2c3.5-1.2,7.2-1.9,10.9-2.3c2.6-0.3,5.2-0.5,7.8-0.6
			c3.7-0.2,7.4,0.1,11.1,0.5c3.3,0.4,6.6,0.9,9.8,1.9c1.9,0.6,3.7,1.4,5.6,2.1c0.3,0.1,0.7,0.3,1.1,0.6c-0.5,0.4-0.9,0.8-1.3,1.2
			c-3.7,3.3-5.9,7.5-7.4,12.2c-1.3,3.9-2,7.9-2.2,12c-0.1,2.4-0.2,4.8-0.1,7.2c0.1,2.9,0.4,5.8,1,8.7c0,0.1,0,0.3,0.1,0.5
			c-4,0.9-6.8,3.3-9.1,6.5c-2.4,3.3-2.6,7.1-2.1,11c0.5,4,3,6.9,6.1,9.5c-7.2,0-14.2,0-21.3,0c4.3-3.4,6.1-7.9,6.1-11.5
			c0-1.6,0.1-3.2-0.3-4.7c-0.6-2.1-1.5-4-3-5.6c-1.8-1.9-3.7-3.7-6.2-4.6c-0.6-0.2-1.2-0.4-1.8-0.6c0-0.2,0.1-0.5,0.1-0.7
			c1-4.7,1.2-9.4,1-14.2c-0.2-5.1-1-10-2.7-14.8c-1.2-3.3-2.8-6.4-5.2-9.1C516.6,275.2,515.7,274.2,514.8,273.2z M542.7,291.4
			c-1.7-1.3-3.5-1.4-5.2,0c-1.5,1.3-1.6,3-0.8,4.7c-0.9,0.9-1.8,1.7-2.8,2.6c0.3,0.3,0.6,0.6,0.9,0.9c1-0.9,1.9-1.7,2.7-2.5
			c0.2,0.1,0.3,0.1,0.4,0.2c0.1,0.1,0.2,0.1,0.3,0.2c1.5,0.8,3,0.6,4.3-0.4c1.2-0.9,1.6-2.3,1.3-3.8c-0.1-0.5-0.2-0.8-0.2-0.8
			s1.1-1,1.3-1.1c0.8-0.6,1.6-1.2,2.4-1.9c-0.3-0.4-0.6-0.6-0.8-1C545.2,289.5,544,290.5,542.7,291.4z M543.8,336.6
			c0-2-1.7-3.7-3.7-3.7c-2,0-3.7,1.7-3.7,3.7c0,2,1.7,3.7,3.7,3.7C542.1,340.3,543.8,338.5,543.8,336.6z M533.4,276.2l1.3,0.6
			c0,0,2.4-1.5,3.1-2c0.3,0.2,0.5,0.4,0.7,0.5c1.1,0.6,2.2,0.6,3.2-0.1c1-0.7,1.5-1.6,1.3-2.8c-0.2-1.5-1.5-2.8-3.2-2.6
			c-1.7,0.1-3.1,1.6-3,3.2c0,0.3,0.1,0.7,0.1,0.7l-0.6,0.4L533.4,276.2z M540.6,316.7c1.7,2.5,2.3,5,0.6,7.7
			c-0.3-0.1-0.6-0.1-0.8-0.2c-1-0.1-1.8,0.2-2.4,1.1c-0.6,1-0.5,2.2,0.3,3.1c0.8,0.8,1.8,1.1,3,0.4c1.8-1.2,1.1-3.5,1.1-3.5
			s2.2-3.4,0.4-7.3c-0.3-0.6-1.2-2-1.4-2.2C541.1,316.1,540.9,316.4,540.6,316.7z M549.2,277.5c2.1-0.7,4.1-1.4,6.2-1.5
			c0.2,0.4,0.4,0.7,0.6,1c0.5,0.6,1.2,1,2,1c1.2,0,2.2-0.9,2.4-2.1c0.2-1-0.4-2.1-1.4-2.6c-2.2-1.1-3.8,1.3-3.8,1.3
			s-1.1,0.2-1.4,0.2c-1.9,0.4-3.7,0.9-5.7,1.7C548.6,276.9,548.9,277.2,549.2,277.5z M526.6,284c0.1-0.2,0.6-1.3,0.6-1.3
			s-1.3-1.5-1.6-2c-0.7-1-1.5-1.9-2-3.1c0.2-0.2,0.5-0.4,0.6-0.6c0.8-1.1,0.7-2.3-0.1-3.2c-0.8-0.9-2.1-1.1-3.1-0.4
			c-1,0.6-1.5,1.9-1,3c0.3,0.8,0.9,1.4,1.8,1.5c0.2,0,0.6,0.2,0.6,0.2s0.3,0.4,0.4,0.6C523.5,280,525.5,282.9,526.6,284z
			 M550.3,309.4c-1.5,0.3-2.3,1.7-2.1,2.9c0.2,1.2,1.2,2.1,2.4,2.2c0.9,0.1,2-0.7,2.4-1.6c0.5-1.2,0.2-2.7-1.3-3.3
			c0.3-2.2-0.6-4.1-0.6-4.1l-1,1.4C550,307,550.4,308,550.3,309.4z M531.4,310.3c-1-1-2.6-1-3.6-0.1c-0.8,0.7-1.1,1.9-0.6,2.9
			s1.6,1.6,2.5,1.4c1.8-0.3,2.3-1.4,2.3-3c0.5-0.3,1-0.6,1.7-1c-0.4-0.4-0.7-0.6-0.9-0.9C532.3,309.9,531.9,310.1,531.4,310.3z
			 M544,310.1c-2,2-4.1,3.8-5.6,6.1c-0.7,1-1.3,2.2-1.6,3.4c-0.4,1.7-0.2,3.3,0.7,5c0.4-0.3,0.7-0.6,1-0.8c-1.1-2.3-0.6-4.4,0.7-6.4
			c0.6-0.8,1.2-1.7,1.9-2.4c1.1-1.2,2.2-2.3,3.3-3.4c0.2-0.2,0.4-0.4,0.7-0.7C544.7,310.5,544.4,310.3,544,310.1z M546.4,278.7
			c-0.6-0.6-1-0.8-1-0.8s-6.6,2.7-11.4,7.4c-0.5,0.4-0.9,0.9-1.5,1.5c0.4,0.3,0.7,0.5,1,0.8C537.3,283.7,541.6,280.9,546.4,278.7z
			 M530.7,288.7c-0.7,1.1-1.3,2.1-1.9,3.1c-1.3,2.4-1.9,4.9-1.6,7.7c0.2,1.6,0.8,3,1.7,4.4c0.4-0.7,0.8-1.4,0.8-1.4
			s-0.2-0.3-0.4-0.7c-1-1.8-1.1-3.7-0.7-5.6c0.5-2.1,1.3-4.1,2.6-5.9c0.2-0.2,0.3-0.5,0.5-0.8C531.4,289.3,531.1,289.1,530.7,288.7z
			 M548.1,299.6c0,0,0.1-0.1,0.2-0.2c1.8-2.1,3.4-4.2,4.3-6.9c0.7-2.1,1.1-4.3,0.7-6.5c0-0.2-0.2-0.6-0.2-0.6l-1.1,1
			c0,0,0.1,0.4,0.1,0.8c0.1,1.4-0.1,2.8-0.5,4.1c-0.9,2.4-2.1,4.7-3.9,6.6c-0.1,0.2-0.5,0.5-0.5,0.5L548.1,299.6z M552.5,294.7
			c-0.4,0.6-1,1.8-1,1.8s0.1,0.4,0.1,0.6c0.3,2.4-0.4,4.5-1.8,6.4c-1,1.5-3.6,4.3-3.8,4.5c0.4,0.2,0.8,0.5,1.1,0.7
			c0.2-0.2,2.1-2.3,2.8-3.2c1.1-1.4,2-3,2.5-4.7C553.2,298.8,553.1,296.8,552.5,294.7z M527.6,292.5c0.4-0.7,0.8-1.6,0.8-1.6
			s-0.1-0.6-0.2-1c-0.3-1.4-0.2-2.9,0.1-4.3c0.6-2.3,1.9-4.3,3.5-6c0.2-0.2,0.6-0.6,0.6-0.6s-0.9-0.4-1.3-0.5
			C527.1,282.3,525.6,287.9,527.6,292.5z M539.3,280.2c0,0-7-4.6-13.9-5.4c0,0.5,0,0.9,0,1.3c0.1,0.1,5.3,0.8,10,3.5
			c0.8,0.4,2.7,1.5,2.7,1.5L539.3,280.2z M540.8,282.6c3.9,2.8,7.3,5.8,9.6,10.1c0.2-0.5,0.6-1.6,0.6-1.6s-0.2-0.3-0.3-0.5
			c-0.8-1.1-1.5-2.2-2.3-3.2c-1.7-1.9-3.7-3.7-5.8-5.2c-0.2-0.1-0.4-0.3-0.7-0.4C541.6,282.1,541.2,282.3,540.8,282.6z M529.9,294.5
			c-0.3,0.5-0.5,1.6-0.5,1.6s0.2,0.5,0.5,0.9c2.3,3.1,5.1,5.8,8.2,8.1c0.1,0,0.3,0.2,0.3,0.2s0.7-0.5,1-0.8
			C535.7,301.7,532.3,298.7,529.9,294.5z M536.3,309.1c3.6-2.2,6.9-4.6,9.9-7.5c-0.3-0.4-0.6-0.6-0.9-0.9c-3.1,2.9-6.4,5.3-10,7.5
			C535.7,308.5,535.9,308.8,536.3,309.1z M552.1,282.6c-1.9-3.7-5.1-6.3-8.4-8.5c-0.1,0.2-0.2,0.4-0.3,0.6c-0.1,0.2-0.2,0.3-0.3,0.5
			c3.3,2.2,6.2,4.6,8.1,8.4C551.7,283.1,552,282.8,552.1,282.6z M549.5,287.7c3.1-2.6,6-5.3,8-8.9c-0.5-0.1-0.8-0.3-1.3-0.4
			c-1.9,3.3-4.7,5.8-7.6,8.4C549,287.1,549.2,287.4,549.5,287.7z M531.5,305.3c-0.3,0.5-0.6,1.2-0.6,1.2s2.5,2.7,3.4,3.5
			c1.3,1.3,4.2,4.2,4.4,4.3c0.3-0.3,0.5-0.6,0.8-0.9C536.8,310.7,534.2,308,531.5,305.3z M529.4,285c-0.3,0.5-0.6,1.1-0.6,1.1
			s4.8,4,6.9,5.7c0.1,0.1,0.2,0.1,0.3,0.2c0.3-0.3,0.5-0.6,0.8-0.9C534.3,289,531.8,287,529.4,285z M529.8,308.9
			c0-1.4,0.3-2.6,0.9-3.8c0.6-1.1,1.2-2,2.2-3.3c-0.2-0.2-0.6-0.6-0.9-0.9c-2.2,2.2-3.7,5.8-3.4,8
			C528.8,308.9,529.5,308.9,529.8,308.9z M549.5,302.8c-0.9-1.7-3.9-4.9-5.5-6c-0.1,0.1-0.3,0.3-0.4,0.4c-0.1,0.1-0.2,0.3-0.4,0.5
			c2.1,1.9,4,3.8,5.6,6.2C549.1,303.4,549.3,303.1,549.5,302.8z M547.4,311.2c0.2-0.5,0.4-0.8,0.6-1.2c-2.1-1.2-4.1-2.5-6.2-3.7
			c-0.3,0.2-0.6,0.5-1.1,0.8C543,308.5,545.2,309.8,547.4,311.2z"/>
	</g>
	<rect id="XMLID_411_" y="472.6" class="st15" width="177.4" height="70.1"/>
	<text id="XMLID_625_" transform="matrix(1 0 0 1 39.8659 481.4993)"><tspan x="0" y="0" class="st3 st17 st19">SMART CONTRACT</tspan><tspan x="21.5" y="15" class="st3 st17 st19">ЦЕНА: 100</tspan><tspan x="17.4" y="30" class="st3 st17 st19">ЗАПРСОВ: 5</tspan><tspan x="5.7" y="45" class="st3 st17 st19">CLASSIFICATION</tspan></text>
	<rect id="XMLID_409_" x="199.1" y="438.2" class="st15" width="130.3" height="33.4"/>
	<text id="XMLID_623_" transform="matrix(1 0 0 1 199.092 447.0979)"><tspan x="0" y="0" class="st16 st17 st19">Заключить контракт на </tspan><tspan x="0" y="15" class="st16 st17 st19">продажу application</tspan></text>
	<rect id="XMLID_407_" x="237.7" y="659.7" class="st15" width="140.7" height="27.3"/>
	<text id="XMLID_621_" transform="matrix(1 0 0 1 237.6574 668.6003)"><tspan x="0" y="0" class="st16 st17 st19">Покупка решения</tspan><tspan x="0" y="15" class="st16 st17 st19">за 100 gai</tspan></text>
	<rect id="XMLID_405_" x="360.8" y="714.2" class="st15" width="109.8" height="24.9"/>
	<text id="XMLID_619_" transform="matrix(1 0 0 1 360.7941 723.072)" class="st16 st17 st19">Решение (api, web)</text>
	<rect id="XMLID_403_" x="126.1" y="786.4" class="st15" width="142.8" height="27.3"/>
	<text id="XMLID_617_" transform="matrix(1 0 0 1 168.0363 795.3259)" class="st3 st17 st19">СТАРТАПЫ</text>
	<rect id="XMLID_401_" x="284" y="786.4" class="st15" width="142.3" height="27.3"/>
	<text id="XMLID_615_" transform="matrix(1 0 0 1 298.1559 795.3259)" class="st3 st17 st19">БЛОКЧЕЙН ПРОЕКТЫ</text>
	<rect id="XMLID_399_" x="125.8" y="879.1" class="st15" width="142.8" height="27.3"/>
	<text id="XMLID_613_" transform="matrix(1 0 0 1 147.6315 888.0037)" class="st3 st17 st19">КРУПНЫЙ БИЗНЕС</text>
	<rect id="XMLID_397_" x="283.7" y="879.6" class="st15" width="143" height="27.3"/>
	<text id="XMLID_611_" transform="matrix(1 0 0 1 296.5104 888.5242)" class="st3 st17 st19">ЭКСПЕРЕМЕНТАЛЬНО</text>
	<rect id="XMLID_395_" x="1084.1" y="495.4" class="st15" width="176.7" height="62.9"/>
	<text id="XMLID_609_" transform="matrix(1 0 0 1 1123.5803 504.2551)"><tspan x="0" y="0" class="st3 st17 st19">SMART CONTRACT</tspan><tspan x="25.1" y="15" class="st3 st17 st19">СРОК: 10</tspan><tspan x="16.1" y="30" class="st3 st17 st19">ДАННЫЕ: 20</tspan><tspan x="10.1" y="45" class="st3 st17 st19">ТОЧНОСТЬ: 25</tspan></text>
	<rect id="XMLID_393_" x="916.9" y="439.3" class="st15" width="115.5" height="46.6"/>
	<text id="XMLID_607_" transform="matrix(1 0 0 1 916.9396 448.1375)"><tspan x="0" y="0" class="st16 st17 st19">Заключить контракт </tspan><tspan x="0" y="15" class="st16 st17 st19">на разметку</tspan></text>
	<rect id="XMLID_391_" x="449.8" y="57.2" class="st15" width="175.1" height="33.4"/>
	<text id="XMLID_605_" transform="matrix(1 0 0 1 449.7922 66.1145)"><tspan x="0" y="0" class="st16 st17 st19">Заключить контракты на ИИТ, </tspan><tspan x="0" y="15" class="st16 st17 st19">собственность</tspan></text>
	<rect id="XMLID_389_" x="251.7" y="84.2" class="st15" width="176.7" height="65.5"/>
	<text id="XMLID_603_" transform="matrix(1 0 0 1 321.676 93.0393)"><tspan x="0" y="0" class="st3 st17 st19">SMART </tspan><tspan x="-10.7" y="15" class="st3 st17 st19">CONTRACT</tspan><tspan x="-38.5" y="30" class="st3 st17 st19">ИНТЕЛЛЕКТУАЛЬНАЯ</tspan><tspan x="-28.8" y="45" class="st3 st17 st19">СОБСТВЕННОСТЬ</tspan></text>
	<rect id="XMLID_387_" x="529.4" y="785.4" class="st15" width="103.2" height="27.3"/>
	<text id="XMLID_601_" transform="matrix(1 0 0 1 529.4416 794.2781)" class="st16 st17 st19">GAI за работу</text>
	<rect id="XMLID_383_" x="688.8" y="642.9" class="st15" width="36" height="13.2"/>
	<text id="XMLID_599_" transform="matrix(1 0 0 1 688.8264 651.7449)" class="st16 st17 st19">WEB</text>
	<rect id="XMLID_379_" x="777.4" y="643" class="st15" width="36" height="13.2"/>
	<text id="XMLID_597_" transform="matrix(1 0 0 1 777.4308 651.9187)" class="st16 st17 st19">ISO</text>
	<rect id="XMLID_375_" x="863.8" y="643" class="st15" width="73" height="14.2"/>
	<text id="XMLID_595_" transform="matrix(1 0 0 1 863.7805 651.9187)" class="st16 st17 st19">Android</text>
	<rect id="XMLID_371_" x="931.4" y="787.3" class="st15" width="137.1" height="14.2"/>
	<text id="XMLID_593_" transform="matrix(1 0 0 1 931.3742 796.1921)" class="st16 st17 st19">Вывод GAI для продажи</text>
	<rect id="XMLID_367_" x="1082.6" y="782.2" class="st15" width="178.4" height="14.2"/>
	<text id="XMLID_591_" transform="matrix(1 0 0 1 1152.0383 791.0916)" class="st3 st17 st19">БИРЖА</text>
	<rect id="XMLID_363_" x="930.8" y="815.4" class="st15" width="28.1" height="15.8"/>
	<text id="XMLID_589_" transform="matrix(1 0 0 1 930.8332 824.24)" class="st16 st17 st19">GAI</text>
	<rect id="XMLID_359_" x="856.3" y="285.3" class="st15" width="90.7" height="17.5"/>
	<text id="XMLID_587_" transform="matrix(1 0 0 1 856.3146 294.2166)" class="st16 st17 st19">5000 GAI tokens</text>
	<rect id="XMLID_345_" x="856.3" y="323.9" class="st15" width="70.4" height="20.7"/>
	<text id="XMLID_585_" transform="matrix(1 0 0 1 856.3078 332.7839)" class="st16 st17 st19">Задача</text>
	<rect id="XMLID_341_" x="890.1" y="94.4" class="st15" width="70.4" height="29.5"/>
	<text id="XMLID_583_" transform="matrix(1 0 0 1 890.1017 103.3084)" class="st16 st17 st19">Покупка</text>
	<rect id="XMLID_337_" x="890.7" y="66.7" class="st15" width="28.1" height="15.8"/>
	<text id="XMLID_581_" transform="matrix(1 0 0 1 890.7492 75.5735)" class="st16 st17 st19">GAI</text>
	<rect id="XMLID_333_" x="1082.5" y="407.3" class="st15" width="178.8" height="12.3"/>
	<text id="XMLID_579_" transform="matrix(1 0 0 1 1143.0286 416.1697)" class="st3 st17 st19">ETHEREUM</text>
	<rect id="XMLID_329_" x="665.6" y="33.3" class="st15" width="177.8" height="14.2"/>
	<text id="XMLID_577_" transform="matrix(1 0 0 1 734.8361 42.1604)" class="st3 st17 st19">БИРЖА</text>
	<rect id="XMLID_325_" x="1084.1" y="30.6" class="st15" width="176.2" height="19.6"/>
	<text id="XMLID_575_" transform="matrix(1 0 0 1 1141.5344 39.5046)" class="st3 st17 st19">ПРОБЛЕМА</text>
	<path id="XMLID_238_" class="st1" d="M1044.6,117.3h-64.4v-1c0-13.9,12.3-17.4,18.2-19.1c1.2-0.3,2.2-0.6,2.7-0.9
		c3.6-1.8,5.6-3.7,5.6-5.1c0-0.6-0.3-0.8-0.3-0.8c-4.2-2.5-6.5-8.7-7.5-11.3c-0.1-0.2-0.2-0.5-0.3-0.7c-2.3-0.8-3.1-5.5-3.1-8
		c0-2.4,0.5-3.2,1.7-3.9c0.1-8,6.9-14.5,15.2-14.5c8.2,0,14.7,6.2,14.8,14.2c1.2,0.6,1.9,1.2,1.9,3.6c0,2.6-1,7.4-3.3,8.2
		c-0.1,0.2-0.1,0.4-0.2,0.6c-0.9,2.7-2.9,9.2-7.3,11.6c0,0-0.3,0.4-0.3,1.2c0,1.2,2.4,3.3,5.7,5c0.7,0.4,1.9,0.7,3.3,1.1
		c6.1,1.8,17.4,5.2,17.4,18.9V117.3z M982.3,115.3h60.3c-0.5-11.3-9.8-14.1-16-16c-1.5-0.4-2.7-0.8-3.6-1.3v0
		c-1.6-0.8-6.8-3.6-6.8-6.8c0-1.3,0.5-2.5,1.3-2.9c3.7-2.1,5.6-8,6.4-10.5c0.4-1.3,0.6-1.9,1.4-1.9c0.6,0,2-3,2-6.3
		c0-1.4-0.1-1.4-0.9-1.8c-0.2-0.1-0.4-0.2-0.6-0.3l-0.5-0.3l0-0.9c0-7-5.6-12.5-12.8-12.5c-7.1,0-13.2,5.8-13.2,12.7l0,0.9l-0.5,0.3
		c-1,0.6-1.2,0.7-1.2,2.5c0,3.3,1.2,6.1,1.8,6.1c0.8,0,1,0.5,1.5,1.9c0.9,2.4,3.1,8.2,6.6,10.3c0.6,0.4,1.3,1.3,1.3,2.5
		c0,2.4-2.3,4.7-6.7,6.9c-0.7,0.3-1.7,0.6-3.1,1C993.4,100.8,982.9,103.8,982.3,115.3z"/>
	<g id="XMLID_570_">
		<path id="XMLID_237_" class="st3" d="M767.9,863.6h-35.7c-0.6,0-1-0.4-1-1c0-12.3,9.5-15.3,14.6-16.9c1.1-0.3,2.1-0.6,2.7-1
			c3.9-1.9,5.2-3.4,5.2-4.2c0-0.6-0.2-0.9-0.3-1c-4.1-2.2-5.5-8-6.2-10.6c0-0.2-0.1-0.3-0.1-0.4c-2.1-0.8-3-5-3-7.3
			c0-2.1,0.7-2.7,1.7-3.2c0.1-7.4,5.5-12.9,12.5-12.9c7.1,0,12.4,5.6,12.6,13.2c1.1,0.7,1.6,1.5,1.6,3.6c0,2.5-0.8,6.4-2.8,7.1
			c0,0.1-0.1,0.2-0.1,0.4c-0.6,2.4-2,8-5.9,10.3c0,0-0.3,0.2-0.3,0.6c0,0.8,1,2.2,5.5,4.5c0.4,0.2,1.2,0.5,2.1,0.7
			c3.7,1.1,9.9,3.1,13,9c0.3,0.5,0.1,1.1-0.4,1.4c-0.5,0.3-1.1,0.1-1.4-0.4c-2.7-5.2-8.4-6.9-11.8-8c-1-0.3-1.8-0.6-2.4-0.9
			c-3.1-1.5-6.6-3.6-6.6-6.2c0-1.2,0.6-2,1.2-2.4c3.2-1.9,4.5-6.9,5-9.1c0.3-1.1,0.5-1.8,1.3-1.8c0.4,0,1.5-2.3,1.5-5.3
			c0-1.5-0.1-1.6-1.1-2.1c-0.3-0.2-0.5-0.5-0.5-0.9c0,0,0-0.1,0-0.1l0-0.1c0-6.5-4.5-11.4-10.6-11.4c-6.1,0-10.5,4.7-10.5,11.2
			l0,0.3c0,0.4-0.2,0.7-0.5,0.9c-0.2,0.1-0.4,0.2-0.5,0.3c-0.7,0.3-0.7,0.4-0.7,1.5c0,2.7,1.2,5.4,1.7,5.5c0.8,0,1,0.7,1.3,1.8
			c0.6,2.3,1.9,7.5,5.2,9.3c0.8,0.4,1.3,1.5,1.3,2.7c0,1.9-2.1,3.9-6.4,6c-0.8,0.4-1.8,0.7-3,1.1c-5.1,1.6-12.7,4-13.2,14h34.7
			c0.6,0,1,0.4,1,1S768.5,863.6,767.9,863.6z"/>
		<path id="XMLID_236_" class="st3" d="M848.7,863.6h-37.1c-0.6,0-1-0.4-1-1s0.4-1,1-1h36.1c-0.5-10.2-8.8-12.8-13.4-14.2
			c-1-0.3-1.8-0.6-2.4-0.9c-3.1-1.5-6.6-3.6-6.6-6.2c0-1.2,0.6-2,1.2-2.4c3.2-1.9,4.6-6.9,5.2-9.1c0.3-1.1,0.5-1.8,1.3-1.8
			c0.4,0,1.5-2.3,1.5-5.3c0-1.5-0.1-1.6-1.1-2.1c-0.3-0.2-0.5-0.5-0.5-0.9c0,0,0-0.1,0-0.1l0-0.1c0-6.4-4.7-11.4-10.8-11.4
			c-6,0-10.3,4.6-10.3,11.2l0,0.3c0,0.4-0.2,0.7-0.5,0.9c-0.2,0.1-0.4,0.2-0.5,0.3c-0.7,0.3-0.7,0.4-0.7,1.5c0,2.7,1.2,5.4,1.7,5.5
			c0.9,0,1,0.7,1.3,1.8c0.5,2.1,1.7,7.5,5,9.3c0.8,0.4,1.3,1.5,1.3,2.7c0,1.9-2.1,3.9-6.4,6c-0.8,0.4-1.8,0.7-3,1.1
			c-3.9,1.2-9.3,2.9-11.8,8.2c-0.2,0.5-0.8,0.7-1.3,0.5c-0.5-0.2-0.7-0.8-0.5-1.3c2.9-6.1,9-8,13-9.3c1.1-0.3,2.1-0.6,2.7-1
			c3.9-1.9,5.2-3.4,5.2-4.2c0-0.6-0.2-0.9-0.3-1c-4.1-2.2-5.4-8.1-6-10.6c0-0.1-0.1-0.3-0.1-0.4c-2.1-0.8-2.9-5-2.9-7.3
			c0-2.1,0.7-2.7,1.7-3.2c0.1-7.5,5.3-12.9,12.3-12.9c7.1,0,12.7,5.8,12.8,13.2c1.1,0.7,1.6,1.5,1.6,3.6c0,2.5-0.8,6.4-2.8,7.1
			c0,0.1-0.1,0.3-0.1,0.4c-0.7,2.4-2.3,7.9-6.1,10.2c0,0-0.3,0.2-0.3,0.6c0,0.8,1,2.2,5.5,4.5c0.4,0.2,1.2,0.5,2.1,0.7
			c4.8,1.5,14.8,4.6,14.8,17.1C849.7,863.2,849.3,863.6,848.7,863.6z"/>
		<path id="XMLID_232_" class="st3" d="M816.8,874.9H764c-0.6,0-1-0.4-1-1c0-12.3,9.5-15.3,14.6-16.9c1.1-0.3,2.1-0.6,2.7-1l0,0
			c3.9-1.9,5.2-3.4,5.2-4.2c0-0.6-0.2-0.9-0.3-1c-4.1-2.2-5.4-8.1-6-10.6c0-0.1-0.1-0.3-0.1-0.4c-2.1-0.8-2.9-5-2.9-7.3
			c0-2.1,0.7-2.7,1.7-3.2c0.1-7.5,5.3-12.9,12.3-12.9c7.1,0,12.7,5.8,12.8,13.2c1.1,0.7,1.6,1.5,1.6,3.6c0,2.5-0.8,6.4-2.8,7.1
			c0,0.1-0.1,0.3-0.1,0.4c-0.7,2.4-2.3,7.9-6.1,10.2c0,0-0.3,0.2-0.3,0.6c0,1.2,1.8,2.7,5.5,4.5c0.4,0.2,1.2,0.5,2.1,0.7
			c4.8,1.5,14.8,4.6,14.8,17.1C817.8,874.4,817.3,874.9,816.8,874.9z M765.1,872.9h50.7c-0.5-10.2-8.8-12.8-13.4-14.2
			c-1-0.3-1.8-0.6-2.4-0.9c-3.1-1.5-6.6-3.6-6.6-6.2c0-1.2,0.6-2,1.2-2.4c3.2-1.9,4.6-6.9,5.2-9.1c0.3-1.1,0.5-1.8,1.3-1.8
			c0.4,0,1.5-2.3,1.5-5.3c0-1.5-0.1-1.6-1.1-2.1c-0.3-0.2-0.5-0.5-0.5-0.9c0,0,0-0.1,0-0.1l0-0.1c0-6.4-4.7-11.4-10.8-11.4
			c-6,0-10.3,4.6-10.3,11.2l0,0.3c0,0.4-0.2,0.7-0.5,0.9c-0.2,0.1-0.4,0.2-0.5,0.3c-0.7,0.3-0.7,0.4-0.7,1.5c0,2.7,1.2,5.4,1.7,5.5
			c0.9,0,1,0.7,1.3,1.8c0.5,2.2,1.7,7.5,5,9.3c0.8,0.4,1.3,1.5,1.3,2.7c0,1.9-2.1,3.9-6.4,6c0,0,0,0,0,0c-0.8,0.4-1.8,0.7-3,1.1
			C773.1,860.5,765.5,862.9,765.1,872.9z"/>
	</g>
	<path id="XMLID_229_" class="st1" d="M104.2,853.2H38.6v-1c0-14.1,12.6-17.7,18.6-19.5c1.2-0.3,2.3-0.7,2.8-0.9
		c3.7-1.8,5.7-3.7,5.7-5.3c0-0.6-0.3-0.9-0.4-0.9c-4.2-2.6-6.6-8.8-7.6-11.5c-0.1-0.2-0.2-0.5-0.3-0.7c-2.4-0.8-3.2-5.6-3.2-8.1
		c0-2.4,0.5-3.2,1.8-4c0.1-8.2,7-14.8,15.4-14.8c8.4,0,14.9,6.4,15.1,14.5c1.2,0.6,2,1.2,2,3.6c0,2.7-1,7.5-3.3,8.3
		c-0.1,0.2-0.1,0.4-0.2,0.6c-0.9,2.8-2.9,9.4-7.5,11.8c0,0-0.3,0.4-0.3,1.2c0,1.3,2.4,3.4,5.8,5.1l0,0c0.7,0.4,2,0.7,3.4,1.2
		c6.2,1.9,17.8,5.3,17.8,19.2V853.2z M40.6,851.2h61.5c-0.5-11.6-10-14.4-16.3-16.3c-1.5-0.4-2.8-0.8-3.7-1.3l0,0
		c-1.6-0.8-6.9-3.7-6.9-6.9c0-1.6,0.7-2.6,1.4-3c3.8-2.1,5.7-8.1,6.5-10.7c0.4-1.3,0.6-1.9,1.4-1.9c0.6,0,2-3.1,2-6.4
		c0-1.4-0.1-1.5-0.9-1.9c-0.2-0.1-0.4-0.2-0.6-0.3l-0.5-0.3l0-0.9c0-7.2-5.7-12.8-13.1-12.8c-7.3,0-13.4,5.9-13.4,13l0,0.9l-0.5,0.3
		c-1.1,0.6-1.3,0.7-1.3,2.6c0,3.4,1.2,6.2,1.8,6.2c0.8,0,1,0.5,1.5,1.9c0.9,2.5,3.1,8.3,6.8,10.5c0.6,0.4,1.3,1.3,1.3,2.6
		c0,2.4-2.3,4.8-6.9,7.1c-0.7,0.3-1.8,0.7-3.1,1C51.9,836.3,41.2,839.4,40.6,851.2z"/>
	<g id="XMLID_565_">
		<path id="XMLID_228_" class="st1" d="M17.8,825.8c-2.8,0-5.1-2.1-5.1-4.8c0-0.6,0.4-1,1-1s1,0.4,1,1c0,1.5,1.4,2.8,3.1,2.8
			s3.1-1.2,3.1-2.8c0-2.3-3.4-3.6-3.5-3.6c-0.2-0.1-4.8-1.8-4.8-5.5c0-2.6,2.3-4.8,5.1-4.8s5.1,2.1,5.1,4.8c0,0.6-0.4,1-1,1
			s-1-0.4-1-1c0-1.5-1.4-2.8-3.1-2.8s-3.1,1.2-3.1,2.8c0,2.3,3.4,3.6,3.5,3.6c0.2,0.1,4.8,1.7,4.8,5.5
			C22.9,823.7,20.6,825.8,17.8,825.8z"/>
		<path id="XMLID_227_" class="st1" d="M17.9,831c-0.6,0-1-0.4-1-1v-24.9c0-0.6,0.4-1,1-1s1,0.4,1,1V830
			C18.9,830.6,18.4,831,17.9,831z"/>
		<path id="XMLID_224_" class="st1" d="M17.8,833.1c-9.2,0-16.6-7.5-16.6-16.6c0-9.2,7.5-16.6,16.6-16.6c9.2,0,16.6,7.5,16.6,16.6
			C34.4,825.6,26.9,833.1,17.8,833.1z M17.8,801.8c-8.1,0-14.6,6.6-14.6,14.6s6.6,14.6,14.6,14.6s14.6-6.6,14.6-14.6
			S25.8,801.8,17.8,801.8z"/>
	</g>
	<g id="XMLID_561_">
		<path id="XMLID_223_" class="st1" d="M623.9,798.3c-2.8,0-5.1-2.1-5.1-4.8c0-0.6,0.4-1,1-1s1,0.4,1,1c0,1.5,1.4,2.8,3.1,2.8
			s3.1-1.2,3.1-2.8c0-2.3-3.4-3.6-3.5-3.6c-0.2-0.1-4.8-1.8-4.8-5.5c0-2.6,2.3-4.8,5.1-4.8s5.1,2.1,5.1,4.8c0,0.6-0.4,1-1,1
			s-1-0.4-1-1c0-1.5-1.4-2.8-3.1-2.8s-3.1,1.2-3.1,2.8c0,2.3,3.4,3.6,3.5,3.6c0.2,0.1,4.8,1.7,4.8,5.5
			C629.1,796.1,626.8,798.3,623.9,798.3z"/>
		<path id="XMLID_222_" class="st1" d="M624,803.5c-0.6,0-1-0.4-1-1v-24.9c0-0.6,0.4-1,1-1s1,0.4,1,1v24.9
			C625,803,624.6,803.5,624,803.5z"/>
		<path id="XMLID_219_" class="st1" d="M623.9,805.5c-9.2,0-16.6-7.5-16.6-16.6c0-9.2,7.5-16.6,16.6-16.6c9.2,0,16.6,7.5,16.6,16.6
			C640.5,798.1,633.1,805.5,623.9,805.5z M623.9,774.3c-8.1,0-14.6,6.6-14.6,14.6s6.6,14.6,14.6,14.6c8.1,0,14.6-6.6,14.6-14.6
			S632,774.3,623.9,774.3z"/>
	</g>
	<g id="XMLID_549_">
		<path id="XMLID_218_" class="st3" d="M702.1,382.8c-4.6,0-8.3-3.7-8.3-8.3c0-0.6,0.4-1,1-1s1,0.4,1,1c0,3.5,2.8,6.3,6.3,6.3
			c0.6,0,1,0.4,1,1S702.6,382.8,702.1,382.8z"/>
		<path id="XMLID_217_" class="st3" d="M709.4,375.5c-0.6,0-1-0.4-1-1c0-3.5-2.8-6.3-6.3-6.3c-0.6,0-1-0.4-1-1s0.4-1,1-1
			c4.6,0,8.3,3.7,8.3,8.3C710.4,375,709.9,375.5,709.4,375.5z"/>
		<path id="XMLID_214_" class="st3" d="M702.1,386.2c-6.5,0-11.7-5.2-11.7-11.7c0-6.5,5.2-11.7,11.7-11.7s11.7,5.2,11.7,11.7
			C713.8,381,708.5,386.2,702.1,386.2z M702.1,364.8c-5.3,0-9.7,4.4-9.7,9.7s4.4,9.7,9.7,9.7s9.7-4.4,9.7-9.7
			S707.4,364.8,702.1,364.8z"/>
		<path id="XMLID_213_" class="st3" d="M702.1,397.1c-0.6,0-1-0.4-1-1v-7.7c0-0.6,0.4-1,1-1s1,0.4,1,1v7.7
			C703.1,396.7,702.6,397.1,702.1,397.1z"/>
		<path id="XMLID_212_" class="st3" d="M702.1,361.6c-0.6,0-1-0.4-1-1v-7.7c0-0.6,0.4-1,1-1s1,0.4,1,1v7.7
			C703.1,361.1,702.6,361.6,702.1,361.6z"/>
		<path id="XMLID_211_" class="st3" d="M688.1,375.5h-7.7c-0.6,0-1-0.4-1-1s0.4-1,1-1h7.7c0.6,0,1,0.4,1,1S688.7,375.5,688.1,375.5z
			"/>
		<path id="XMLID_210_" class="st3" d="M723.7,375.5H716c-0.6,0-1-0.4-1-1s0.4-1,1-1h7.7c0.6,0,1,0.4,1,1S724.3,375.5,723.7,375.5z"
			/>
		<path id="XMLID_209_" class="st3" d="M686.8,390.8c-0.3,0-0.5-0.1-0.7-0.3c-0.4-0.4-0.4-1,0-1.4l5.2-5.2c0.4-0.4,1-0.4,1.4,0
			c0.4,0.4,0.4,1,0,1.4l-5.2,5.2C687.3,390.7,687,390.8,686.8,390.8z"/>
		<path id="XMLID_208_" class="st3" d="M712.1,365.5c-0.3,0-0.5-0.1-0.7-0.3c-0.4-0.4-0.4-1,0-1.4l5.2-5.2c0.4-0.4,1-0.4,1.4,0
			s0.4,1,0,1.4l-5.2,5.2C712.6,365.4,712.4,365.5,712.1,365.5z"/>
		<path id="XMLID_207_" class="st3" d="M717.4,390.8c-0.3,0-0.5-0.1-0.7-0.3l-5.2-5.2c-0.4-0.4-0.4-1,0-1.4c0.4-0.4,1-0.4,1.4,0
			l5.2,5.2c0.4,0.4,0.4,1,0,1.4C717.9,390.7,717.6,390.8,717.4,390.8z"/>
		<path id="XMLID_206_" class="st3" d="M692,365.5c-0.3,0-0.5-0.1-0.7-0.3l-5.2-5.2c-0.4-0.4-0.4-1,0-1.4s1-0.4,1.4,0l5.2,5.2
			c0.4,0.4,0.4,1,0,1.4C692.5,365.4,692.3,365.5,692,365.5z"/>
	</g>
	<g id="XMLID_539_">
		<path id="XMLID_192_" class="st3" d="M1200.3,837.3c-2.3,0-4.1-1.9-4.1-4.1c0-2.3,1.9-4.1,4.1-4.1c2.3,0,4.1,1.9,4.1,4.1
			C1204.5,835.4,1202.6,837.3,1200.3,837.3z M1200.3,831c-1.2,0-2.1,1-2.1,2.1c0,1.2,1,2.1,2.1,2.1c1.2,0,2.1-1,2.1-2.1
			C1202.5,832,1201.5,831,1200.3,831z"/>
		<g id="XMLID_541_">
			<path id="XMLID_189_" class="st3" d="M1148.2,873.8h-3.1c-1.1,0-2-0.9-2-2v-3.2h-3.2c-1.1,0-2-0.9-2-2v-3.1c0-1.1,0.9-2,2-2h3.2
				v-41.7c0-1.1,0.9-2,2-2h3.1c1.1,0,2,0.9,2,2v41.7h52.2c1.1,0,2,0.9,2,2v3.1c0,1.1-0.9,2-2,2h-52.2v3.2
				C1150.3,872.9,1149.3,873.8,1148.2,873.8z M1139.9,863.4l0,3.2l4.2,0c0.6,0,1,0.4,1,1v4.2l3.2,0l0-4.2c0-0.6,0.4-1,1-1h53.2
				l0-3.2l0,0h-53.2c-0.6,0-1-0.4-1-1v-42.7l-3.2,0l0,42.8c0,0.6-0.4,1-1,1H1139.9z"/>
			<path id="XMLID_186_" class="st3" d="M1156.6,855c-2.3,0-4.1-1.9-4.1-4.1c0-2.3,1.9-4.1,4.1-4.1s4.1,1.9,4.1,4.1
				C1160.7,853.2,1158.8,855,1156.6,855z M1156.6,848.8c-1.2,0-2.1,1-2.1,2.1c0,1.2,1,2.1,2.1,2.1s2.1-1,2.1-2.1
				C1158.7,849.7,1157.7,848.8,1156.6,848.8z"/>
			<path id="XMLID_183_" class="st3" d="M1172.2,839.4c-2.3,0-4.1-1.9-4.1-4.1s1.9-4.1,4.1-4.1s4.1,1.9,4.1,4.1
				S1174.5,839.4,1172.2,839.4z M1172.2,833.1c-1.2,0-2.1,1-2.1,2.1s1,2.1,2.1,2.1s2.1-1,2.1-2.1S1173.4,833.1,1172.2,833.1z"/>
			<path id="XMLID_180_" class="st3" d="M1185.7,852.9c-2.3,0-4.1-1.9-4.1-4.1c0-2.3,1.9-4.1,4.1-4.1c2.3,0,4.1,1.9,4.1,4.1
				C1189.9,851.1,1188,852.9,1185.7,852.9z M1185.7,846.7c-1.2,0-2.1,1-2.1,2.1c0,1.2,1,2.1,2.1,2.1c1.2,0,2.1-1,2.1-2.1
				C1187.9,847.6,1186.9,846.7,1185.7,846.7z"/>
			
				<rect id="XMLID_179_" x="1163.1" y="835.6" transform="matrix(0.7071 0.7071 -0.7071 0.7071 937.2905 -576.148)" class="st3" width="2" height="15.5"/>
			
				<rect id="XMLID_178_" x="1172.4" y="840.8" transform="matrix(0.7071 0.7071 -0.7071 0.7071 940.4589 -586.925)" class="st3" width="12.5" height="2"/>
		</g>
		
			<rect id="XMLID_177_" x="1192.3" y="832.5" transform="matrix(0.7071 0.7071 -0.7071 0.7071 943.6273 -597.7021)" class="st3" width="2" height="15.5"/>
	</g>
	<g id="XMLID_529_">
		<path id="XMLID_172_" class="st3" d="M781.3,91.8c-2.3,0-4.1-1.9-4.1-4.1c0-2.3,1.9-4.1,4.1-4.1s4.1,1.9,4.1,4.1
			C785.4,89.9,783.6,91.8,781.3,91.8z M781.3,85.5c-1.2,0-2.1,1-2.1,2.1s1,2.1,2.1,2.1s2.1-1,2.1-2.1S782.5,85.5,781.3,85.5z"/>
		<g id="XMLID_531_">
			<path id="XMLID_169_" class="st3" d="M729.2,128.2H726c-1.1,0-2-0.9-2-2V123h-3.2c-1.1,0-2-0.9-2-2v-3.1c0-1.1,0.9-2,2-2h3.2
				V74.1c0-1.1,0.9-2,2-2h3.1c1.1,0,2,0.9,2,2v41.7h52.2c1.1,0,2,0.9,2,2v3.1c0,1.1-0.9,2-2,2h-52.2v3.2
				C731.2,127.3,730.3,128.2,729.2,128.2z M720.8,117.8l0,3.2l4.2,0c0.6,0,1,0.4,1,1v4.2l3.2,0l0-4.2c0-0.6,0.4-1,1-1h53.2l0-3.2
				l0,0h-53.2c-0.6,0-1-0.4-1-1V74.1l-3.2,0l0,42.8c0,0.6-0.4,1-1,1H720.8z"/>
			<path id="XMLID_166_" class="st3" d="M737.5,109.5c-2.3,0-4.1-1.9-4.1-4.1c0-2.3,1.9-4.1,4.1-4.1c2.3,0,4.1,1.9,4.1,4.1
				C741.6,107.6,739.8,109.5,737.5,109.5z M737.5,103.2c-1.2,0-2.1,1-2.1,2.1s1,2.1,2.1,2.1c1.2,0,2.1-1,2.1-2.1
				S738.7,103.2,737.5,103.2z"/>
			<path id="XMLID_163_" class="st3" d="M753.2,93.8c-2.3,0-4.1-1.9-4.1-4.1c0-2.3,1.9-4.1,4.1-4.1c2.3,0,4.1,1.9,4.1,4.1
				C757.3,92,755.4,93.8,753.2,93.8z M753.2,87.6c-1.2,0-2.1,1-2.1,2.1s1,2.1,2.1,2.1c1.2,0,2.1-1,2.1-2.1S754.3,87.6,753.2,87.6z"
				/>
			<path id="XMLID_160_" class="st3" d="M766.7,107.4c-2.3,0-4.1-1.9-4.1-4.1c0-2.3,1.9-4.1,4.1-4.1s4.1,1.9,4.1,4.1
				C770.8,105.5,769,107.4,766.7,107.4z M766.7,101.1c-1.2,0-2.1,1-2.1,2.1s1,2.1,2.1,2.1s2.1-1,2.1-2.1S767.9,101.1,766.7,101.1z"
				/>
			
				<rect id="XMLID_159_" x="744.1" y="90.1" transform="matrix(0.7071 0.7071 -0.7071 0.7071 287.3752 -498.2035)" class="st3" width="2" height="15.5"/>
			
				<rect id="XMLID_158_" x="753.4" y="95.2" transform="matrix(0.7071 0.7071 -0.7071 0.7071 290.5607 -508.9941)" class="st3" width="12.5" height="2"/>
		</g>
		
			<rect id="XMLID_157_" x="773.3" y="86.9" transform="matrix(0.7071 0.7071 -0.7071 0.7071 293.7126 -519.7582)" class="st3" width="2" height="15.5"/>
	</g>
	<g id="XMLID_522_">
		<g id="XMLID_525_">
			<path id="XMLID_154_" class="st3" d="M340.7,48.3c-8.2,0-14.9-6.7-14.9-14.9c0-8.2,6.7-14.9,14.9-14.9c8.2,0,14.9,6.7,14.9,14.9
				C355.6,41.6,348.9,48.3,340.7,48.3z M340.7,20.5c-7.1,0-12.9,5.8-12.9,12.9s5.8,12.9,12.9,12.9s12.9-5.8,12.9-12.9
				S347.8,20.5,340.7,20.5z"/>
			<path id="XMLID_153_" class="st3" d="M340.5,44.4c-6,0-10.9-4.9-10.9-10.9c0-0.6,0.4-1,1-1s1,0.4,1,1c0,4.9,4,8.9,8.9,8.9
				c0.6,0,1,0.4,1,1S341,44.4,340.5,44.4z"/>
			<path id="XMLID_152_" class="st3" d="M350.4,34.4c-0.6,0-1-0.4-1-1c0-4.9-4-9-8.9-9c-0.6,0-1-0.4-1-1s0.4-1,1-1
				c6,0,10.9,4.9,10.9,11C351.4,34,351,34.4,350.4,34.4z"/>
		</g>
		<path id="XMLID_151_" class="st3" d="M341.8,71.9c-0.3,0-0.7-0.2-0.9-0.5l-5.8-9.3l-8,6.7c-0.3,0.3-0.8,0.3-1.1,0.1
			c-0.4-0.2-0.6-0.6-0.5-1l4.5-24.1c0.1-0.5,0.6-0.9,1.2-0.8c0.5,0.1,0.9,0.6,0.8,1.2l-4,21.4l6.7-5.6c0.2-0.2,0.5-0.3,0.8-0.2
			c0.3,0,0.5,0.2,0.7,0.5l5,8.1l4.1-21.6c0.1-0.5,0.6-0.9,1.2-0.8c0.5,0.1,0.9,0.6,0.8,1.2L342.8,71c-0.1,0.4-0.4,0.7-0.8,0.8
			C341.9,71.8,341.8,71.9,341.8,71.9z"/>
		<path id="XMLID_150_" class="st3" d="M352.5,70.6c-0.2,0-0.4-0.1-0.6-0.2l-8.9-7.1c-0.4-0.3-0.5-1-0.2-1.4c0.3-0.4,1-0.5,1.4-0.2
			l6.9,5.5l-3.3-21.7c-0.1-0.5,0.3-1.1,0.8-1.1c0.5-0.1,1.1,0.3,1.1,0.8l3.7,24.3c0.1,0.4-0.1,0.8-0.5,1
			C352.8,70.6,352.6,70.6,352.5,70.6z"/>
	</g>
	<g id="XMLID_515_">
		<g id="XMLID_518_">
			<path id="XMLID_147_" class="st3" d="M1172.8,460.6c-8.2,0-14.9-6.7-14.9-14.9c0-8.2,6.7-14.9,14.9-14.9s14.9,6.7,14.9,14.9
				C1187.7,453.9,1181.1,460.6,1172.8,460.6z M1172.8,432.8c-7.1,0-12.9,5.8-12.9,12.9s5.8,12.9,12.9,12.9s12.9-5.8,12.9-12.9
				S1180,432.8,1172.8,432.8z"/>
			<path id="XMLID_146_" class="st3" d="M1172.6,456.7c-6,0-10.9-4.9-10.9-10.9c0-0.6,0.4-1,1-1s1,0.4,1,1c0,4.9,4,8.9,8.9,8.9
				c0.6,0,1,0.4,1,1S1173.2,456.7,1172.6,456.7z"/>
			<path id="XMLID_145_" class="st3" d="M1182.6,446.8c-0.6,0-1-0.4-1-1c0-4.9-4-9-8.9-9c-0.6,0-1-0.4-1-1s0.4-1,1-1
				c6,0,10.9,4.9,10.9,11C1183.6,446.3,1183.1,446.8,1182.6,446.8z"/>
		</g>
		<path id="XMLID_144_" class="st3" d="M1173.9,484.2c-0.3,0-0.7-0.2-0.8-0.5l-5.8-9.3l-8,6.7c-0.3,0.3-0.8,0.3-1.1,0.1
			c-0.4-0.2-0.6-0.6-0.5-1l4.5-24.1c0.1-0.5,0.6-0.9,1.2-0.8c0.5,0.1,0.9,0.6,0.8,1.2l-4,21.4l6.7-5.6c0.2-0.2,0.5-0.3,0.8-0.2
			c0.3,0,0.5,0.2,0.7,0.5l5,8.1l4.1-21.6c0.1-0.5,0.6-0.9,1.2-0.8c0.5,0.1,0.9,0.6,0.8,1.2l-4.5,24.1c-0.1,0.4-0.4,0.7-0.8,0.8
			C1174,484.2,1174,484.2,1173.9,484.2z"/>
		<path id="XMLID_143_" class="st3" d="M1184.6,483c-0.2,0-0.4-0.1-0.6-0.2l-8.9-7.1c-0.4-0.3-0.5-1-0.2-1.4c0.3-0.4,1-0.5,1.4-0.2
			l6.9,5.5l-3.3-21.7c-0.1-0.5,0.3-1.1,0.8-1.1c0.5-0.1,1.1,0.3,1.1,0.8l3.7,24.3c0.1,0.4-0.1,0.8-0.5,1
			C1185,482.9,1184.8,483,1184.6,483z"/>
	</g>
	<g id="XMLID_508_">
		<g id="XMLID_511_">
			<path id="XMLID_140_" class="st3" d="M91.5,428.7c-8.2,0-14.9-6.7-14.9-14.9c0-8.2,6.7-14.9,14.9-14.9c8.2,0,14.9,6.7,14.9,14.9
				C106.4,422.1,99.7,428.7,91.5,428.7z M91.5,400.9c-7.1,0-12.9,5.8-12.9,12.9s5.8,12.9,12.9,12.9s12.9-5.8,12.9-12.9
				S98.6,400.9,91.5,400.9z"/>
			<path id="XMLID_139_" class="st3" d="M91.3,424.8c-6,0-10.9-4.9-10.9-10.9c0-0.6,0.4-1,1-1s1,0.4,1,1c0,4.9,4,8.9,8.9,8.9
				c0.6,0,1,0.4,1,1S91.8,424.8,91.3,424.8z"/>
			<path id="XMLID_138_" class="st3" d="M101.2,414.9c-0.6,0-1-0.4-1-1c0-4.9-4-9-8.9-9c-0.6,0-1-0.4-1-1s0.4-1,1-1
				c6,0,10.9,4.9,10.9,11C102.2,414.5,101.8,414.9,101.2,414.9z"/>
		</g>
		<path id="XMLID_137_" class="st3" d="M92.6,452.3c-0.3,0-0.7-0.2-0.9-0.5l-5.8-9.3l-8,6.7c-0.3,0.3-0.8,0.3-1.1,0.1
			s-0.6-0.6-0.5-1l4.5-24.1c0.1-0.5,0.6-0.9,1.2-0.8c0.5,0.1,0.9,0.6,0.8,1.2l-4,21.4l6.7-5.6c0.2-0.2,0.5-0.3,0.8-0.2
			c0.3,0,0.5,0.2,0.7,0.5l5,8.1l4.1-21.6c0.1-0.5,0.6-0.9,1.2-0.8c0.5,0.1,0.9,0.6,0.8,1.2l-4.5,24.1c-0.1,0.4-0.4,0.7-0.8,0.8
			C92.7,452.3,92.6,452.3,92.6,452.3z"/>
		<path id="XMLID_107_" class="st3" d="M103.3,451.1c-0.2,0-0.4-0.1-0.6-0.2l-8.9-7.1c-0.4-0.3-0.5-1-0.2-1.4c0.3-0.4,1-0.5,1.4-0.2
			l6.9,5.5L98.5,426c-0.1-0.5,0.3-1.1,0.8-1.1c0.5-0.1,1.1,0.3,1.1,0.8l3.7,24.3c0.1,0.4-0.1,0.8-0.5,1
			C103.6,451,103.4,451.1,103.3,451.1z"/>
	</g>
	<path id="XMLID_136_" class="st21" d="M888.4,633.3c-0.6,0-1-0.4-1-1v-29.2c0-5.5-4.4-9.9-9.9-9.9H710.6c-5.5,0-9.9,4.4-9.9,9.9
		v28.5c0,0.6-0.4,1-1,1s-1-0.4-1-1v-28.5c0-6.6,5.3-11.9,11.9-11.9h166.9c6.6,0,11.9,5.3,11.9,11.9v29.2
		C889.4,632.8,889,633.3,888.4,633.3z"/>
	<g id="XMLID_234_">
		<path id="XMLID_135_" class="st1" d="M868.3,476.4h-10.9c-0.6,0-1-0.4-1-1s0.4-1,1-1h10.9c0.6,0,1,0.4,1,1
			S868.8,476.4,868.3,476.4z"/>
		<path id="XMLID_134_" class="st1" d="M864.5,484c-0.3,0-0.5-0.1-0.7-0.3l-8.2-8.2l8.3-8.3c0.4-0.4,1-0.4,1.4,0s0.4,1,0,1.4
			l-6.9,6.9l6.8,6.8c0.4,0.4,0.4,1,0,1.4C865,483.9,864.8,484,864.5,484z"/>
		<path id="XMLID_133_" class="st1" d="M1074.1,484c-0.3,0-0.5-0.1-0.7-0.3c-0.4-0.4-0.4-1,0-1.4l6.8-6.8l-6.9-6.9
			c-0.4-0.4-0.4-1,0-1.4s1-0.4,1.4,0l8.3,8.3l-8.2,8.2C1074.6,483.9,1074.4,484,1074.1,484z"/>
		<path id="XMLID_132_" class="st1" d="M886,476.4h-10.9c-0.6,0-1-0.4-1-1s0.4-1,1-1H886c0.6,0,1,0.4,1,1S886.5,476.4,886,476.4z"/>
		<path id="XMLID_131_" class="st1" d="M903.7,476.4h-10.9c-0.6,0-1-0.4-1-1s0.4-1,1-1h10.9c0.6,0,1,0.4,1,1
			S904.3,476.4,903.7,476.4z"/>
		<path id="XMLID_129_" class="st1" d="M921.4,476.4h-10.9c-0.6,0-1-0.4-1-1s0.4-1,1-1h10.9c0.6,0,1,0.4,1,1S922,476.4,921.4,476.4z
			"/>
		<path id="XMLID_128_" class="st1" d="M939.1,476.4h-10.9c-0.6,0-1-0.4-1-1s0.4-1,1-1h10.9c0.6,0,1,0.4,1,1
			S939.7,476.4,939.1,476.4z"/>
		<path id="XMLID_127_" class="st1" d="M956.9,476.4H946c-0.6,0-1-0.4-1-1s0.4-1,1-1h10.9c0.6,0,1,0.4,1,1S957.4,476.4,956.9,476.4z
			"/>
		<path id="XMLID_126_" class="st1" d="M974.6,476.4h-10.9c-0.6,0-1-0.4-1-1s0.4-1,1-1h10.9c0.6,0,1,0.4,1,1
			S975.1,476.4,974.6,476.4z"/>
		<path id="XMLID_125_" class="st1" d="M992.3,476.4h-10.9c-0.6,0-1-0.4-1-1s0.4-1,1-1h10.9c0.6,0,1,0.4,1,1
			S992.9,476.4,992.3,476.4z"/>
		<path id="XMLID_124_" class="st1" d="M1010,476.4h-10.9c-0.6,0-1-0.4-1-1s0.4-1,1-1h10.9c0.6,0,1,0.4,1,1S1010.6,476.4,1010,476.4
			z"/>
		<path id="XMLID_123_" class="st1" d="M1027.7,476.4h-10.9c-0.6,0-1-0.4-1-1s0.4-1,1-1h10.9c0.6,0,1,0.4,1,1
			S1028.3,476.4,1027.7,476.4z"/>
		<path id="XMLID_122_" class="st1" d="M1045.5,476.4h-10.9c-0.6,0-1-0.4-1-1s0.4-1,1-1h10.9c0.6,0,1,0.4,1,1
			S1046,476.4,1045.5,476.4z"/>
		<path id="XMLID_121_" class="st1" d="M1063.2,476.4h-10.9c-0.6,0-1-0.4-1-1s0.4-1,1-1h10.9c0.6,0,1,0.4,1,1
			S1063.7,476.4,1063.2,476.4z"/>
		<path id="XMLID_116_" class="st1" d="M1080.9,476.4H1070c-0.6,0-1-0.4-1-1s0.4-1,1-1h10.9c0.6,0,1,0.4,1,1
			S1081.5,476.4,1080.9,476.4z"/>
	</g>
	<path id="XMLID_115_" class="st21" d="M1018.7,345H822.6c-0.6,0-1-0.4-1-1s0.4-1,1-1h196.1c8.7,0,15.7-7.1,15.7-15.7V120.6
		c0-0.6,0.4-1,1-1s1,0.4,1,1v206.6C1036.5,337,1028.5,345,1018.7,345z"/>
	<path id="XMLID_114_" class="st1" d="M784.9,395l-8.3-8.3c-0.4-0.4-0.4-1,0-1.4s1-0.4,1.4,0l6.9,6.9l6.8-6.8c0.4-0.4,1-0.4,1.4,0
		s0.4,1,0,1.4L784.9,395z"/>
	<path id="XMLID_113_" class="st1" d="M1043.3,127.8c-0.3,0-0.5-0.1-0.7-0.3l-6.9-6.9l-6.8,6.8c-0.4,0.4-1,0.4-1.4,0s-0.4-1,0-1.4
		l8.2-8.2l8.3,8.3c0.4,0.4,0.4,1,0,1.4C1043.8,127.7,1043.5,127.8,1043.3,127.8z"/>
	<path id="XMLID_112_" class="st21" d="M970.8,305.4H793.1c-0.6,0-1-0.4-1-1s0.4-1,1-1h177.7c8.7,0,15.7-7.1,15.7-15.7V117.9
		c0-0.6,0.4-1,1-1s1,0.4,1,1v169.8C988.5,297.4,980.6,305.4,970.8,305.4z"/>
	<path id="XMLID_111_" class="st1" d="M701.9,348.8l-8.4-8.2c-0.4-0.4-0.4-1,0-1.4c0.4-0.4,1-0.4,1.4,0l7,6.8l6.8-6.9
		c0.4-0.4,1-0.4,1.4,0s0.4,1,0,1.4L701.9,348.8z"/>
	<polygon id="XMLID_106_" class="st1" points="186.5,483.7 178.3,475.5 186.6,467.2 188,468.6 181.1,475.5 187.9,482.3 	"/>
	<polygon id="XMLID_104_" class="st1" points="372.9,483.7 371.5,482.3 378.4,475.5 371.5,468.6 372.9,467.2 381.2,475.5 	"/>
	<rect id="XMLID_103_" x="180.2" y="474.4" class="st1" width="21.6" height="2"/>
	<rect id="XMLID_102_" x="208.7" y="474.4" class="st1" width="10.9" height="2"/>
	<rect id="XMLID_100_" x="226.4" y="474.4" class="st1" width="10.9" height="2"/>
	<rect id="XMLID_99_" x="244.1" y="474.4" class="st1" width="10.9" height="2"/>
	<rect id="XMLID_96_" x="261.8" y="474.4" class="st1" width="10.9" height="2"/>
	<rect id="XMLID_95_" x="279.6" y="474.4" class="st1" width="10.9" height="2"/>
	<rect id="XMLID_94_" x="297.3" y="474.4" class="st1" width="10.9" height="2"/>
	<rect id="XMLID_93_" x="315" y="474.4" class="st1" width="10.9" height="2"/>
	<rect id="XMLID_92_" x="332.7" y="474.4" class="st1" width="10.9" height="2"/>
	<rect id="XMLID_89_" x="350.4" y="474.4" class="st1" width="10.9" height="2"/>
	<rect id="XMLID_91_" x="368.2" y="474.4" class="st1" width="10.9" height="2"/>
	<g id="XMLID_259_">
		<path id="XMLID_90_" class="st21" d="M622.1,123h-2v-9.8c0-8.7-7.1-15.7-15.7-15.7h-9.5v-2h9.5c9.8,0,17.7,8,17.7,17.7V123z"/>
		<polygon id="XMLID_88_" class="st1" points="436.2,104.8 428,96.5 436.3,88.2 437.7,89.6 430.8,96.5 437.7,103.4 		"/>
		<rect id="XMLID_87_" x="470.5" y="95.4" class="st1" width="10.9" height="2"/>
		<rect id="XMLID_86_" x="488.2" y="95.4" class="st1" width="10.9" height="2"/>
		<rect id="XMLID_85_" x="505.9" y="95.4" class="st1" width="10.9" height="2"/>
		<rect id="XMLID_84_" x="523.7" y="95.4" class="st1" width="10.9" height="2"/>
		<rect id="XMLID_83_" x="541.4" y="95.4" class="st1" width="10.9" height="2"/>
		<rect id="XMLID_82_" x="559.1" y="95.4" class="st1" width="10.9" height="2"/>
		<rect id="XMLID_81_" x="576.8" y="95.4" class="st1" width="10.9" height="2"/>
		<polygon id="XMLID_80_" class="st1" points="621.2,395.1 612.9,386.8 614.3,385.3 621.2,392.2 628,385.4 629.4,386.8 		"/>
		<rect id="XMLID_79_" x="620.1" y="218.5" class="st1" width="2" height="10.9"/>
		<rect id="XMLID_78_" x="620.1" y="200.8" class="st1" width="2" height="10.9"/>
		<rect id="XMLID_77_" x="620.1" y="183.1" class="st1" width="2" height="10.9"/>
		<rect id="XMLID_76_" x="620.1" y="165.4" class="st1" width="2" height="10.9"/>
		<rect id="XMLID_68_" x="620.1" y="147.7" class="st1" width="2" height="10.9"/>
		<rect id="XMLID_67_" x="620.1" y="129.9" class="st1" width="2" height="10.9"/>
		<rect id="XMLID_66_" x="429.7" y="95.4" class="st1" width="16.3" height="2"/>
		<rect id="XMLID_65_" x="452.8" y="95.4" class="st1" width="10.9" height="2"/>
		<rect id="XMLID_64_" x="620.1" y="236.3" class="st1" width="2" height="10.9"/>
		<rect id="XMLID_63_" x="620.1" y="342.2" class="st1" width="2" height="10.9"/>
		<rect id="XMLID_62_" x="620.1" y="324.5" class="st1" width="2" height="10.9"/>
		<rect id="XMLID_61_" x="620.1" y="306.8" class="st1" width="2" height="10.9"/>
		<rect id="XMLID_60_" x="620.1" y="289.1" class="st1" width="2" height="10.9"/>
		<rect id="XMLID_59_" x="620.1" y="271.4" class="st1" width="2" height="10.9"/>
		<rect id="XMLID_58_" x="620.1" y="253.6" class="st1" width="2" height="10.9"/>
		<rect id="XMLID_57_" x="620.1" y="360" class="st1" width="2" height="10.9"/>
		<rect id="XMLID_56_" x="620.1" y="377.7" class="st1" width="2" height="14.9"/>
	</g>
	<path id="XMLID_55_" class="st21" d="M785.8,392.5h-2v-31.8c0-9.8,8-17.7,17.7-17.7h31v2h-31c-8.7,0-15.7,7.1-15.7,15.7V392.5z"/>
	<path id="XMLID_54_" class="st21" d="M421.6,701.8H225.5v-2h196.1c8.7,0,15.7-7.1,15.7-15.7V539.5h2v144.6
		C439.3,693.9,431.4,701.8,421.6,701.8z"/>
	<polygon id="XMLID_53_" class="st1" points="442.3,544.8 435.4,537.9 428.6,544.8 427.2,543.4 435.4,535.1 443.7,543.4 	"/>
	<path id="XMLID_52_" class="st21" d="M201.2,752.5h-2v-38.8c0-7.7,6.2-13.9,13.9-13.9H248v2h-34.9c-6.6,0-11.9,5.3-11.9,11.9V752.5
		z"/>
	<path id="XMLID_51_" class="st21" d="M418.5,695.6H219.2v-2h199.3c6.9,0,12.5-5.6,12.5-12.5V539.8h2V681
		C433.1,689,426.6,695.6,418.5,695.6z"/>
	<path id="XMLID_50_" class="st21" d="M194.9,752.4h-2v-41.1c0-9.8,8-17.7,17.7-17.7h31v2h-31c-8.7,0-15.7,7.1-15.7,15.7V752.4z"/>
	<path id="XMLID_49_" class="st21" d="M456,734.6h-79.6v-2H456c6.9,0,12.5-5.6,12.5-12.5V576.2h2v143.9
		C470.6,728.1,464.1,734.6,456,734.6z"/>
	<path id="XMLID_48_" class="st21" d="M353.4,750.4h-2c0-9.8,8-17.7,17.7-17.7h31v2h-31C360.4,734.6,353.4,741.7,353.4,750.4z"/>
	<polygon id="XMLID_47_" class="st1" points="352.6,752.4 344.3,744.1 345.7,742.7 352.6,749.6 359.4,742.8 360.8,744.2 	"/>
	<rect id="XMLID_46_" x="698.8" y="737.8" class="st1" width="2" height="12.8"/>
	<polygon id="XMLID_45_" class="st1" points="706.6,745.7 699.7,738.8 692.9,745.7 691.5,744.3 699.7,736 708,744.3 	"/>
	<rect id="XMLID_44_" x="785.3" y="737.8" class="st1" width="2" height="12.9"/>
	<polygon id="XMLID_43_" class="st1" points="793.1,745.7 786.2,738.8 779.4,745.7 778,744.3 786.2,736 794.6,744.3 	"/>
	<rect id="XMLID_42_" x="883.3" y="737.8" class="st1" width="2" height="12.9"/>
	<polygon id="XMLID_41_" class="st1" points="891.1,745.7 884.2,738.8 877.4,745.7 876,744.3 884.2,736 892.5,744.3 	"/>
	<path id="XMLID_40_" class="st1" d="M784.8,632.5c-0.6,0-1-0.4-1-1v-94.6c0-0.6,0.4-1,1-1s1,0.4,1,1v94.6
		C785.8,632.1,785.3,632.5,784.8,632.5z"/>
	<path id="XMLID_39_" class="st1" d="M784.7,633.4l-8.2-8.2c-0.4-0.4-0.4-1,0-1.4s1-0.4,1.4,0l6.8,6.8l6.9-6.9c0.4-0.4,1-0.4,1.4,0
		s0.4,1,0,1.4L784.7,633.4z"/>
	<path id="XMLID_38_" class="st1" d="M699.7,634.4l-8.2-8.2c-0.4-0.4-0.4-1,0-1.4s1-0.4,1.4,0l6.8,6.8l6.9-6.9c0.4-0.4,1-0.4,1.4,0
		s0.4,1,0,1.4L699.7,634.4z"/>
	<path id="XMLID_37_" class="st1" d="M888.6,634.4l-8.2-8.2c-0.4-0.4-0.4-1,0-1.4s1-0.4,1.4,0l6.8,6.8l6.9-6.9c0.4-0.4,1-0.4,1.4,0
		s0.4,1,0,1.4L888.6,634.4z"/>
	<path id="XMLID_36_" class="st21" d="M534.8,537.9c-12.1,0-23.5-6.5-29.7-17c-0.3-0.5-0.1-1.1,0.4-1.4c0.5-0.3,1.1-0.1,1.4,0.4
		c5.8,9.9,16.5,16,27.9,16c11.7,0,22.5-6.3,28.2-16.5c0.3-0.5,0.9-0.7,1.4-0.4c0.5,0.3,0.7,0.9,0.4,1.4
		C558.6,531.2,547.2,537.9,534.8,537.9z"/>
	<path id="XMLID_35_" class="st21" d="M971.9,310.6H793.1c-0.6,0-1-0.4-1-1s0.4-1,1-1h178.8c10.9,0,19.8-8.9,19.8-19.8V118.2
		c0-0.6,0.4-1,1-1s1,0.4,1,1v170.6C993.7,300.8,984,310.6,971.9,310.6z"/>
	<path id="XMLID_33_" class="st21" d="M980.9,84.4H843.5c-0.6,0-1-0.4-1-1s0.4-1,1-1h137.4c0.6,0,1,0.4,1,1S981.5,84.4,980.9,84.4z"
		/>
	<path id="XMLID_32_" class="st1" d="M975.7,94.6c-0.3,0-0.5-0.1-0.7-0.3c-0.4-0.4-0.4-1,0-1.4l6.9-6.8l-6.8-7c-0.4-0.4-0.4-1,0-1.4
		c0.4-0.4,1-0.4,1.4,0l8.2,8.4l-8.3,8.2C976.2,94.5,976,94.6,975.7,94.6z"/>
	<path id="XMLID_31_" class="st21" d="M980.8,89.6H843.5c-0.6,0-1-0.4-1-1s0.4-1,1-1h137.3c0.6,0,1,0.4,1,1S981.3,89.6,980.8,89.6z"
		/>
	<path id="XMLID_30_" class="st21" d="M704.5,346c-0.6,0-1-0.4-1-1v-18.7c0-9.8,8-17.7,17.7-17.7h79.6c0.6,0,1,0.4,1,1s-0.4,1-1,1
		h-79.6c-8.7,0-15.7,7.1-15.7,15.7V345C705.5,345.6,705,346,704.5,346z"/>
	<path id="XMLID_29_" class="st21" d="M699.4,345.7c-0.6,0-1-0.4-1-1v-19.5c0-12,9.8-21.8,21.8-21.8h80c0.6,0,1,0.4,1,1s-0.4,1-1,1
		h-80c-10.9,0-19.8,8.9-19.8,19.8v19.5C700.4,345.2,699.9,345.7,699.4,345.7z"/>
	<rect id="XMLID_28_" x="918.2" y="803.7" class="st21" width="160.7" height="2"/>
	<polygon id="XMLID_27_" class="st1" points="1074.4,815.6 1073,814.2 1079.9,807.5 1073.1,800.5 1074.5,799.1 1082.8,807.5 	"/>
	<rect id="XMLID_26_" x="918.2" y="808.9" class="st21" width="160.6" height="2"/>
	<circle id="XMLID_282_" class="st3" cx="1173.2" cy="99.1" r="34.9"/>
	<rect id="XMLID_34_" x="1102.3" y="85.7" class="st15" width="140" height="39.1"/>
	<text id="XMLID_283_" transform="matrix(1 0 0 1 1164.6682 112.3596)" class="st21 st17 st22">?</text>
	<path id="XMLID_25_" class="st21" d="M660.6,809.6H520.2c-9.8,0-17.7-8-17.7-17.7V577.7h2v214.2c0,8.7,7.1,15.7,15.7,15.7h140.5
		V809.6z"/>
	<polygon id="XMLID_24_" class="st1" points="654.7,817 653.3,815.5 660.1,808.7 653.2,801.8 654.6,800.4 662.9,808.7 	"/>
	<polygon id="XMLID_23_" class="st1" points="496.4,585.1 495,583.7 503.3,575.4 511.6,583.6 510.2,585 503.3,578.2 	"/>
	<polygon id="XMLID_22_" class="st1" points="463,584.2 461.5,582.8 469.8,574.5 478.1,582.7 476.7,584.1 469.8,577.3 	"/>
	<path id="XMLID_21_" class="st1" d="M565.9,531.2c-0.5,0-0.9-0.4-1-0.9l-1.2-9.6L554,522c-0.5,0.1-1-0.3-1.1-0.9
		c-0.1-0.5,0.3-1,0.9-1.1l11.7-1.5l1.5,11.6c0.1,0.5-0.3,1-0.9,1.1C566,531.2,565.9,531.2,565.9,531.2z"/>
	<path id="XMLID_20_" class="st1" d="M504.5,531.7c0,0-0.1,0-0.1,0c-0.5-0.1-0.9-0.6-0.9-1.1L505,519l11.7,1.5
		c0.5,0.1,0.9,0.6,0.9,1.1c-0.1,0.5-0.6,0.9-1.1,0.9l-9.7-1.2l-1.2,9.6C505.4,531.3,505,531.7,504.5,531.7z"/>
	<path id="XMLID_19_" class="st21" d="M702.2,537.9c-12.1,0-23.5-6.5-29.7-17l1.7-1c5.8,9.9,16.5,16,27.9,16
		c11.7,0,22.5-6.3,28.2-16.5l1.7,1C726.1,531.2,714.6,537.9,702.2,537.9z"/>
	<path id="XMLID_18_" class="st1" d="M733.3,531.2c-0.5,0-0.9-0.4-1-0.9l-1.2-9.6l-9.7,1.2c-0.6,0.1-1-0.3-1.1-0.9
		c-0.1-0.5,0.3-1,0.9-1.1l11.7-1.5l1.5,11.6c0.1,0.5-0.3,1-0.9,1.1C733.4,531.2,733.4,531.2,733.3,531.2z"/>
	<path id="XMLID_17_" class="st1" d="M671.9,531.7c0,0-0.1,0-0.1,0c-0.5-0.1-0.9-0.6-0.9-1.1l1.5-11.6l11.7,1.5
		c0.5,0.1,0.9,0.6,0.9,1.1c-0.1,0.5-0.6,0.9-1.1,0.9l-9.7-1.2l-1.2,9.6C672.9,531.3,672.4,531.7,671.9,531.7z"/>
	<g id="XMLID_74_">
		<polygon id="XMLID_69_" class="st23" points="1197.1,353.9 1174.1,343.6 1151.3,353.9 1174,315.7 		"/>
		<polygon id="XMLID_1_" class="st24" points="1197.2,354 1174.1,343.6 1151.1,354 1174,367.2 		"/>
		<polygon id="XMLID_73_" class="st25" points="1174.1,343.6 1174.1,367.1 1197.2,354 		"/>
		<polygon id="XMLID_71_" class="st24" points="1197.1,353.9 1174.1,343.6 1174,315.7 		"/>
		<polygon id="XMLID_70_" class="st23" points="1174.1,390.6 1151.5,358.6 1174.2,372.4 1196.9,358.6 		"/>
		<polygon id="XMLID_72_" class="st24" points="1174.1,390.6 1174.2,372.4 1196.9,358.6 		"/>
	</g>
</g>
</svg>
