<?xml version="1.0" encoding="utf-8"?>
<!-- Generator: Adobe Illustrator 19.0.0, SVG Export Plug-In . SVG Version: 6.00 Build 0)  -->
<svg version="1.1" id="Слой_1" xmlns="http://www.w3.org/2000/svg" xmlns:xlink="http://www.w3.org/1999/xlink" x="0px" y="0px"
	 viewBox="0 0 196 190.7" style="enable-background:new 0 0 196 190.7;" xml:space="preserve">
<style type="text/css">
	.st0{fill:#333333;}
	.st1{fill:url(#XMLID_16_);}
	.st2{fill:url(#XMLID_17_);}
	.st3{fill:url(#XMLID_18_);}
	.st4{fill:url(#XMLID_19_);}
	.st5{fill:url(#XMLID_20_);}
	.st6{fill:url(#XMLID_21_);}
	.st7{fill:url(#XMLID_22_);}
</style>
<g id="XMLID_3_">
	<path id="XMLID_223_" class="st0" d="M98,44.7c-54.1,0-98,25.7-98,57.5c0,31.8,43.9,57.5,98,57.5s98-25.7,98-57.5
		C196,70.4,152.1,44.7,98,44.7z M97.9,154c-50.9,0-92.1-23.4-92.1-52.2c0-28.8,41.2-52.2,92.1-52.2S190,73,190,101.8
		C190,130.6,148.8,154,97.9,154z"/>
	<linearGradient id="XMLID_16_" gradientUnits="userSpaceOnUse" x1="98" y1="155.1666" x2="98" y2="40.1666">
		<stop  offset="0" style="stop-color:#FFFFFF"/>
		<stop  offset="0.9986" style="stop-color:#333333"/>
	</linearGradient>
	<path id="XMLID_228_" class="st1" d="M98,40.2c-54.1,0-98,25.7-98,57.5c0,31.8,43.9,57.5,98,57.5s98-25.7,98-57.5
		C196,65.9,152.1,40.2,98,40.2z M97.9,149.5c-50.9,0-92.1-23.4-92.1-52.2c0-28.8,41.2-52.2,92.1-52.2S190,68.5,190,97.3
		C190,126.1,148.8,149.5,97.9,149.5z"/>
	<path id="XMLID_241_" class="st0" d="M145.8,72.3C118.7,25.4,74.5,0.3,47,16.2C19.5,32.1,19.2,83,46.3,129.8s71.4,71.9,98.8,56
		C172.6,170,172.9,119.1,145.8,72.3z M51.1,126.9c-25.5-44-25.9-91.4-0.9-105.8c24.9-14.4,65.8,9.6,91.3,53.6s25.9,91.4,0.9,105.8
		C117.5,194.9,76.6,170.9,51.1,126.9z"/>
	
		<linearGradient id="XMLID_17_" gradientUnits="userSpaceOnUse" x1="-1138.7263" y1="1475.3579" x2="-1138.7263" y2="1360.3579" gradientTransform="matrix(0.5007 0.8656 -0.8656 0.5007 1897.4303 374.6067)">
		<stop  offset="1.142645e-03" style="stop-color:#FFFFFF"/>
		<stop  offset="1" style="stop-color:#A49FA2"/>
	</linearGradient>
	<path id="XMLID_238_" class="st2" d="M149.7,70C122.6,23.1,78.4-1.9,50.9,14c-27.5,15.9-27.8,66.8-0.7,113.6s71.4,71.9,98.8,56
		C176.5,167.7,176.8,116.9,149.7,70z M55,124.7c-25.5-44-25.9-91.4-0.9-105.8c24.9-14.4,65.8,9.6,91.3,53.6s25.9,91.4,0.9,105.8
		C121.4,192.7,80.5,168.7,55,124.7z"/>
	<path id="XMLID_234_" class="st0" d="M50.8,71.2c-28.1,46.3-28.9,97.1-1.7,113.6c27.1,16.5,71.9-7.7,100-53.9s28.9-97.1,1.7-113.6
		C123.7,0.8,78.9,25,50.8,71.2z M144.2,128.1c-26.4,43.5-67.8,66.6-92.4,51.6c-24.6-15-23.2-62.3,3.2-105.8s67.8-66.6,92.4-51.6
		C172,37.2,170.6,84.6,144.2,128.1z"/>
	
		<linearGradient id="XMLID_18_" gradientUnits="userSpaceOnUse" x1="1831.3528" y1="538.5067" x2="1831.3528" y2="423.5067" gradientTransform="matrix(0.5191 -0.8547 0.8547 0.5191 -1265.7582 1414.2809)">
		<stop  offset="1.142645e-03" style="stop-color:#FFFFFF"/>
		<stop  offset="1" style="stop-color:#A49FA2"/>
	</linearGradient>
	<path id="XMLID_231_" class="st3" d="M46.9,68.9c-28.1,46.3-28.9,97.1-1.7,113.6c27.1,16.5,71.9-7.7,100-53.9S174.1,31.5,147,15
		C119.8-1.5,75,22.6,46.9,68.9z M140.3,125.7c-26.4,43.5-67.8,66.6-92.4,51.6c-24.6-15-23.2-62.3,3.2-105.8S118.9,5,143.6,19.9
		C168.2,34.9,166.7,82.3,140.3,125.7z"/>
	<radialGradient id="XMLID_19_" cx="37.6667" cy="98.5" r="18.5" gradientUnits="userSpaceOnUse">
		<stop  offset="0" style="stop-color:#4C6CB3"/>
		<stop  offset="0.8682" style="stop-color:#1A2261"/>
	</radialGradient>
	<circle id="XMLID_244_" class="st4" cx="37.7" cy="98.5" r="18.5"/>
	<radialGradient id="XMLID_20_" cx="127.1667" cy="148" r="18.5" gradientUnits="userSpaceOnUse">
		<stop  offset="0" style="stop-color:#4C6CB3"/>
		<stop  offset="0.8682" style="stop-color:#1A2261"/>
	</radialGradient>
	<circle id="XMLID_245_" class="st5" cx="127.2" cy="148" r="18.5"/>
	<radialGradient id="XMLID_21_" cx="96.4167" cy="96.5" r="29.5" gradientUnits="userSpaceOnUse">
		<stop  offset="0" style="stop-color:#4C6CB3"/>
		<stop  offset="0.8682" style="stop-color:#1A2261"/>
	</radialGradient>
	<circle id="XMLID_246_" class="st6" cx="96.4" cy="96.5" r="29.5"/>
	<radialGradient id="XMLID_22_" cx="145.4167" cy="18.5" r="18.5" gradientUnits="userSpaceOnUse">
		<stop  offset="1.328656e-05" style="stop-color:#FFAC75"/>
		<stop  offset="1" style="stop-color:#FF0000"/>
	</radialGradient>
	<circle id="XMLID_247_" class="st7" cx="145.4" cy="18.5" r="18.5"/>
</g>
</svg>
