<?xml version="1.0" encoding="utf-8"?>
<!-- Generator: Adobe Illustrator 19.0.0, SVG Export Plug-In . SVG Version: 6.00 Build 0)  -->
<svg version="1.1" id="Слой_1" xmlns="http://www.w3.org/2000/svg" xmlns:xlink="http://www.w3.org/1999/xlink" x="0px" y="0px"
	 viewBox="0 0 228.3 145.7" style="enable-background:new 0 0 228.3 145.7;" xml:space="preserve">
<style type="text/css">
	.st0{fill:#333333;}
	.st1{fill:#CBC9CB;}
	.st2{fill:#F0EFF0;}
	.st3{fill:#A49FA2;}
	.st4{fill:url(#XMLID_15_);}
	.st5{fill:url(#XMLID_16_);}
	.st6{fill:url(#XMLID_17_);}
	.st7{fill:url(#XMLID_18_);}
	.st8{fill:url(#XMLID_19_);}
	.st9{fill:url(#XMLID_20_);}
	.st10{fill:url(#XMLID_21_);}
	.st11{fill:url(#XMLID_22_);}
	.st12{fill:url(#XMLID_23_);}
	.st13{fill:url(#XMLID_24_);}
	.st14{fill:url(#XMLID_25_);}
	.st15{fill:url(#XMLID_26_);}
</style>
<g id="XMLID_222_">
	<path id="XMLID_298_" class="st0" d="M68.2,22v30.5c0,1.2-1,2.2-2.2,2.2H40.3v4.4H66c3.6,0,6.6-3,6.6-6.6V22H68.2z"/>
	<path id="XMLID_297_" class="st0" d="M89.8,22v30.5c0,1.2,1,2.2,2.2,2.2h25.7v4.4H92.1c-3.6,0-6.6-3-6.6-6.6V22H89.8z"/>
	<rect id="XMLID_296_" x="109.2" y="54.7" class="st0" width="73.9" height="4.4"/>
	<path id="XMLID_295_" class="st0" d="M130.2,23.5c0,0.1,0,0.1,0,0.2c0,8.6-7,15.7-15.7,15.7s-15.7-7-15.7-15.7c0-0.1,0-0.1,0-0.2
		h-4.4c0,0.1,0,0.1,0,0.2c0,11.1,9,20.1,20.1,20.1s20.1-9,20.1-20.1c0-0.1,0-0.1,0-0.2H130.2z"/>
	<path id="XMLID_294_" class="st0" d="M184.6,39.3c-8.6-0.1-15.5-7.1-15.5-15.7c0-0.1,0-0.1,0-0.2h-4.4c0,0.1,0,0.1,0,0.2
		c0,11,8.9,20,19.9,20.1V39.3z"/>
	<path id="XMLID_293_" class="st0" d="M194,73.4h-19c-3.6,0-6.6,3-6.6,6.6v31.5c0,3.6,3,6.6,6.6,6.6h2.2v-4.4H175
		c-1.2,0-2.2-1-2.2-2.2V80c0-1.2,1-2.2,2.2-2.2h19c1.2,0,2.2,1,2.2,2.2v31.5c0,1.2-1,2.2-2.2,2.2h-2.6v4.4h2.6c3.6,0,6.6-3,6.6-6.6
		V80C200.6,76.3,197.7,73.4,194,73.4z"/>
	<path id="XMLID_292_" class="st0" d="M59.2,79.4l-0.1-0.1c-0.2-0.4-0.4-0.8-0.6-1.2c-1.1-2-2.3-4.4-5.7-4.4H32.6
		c-3.5,0-4.8,2.7-5.9,4.8c-0.1,0.3-0.3,0.5-0.4,0.8l-8.6,16.3l8.6,14.8c0.2,0.4,0.4,0.8,0.6,1.1c1.1,2.1,2.4,4.4,5.7,4.4h1.9v-4.4
		h-1.9c-0.6,0-0.7,0-1.8-2.1c-0.2-0.4-0.4-0.8-0.7-1.2l-7.4-12.7l7.4-14.1c0.2-0.3,0.3-0.6,0.4-0.8c1.1-2.2,1.4-2.4,2-2.4h20.2
		c0.6,0,0.7,0,1.8,2c0.2,0.4,0.4,0.8,0.6,1.2l6.9,14.2l-6.8,12.7c-0.3,0.5-0.6,1-0.8,1.4c-1,1.9-1.1,1.9-1.7,1.9h-1.9v4.4h1.9
		c3.3,0,4.5-2.1,5.6-4.2c0.2-0.4,0.5-0.8,0.8-1.4L67,95.6L59.2,79.4z"/>
	<path id="XMLID_291_" class="st0" d="M224.3,23.9H4c-2.2,0-4-1.8-4-4v-9.3c0-2.2,1.8-4,4-4h220.3c2.2,0,4,1.8,4,4v9.3
		C228.3,22.1,226.5,23.9,224.3,23.9z"/>
	<path id="XMLID_290_" class="st1" d="M224.3,17.3H4c-2.2,0-4-1.8-4-4V4c0-2.2,1.8-4,4-4h220.3c2.2,0,4,1.8,4,4v9.3
		C228.3,15.5,226.5,17.3,224.3,17.3z"/>
	<path id="XMLID_289_" class="st2" d="M212,13.2H15.9c-2.2,0-4-1.8-4-4V8.4c0-2.2,1.8-4,4-4H212c2.2,0,4,1.8,4,4v0.8
		C216,11.4,214.2,13.2,212,13.2z"/>
	<rect id="XMLID_288_" x="110.6" y="29.9" class="st3" width="7.7" height="45.1"/>
	
		<rect id="XMLID_287_" x="94.3" y="69.9" transform="matrix(0.7168 0.6973 -0.6973 0.7168 92.2783 -42.2234)" class="st3" width="7.7" height="45.1"/>
	<radialGradient id="XMLID_15_" cx="114.7987" cy="29.794" r="10.2717" gradientUnits="userSpaceOnUse">
		<stop  offset="0" style="stop-color:#4C6CB3"/>
		<stop  offset="1" style="stop-color:#1A2261"/>
	</radialGradient>
	<path id="XMLID_286_" class="st4" d="M101.6,23.6c0.5,6.9,6.2,12.3,13.2,12.3s12.7-5.4,13.2-12.3H101.6z"/>
	<rect id="XMLID_285_" x="38.8" y="30.1" class="st3" width="7.7" height="45.1"/>
	<radialGradient id="XMLID_16_" cx="43.252" cy="29.794" r="10.2717" gradientUnits="userSpaceOnUse">
		<stop  offset="0" style="stop-color:#4C6CB3"/>
		<stop  offset="1" style="stop-color:#1A2261"/>
	</radialGradient>
	<path id="XMLID_284_" class="st5" d="M30.1,23.6c0.5,6.9,6.2,12.3,13.2,12.3s12.7-5.4,13.2-12.3H30.1z"/>
	<radialGradient id="XMLID_17_" cx="42.5181" cy="74.8317" r="6.9712" gradientUnits="userSpaceOnUse">
		<stop  offset="0" style="stop-color:#4C6CB3"/>
		<stop  offset="1" style="stop-color:#1A2261"/>
	</radialGradient>
	<circle id="XMLID_283_" class="st6" cx="42.5" cy="74.8" r="7"/>
	<rect id="XMLID_282_" x="180.8" y="30.1" class="st3" width="7.7" height="45.1"/>
	<radialGradient id="XMLID_18_" cx="185.2447" cy="29.794" r="10.2717" gradientUnits="userSpaceOnUse">
		<stop  offset="0" style="stop-color:#4C6CB3"/>
		<stop  offset="1" style="stop-color:#1A2261"/>
	</radialGradient>
	<path id="XMLID_281_" class="st7" d="M172.1,23.6c0.5,6.9,6.2,12.3,13.2,12.3s12.7-5.4,13.2-12.3H172.1z"/>
	<radialGradient id="XMLID_19_" cx="184.5109" cy="74.8317" r="6.9712" gradientUnits="userSpaceOnUse">
		<stop  offset="0" style="stop-color:#4C6CB3"/>
		<stop  offset="1" style="stop-color:#1A2261"/>
	</radialGradient>
	<circle id="XMLID_280_" class="st8" cx="184.5" cy="74.8" r="7"/>
	<path id="XMLID_279_" class="st0" d="M102.4,104c-1,3.9-1.9,7.8-2.9,11.7c-16.8,10-33.7,20-50.5,30
		C66.8,131.8,84.7,117.9,102.4,104z"/>
	<path id="XMLID_278_" class="st2" d="M83.5,87.8c6.3,5.4,12.6,10.8,18.9,16.2c-17.8,13.9-35.6,27.8-53.4,41.7
		C60.5,126.4,72,107.1,83.5,87.8z"/>
	<path id="XMLID_277_" class="st1" d="M83.5,87.8c6.3,5.4,10.4,9.1,10.4,9.1L49,145.7C49,145.7,72,107.1,83.5,87.8z"/>
	<polygon id="XMLID_276_" class="st0" points="59.9,127.8 65.6,132.8 49,145.7 	"/>
	<radialGradient id="XMLID_20_" cx="114.2483" cy="74.6483" r="6.9712" gradientUnits="userSpaceOnUse">
		<stop  offset="0" style="stop-color:#4C6CB3"/>
		<stop  offset="1" style="stop-color:#1A2261"/>
	</radialGradient>
	<circle id="XMLID_275_" class="st9" cx="114.2" cy="74.6" r="7"/>
</g>
<g id="XMLID_249_">
	<path id="XMLID_273_" class="st0" d="M68.2,22v30.5c0,1.2-1,2.2-2.2,2.2H40.3v4.4H66c3.6,0,6.6-3,6.6-6.6V22H68.2z"/>
	<path id="XMLID_272_" class="st0" d="M89.8,22v30.5c0,1.2,1,2.2,2.2,2.2h25.7v4.4H92.1c-3.6,0-6.6-3-6.6-6.6V22H89.8z"/>
	<rect id="XMLID_271_" x="109.2" y="54.7" class="st0" width="73.9" height="4.4"/>
	<path id="XMLID_270_" class="st0" d="M130.2,23.5c0,0.1,0,0.1,0,0.2c0,8.6-7,15.7-15.7,15.7s-15.7-7-15.7-15.7c0-0.1,0-0.1,0-0.2
		h-4.4c0,0.1,0,0.1,0,0.2c0,11.1,9,20.1,20.1,20.1s20.1-9,20.1-20.1c0-0.1,0-0.1,0-0.2H130.2z"/>
	<path id="XMLID_269_" class="st0" d="M184.6,39.3c-8.6-0.1-15.5-7.1-15.5-15.7c0-0.1,0-0.1,0-0.2h-4.4c0,0.1,0,0.1,0,0.2
		c0,11,8.9,20,19.9,20.1V39.3z"/>
	<path id="XMLID_268_" class="st0" d="M194,73.4h-19c-3.6,0-6.6,3-6.6,6.6v31.5c0,3.6,3,6.6,6.6,6.6h2.2v-4.4H175
		c-1.2,0-2.2-1-2.2-2.2V80c0-1.2,1-2.2,2.2-2.2h19c1.2,0,2.2,1,2.2,2.2v31.5c0,1.2-1,2.2-2.2,2.2h-2.6v4.4h2.6c3.6,0,6.6-3,6.6-6.6
		V80C200.6,76.3,197.7,73.4,194,73.4z"/>
	<path id="XMLID_267_" class="st0" d="M59.2,79.4l-0.1-0.1c-0.2-0.4-0.4-0.8-0.6-1.2c-1.1-2-2.3-4.4-5.7-4.4H32.6
		c-3.5,0-4.8,2.7-5.9,4.8c-0.1,0.3-0.3,0.5-0.4,0.8l-8.6,16.3l8.6,14.8c0.2,0.4,0.4,0.8,0.6,1.1c1.1,2.1,2.4,4.4,5.7,4.4h1.9v-4.4
		h-1.9c-0.6,0-0.7,0-1.8-2.1c-0.2-0.4-0.4-0.8-0.7-1.2l-7.4-12.7l7.4-14.1c0.2-0.3,0.3-0.6,0.4-0.8c1.1-2.2,1.4-2.4,2-2.4h20.2
		c0.6,0,0.7,0,1.8,2c0.2,0.4,0.4,0.8,0.6,1.2l6.9,14.2l-6.8,12.7c-0.3,0.5-0.6,1-0.8,1.4c-1,1.9-1.1,1.9-1.7,1.9h-1.9v4.4h1.9
		c3.3,0,4.5-2.1,5.6-4.2c0.2-0.4,0.5-0.8,0.8-1.4L67,95.6L59.2,79.4z"/>
	<path id="XMLID_266_" class="st0" d="M224.3,23.9H4c-2.2,0-4-1.8-4-4v-9.3c0-2.2,1.8-4,4-4h220.3c2.2,0,4,1.8,4,4v9.3
		C228.3,22.1,226.5,23.9,224.3,23.9z"/>
	<path id="XMLID_265_" class="st1" d="M224.3,17.3H4c-2.2,0-4-1.8-4-4V4c0-2.2,1.8-4,4-4h220.3c2.2,0,4,1.8,4,4v9.3
		C228.3,15.5,226.5,17.3,224.3,17.3z"/>
	<path id="XMLID_264_" class="st2" d="M212,13.2H15.9c-2.2,0-4-1.8-4-4V8.4c0-2.2,1.8-4,4-4H212c2.2,0,4,1.8,4,4v0.8
		C216,11.4,214.2,13.2,212,13.2z"/>
	<rect id="XMLID_263_" x="110.6" y="29.9" class="st3" width="7.7" height="45.1"/>
	
		<rect id="XMLID_262_" x="94.3" y="69.9" transform="matrix(0.7168 0.6973 -0.6973 0.7168 92.2783 -42.2234)" class="st3" width="7.7" height="45.1"/>
	<radialGradient id="XMLID_21_" cx="114.7987" cy="29.794" r="10.2717" gradientUnits="userSpaceOnUse">
		<stop  offset="0" style="stop-color:#4C6CB3"/>
		<stop  offset="1" style="stop-color:#1A2261"/>
	</radialGradient>
	<path id="XMLID_261_" class="st10" d="M101.6,23.6c0.5,6.9,6.2,12.3,13.2,12.3s12.7-5.4,13.2-12.3H101.6z"/>
	<rect id="XMLID_260_" x="38.8" y="30.1" class="st3" width="7.7" height="45.1"/>
	<radialGradient id="XMLID_22_" cx="43.252" cy="29.794" r="10.2717" gradientUnits="userSpaceOnUse">
		<stop  offset="0" style="stop-color:#4C6CB3"/>
		<stop  offset="1" style="stop-color:#1A2261"/>
	</radialGradient>
	<path id="XMLID_259_" class="st11" d="M30.1,23.6c0.5,6.9,6.2,12.3,13.2,12.3s12.7-5.4,13.2-12.3H30.1z"/>
	<radialGradient id="XMLID_23_" cx="42.5181" cy="74.8317" r="6.9712" gradientUnits="userSpaceOnUse">
		<stop  offset="0" style="stop-color:#4C6CB3"/>
		<stop  offset="1" style="stop-color:#1A2261"/>
	</radialGradient>
	<circle id="XMLID_258_" class="st12" cx="42.5" cy="74.8" r="7"/>
	<rect id="XMLID_257_" x="180.8" y="30.1" class="st3" width="7.7" height="45.1"/>
	<radialGradient id="XMLID_24_" cx="185.2447" cy="29.794" r="10.2717" gradientUnits="userSpaceOnUse">
		<stop  offset="0" style="stop-color:#4C6CB3"/>
		<stop  offset="1" style="stop-color:#1A2261"/>
	</radialGradient>
	<path id="XMLID_256_" class="st13" d="M172.1,23.6c0.5,6.9,6.2,12.3,13.2,12.3s12.7-5.4,13.2-12.3H172.1z"/>
	<radialGradient id="XMLID_25_" cx="184.5109" cy="74.8317" r="6.9712" gradientUnits="userSpaceOnUse">
		<stop  offset="0" style="stop-color:#4C6CB3"/>
		<stop  offset="1" style="stop-color:#1A2261"/>
	</radialGradient>
	<circle id="XMLID_255_" class="st14" cx="184.5" cy="74.8" r="7"/>
	<path id="XMLID_254_" class="st0" d="M102.4,104c-1,3.9-1.9,7.8-2.9,11.7c-16.8,10-33.7,20-50.5,30
		C66.8,131.8,84.7,117.9,102.4,104z"/>
	<path id="XMLID_253_" class="st2" d="M83.5,87.8c6.3,5.4,12.6,10.8,18.9,16.2c-17.8,13.9-35.6,27.8-53.4,41.7
		C60.5,126.4,72,107.1,83.5,87.8z"/>
	<path id="XMLID_252_" class="st1" d="M83.5,87.8c6.3,5.4,10.4,9.1,10.4,9.1L49,145.7C49,145.7,72,107.1,83.5,87.8z"/>
	<polygon id="XMLID_251_" class="st0" points="59.9,127.8 65.6,132.8 49,145.7 	"/>
	<radialGradient id="XMLID_26_" cx="114.2483" cy="74.6483" r="6.9712" gradientUnits="userSpaceOnUse">
		<stop  offset="0" style="stop-color:#4C6CB3"/>
		<stop  offset="1" style="stop-color:#1A2261"/>
	</radialGradient>
	<circle id="XMLID_250_" class="st15" cx="114.2" cy="74.6" r="7"/>
</g>
</svg>
